<?xml version="1.0" encoding="utf-8"?>
<!-- Generator: Adobe Illustrator 18.1.1, SVG Export Plug-In . SVG Version: 6.00 Build 0)  -->
<svg version="1.1" id="Layer_1" xmlns="http://www.w3.org/2000/svg" xmlns:xlink="http://www.w3.org/1999/xlink" x="0px" y="0px"
	 viewBox="0 0 637.3 115.2" enable-background="new 0 0 637.3 115.2" xml:space="preserve">
<g>
	<path fill="#EFEFEF" d="M107.7,10.5c0,3.6-2.4,9.8-7.3,18.7c-6.4,11.5-9.6,17.5-9.8,17.9c-2,4.1-4.4,9.2-7.1,15.3
		c-3.4,7.5-6,14-7.9,19.4c-2.5,7.2-4,12.6-4.4,16.2v4.8c0,2.3,0,3.8-0.1,4.4c-0.4,2.2-1.4,3.2-3.1,3.2c-0.5,0-0.9,0-1.2-0.1
		c-2.9-0.4-4.3-3-4.3-7.7c0-4,0.9-9.2,2.7-15.5c1.5-5.3,3.2-9.8,4.9-13.4c3.3-7.4,6.4-14.2,9.5-20.5c2.3-4.6,5-9.8,8.2-15.7
		c1.9-3.6,4.6-8.4,8-14.6c-3.6,3.8-8.6,10-14.8,18.7c-5.1,7-10.4,14.8-15.9,23.3c-0.7,1.1-4.8,7.4-12.1,18.8
		c-1.5,2.2-2.9,3.9-4.4,4.9c-1.5,1-2.9,1.5-4.2,1.5c-1.3,0-2.3-0.5-3.1-1.5c-0.8-1-1.2-2.3-1.2-3.9c0-5.9,1-12,2.9-18.4
		c1.6-5.6,4.2-12,7.8-19.3c2.6-5.2,4.7-9.3,6.1-12.4c1.9-4,3.1-6.6,3.5-7.6c-3.3,2.7-8.1,9.3-14.4,19.7C40.7,55.6,35,65.8,29,77.4
		c-5.4,10.3-9.5,18.7-12.4,25c-1.2,2.4-2.3,4.9-3.4,7.3c-1.3,2.4-3,3.7-5.2,3.7c-1.9,0-2.9-0.9-2.9-2.8c0-1.6,0.7-3.9,2.2-7
		c1.9-3.7,3.2-6.4,3.9-7.9c4-8.9,9.1-18.7,15.2-29.5c7-12.2,13.7-22.6,20.1-31.4c5.4-7.2,8.3-11.2,9-12c3.5-4.5,6.3-7.6,8.2-9.4
		c2.6-2.4,4.9-3.7,6.7-3.7c2.4,0,3.7,1.2,3.7,3.5c0.1,0.6-0.1,1.8-0.7,3.8c-7.7,16.1-13.7,29-17.8,38.7c-4.5,10.5-6.8,18.3-6.8,23.3
		c1.6-2.5,4.8-7.2,9.4-14.1c3.4-5,6.7-9.9,10.1-14.9c4-5.9,7.1-10.6,9.4-14.2c7.1-10.7,13-18.4,17.7-23.2c4-4,7.1-6,9.4-6
		c1,0,1.7,0.4,2.2,1.1C107.5,8.5,107.7,9.4,107.7,10.5z"/>
	<path fill="#EFEFEF" d="M131.1,29.6c0,3.7-2,8.1-6,13.4c-4,5.2-7.4,7.9-10.1,7.9c-1.7,0-2.6-0.7-2.6-2.2c-0.1-0.9,0.5-2,1.7-3.3
		c2.3-2,4.5-5.2,6.5-9.5c3.3-7.3,5.7-10.9,7.3-10.9c0.9,0,1.7,0.4,2.3,1.2C130.8,26.8,131.1,28,131.1,29.6z"/>
	<path fill="#EFEFEF" d="M187.5,10.4c0.8,0,1.5,0.5,2.2,1.4c0.6,0.9,1,2,1,3.2c0,0.8-0.9,3.3-2.6,7.3v3.4c0,11.1-1.4,16.6-4.1,16.6
		c-1.1,0-1.7-0.2-2-0.6c-0.2-0.4-0.3-1.2-0.3-2.4c-0.1-2.1-0.2-3.4-0.3-4.1c-6.8,12.5-11.7,21.8-14.6,28c1.2,2,1.8,3.8,1.8,5.6
		c-0.2,1.1-2.4,2.5-6.8,4.2l-7.1,16.5c-2.3,6-3.7,11-4.3,14.9c-0.6,3.9-2.3,5.9-5.2,5.9c-2.4,0-3.5-1.4-3.5-4.1
		c0-4,1.3-9.6,3.9-16.6l3.7-8.9c-18.4,12.6-30.1,21.7-35.1,27.4c-1.6,1.8-3.1,2.7-4.4,2.7c-2,0-3-1.4-3-4.1
		c0-3.9,6.7-10.7,20.1-20.2c7.5-5.4,14.7-10.3,21.5-14.5c-1.8,0.3-3.5,0.4-5.2,0.4c-11.5,0-17.3-5.6-17.3-16.9
		c0.8-11.2,6.7-20.8,17.7-28.5c9.3-6.6,18.9-9.8,28.8-9.8c3.5,0,6.4,0.3,8.7,1C183.4,13,185.5,10.4,187.5,10.4z M144.2,64.7
		c3.7,0,8.1-0.6,13.1-1.7l20-36.8c-2-0.5-4.1-0.7-6.3-0.8c-8.8,0-17.6,3.8-26.4,11.2c-8.3,7.1-12.7,13.3-13.1,18.4
		C131.6,61.4,135.8,64.7,144.2,64.7z"/>
	<path fill="#EFEFEF" d="M273.6,10.9c0,3.2-6,5.1-18,5.8c-4.8,0.3-12,0.4-21.5,0.4c0.2,0.3,0.3,0.8,0.3,1.7c0,1.6-1.1,4-3.3,7.3
		c-3.3,5-5.1,7.9-5.6,8.7c-3.8,7.2-7.6,14.4-11.4,21.5c-5.3,9.9-9.3,18-12.1,24.2c-4.2,9.1-7,16.8-8.6,23.1c-0.5,2.2-1.1,3.7-2,4.7
		c-0.9,1-1.8,1.5-2.9,1.5c-1.1,0-2-0.7-2.9-2s-1.2-2.9-1.2-4.8c0-4.5,2.9-12.6,8.6-24.2c2.9-6,8.8-16.9,17.8-32.6
		c7.7-13.6,12.6-22.5,14.7-26.9c-5.2,0.6-10.1,1.5-14.7,2.7c-4.6,1.2-9.2,2.4-13.7,3.7c-2.7,0-4.1-1.1-4.1-3.4
		c0-1.7,1.5-3.2,4.5-4.6c3-1.4,6.3-2.3,9.8-2.7c10.3-3,21.8-5.2,34.3-6.5c8.7-0.9,16.9-1.4,24.6-1.4c2.4,0,4.3,0.4,5.5,1.1
		C273,9,273.6,9.9,273.6,10.9z"/>
	<path fill="#EFEFEF" d="M310.2,12.5c-0.4,3.5-2.5,11.2-6.5,23.3c-2.7,8.2-4.5,13.7-5.3,16.7l3.5-0.6c3.8,0,5.7,1.1,5.7,3.2
		c0,1.4-1,2.6-2.9,3.6c-1.9,1-4.8,1.5-8.6,1.5c-3.3,12.7-5.4,24-6.4,33.9c-1,9.9-2.5,14.9-4.4,14.9c-1.6,0-2.8-0.9-3.5-2.6
		s-1-4.3-1-7.7c0-3.9,0.5-8.7,1.5-14.3c0.5-2.7,2.2-10.4,5.2-23.1l-26.8,7.7c-5.5,8.8-10.6,17.7-15.3,26.6
		c-4.7,8.9-8.5,13.4-11.4,13.4c-1.4,0-2-0.8-2-2.4c0-3.1,3.1-9.8,9.3-20.2c2.5-4.2,5.1-8.5,7.8-12.8c-2.8,1.2-5,2.1-6.6,2.7
		c-1.6,0.6-2.9,0.9-3.9,0.9c-1.6,0.2-2.4-0.7-2.4-2.5c0-2.3,2.8-4.5,8.3-6.9c4.4-1.8,8.8-3.6,13.2-5.3c8.3-12.9,17.4-25.2,27.5-36.8
		c10.5-12.2,17.6-18.3,21.2-18.3C308.9,7.4,310.2,9.1,310.2,12.5z M299.5,21.6c-3.4,2-8.8,7.7-16.3,17.2c-6.5,8.2-11.5,15-14.8,20.6
		l21.5-5.8c0.6-3,3-10.4,7.1-22.3C298.6,26.4,299.5,23.1,299.5,21.6z"/>
	<path fill="#EFEFEF" d="M400.5,42.8c0,3.4-1.1,7.1-3.3,11.2c-2.2,4.1-5.1,7.9-8.6,11.6c-0.7,0.7-1.3,1.2-1.9,1.5
		c-0.6,0.3-1.3,0.4-1.9,0.4c-1.8,0-2.8-0.9-2.8-2.6c0-0.7,0.2-1.4,0.6-2.1c0.4-0.7,1.1-1.4,1.9-2.1c3.9-3.1,7-6.5,9.3-10.2
		c2-3.2,3-5.9,3-8.3c0-2.3-1-3.5-3-3.5c-2.9,0-6.8,2.5-11.7,7.4c-3.8,3.9-8,9-12.6,15.4c-4,5.7-6.8,10.1-8.3,13.2
		c-2.1,4.2-3.7,8.1-4.7,11.7c-1.1,3.6-1.6,6.7-1.6,9.2c0,3,0.6,5.4,1.8,7c1.2,1.6,2.9,2.4,4.9,2.4c3.3,0,6.8-1.5,10.7-4.6
		c4.3-3.4,8.3-8.4,12.1-14.9c0.7-0.9,1.4-1.7,2.1-2.2c0.7-0.6,1.4-0.8,1.9-0.8c0.4,0,0.6,0.2,0.6,0.7c0,0.7-0.2,1.5-0.6,2.3
		c-4.1,7.9-8.9,14.1-14.6,18.6c-5.2,4.1-10.1,6.2-14.7,6.2c-3.4,0-6.1-1.1-8.2-3.3s-3.1-5.5-3.1-9.8c0-3.2,0.6-6.8,1.8-10.8
		c1.2-3.9,3.1-8.4,5.8-13.4c3.9-8.4,9.6-16.7,17-25c8.4-9.2,15.2-13.8,20.5-13.8c2,0,3.8,0.8,5.2,2.5
		C399.7,38.4,400.5,40.4,400.5,42.8z"/>
	<path fill="#EFEFEF" d="M444.2,110.1c-1.8-0.2-3.5-1.3-5-3.1c-0.7-0.8-1-2-1-3.4c0-0.4,0.1-1.2,0.4-2.3c1.1-4.2,3-9.5,5.8-15.7
		c1.4-3,3.7-8,7-15l3.3-6.6c1.1-2,3-5.3,5.6-9.8c4.4-7.3,7.1-12.2,8.3-14.8l-3.8,0.1c-3.7,0.2-7.3,0.4-10.8,0.5
		c-2.9,0.3-5.3,0.5-7.2,0.7c-3.1,8.9-6.3,17.1-9.6,24.5c-5.2,11.5-10.5,20.6-16,27.3c-7,8.6-13.9,12.9-20.6,12.9
		c-2.9,0-5.1-1.1-6.6-3.2c-1.5-2.1-2.2-4.9-2.2-8.3c0-4.6,1.2-9.7,3.6-15.3c2.7-6.1,6-11,10.1-14.7c1.8-1.6,3.2-2.4,4.1-2.4
		c0.7,0,1,0.5,1,1.5c0,1.8-0.9,3.7-2.7,5.9c-3.1,3.8-5.5,7.7-7,11.7c-1.6,4-2.3,7.7-2.3,11c0,2.7,0.5,4.9,1.4,6.5
		c0.9,1.6,2.2,2.4,3.9,2.4c2.6,0,5.4-1.7,8.6-5.2c2.8-3.1,5.3-6.9,7.6-11.4c3.8-7.9,7.7-15.9,11.5-23.8c5-10.5,7.9-17,8.6-19.4
		c-1.6,0-3.6,0.4-6.1,1.2c-5.7,1.8-8.9,2.6-9.6,2.6c-1.7,0-2.7-0.7-2.9-2.1c-0.3-2.2,2.8-4.3,9.4-6.3c6.6-1.9,12.9-2.9,18.7-2.9
		c2.7,0,4.8,0.1,6.4,0.3c6.1,0.2,11.3,0.4,15.8,0.5c1-0.8,1.9-1.3,2.8-1.3c0.9,0,1.4,0.5,1.6,1.5c9.8,0.4,15,0.6,15.5,0.6
		c0.9,0.1,1.5,0.3,1.8,0.4c1.6,0.6,2.1,2,1.5,4.3c-0.5,2.1-1.9,2.9-4,2.4c-2.1-0.5-6.7-1.2-13.7-2.2c-0.7-0.1-1.4-0.1-2.1-0.2
		c-1,2.3-2.5,5.3-4.6,9.2l-11.9,20.1c-2.4,5.1-4.3,8.9-5.5,11.6c-2.2,4.7-4,9-5.5,13c-1.5,3.9-2.4,6.7-2.7,8.3
		c-0.3,1.6,0.4,2.5,2,2.7c1,0.2,2.4,0,4.3-0.7c1.9-0.7,3.2-0.9,3.8-0.7c1.5,0.4,2,1.1,1.5,2.2c-0.3,1.5-2,2.8-5.1,3.7
		C448.5,110,446.1,110.4,444.2,110.1z"/>
	<path fill="#EFEFEF" d="M541.8,38.8c0,1.3-0.5,2.5-1.5,3.6c-4.2,4.8-9.7,14.7-16.5,29.7c-6.8,15-10.2,24.9-10.2,29.8
		c0,0.6,0,0.9,0,1.2l0.3,1.8c0,2.2-0.9,3.3-2.6,3.3c-1,0-2-0.5-2.8-1.5c-0.9-1-1.3-2.5-1.3-4.4c0-2.7,0.8-6.4,2.4-11.1
		c1.2-3.4,3.2-8.2,5.9-14.3c1.4-3.1,3.6-7.9,6.8-14.4c-7.6,10.3-13.9,18.7-19,25.4c-5.6,7.5-9.8,12.6-12.3,15.3
		c-3.6,3.7-6.9,5.6-9.9,5.6c-1.8,0-3.3-0.8-4.4-2.4c-1.1-1.6-1.7-3.8-1.7-6.6c0-5.8,2.4-13.6,7.1-23.3c3.9-7.8,8.8-16.1,14.9-24.7
		c5.4-7.6,9.5-12.6,12.5-15.1c2-1.5,3.5-2.3,4.6-2.3c0.4,0,0.8,0.2,1.2,0.5c0.4,0.3,0.5,0.9,0.5,1.7c0,1.3-0.4,2.5-1.3,3.4
		c-3.3,3.5-7.6,8.9-12.7,16.4c-5.5,8-10.1,15.7-13.9,23.1c-4.4,8.7-6.6,15-6.6,19.1c0,2,0.6,3,1.8,3c2.1,0,6.6-4.4,13.6-13.1
		c2.9-3.7,9.7-12.7,20.3-27c8.6-11.7,14.7-19.3,18.3-23c1.4-1.5,2.8-2.2,4-2.2C541,36,541.8,37,541.8,38.8z"/>
	<path fill="#EFEFEF" d="M593.3,35.7c0,1.8-1.9,6.2-5.7,13.1c-3.3,5.9-6.2,10.7-8.8,14.3c0.5,0,1.2-0.1,2-0.2
		c0.9-0.1,1.5-0.2,1.8-0.2c1.7,0,2.6,0.9,2.6,2.8c0,1.8-1.1,2.7-3.2,2.9c-2.1,0.2-4.3,0.3-6.4,0.5c-2.4,5.1-4.3,8.9-5.5,11.6
		c-2.2,4.7-4,9-5.5,13c-1.8,4.8-3,8.5-3.5,11.2c-0.5,2.5-1.5,3.7-2.9,3.7c-0.8,0-1.5-0.4-2.2-1.3c-0.6-0.9-1-2-1-3.4
		c0-0.4,0.1-1.2,0.4-2.3c1.1-4.2,3-9.5,5.8-15.7c1.4-3,3.7-8,7-15c-3.3,0.6-7.3,1.7-12.1,3.3c-3.5,1.1-6.9,2.3-10.3,3.4
		c-4.4,10.1-6.8,15.7-7.2,16.9c-1.7,4.5-2.8,8.3-3.3,11.3c-0.2,1.4-0.7,2.5-1.4,3.2c-0.7,0.7-1.5,1.1-2.5,1.1c-2.1,0-3-1.4-2.6-4.3
		c0.3-3.1,1.2-6.8,2.9-11.2c2-4.9,4-9.7,6-14.6c-1.9,1.2-3.2,1.8-3.9,1.8c-1.2,0-1.7-0.9-1.7-2.6c0-2,1.6-3.6,4.9-4.6
		c1.3-0.4,2.6-0.7,3.9-1.2c1.4-2.8,5.2-9.6,11.3-20.5c4.2-7.5,7.4-14,9.6-19.4c0.5-1.3,1-2.3,1.6-2.9c0.6-0.6,1.2-0.9,1.9-0.9
		c0.6,0,1.1,0.4,1.6,1.1c0.4,0.7,0.7,1.5,0.7,2.4c0,2-1.3,5.6-3.9,10.8c-1.8,3.7-4.4,8.6-7.8,14.7c-3.4,6-5.4,9.9-6.1,11.5l21.7-5.8
		c1.1-2,3-5.3,5.6-9.8c5-8.4,7.9-13.6,8.7-15.6c0.8-2,1.7-3.5,2.7-4.4c1-0.9,1.9-1.4,2.9-1.4C592.6,32.8,593.3,33.8,593.3,35.7z"/>
	<path fill="#EFEFEF" d="M634.3,36.4c-0.3,2.6-1.9,8.4-4.9,17.5c-2,6.1-3.4,10.3-4,12.5l2.7-0.4c2.9,0,4.3,0.8,4.3,2.4
		c0,1.1-0.7,2-2.1,2.7c-1.4,0.7-3.6,1.1-6.4,1.1c-2.4,9.5-4,18-4.8,25.4c-0.7,7.5-1.8,11.2-3.3,11.2c-1.2,0-2.1-0.7-2.6-2
		c-0.5-1.3-0.8-3.2-0.8-5.7c0-3,0.4-6.5,1.1-10.8c0.3-2,1.6-7.8,3.9-17.3l-20.1,5.8c-4.2,6.6-8,13.3-11.5,19.9
		c-3.5,6.7-6.3,10-8.5,10c-1,0-1.5-0.6-1.5-1.8c0-2.3,2.3-7.4,6.9-15.2c1.9-3.2,3.8-6.4,5.8-9.6c-2.1,0.9-3.8,1.6-4.9,2.1
		c-1.2,0.5-2.2,0.7-2.9,0.7c-1.2,0.1-1.8-0.5-1.8-1.9c0-1.7,2.1-3.4,6.2-5.2c3.3-1.3,6.6-2.7,9.9-4c6.2-9.7,13.1-18.9,20.6-27.6
		c7.9-9.1,13.2-13.7,15.9-13.7C633.3,32.6,634.3,33.8,634.3,36.4z M626.2,43.2c-2.5,1.5-6.6,5.8-12.2,12.9
		c-4.9,6.1-8.6,11.3-11.1,15.4l16.1-4.3c0.5-2.2,2.2-7.8,5.3-16.7C625.6,46.8,626.2,44.3,626.2,43.2z"/>
</g>
<g>
	<path fill="#98FF98" d="M107.7,9.5c0,3.6-2.4,9.8-7.3,18.7c-6.4,11.5-9.6,17.5-9.8,17.9c-2,4.1-4.4,9.2-7.1,15.3
		c-3.4,7.5-6,14-7.9,19.4c-2.5,7.2-4,12.6-4.4,16.2v4.8c0,2.3,0,3.8-0.1,4.4c-0.4,2.2-1.4,3.2-3.1,3.2c-0.5,0-0.9,0-1.2-0.1
		c-2.9-0.4-4.3-3-4.3-7.7c0-4,0.9-9.2,2.7-15.5c1.5-5.3,3.2-9.8,4.9-13.4c3.3-7.4,6.4-14.2,9.5-20.5c2.3-4.6,5-9.8,8.2-15.7
		c1.9-3.6,4.6-8.4,8-14.6c-3.6,3.8-8.6,10-14.8,18.7c-5.1,7-10.4,14.8-15.9,23.3c-0.7,1.1-4.8,7.4-12.1,18.8
		c-1.5,2.2-2.9,3.9-4.4,4.9c-1.5,1-2.9,1.5-4.2,1.5c-1.3,0-2.3-0.5-3.1-1.5c-0.8-1-1.2-2.3-1.2-3.9c0-5.9,1-12,2.9-18.4
		c1.6-5.6,4.2-12,7.8-19.3c2.6-5.2,4.7-9.3,6.1-12.4c1.9-4,3.1-6.6,3.5-7.6c-3.3,2.7-8.1,9.3-14.4,19.7C40.7,54.6,35,64.8,29,76.4
		c-5.4,10.3-9.5,18.7-12.4,25c-1.2,2.4-2.3,4.9-3.4,7.3c-1.3,2.4-3,3.7-5.2,3.7c-1.9,0-2.9-0.9-2.9-2.8c0-1.6,0.7-3.9,2.2-7
		c1.9-3.7,3.2-6.4,3.9-7.9c4-8.9,9.1-18.7,15.2-29.5c7-12.2,13.7-22.6,20.1-31.4c5.4-7.2,8.3-11.2,9-12c3.5-4.5,6.3-7.6,8.2-9.4
		c2.6-2.4,4.9-3.7,6.7-3.7c2.4,0,3.7,1.2,3.7,3.5c0.1,0.6-0.1,1.8-0.7,3.8c-7.7,16.1-13.7,29-17.8,38.7c-4.5,10.5-6.8,18.3-6.8,23.3
		c1.6-2.5,4.8-7.2,9.4-14.1c3.4-5,6.7-9.9,10.1-14.9c4-5.9,7.1-10.6,9.4-14.2c7.1-10.7,13-18.4,17.7-23.2c4-4,7.1-6,9.4-6
		c1,0,1.7,0.4,2.2,1.1C107.5,7.5,107.7,8.4,107.7,9.5z"/>
	<path fill="#98FF98" d="M131.1,28.6c0,3.7-2,8.1-6,13.4c-4,5.2-7.4,7.9-10.1,7.9c-1.7,0-2.6-0.7-2.6-2.2c-0.1-0.9,0.5-2,1.7-3.3
		c2.3-2,4.5-5.2,6.5-9.5c3.3-7.3,5.7-10.9,7.3-10.9c0.9,0,1.7,0.4,2.3,1.2C130.8,25.8,131.1,27,131.1,28.6z"/>
	<path fill="#98FF98" d="M187.5,9.4c0.8,0,1.5,0.5,2.2,1.4c0.6,0.9,1,2,1,3.2c0,0.8-0.9,3.3-2.6,7.3v3.4c0,11.1-1.4,16.6-4.1,16.6
		c-1.1,0-1.7-0.2-2-0.6c-0.2-0.4-0.3-1.2-0.3-2.4c-0.1-2.1-0.2-3.4-0.3-4.1c-6.8,12.5-11.7,21.8-14.6,28c1.2,2,1.8,3.8,1.8,5.6
		c-0.2,1.1-2.4,2.5-6.8,4.2l-7.1,16.5c-2.3,6-3.7,11-4.3,14.9c-0.6,3.9-2.3,5.9-5.2,5.9c-2.4,0-3.5-1.4-3.5-4.1
		c0-4,1.3-9.6,3.9-16.6l3.7-8.9c-18.4,12.6-30.1,21.7-35.1,27.4c-1.6,1.8-3.1,2.7-4.4,2.7c-2,0-3-1.4-3-4.1
		c0-3.9,6.7-10.7,20.1-20.2c7.5-5.4,14.7-10.3,21.5-14.5c-1.8,0.3-3.5,0.4-5.2,0.4c-11.5,0-17.3-5.6-17.3-16.9
		c0.8-11.2,6.7-20.8,17.7-28.5c9.3-6.6,18.9-9.8,28.8-9.8c3.5,0,6.4,0.3,8.7,1C183.4,12,185.5,9.4,187.5,9.4z M144.2,63.7
		c3.7,0,8.1-0.6,13.1-1.7l20-36.8c-2-0.5-4.1-0.7-6.3-0.8c-8.8,0-17.6,3.8-26.4,11.2c-8.3,7.1-12.7,13.3-13.1,18.4
		C131.6,60.4,135.8,63.7,144.2,63.7z"/>
	<path fill="#98FF98" d="M273.6,9.9c0,3.2-6,5.1-18,5.8c-4.8,0.3-12,0.4-21.5,0.4c0.2,0.3,0.3,0.8,0.3,1.7c0,1.6-1.1,4-3.3,7.3
		c-3.3,5-5.1,7.9-5.6,8.7c-3.8,7.2-7.6,14.4-11.4,21.5c-5.3,9.9-9.3,18-12.1,24.2c-4.2,9.1-7,16.8-8.6,23.1c-0.5,2.2-1.1,3.7-2,4.7
		c-0.9,1-1.8,1.5-2.9,1.5c-1.1,0-2-0.7-2.9-2s-1.2-2.9-1.2-4.8c0-4.5,2.9-12.6,8.6-24.2c2.9-6,8.8-16.9,17.8-32.6
		c7.7-13.6,12.6-22.5,14.7-26.9c-5.2,0.6-10.1,1.5-14.7,2.7c-4.6,1.2-9.2,2.4-13.7,3.7c-2.7,0-4.1-1.1-4.1-3.4
		c0-1.7,1.5-3.2,4.5-4.6c3-1.4,6.3-2.3,9.8-2.7c10.3-3,21.8-5.2,34.3-6.5c8.7-0.9,16.9-1.4,24.6-1.4c2.4,0,4.3,0.4,5.5,1.1
		C273,8,273.6,8.9,273.6,9.9z"/>
	<path fill="#98FF98" d="M310.2,11.5c-0.4,3.5-2.5,11.2-6.5,23.3c-2.7,8.2-4.5,13.7-5.3,16.7l3.5-0.6c3.8,0,5.7,1.1,5.7,3.2
		c0,1.4-1,2.6-2.9,3.6c-1.9,1-4.8,1.5-8.6,1.5c-3.3,12.7-5.4,24-6.4,33.9c-1,9.9-2.5,14.9-4.4,14.9c-1.6,0-2.8-0.9-3.5-2.6
		s-1-4.3-1-7.7c0-3.9,0.5-8.7,1.5-14.3c0.5-2.7,2.2-10.4,5.2-23.1l-26.8,7.7c-5.5,8.8-10.6,17.7-15.3,26.6
		c-4.7,8.9-8.5,13.4-11.4,13.4c-1.4,0-2-0.8-2-2.4c0-3.1,3.1-9.8,9.3-20.2c2.5-4.2,5.1-8.5,7.8-12.8c-2.8,1.2-5,2.1-6.6,2.7
		c-1.6,0.6-2.9,0.9-3.9,0.9c-1.6,0.2-2.4-0.7-2.4-2.5c0-2.3,2.8-4.5,8.3-6.9c4.4-1.8,8.8-3.6,13.2-5.3c8.3-12.9,17.4-25.2,27.5-36.8
		c10.5-12.2,17.6-18.3,21.2-18.3C308.9,6.4,310.2,8.1,310.2,11.5z M299.5,20.6c-3.4,2-8.8,7.7-16.3,17.2c-6.5,8.2-11.5,15-14.8,20.6
		l21.5-5.8c0.6-3,3-10.4,7.1-22.3C298.6,25.4,299.5,22.1,299.5,20.6z"/>
	<path fill="#98FF98" d="M400.5,41.8c0,3.4-1.1,7.1-3.3,11.2c-2.2,4.1-5.1,7.9-8.6,11.6c-0.7,0.7-1.3,1.2-1.9,1.5
		c-0.6,0.3-1.3,0.4-1.9,0.4c-1.8,0-2.8-0.9-2.8-2.6c0-0.7,0.2-1.4,0.6-2.1c0.4-0.7,1.1-1.4,1.9-2.1c3.9-3.1,7-6.5,9.3-10.2
		c2-3.2,3-5.9,3-8.3c0-2.3-1-3.5-3-3.5c-2.9,0-6.8,2.5-11.7,7.4c-3.8,3.9-8,9-12.6,15.4c-4,5.7-6.8,10.1-8.3,13.2
		c-2.1,4.2-3.7,8.1-4.7,11.7c-1.1,3.6-1.6,6.7-1.6,9.2c0,3,0.6,5.4,1.8,7c1.2,1.6,2.9,2.4,4.9,2.4c3.3,0,6.8-1.5,10.7-4.6
		c4.3-3.4,8.3-8.4,12.1-14.9c0.7-0.9,1.4-1.7,2.1-2.2c0.7-0.6,1.4-0.8,1.9-0.8c0.4,0,0.6,0.2,0.6,0.7c0,0.7-0.2,1.5-0.6,2.3
		c-4.1,7.9-8.9,14.1-14.6,18.6c-5.2,4.1-10.1,6.2-14.7,6.2c-3.4,0-6.1-1.1-8.2-3.3s-3.1-5.5-3.1-9.8c0-3.2,0.6-6.8,1.8-10.8
		c1.2-3.9,3.1-8.4,5.8-13.4c3.9-8.4,9.6-16.7,17-25c8.4-9.2,15.2-13.8,20.5-13.8c2,0,3.8,0.8,5.2,2.5
		C399.7,37.4,400.5,39.4,400.5,41.8z"/>
	<path fill="#98FF98" d="M444.2,109.1c-1.8-0.2-3.5-1.3-5-3.1c-0.7-0.8-1-2-1-3.4c0-0.4,0.1-1.2,0.4-2.3c1.1-4.2,3-9.5,5.8-15.7
		c1.4-3,3.7-8,7-15l3.3-6.6c1.1-2,3-5.3,5.6-9.8c4.4-7.3,7.1-12.2,8.3-14.8l-3.8,0.1c-3.7,0.2-7.3,0.4-10.8,0.5
		c-2.9,0.3-5.3,0.5-7.2,0.7c-3.1,8.9-6.3,17.1-9.6,24.5c-5.2,11.5-10.5,20.6-16,27.3c-7,8.6-13.9,12.9-20.6,12.9
		c-2.9,0-5.1-1.1-6.6-3.2c-1.5-2.1-2.2-4.9-2.2-8.3c0-4.6,1.2-9.7,3.6-15.3c2.7-6.1,6-11,10.1-14.7c1.8-1.6,3.2-2.4,4.1-2.4
		c0.7,0,1,0.5,1,1.5c0,1.8-0.9,3.7-2.7,5.9c-3.1,3.8-5.5,7.7-7,11.7c-1.6,4-2.3,7.7-2.3,11c0,2.7,0.5,4.9,1.4,6.5
		c0.9,1.6,2.2,2.4,3.9,2.4c2.6,0,5.4-1.7,8.6-5.2c2.8-3.1,5.3-6.9,7.6-11.4c3.8-7.9,7.7-15.9,11.5-23.8c5-10.5,7.9-17,8.6-19.4
		c-1.6,0-3.6,0.4-6.1,1.2c-5.7,1.8-8.9,2.6-9.6,2.6c-1.7,0-2.7-0.7-2.9-2.1c-0.3-2.2,2.8-4.3,9.4-6.3c6.6-1.9,12.9-2.9,18.7-2.9
		c2.7,0,4.8,0.1,6.4,0.3c6.1,0.2,11.3,0.4,15.8,0.5c1-0.8,1.9-1.3,2.8-1.3c0.9,0,1.4,0.5,1.6,1.5c9.8,0.4,15,0.6,15.5,0.6
		c0.9,0.1,1.5,0.3,1.8,0.4c1.6,0.6,2.1,2,1.5,4.3c-0.5,2.1-1.9,2.9-4,2.4c-2.1-0.5-6.7-1.2-13.7-2.2c-0.7-0.1-1.4-0.1-2.1-0.2
		c-1,2.3-2.5,5.3-4.6,9.2l-11.9,20.1c-2.4,5.1-4.3,8.9-5.5,11.6c-2.2,4.7-4,9-5.5,13c-1.5,3.9-2.4,6.7-2.7,8.3
		c-0.3,1.6,0.4,2.5,2,2.7c1,0.2,2.4,0,4.3-0.7c1.9-0.7,3.2-0.9,3.8-0.7c1.5,0.4,2,1.1,1.5,2.2c-0.3,1.5-2,2.8-5.1,3.7
		C448.5,109,446.1,109.4,444.2,109.1z"/>
	<path fill="#98FF98" d="M541.8,37.8c0,1.3-0.5,2.5-1.5,3.6c-4.2,4.8-9.7,14.7-16.5,29.7c-6.8,15-10.2,24.9-10.2,29.8
		c0,0.6,0,0.9,0,1.2l0.3,1.8c0,2.2-0.9,3.3-2.6,3.3c-1,0-2-0.5-2.8-1.5c-0.9-1-1.3-2.5-1.3-4.4c0-2.7,0.8-6.4,2.4-11.1
		c1.2-3.4,3.2-8.2,5.9-14.3c1.4-3.1,3.6-7.9,6.8-14.4c-7.6,10.3-13.9,18.7-19,25.4c-5.6,7.5-9.8,12.6-12.3,15.3
		c-3.6,3.7-6.9,5.6-9.9,5.6c-1.8,0-3.3-0.8-4.4-2.4c-1.1-1.6-1.7-3.8-1.7-6.6c0-5.8,2.4-13.6,7.1-23.3c3.9-7.8,8.8-16.1,14.9-24.7
		c5.4-7.6,9.5-12.6,12.5-15.1c2-1.5,3.5-2.3,4.6-2.3c0.4,0,0.8,0.2,1.2,0.5c0.4,0.3,0.5,0.9,0.5,1.7c0,1.3-0.4,2.5-1.3,3.4
		c-3.3,3.5-7.6,8.9-12.7,16.4c-5.5,8-10.1,15.7-13.9,23.1c-4.4,8.7-6.6,15-6.6,19.1c0,2,0.6,3,1.8,3c2.1,0,6.6-4.4,13.6-13.1
		c2.9-3.7,9.7-12.7,20.3-27c8.6-11.7,14.7-19.3,18.3-23c1.4-1.5,2.8-2.2,4-2.2C541,35,541.8,36,541.8,37.8z"/>
	<path fill="#98FF98" d="M593.3,34.7c0,1.8-1.9,6.2-5.7,13.1c-3.3,5.9-6.2,10.7-8.8,14.3c0.5,0,1.2-0.1,2-0.2
		c0.9-0.1,1.5-0.2,1.8-0.2c1.7,0,2.6,0.9,2.6,2.8c0,1.8-1.1,2.7-3.2,2.9c-2.1,0.2-4.3,0.3-6.4,0.5c-2.4,5.1-4.3,8.9-5.5,11.6
		c-2.2,4.7-4,9-5.5,13c-1.8,4.8-3,8.5-3.5,11.2c-0.5,2.5-1.5,3.7-2.9,3.7c-0.8,0-1.5-0.4-2.2-1.3c-0.6-0.9-1-2-1-3.4
		c0-0.4,0.1-1.2,0.4-2.3c1.1-4.2,3-9.5,5.8-15.7c1.4-3,3.7-8,7-15c-3.3,0.6-7.3,1.7-12.1,3.3c-3.5,1.1-6.9,2.3-10.3,3.4
		c-4.4,10.1-6.8,15.7-7.2,16.9c-1.7,4.5-2.8,8.3-3.3,11.3c-0.2,1.4-0.7,2.5-1.4,3.2c-0.7,0.7-1.5,1.1-2.5,1.1c-2.1,0-3-1.4-2.6-4.3
		c0.3-3.1,1.2-6.8,2.9-11.2c2-4.9,4-9.7,6-14.6c-1.9,1.2-3.2,1.8-3.9,1.8c-1.2,0-1.7-0.9-1.7-2.6c0-2,1.6-3.6,4.9-4.6
		c1.3-0.4,2.6-0.7,3.9-1.2c1.4-2.8,5.2-9.6,11.3-20.5c4.2-7.5,7.4-14,9.6-19.4c0.5-1.3,1-2.3,1.6-2.9c0.6-0.6,1.2-0.9,1.9-0.9
		c0.6,0,1.1,0.4,1.6,1.1c0.4,0.7,0.7,1.5,0.7,2.4c0,2-1.3,5.6-3.9,10.8c-1.8,3.7-4.4,8.6-7.8,14.7c-3.4,6-5.4,9.9-6.1,11.5l21.7-5.8
		c1.1-2,3-5.3,5.6-9.8c5-8.4,7.9-13.6,8.7-15.6c0.8-2,1.7-3.5,2.7-4.4c1-0.9,1.9-1.4,2.9-1.4C592.6,31.8,593.3,32.8,593.3,34.7z"/>
	<path fill="#98FF98" d="M634.3,35.4c-0.3,2.6-1.9,8.4-4.9,17.5c-2,6.1-3.4,10.3-4,12.5l2.7-0.4c2.9,0,4.3,0.8,4.3,2.4
		c0,1.1-0.7,2-2.1,2.7c-1.4,0.7-3.6,1.1-6.4,1.1c-2.4,9.5-4,18-4.8,25.4c-0.7,7.5-1.8,11.2-3.3,11.2c-1.2,0-2.1-0.7-2.6-2
		c-0.5-1.3-0.8-3.2-0.8-5.7c0-3,0.4-6.5,1.1-10.8c0.3-2,1.6-7.8,3.9-17.3l-20.1,5.8c-4.2,6.6-8,13.3-11.5,19.9
		c-3.5,6.7-6.3,10-8.5,10c-1,0-1.5-0.6-1.5-1.8c0-2.3,2.3-7.4,6.9-15.2c1.9-3.2,3.8-6.4,5.8-9.6c-2.1,0.9-3.8,1.6-4.9,2.1
		c-1.2,0.5-2.2,0.7-2.9,0.7c-1.2,0.1-1.8-0.5-1.8-1.9c0-1.7,2.1-3.4,6.2-5.2c3.3-1.3,6.6-2.7,9.9-4c6.2-9.7,13.1-18.9,20.6-27.6
		c7.9-9.1,13.2-13.7,15.9-13.7C633.3,31.6,634.3,32.8,634.3,35.4z M626.2,42.2c-2.5,1.5-6.6,5.8-12.2,12.9
		c-4.9,6.1-8.6,11.3-11.1,15.4l16.1-4.3c0.5-2.2,2.2-7.8,5.3-16.7C625.6,45.8,626.2,43.3,626.2,42.2z"/>
</g>
<g>
	<path fill="#F3FFF3" d="M107.7,8.5c0,3.6-2.4,9.8-7.3,18.7c-6.4,11.5-9.6,17.5-9.8,17.9c-2,4.1-4.4,9.2-7.1,15.3
		c-3.4,7.5-6,14-7.9,19.4c-2.5,7.2-4,12.6-4.4,16.2v4.8c0,2.3,0,3.8-0.1,4.4c-0.4,2.2-1.4,3.2-3.1,3.2c-0.5,0-0.9,0-1.2-0.1
		c-2.9-0.4-4.3-3-4.3-7.7c0-4,0.9-9.2,2.7-15.5c1.5-5.3,3.2-9.8,4.9-13.4c3.3-7.4,6.4-14.2,9.5-20.5c2.3-4.6,5-9.8,8.2-15.7
		c1.9-3.6,4.6-8.4,8-14.6c-3.6,3.8-8.6,10-14.8,18.7c-5.1,7-10.4,14.8-15.9,23.3c-0.7,1.1-4.8,7.4-12.1,18.8
		c-1.5,2.2-2.9,3.9-4.4,4.9c-1.5,1-2.9,1.5-4.2,1.5c-1.3,0-2.3-0.5-3.1-1.5c-0.8-1-1.2-2.3-1.2-3.9c0-5.9,1-12,2.9-18.4
		c1.6-5.6,4.2-12,7.8-19.3c2.6-5.2,4.7-9.3,6.1-12.4c1.9-4,3.1-6.6,3.5-7.6c-3.3,2.7-8.1,9.3-14.4,19.7C40.7,53.6,35,63.8,29,75.4
		c-5.4,10.3-9.5,18.7-12.4,25c-1.2,2.4-2.3,4.9-3.4,7.3c-1.3,2.4-3,3.7-5.2,3.7c-1.9,0-2.9-0.9-2.9-2.8c0-1.6,0.7-3.9,2.2-7
		c1.9-3.7,3.2-6.4,3.9-7.9c4-8.9,9.1-18.7,15.2-29.5c7-12.2,13.7-22.6,20.1-31.4c5.4-7.2,8.3-11.2,9-12c3.5-4.5,6.3-7.6,8.2-9.4
		c2.6-2.4,4.9-3.7,6.7-3.7c2.4,0,3.7,1.2,3.7,3.5c0.1,0.6-0.1,1.8-0.7,3.8c-7.7,16.1-13.7,29-17.8,38.7c-4.5,10.5-6.8,18.3-6.8,23.3
		c1.6-2.5,4.8-7.2,9.4-14.1c3.4-5,6.7-9.9,10.1-14.9c4-5.9,7.1-10.6,9.4-14.2c7.1-10.7,13-18.4,17.7-23.2c4-4,7.1-6,9.4-6
		c1,0,1.7,0.4,2.2,1.1C107.5,6.5,107.7,7.4,107.7,8.5z"/>
	<path fill="#F3FFF3" d="M131.1,27.6c0,3.7-2,8.1-6,13.4c-4,5.2-7.4,7.9-10.1,7.9c-1.7,0-2.6-0.7-2.6-2.2c-0.1-0.9,0.5-2,1.7-3.3
		c2.3-2,4.5-5.2,6.5-9.5c3.3-7.3,5.7-10.9,7.3-10.9c0.9,0,1.7,0.4,2.3,1.2C130.8,24.8,131.1,26,131.1,27.6z"/>
	<path fill="#F3FFF3" d="M187.5,8.4c0.8,0,1.5,0.5,2.2,1.4c0.6,0.9,1,2,1,3.2c0,0.8-0.9,3.3-2.6,7.3v3.4c0,11.1-1.4,16.6-4.1,16.6
		c-1.1,0-1.7-0.2-2-0.6c-0.2-0.4-0.3-1.2-0.3-2.4c-0.1-2.1-0.2-3.4-0.3-4.1c-6.8,12.5-11.7,21.8-14.6,28c1.2,2,1.8,3.8,1.8,5.6
		c-0.2,1.1-2.4,2.5-6.8,4.2l-7.1,16.5c-2.3,6-3.7,11-4.3,14.9c-0.6,3.9-2.3,5.9-5.2,5.9c-2.4,0-3.5-1.4-3.5-4.1
		c0-4,1.3-9.6,3.9-16.6l3.7-8.9c-18.4,12.6-30.1,21.7-35.1,27.4c-1.6,1.8-3.1,2.7-4.4,2.7c-2,0-3-1.4-3-4.1
		c0-3.9,6.7-10.7,20.1-20.2c7.5-5.4,14.7-10.3,21.5-14.5c-1.8,0.3-3.5,0.4-5.2,0.4c-11.5,0-17.3-5.6-17.3-16.9
		c0.8-11.2,6.7-20.8,17.7-28.5c9.3-6.6,18.9-9.8,28.8-9.8c3.5,0,6.4,0.3,8.7,1C183.4,11,185.5,8.4,187.5,8.4z M144.2,62.7
		c3.7,0,8.1-0.6,13.1-1.7l20-36.8c-2-0.5-4.1-0.7-6.3-0.8c-8.8,0-17.6,3.8-26.4,11.2c-8.3,7.1-12.7,13.3-13.1,18.4
		C131.6,59.4,135.8,62.7,144.2,62.7z"/>
	<path fill="#F3FFF3" d="M273.6,8.9c0,3.2-6,5.1-18,5.8c-4.8,0.3-12,0.4-21.5,0.4c0.2,0.3,0.3,0.8,0.3,1.7c0,1.6-1.1,4-3.3,7.3
		c-3.3,5-5.1,7.9-5.6,8.7c-3.8,7.2-7.6,14.4-11.4,21.5c-5.3,9.9-9.3,18-12.1,24.2c-4.2,9.1-7,16.8-8.6,23.1c-0.5,2.2-1.1,3.7-2,4.7
		c-0.9,1-1.8,1.5-2.9,1.5c-1.1,0-2-0.7-2.9-2s-1.2-2.9-1.2-4.8c0-4.5,2.9-12.6,8.6-24.2c2.9-6,8.8-16.9,17.8-32.6
		c7.7-13.6,12.6-22.5,14.7-26.9c-5.2,0.6-10.1,1.5-14.7,2.7c-4.6,1.2-9.2,2.4-13.7,3.7c-2.7,0-4.1-1.1-4.1-3.4
		c0-1.7,1.5-3.2,4.5-4.6c3-1.4,6.3-2.3,9.8-2.7c10.3-3,21.8-5.2,34.3-6.5c8.7-0.9,16.9-1.4,24.6-1.4c2.4,0,4.3,0.4,5.5,1.1
		C273,7,273.6,7.9,273.6,8.9z"/>
	<path fill="#F3FFF3" d="M310.2,10.5c-0.4,3.5-2.5,11.2-6.5,23.3c-2.7,8.2-4.5,13.7-5.3,16.7l3.5-0.6c3.8,0,5.7,1.1,5.7,3.2
		c0,1.4-1,2.6-2.9,3.6c-1.9,1-4.8,1.5-8.6,1.5c-3.3,12.7-5.4,24-6.4,33.9c-1,9.9-2.5,14.9-4.4,14.9c-1.6,0-2.8-0.9-3.5-2.6
		s-1-4.3-1-7.7c0-3.9,0.5-8.7,1.5-14.3c0.5-2.7,2.2-10.4,5.2-23.1l-26.8,7.7c-5.5,8.8-10.6,17.7-15.3,26.6
		c-4.7,8.9-8.5,13.4-11.4,13.4c-1.4,0-2-0.8-2-2.4c0-3.1,3.1-9.8,9.3-20.2c2.5-4.2,5.1-8.5,7.8-12.8c-2.8,1.2-5,2.1-6.6,2.7
		c-1.6,0.6-2.9,0.9-3.9,0.9c-1.6,0.2-2.4-0.7-2.4-2.5c0-2.3,2.8-4.5,8.3-6.9c4.4-1.8,8.8-3.6,13.2-5.3c8.3-12.9,17.4-25.2,27.5-36.8
		c10.5-12.2,17.6-18.3,21.2-18.3C308.9,5.4,310.2,7.1,310.2,10.5z M299.5,19.6c-3.4,2-8.8,7.7-16.3,17.2c-6.5,8.2-11.5,15-14.8,20.6
		l21.5-5.8c0.6-3,3-10.4,7.1-22.3C298.6,24.4,299.5,21.1,299.5,19.6z"/>
	<path fill="#F3FFF3" d="M400.5,40.8c0,3.4-1.1,7.1-3.3,11.2c-2.2,4.1-5.1,7.9-8.6,11.6c-0.7,0.7-1.3,1.2-1.9,1.5
		c-0.6,0.3-1.3,0.4-1.9,0.4c-1.8,0-2.8-0.9-2.8-2.6c0-0.7,0.2-1.4,0.6-2.1c0.4-0.7,1.1-1.4,1.9-2.1c3.9-3.1,7-6.5,9.3-10.2
		c2-3.2,3-5.9,3-8.3c0-2.3-1-3.5-3-3.5c-2.9,0-6.8,2.5-11.7,7.4c-3.8,3.9-8,9-12.6,15.4c-4,5.7-6.8,10.1-8.3,13.2
		c-2.1,4.2-3.7,8.1-4.7,11.7c-1.1,3.6-1.6,6.7-1.6,9.2c0,3,0.6,5.4,1.8,7c1.2,1.6,2.9,2.4,4.9,2.4c3.3,0,6.8-1.5,10.7-4.6
		c4.3-3.4,8.3-8.4,12.1-14.9c0.7-0.9,1.4-1.7,2.1-2.2c0.7-0.6,1.4-0.8,1.9-0.8c0.4,0,0.6,0.2,0.6,0.7c0,0.7-0.2,1.5-0.6,2.3
		c-4.1,7.9-8.9,14.1-14.6,18.6c-5.2,4.1-10.1,6.2-14.7,6.2c-3.4,0-6.1-1.1-8.2-3.3s-3.1-5.5-3.1-9.8c0-3.2,0.6-6.8,1.8-10.8
		c1.2-3.9,3.1-8.4,5.8-13.4c3.9-8.4,9.6-16.7,17-25c8.4-9.2,15.2-13.8,20.5-13.8c2,0,3.8,0.8,5.2,2.5
		C399.7,36.4,400.5,38.4,400.5,40.8z"/>
	<path fill="#F3FFF3" d="M444.2,108.1c-1.8-0.2-3.5-1.3-5-3.1c-0.7-0.8-1-2-1-3.4c0-0.4,0.1-1.2,0.4-2.3c1.1-4.2,3-9.5,5.8-15.7
		c1.4-3,3.7-8,7-15l3.3-6.6c1.1-2,3-5.3,5.6-9.8c4.4-7.3,7.1-12.2,8.3-14.8l-3.8,0.1c-3.7,0.2-7.3,0.4-10.8,0.5
		c-2.9,0.3-5.3,0.5-7.2,0.7c-3.1,8.9-6.3,17.1-9.6,24.5c-5.2,11.5-10.5,20.6-16,27.3c-7,8.6-13.9,12.9-20.6,12.9
		c-2.9,0-5.1-1.1-6.6-3.2c-1.5-2.1-2.2-4.9-2.2-8.3c0-4.6,1.2-9.7,3.6-15.3c2.7-6.1,6-11,10.1-14.7c1.8-1.6,3.2-2.4,4.1-2.4
		c0.7,0,1,0.5,1,1.5c0,1.8-0.9,3.7-2.7,5.9c-3.1,3.8-5.5,7.7-7,11.7c-1.6,4-2.3,7.7-2.3,11c0,2.7,0.5,4.9,1.4,6.5
		c0.9,1.6,2.2,2.4,3.9,2.4c2.6,0,5.4-1.7,8.6-5.2c2.8-3.1,5.3-6.9,7.6-11.4c3.8-7.9,7.7-15.9,11.5-23.8c5-10.5,7.9-17,8.6-19.4
		c-1.6,0-3.6,0.4-6.1,1.2c-5.7,1.8-8.9,2.6-9.6,2.6c-1.7,0-2.7-0.7-2.9-2.1c-0.3-2.2,2.8-4.3,9.4-6.3c6.6-1.9,12.9-2.9,18.7-2.9
		c2.7,0,4.8,0.1,6.4,0.3c6.1,0.2,11.3,0.4,15.8,0.5c1-0.8,1.9-1.3,2.8-1.3c0.9,0,1.4,0.5,1.6,1.5c9.8,0.4,15,0.6,15.5,0.6
		c0.9,0.1,1.5,0.3,1.8,0.4c1.6,0.6,2.1,2,1.5,4.3c-0.5,2.1-1.9,2.9-4,2.4c-2.1-0.5-6.7-1.2-13.7-2.2c-0.7-0.1-1.4-0.1-2.1-0.2
		c-1,2.3-2.5,5.3-4.6,9.2l-11.9,20.1c-2.4,5.1-4.3,8.9-5.5,11.6c-2.2,4.7-4,9-5.5,13c-1.5,3.9-2.4,6.7-2.7,8.3
		c-0.3,1.6,0.4,2.5,2,2.7c1,0.2,2.4,0,4.3-0.7c1.9-0.7,3.2-0.9,3.8-0.7c1.5,0.4,2,1.1,1.5,2.2c-0.3,1.5-2,2.8-5.1,3.7
		C448.5,108,446.1,108.4,444.2,108.1z"/>
	<path fill="#F3FFF3" d="M541.8,36.8c0,1.3-0.5,2.5-1.5,3.6c-4.2,4.8-9.7,14.7-16.5,29.7c-6.8,15-10.2,24.9-10.2,29.8
		c0,0.6,0,0.9,0,1.2l0.3,1.8c0,2.2-0.9,3.3-2.6,3.3c-1,0-2-0.5-2.8-1.5c-0.9-1-1.3-2.5-1.3-4.4c0-2.7,0.8-6.4,2.4-11.1
		c1.2-3.4,3.2-8.2,5.9-14.3c1.4-3.1,3.6-7.9,6.8-14.4c-7.6,10.3-13.9,18.7-19,25.4c-5.6,7.5-9.8,12.6-12.3,15.3
		c-3.6,3.7-6.9,5.6-9.9,5.6c-1.8,0-3.3-0.8-4.4-2.4c-1.1-1.6-1.7-3.8-1.7-6.6c0-5.8,2.4-13.6,7.1-23.3c3.9-7.8,8.8-16.1,14.9-24.7
		c5.4-7.6,9.5-12.6,12.5-15.1c2-1.5,3.5-2.3,4.6-2.3c0.4,0,0.8,0.2,1.2,0.5c0.4,0.3,0.5,0.9,0.5,1.7c0,1.3-0.4,2.5-1.3,3.4
		c-3.3,3.5-7.6,8.9-12.7,16.4c-5.5,8-10.1,15.7-13.9,23.1c-4.4,8.7-6.6,15-6.6,19.1c0,2,0.6,3,1.8,3c2.1,0,6.6-4.4,13.6-13.1
		c2.9-3.7,9.7-12.7,20.3-27c8.6-11.7,14.7-19.3,18.3-23c1.4-1.5,2.8-2.2,4-2.2C541,34,541.8,35,541.8,36.8z"/>
	<path fill="#F3FFF3" d="M593.3,33.7c0,1.8-1.9,6.2-5.7,13.1c-3.3,5.9-6.2,10.7-8.8,14.3c0.5,0,1.2-0.1,2-0.2
		c0.9-0.1,1.5-0.2,1.8-0.2c1.7,0,2.6,0.9,2.6,2.8c0,1.8-1.1,2.7-3.2,2.9c-2.1,0.2-4.3,0.3-6.4,0.5c-2.4,5.1-4.3,8.9-5.5,11.6
		c-2.2,4.7-4,9-5.5,13c-1.8,4.8-3,8.5-3.5,11.2c-0.5,2.5-1.5,3.7-2.9,3.7c-0.8,0-1.5-0.4-2.2-1.3c-0.6-0.9-1-2-1-3.4
		c0-0.4,0.1-1.2,0.4-2.3c1.1-4.2,3-9.5,5.8-15.7c1.4-3,3.7-8,7-15c-3.3,0.6-7.3,1.7-12.1,3.3c-3.5,1.1-6.9,2.3-10.3,3.4
		c-4.4,10.1-6.8,15.7-7.2,16.9c-1.7,4.5-2.8,8.3-3.3,11.3c-0.2,1.4-0.7,2.5-1.4,3.2c-0.7,0.7-1.5,1.1-2.5,1.1c-2.1,0-3-1.4-2.6-4.3
		c0.3-3.1,1.2-6.8,2.9-11.2c2-4.9,4-9.7,6-14.6c-1.9,1.2-3.2,1.8-3.9,1.8c-1.2,0-1.7-0.9-1.7-2.6c0-2,1.6-3.6,4.9-4.6
		c1.3-0.4,2.6-0.7,3.9-1.2c1.4-2.8,5.2-9.6,11.3-20.5c4.2-7.5,7.4-14,9.6-19.4c0.5-1.3,1-2.3,1.6-2.9c0.6-0.6,1.2-0.9,1.9-0.9
		c0.6,0,1.1,0.4,1.6,1.1c0.4,0.7,0.7,1.5,0.7,2.4c0,2-1.3,5.6-3.9,10.8c-1.8,3.7-4.4,8.6-7.8,14.7c-3.4,6-5.4,9.9-6.1,11.5l21.7-5.8
		c1.1-2,3-5.3,5.6-9.8c5-8.4,7.9-13.6,8.7-15.6c0.8-2,1.7-3.5,2.7-4.4c1-0.9,1.9-1.4,2.9-1.4C592.6,30.8,593.3,31.8,593.3,33.7z"/>
	<path fill="#F3FFF3" d="M634.3,34.4c-0.3,2.6-1.9,8.4-4.9,17.5c-2,6.1-3.4,10.3-4,12.5l2.7-0.4c2.9,0,4.3,0.8,4.3,2.4
		c0,1.1-0.7,2-2.1,2.7c-1.4,0.7-3.6,1.1-6.4,1.1c-2.4,9.5-4,18-4.8,25.4c-0.7,7.5-1.8,11.2-3.3,11.2c-1.2,0-2.1-0.7-2.6-2
		c-0.5-1.3-0.8-3.2-0.8-5.7c0-3,0.4-6.5,1.1-10.8c0.3-2,1.6-7.8,3.9-17.3l-20.1,5.8c-4.2,6.6-8,13.3-11.5,19.9
		c-3.5,6.7-6.3,10-8.5,10c-1,0-1.5-0.6-1.5-1.8c0-2.3,2.3-7.4,6.9-15.2c1.9-3.2,3.8-6.4,5.8-9.6c-2.1,0.9-3.8,1.6-4.9,2.1
		c-1.2,0.5-2.2,0.7-2.9,0.7c-1.2,0.1-1.8-0.5-1.8-1.9c0-1.7,2.1-3.4,6.2-5.2c3.3-1.3,6.6-2.7,9.9-4c6.2-9.7,13.1-18.9,20.6-27.6
		c7.9-9.1,13.2-13.7,15.9-13.7C633.3,30.6,634.3,31.8,634.3,34.4z M626.2,41.2c-2.5,1.5-6.6,5.8-12.2,12.9
		c-4.9,6.1-8.6,11.3-11.1,15.4l16.1-4.3c0.5-2.2,2.2-7.8,5.3-16.7C625.6,44.8,626.2,42.3,626.2,41.2z"/>
</g>
</svg>
