<?xml version="1.0" encoding="utf-8"?>
<!-- Generator: Adobe Illustrator 18.1.1, SVG Export Plug-In . SVG Version: 6.00 Build 0)  -->
<svg version="1.1" id="Layer_1" xmlns="http://www.w3.org/2000/svg" xmlns:xlink="http://www.w3.org/1999/xlink" x="0px" y="0px"
	 viewBox="0 0 540.4 187.3" enable-background="new 0 0 540.4 187.3" xml:space="preserve">
<g opacity="0.55">
	<path fill="#999999" d="M43.2,95.4c-0.4-0.2-0.5-0.5-0.5-0.7c0.1-0.2,0.3-0.4,0.7-0.6c0.4-0.2,0.8-0.3,1.2-0.3
		c3.4,0.1,6.8-0.1,10.3-0.7c3.4-0.6,6.6-1.5,9.4-2.8c1.2-0.5,2.2-1.3,3.1-2.3c0.9-1,1.4-2,1.8-3.2c0.3-1.2,0.3-2.3-0.1-3.5
		c-0.4-1.2-1.3-2.3-2.6-3.3c-0.9-0.7-2.1-1.3-3.9-2c-1.7-0.6-3.5-1.2-5.4-1.8c-1.9-0.5-3.7-1-5.5-1.3c-1.8-0.4-3.2-0.6-4.3-0.8
		C46.9,72.7,46,74,44.6,76c-1.4,2-3,4.2-4.7,6.8c-1.7,2.6-3.4,5.2-5,7.9c-1.6,2.7-2.9,5-3.6,6.8c-0.7,1.3-1.2,2-1.5,2.1
		c-0.4,0.1-0.3-0.7,0.3-2.3c0.4-1.3,1.2-3.1,2.3-5.3c1.2-2.2,2.5-4.5,4-6.9c1.5-2.4,2.9-4.8,4.4-7.1c1.5-2.4,2.8-4.4,3.9-6
		c-0.5-0.1-0.9-0.2-1.2-0.3c-0.3-0.1-0.7-0.2-1.2-0.4c-0.5-0.2-0.9-0.5-1.2-0.8c-0.3-0.3-0.4-0.6-0.5-0.9c0-0.3,0-0.6,0.2-0.8
		c0.2-0.2,0.3-0.3,0.5-0.3c0.6-0.1,1.5-0.2,2.6-0.3c1.2-0.1,2.2-0.3,3.1-0.6c1.5-2.1,2.9-4.2,4.3-6.4c1.4-2.2,2.8-4.4,4.1-6.6
		c1.3-2.1,2.4-4.2,3.4-6.1c1-1.9,1.8-3.6,2.5-5.1c0.1-0.3,0.3-0.7,0.5-1.2c0.2-0.5,0.3-1,0.3-1.4c0-0.4,0-0.8-0.1-1.2
		c-0.1-0.4-0.4-0.6-0.9-0.7c-0.4-0.1-0.3-0.3,0.3-0.8c0.6-0.5,1.3-0.9,2.2-1.2c0.9-0.3,1.7-0.4,2.4-0.3c0.7,0.1,1,0.7,0.8,1.7
		c-0.1,0.9-0.6,2.2-1.3,3.8c-0.7,1.6-1.6,3.3-2.6,5.2c-1,1.9-2.2,3.8-3.4,5.8c-1.2,2-2.4,3.9-3.6,5.8c-1.2,1.8-2.2,3.5-3.1,5
		c-0.9,1.5-1.7,2.6-2.2,3.4c0.9-0.1,2.3-0.4,4-0.8c1.8-0.4,3.7-0.9,5.9-1.5c2.2-0.6,4.5-1.2,6.9-2c2.4-0.7,4.8-1.5,7.1-2.4
		c2.3-0.9,4.4-1.9,6.4-2.9c2-1,3.6-2,5-3.1c1.3-1,2.4-2.2,3.5-3.6c1.1-1.4,1.8-2.9,2.2-4.4c0.4-1.6,0.3-3.2-0.3-4.9
		c-0.6-1.7-1.9-3.3-4-4.8c-3.1-2.3-6.5-4.2-10.2-5.7c-3.7-1.5-7.5-2.6-11.4-3.5c-4-0.8-8-1.4-12.1-1.8c-4.1-0.3-8.2-0.5-12.3-0.6
		c-0.6,0-1.6,0-3.1-0.1s-3.2-0.1-5.2,0c-2,0.1-4.1,0.3-6.3,0.6c-2.2,0.3-4.4,0.8-6.5,1.5c-2.1,0.7-3.9,1.6-5.6,2.8
		c-1.7,1.2-3,2.6-3.9,4.3c-0.5,1-0.6,2-0.2,3.1c0.4,1.1,1,2.1,1.8,3c0.8,1,1.7,1.8,2.6,2.5c1,0.7,1.8,1.2,2.4,1.5
		c1,0.5,1.5,1.1,1.4,1.6c-0.1,0.5-0.7,0.4-1.9-0.4c-1.1-0.7-2.4-1.5-3.7-2.3c-1.3-0.9-2.5-1.9-3.6-2.9c-1-1-1.7-2.2-2.1-3.4
		c-0.4-1.2-0.2-2.5,0.6-3.9c0.8-1.5,2.1-2.8,4-3.9c1.9-1,4-1.9,6.4-2.6c2.4-0.7,4.8-1.3,7.4-1.8c2.5-0.4,4.9-0.8,7.1-1
		c2.2-0.2,4-0.3,5.5-0.4c1.5-0.1,2.4-0.1,2.7-0.1c4.5,0.1,8.9,0.2,13.1,0.5c4.2,0.2,8.4,0.7,12.4,1.5c4,0.8,7.9,1.8,11.6,3.3
		c3.7,1.4,7.4,3.3,10.9,5.8c2.3,1.6,3.9,3.3,4.8,5.2c0.9,1.9,1.3,3.8,1,5.6c-0.3,1.9-1,3.8-2.4,5.5c-1.3,1.8-3,3.4-5.1,4.8
		c-2.6,1.7-5.5,3.3-8.6,4.6c-3.1,1.4-6.3,2.5-9.4,3.5c-3.2,1-6.2,1.8-9.2,2.5c-3,0.7-5.5,1.2-7.8,1.6c-0.9,0.1-1.3,0.4-1.3,0.8
		s0.4,0.7,1.2,0.8c2.1,0.3,4.1,0.7,6,1.3c1.9,0.6,3.6,1.3,5.2,2c1.6,0.7,2.9,1.5,4.1,2.2c1.1,0.7,2,1.4,2.5,1.9
		c1.5,1.5,2.4,3,2.4,4.3c0.1,1.4-0.2,2.7-0.9,3.9c-0.7,1.2-1.7,2.3-2.9,3.3c-1.2,1-2.4,1.9-3.5,2.7c-2.3,1.5-5.1,2.7-8.4,3.5
		c-3.3,0.8-7.1,1.1-11.3,0.9C44.2,95.7,43.5,95.6,43.2,95.4z"/>
	<path fill="#999999" d="M116.8,66.9c-1.5,1-3.2,1.7-5,2c-1.1,0.2-2.8,0.3-5.1,0.4c-2.2,0.1-4.7,0.1-7.4,0.2c-2.7,0.1-5.3,0.1-8,0.1
		c-2.7,0-5,0-7,0c-0.7,1-1.5,2.1-2.3,3.3c-0.8,1.2-1.6,2.6-2.4,4c-0.7,1.4-1.4,2.9-1.9,4.4c-0.5,1.5-0.8,3-0.9,4.6
		c-0.1,1.5,0.1,2.7,0.5,3.6c0.4,0.9,0.9,1.6,1.5,2.1c0.6,0.5,1.4,0.8,2.2,1c0.8,0.2,1.7,0.2,2.5,0.2c2.2-0.3,4.5-1,7-1.9
		c2.5-0.9,4.7-1.9,6.5-2.9c0.5-0.3,0.9-0.4,1.2-0.2c0.3,0.2,0.1,0.5-0.4,0.8c-0.7,0.5-1.6,1.1-2.6,1.8c-1,0.6-2.1,1.3-3.3,1.9
		c-1.2,0.6-2.4,1.1-3.8,1.6c-1.3,0.5-2.5,0.9-3.8,1.1c-1,0.2-2.1,0.1-3.3-0.4c-1.2-0.4-2.3-1.1-3.3-2c-1-0.9-1.8-1.9-2.5-3
		c-0.7-1.2-1-2.4-0.9-3.8c0.2-3.7,1.2-7.3,3.1-11c1.8-3.7,4.1-7.1,6.7-10.3c2.6-3.2,5.4-5.9,8.3-8.2c2.9-2.3,5.5-3.9,7.8-4.8
		c1.3-0.4,2.4-0.3,3.4,0.2s1.8,1.2,2.3,2.2c0.6,1,0.9,2.1,1,3.3c0.1,1.2-0.1,2.3-0.8,3.3c-1,1.9-2.8,3.4-5.4,4.7
		c-2.6,1.3-5.6,2.2-8.9,2.7c1.8,0,3.6,0,5.5,0c1.9,0,3.8,0,5.5,0c1.7,0,3.4-0.1,4.9-0.2c1.5-0.1,2.8-0.2,3.9-0.3
		c1.4-0.1,2.8-0.6,4.3-1.3c1.4-0.7,2.5-1.5,3.3-2.2c0.3-0.5,0.6-0.6,0.9-0.5c0.2,0.1,0.2,0.4-0.1,0.9
		C119.3,64.9,118.3,65.8,116.8,66.9z M105,56.7c0.1-0.8-0.1-1.4-0.5-1.9c-0.4-0.4-1-0.6-1.8-0.6c-0.8,0-1.6,0.3-2.6,0.8
		c-2.5,1.4-5,3.3-7.5,5.6c-2.5,2.3-4.9,4.7-7.2,7.1c1.7,0,3.5-0.2,5.4-0.6c1.9-0.4,3.6-1,5.3-1.8c1.7-0.8,3.2-1.7,4.5-2.7
		c1.4-1,2.5-2.1,3.3-3.3C104.6,58.4,104.9,57.5,105,56.7z"/>
	<path fill="#999999" d="M134.9,77.5c5.1-1.6,10.1-2.8,15.1-3.7l0.1,0.1c-4.7,0.9-9.5,2.4-14.4,4.3c-4.9,2-10,4.5-15.4,7.5
		c0.9,1.1,1.5,2.1,1.9,2.9c0.4,0.8,0.6,1.4,0.6,1.8c0,1.9-2.2,3.7-6.6,5.6c-3.7,1.7-6.8,2.5-9.1,2.5c-0.8,0-1.5-0.1-2.1-0.3
		c-0.9,0.1-1.7,0.3-2.3,0.4c-0.6,0.1-1,0.1-1.4,0c-0.9-0.1-1.1-0.5-0.6-1.3c1.1-1.4,5.6-4.8,13.5-10.3l-3.2-4.3
		c-0.7-0.9-1.3-1.8-1.6-2.7c-0.4-0.9-0.6-1.8-0.8-2.7c-0.5-4.5,4-9.5,13.6-15.1c4.8-2.9,9.3-5,13.5-6.3c4.2-1.4,8.2-2,12-2
		c0.4,0,0.8,0.2,1.1,0.6c0.3,0.6,0.3,1,0,1.3c-0.5,0.7-1.2,1.3-2.3,2c-1,0.7-1.8,0.9-2.3,0.8c-1.5-0.5-2.8-0.9-3.9-1.1
		c-1.1-0.2-2-0.3-2.7-0.3c-0.4,0-0.8,0-1.2,0c-0.4,0-0.7,0.1-1,0.2c-3.8,0.9-8.2,3.2-13.2,6.7c-6.3,4.3-9.3,8.1-8.8,11.4
		c0.2,1.3,0.9,3,2.2,5.1c1.4,2,2.5,3.2,3.4,3.7C124.6,81.4,129.8,79.1,134.9,77.5z M106.3,97.5c1.2,0.3,3.2-0.1,6.1-1.1
		c1.3-0.5,2.5-1,3.4-1.4s1.5-0.9,1.9-1.4c0.3-0.3,0.4-0.7,0.4-1.1c0-1.1-0.8-2.3-2.3-3.7c-1.1,0.7-2.7,1.8-4.9,3.4
		c-1.3,0.9-2.4,1.7-3.2,2.4c-0.8,0.7-1.4,1.3-1.7,1.8C105.4,97,105.5,97.4,106.3,97.5z"/>
	<path fill="#999999" d="M129.8,144.6c-1.8-1.9-2.9-4.1-3.4-6.5c-0.5-2.4-0.7-5.1-0.7-8c0-9.4,3.8-22.9,11.5-40.4
		c3.4-7.7,6.8-14.7,10.2-20.9s6.8-11.8,10.2-16.7c0.8-0.9,1.2-1.9,1.2-3c0-1.2-0.6-2.1-1.8-2.8c-2.4-0.9-3.3-2-2.8-3.1
		c0.2-0.4,1.2-0.7,3-0.9c1.8-0.2,4.3-0.3,7.4-0.3c0.3,0,0.3-0.1,0.1-0.3c-0.2-0.2-0.2-0.4-0.1-0.6c3.2-5,6.9-10,11.1-14.9
		c4.2-5,8.6-10.1,13.2-15.5c0.4-0.5,2.3-1.3,5.6-2.6c1.6-0.5,2.8-0.9,3.4-1.3c0.7-0.3,1.5-0.4,2.3-0.4c0.7,0,1.1,0.3,1.1,0.9
		c0,0.3-0.3,0.5-1,0.7c-6.3,1.3-16.6,11.8-31.1,31.7c-1.1,1.5-0.8,2.3,0.7,2.3h14.5c3.9,0,7,0,9.1,0c2.2,0,3.5,0,4,0
		c0.6,0,1,0.1,1.2,0.3c0,0.1-0.2,0.5-0.5,1c-0.4,0.6-0.9,0.9-1.5,1c-3.8,0.1-8.1,0.3-13,0.6c-4.9,0.3-10.5,0.6-16.8,1
		c-1.1,0.2-2,0.7-2.5,1.6c-3.5,5.2-6.9,10.4-10,15.5c-3.1,5.1-6.2,10.7-9.2,16.7c-4.6,9.5-8.2,18.2-10.9,25.9
		c-2.7,7.8-4.3,14.8-4.8,21c-0.1,0.9-0.1,1.7-0.1,2.4c0,0.8,0,1.6,0,2.4c0,11.6,4.1,17.4,12.3,17.4c2.3,0,4.9-0.4,7.8-1.3
		c4.2-1.3,8.4-3.4,12.5-6.3c4.1-2.9,8.3-6.6,12.6-11.2c4.4-4.6,7.8-8.9,10.1-12.9c2.4-4,3.8-7.8,4.4-11.4c0-6.3-2.2-9-6.7-8.3
		c-1,0.1-1.9,0.4-2.6,0.9c-0.7,0.5-1.3,0.7-1.6,0.7c-0.7,0-0.9-0.3-0.8-0.9c0.3-0.5,0.8-1,1.4-1.4c0.6-0.4,1.8-1,3.6-1.7
		c0.3-0.1,0.7-0.1,1.2-0.1c2.1,0,4.2,1.4,6.1,4.3c2,3,2.9,5.3,2.8,6.8c-1.3,8.8-7.7,18.4-19.1,28.7c-5.8,5.2-11.2,9.1-16.3,11.8
		c-5,2.7-9.8,4-14.3,4C137.7,150.6,133.3,148.6,129.8,144.6z"/>
	<path fill="#999999" d="M249.8,53.6c-9.1,18.1-17.4,31.1-24.8,39.1c-0.2,0.3-0.5,0.6-1,1c-0.5,0.4-1.1,0.7-1.9,1
		c-1.5,0.9-2.5,1.3-3.1,1.3c-0.5,0-0.8-0.7-0.8-2.2c0-3.9,3.6-10.6,10.8-20c2.9-3.8,5.9-7.4,9-10.8c3.1-3.4,6.3-6.8,9.8-10
		c1.5-2.8,2.8-5.7,4-8.6c1.2-2.9,2.3-5.8,3.3-8.8c1.8-5.6,2.7-9.6,2.7-12c0-2.3-0.5-3.8-1.6-4.6c-1-0.8-2.8-1.1-5.2-0.8
		c-7.2,0.8-16.6,5.7-28.1,14.8c-12,9.4-18,17-18,22.9c0,1.1,0.8,1.9,2.5,2.5c1.7,0.5,2.9,0.7,3.4,0.6c0.9-0.1,1.4-0.1,1.4,0.2
		c0,0.3-0.5,0.6-1.6,0.9c-1.1,0.4-2.2,0.4-3.4,0c-0.7-0.3-1.5-1-2.3-2.1c-0.8-1.1-1.2-2.4-1.2-3.7c0-4.1,3.1-9.3,9.2-15.6
		c5.7-5.7,12.3-10.7,19.8-15.2c7.7-4.6,13.7-7.1,18-7.4c2-0.1,4.1,0.7,6.2,2.3c2.1,1.7,3.2,3.4,3.1,5.2c-0.1,2.8-0.8,6.3-2.1,10.5
		c-1.3,4.2-3.1,9-5.4,14.5c8.5-7.4,14.4-11.1,17.7-11.1c1.3,0,2.5,0.5,3.5,1.7c1,1.1,1.4,2.3,1.3,3.5c-1,7.9-5.6,20.3-13.9,37.4
		c-0.5,1.1-0.3,1.7,0.7,1.7c0.5,0,1-0.3,1.4-1c6.4-8.5,15.2-18.2,26.4-29.2C303.4,38,313.3,31.1,319,30.8c1.7-0.1,3.1,0.8,4.2,2.9
		c0.9,1.9,1.4,3.7,1.4,5.6c0,1.1-0.2,1.9-0.5,2.2c-3.7,5.9-6.8,11-9.3,15.2c-2.5,4.2-4.4,7.4-5.8,9.8c-6.7,12.3-10.7,22.4-11.9,30.3
		c-0.1,0.3-0.1,0.5-0.1,0.7c0,0.3,0,0.5,0,0.7c0,2.6,1,3.7,3.1,3.2c0.9-0.3,2-0.8,3.4-1.5c1.3-0.7,2.8-1.7,4.4-3
		c3.1-2.4,5.5-4.6,7-6.5c0.6-0.8,1.1-1.2,1.4-1.2c0.2,0,0.3,0.1,0.3,0.3c0,0.4-0.3,1-0.8,1.7c-1.4,2.1-3.6,4.3-6.5,6.8
		c-1.7,1.5-3.3,2.7-4.8,3.6c-1.5,0.9-2.9,1.5-4.3,1.9c-1.1,0.3-2.2-0.3-3.2-1.9c-1.1-1.6-1.6-3.2-1.6-4.9
		c-0.1-5.9,2.9-15.1,8.8-27.6c2.4-4.9,5-9.9,7.8-15c2.8-5.1,5.9-10.2,9.2-15.4c0.5-0.7,0.9-1.4,1.1-2c0.2-0.6,0.3-1.2,0.3-1.7
		c0-1.5-1-2.2-3-2.2c-0.9,0-1.8,0.1-2.8,0.4c-5.9,1.5-15.5,8.8-28.6,21.7c-11.5,11.3-21.7,22.8-30.5,34.4c-0.7,0.9-1.7,1.3-3.1,1.3
		c-1.1,0-1.6-0.3-1.6-1c0-0.1,0-0.3,0-0.4c0-0.1,0.1-0.3,0.2-0.4c5.8-11,10.3-20.4,13.5-28.1c3.2-7.7,5.3-13.9,6.1-18.5
		c0.3-2.2-0.5-3.3-2.3-3.3c-2.6,0-6.3,1.9-11.2,5.7C255.3,47.8,252.1,50.8,249.8,53.6z M223.8,91.5c1.5-1.7,3.3-4,5.4-6.8
		c2-2.8,4.3-6.2,6.8-10.2c5.1-7.9,8.3-13.6,9.8-17.3c-3.9,3.3-8.1,8.1-12.7,14.3c-5.5,7.2-9.1,13.3-10.9,18.4
		c-0.7,1.8-0.7,2.7,0.2,2.7C222.8,92.6,223.3,92.2,223.8,91.5z"/>
	<path fill="#999999" d="M316.8,94.5c-1.7,0-2.5-1.2-2.5-3.5c0-4.7,3.7-10.8,11.1-18.2c3.4-3.4,6.6-6.1,9.6-8.3
		c3-2.1,5.8-3.7,8.4-4.8c0.6-0.2,1.3-0.4,2-0.5c0.7-0.2,1.4-0.3,2.2-0.3c0.8,0,1.6,0.1,2.4,0.3c0.8,0.2,1.6,0.4,2.4,0.7
		c1.1,0.1,1.8,0.2,1.9,0.1c1.2-0.2,2.1-0.6,2.6-1.3c0.1-0.1,0.3-0.2,0.6-0.2c0.3,0,0.5,0.2,0.7,0.5c0.2,0.3,0.3,0.6,0.2,0.7
		c-1.9,3-3.8,6-5.8,8.8c-1.9,2.9-3.8,5.9-5.5,8.9c-1.4,2.3-2.8,5-4.1,8c-1.3,3-2.5,6.1-3.6,9.2c-1.1,3.1-2,6-2.9,8.8
		c-0.8,2.8-1.3,5.2-1.6,7.1c-0.1,0.3-0.1,0.6-0.1,0.9c0,0.3,0,0.7,0,1c0,2.3,0.7,4,2.1,5c1.4,1.1,3.3,1.7,5.7,1.7
		c2.4,0,4.8-0.4,7.1-1.2c3.5-1.2,8.1-4.1,13.8-8.6c2.7-2.2,5.2-4.5,7.4-6.8c2.2-2.3,4-4.5,5.6-6.6c0.6-0.7,1-1,1.2-1
		c0.1,0.1,0.1,0.2,0.1,0.3c0,0.3-0.1,0.6-0.4,1.1c-1.5,2.3-3.4,4.7-5.5,7.2c-2.2,2.5-4.8,5.1-7.8,7.6c-2.8,2.3-5.3,4.1-7.5,5.6
		c-2.2,1.5-4.3,2.5-6.2,3.2c-0.9,0.3-1.9,0.6-2.8,0.8c-0.9,0.2-1.9,0.3-3,0.3c-1.6,0-3.1-0.3-4.4-0.8c-1.3-0.5-2.5-1.1-3.6-1.8
		c-1.3-0.7-2.2-1.8-2.7-3.2c-0.5-1.4-0.7-2.9-0.6-4.7c0.1-1.4,0.3-3.3,0.8-5.6c0.5-2.3,1.2-4.8,2-7.5c0.8-2.6,1.7-5.2,2.6-7.8
		c0.9-2.6,1.9-4.9,2.8-6.9c1.1-2.4,2.3-4.6,3.4-6.7c1.1-2.1,2.2-4,3.3-5.7c0.5-0.7,0.4-1.1-0.1-1.1c-0.1,0-0.2,0.1-0.3,0.2
		c-1.6,1.9-3.5,4-5.8,6.1c-2.2,2.1-4.8,4.5-7.8,7c-5.9,4.9-10.9,8.6-15.1,11.1C318.2,94.2,317.5,94.5,316.8,94.5z M320.3,87.5
		c0,1.6,0.6,2.4,1.8,2.4c0.5,0,1-0.2,1.5-0.5c3.7-2.3,7.7-5.5,11.8-9.5c4.1-4,8.6-8.8,13.3-14.5c0.2-0.2,0.3-0.4,0.3-0.7
		c0-0.7-0.4-1.4-1.3-2c-0.9-0.6-2-1-3.3-1c-0.7,0-1.5,0.1-2.3,0.3c-3.1,0.8-7.1,3.8-11.9,9.1c-2.3,2.5-4.2,5-5.8,7.3
		c-1.6,2.3-2.8,4.6-3.8,6.7C320.4,85.9,320.3,86.7,320.3,87.5z"/>
	<path fill="#999999" d="M380.8,77.5c5.1-1.6,10.1-2.8,15.1-3.7l0.1,0.1c-4.7,0.9-9.4,2.4-14.3,4.3c-4.9,2-10,4.5-15.4,7.5
		c0.9,1.1,1.5,2.1,1.9,2.9c0.4,0.8,0.5,1.4,0.5,1.8c0,1.9-2.2,3.7-6.6,5.6c-3.7,1.7-6.8,2.5-9.1,2.5c-0.8,0-1.5-0.1-2.1-0.3
		c-0.9,0.1-1.7,0.3-2.3,0.4c-0.6,0.1-1,0.1-1.4,0c-0.9-0.1-1.1-0.5-0.6-1.3c1.1-1.4,5.6-4.8,13.5-10.3l-3.2-4.3
		c-0.7-0.9-1.3-1.8-1.6-2.7c-0.4-0.9-0.6-1.8-0.8-2.7c-0.5-4.5,4-9.5,13.6-15.1c4.8-2.9,9.3-5,13.5-6.3c4.2-1.4,8.2-2,12-2
		c0.4,0,0.8,0.2,1.1,0.6c0.3,0.6,0.3,1,0,1.3c-0.5,0.7-1.2,1.3-2.3,2c-1,0.7-1.8,0.9-2.3,0.8c-1.5-0.5-2.8-0.9-3.9-1.1
		c-1.1-0.2-2-0.3-2.7-0.3c-0.4,0-0.8,0-1.2,0c-0.4,0-0.7,0.1-1.1,0.2c-3.8,0.9-8.2,3.2-13.2,6.7c-6.3,4.3-9.3,8.1-8.8,11.4
		c0.2,1.3,0.9,3,2.2,5.1c1.4,2,2.5,3.2,3.4,3.7C370.5,81.4,375.7,79.1,380.8,77.5z M352.2,97.5c1.2,0.3,3.2-0.1,6.1-1.1
		c1.3-0.5,2.5-1,3.4-1.4c0.9-0.4,1.5-0.9,1.8-1.4c0.3-0.3,0.4-0.7,0.4-1.1c0-1.1-0.8-2.3-2.3-3.7c-1.1,0.7-2.7,1.8-4.9,3.4
		c-1.3,0.9-2.4,1.7-3.2,2.4c-0.8,0.7-1.4,1.3-1.7,1.8C351.3,97,351.4,97.4,352.2,97.5z"/>
	<path fill="#999999" d="M411.2,77.5c5.1-1.6,10.1-2.8,15.1-3.7l0.1,0.1c-4.7,0.9-9.5,2.4-14.3,4.3c-4.9,2-10,4.5-15.4,7.5
		c0.9,1.1,1.5,2.1,1.9,2.9c0.4,0.8,0.5,1.4,0.5,1.8c0,1.9-2.2,3.7-6.6,5.6c-3.7,1.7-6.8,2.5-9.1,2.5c-0.8,0-1.5-0.1-2.1-0.3
		c-0.9,0.1-1.7,0.3-2.3,0.4c-0.6,0.1-1,0.1-1.4,0c-0.9-0.1-1.1-0.5-0.6-1.3c1.1-1.4,5.6-4.8,13.5-10.3l-3.2-4.3
		c-0.7-0.9-1.3-1.8-1.7-2.7c-0.4-0.9-0.6-1.8-0.8-2.7c-0.5-4.5,4-9.5,13.6-15.1c4.8-2.9,9.3-5,13.5-6.3c4.2-1.4,8.2-2,12-2
		c0.4,0,0.8,0.2,1.1,0.6c0.3,0.6,0.3,1,0,1.3c-0.5,0.7-1.2,1.3-2.3,2c-1,0.7-1.8,0.9-2.3,0.8c-1.5-0.5-2.8-0.9-3.9-1.1
		c-1.1-0.2-2-0.3-2.7-0.3c-0.4,0-0.8,0-1.2,0c-0.4,0-0.7,0.1-1,0.2c-3.8,0.9-8.2,3.2-13.2,6.7c-6.3,4.3-9.3,8.1-8.8,11.4
		c0.2,1.3,0.9,3,2.2,5.1c1.4,2,2.5,3.2,3.4,3.7C400.9,81.4,406.1,79.1,411.2,77.5z M382.6,97.5c1.2,0.3,3.2-0.1,6.1-1.1
		c1.3-0.5,2.5-1,3.4-1.4c0.9-0.4,1.5-0.9,1.8-1.4c0.3-0.3,0.4-0.7,0.4-1.1c0-1.1-0.8-2.3-2.3-3.7c-1.1,0.7-2.7,1.8-4.9,3.4
		c-1.3,0.9-2.4,1.7-3.2,2.4c-0.8,0.7-1.4,1.3-1.7,1.8C381.7,97,381.8,97.4,382.6,97.5z"/>
	<path fill="#999999" d="M414.9,94.5c-1.7,0-2.5-1.2-2.5-3.5c0-4.7,3.7-10.8,11.1-18.2c3.4-3.4,6.6-6.1,9.6-8.3
		c3-2.1,5.8-3.7,8.4-4.8c0.6-0.2,1.3-0.4,2-0.5c0.7-0.2,1.4-0.3,2.2-0.3c0.8,0,1.6,0.1,2.4,0.3c0.8,0.2,1.6,0.4,2.4,0.7
		c1.1,0.1,1.8,0.2,1.9,0.1c1.2-0.2,2.1-0.6,2.6-1.3c0.1-0.1,0.3-0.2,0.6-0.2c0.3,0,0.5,0.2,0.7,0.5c0.2,0.3,0.3,0.6,0.2,0.7
		c-1.9,3-3.9,6-5.8,8.8c-1.9,2.9-3.8,5.9-5.5,8.9c-1.4,2.3-2.8,5-4.1,8c-1.3,3-2.5,6.1-3.6,9.2c-1.1,3.1-2.1,6-2.9,8.8
		s-1.3,5.2-1.6,7.1c-0.1,0.3-0.1,0.6-0.1,0.9c0,0.3,0,0.7,0,1c0,2.3,0.7,4,2.1,5c1.4,1.1,3.3,1.7,5.7,1.7c2.4,0,4.8-0.4,7.1-1.2
		c3.5-1.2,8.1-4.1,13.8-8.6c2.7-2.2,5.2-4.5,7.4-6.8c2.2-2.3,4-4.5,5.6-6.6c0.6-0.7,1-1,1.2-1c0.1,0.1,0.1,0.2,0.1,0.3
		c0,0.3-0.1,0.6-0.4,1.1c-1.5,2.3-3.4,4.7-5.5,7.2c-2.2,2.5-4.8,5.1-7.8,7.6c-2.8,2.3-5.3,4.1-7.6,5.6c-2.2,1.5-4.3,2.5-6.1,3.2
		c-0.9,0.3-1.9,0.6-2.8,0.8c-0.9,0.2-1.9,0.3-3,0.3c-1.6,0-3.1-0.3-4.4-0.8c-1.3-0.5-2.5-1.1-3.6-1.8c-1.3-0.7-2.2-1.8-2.7-3.2
		c-0.5-1.4-0.7-2.9-0.7-4.7c0.1-1.4,0.4-3.3,0.9-5.6c0.5-2.3,1.1-4.8,2-7.5c0.8-2.6,1.7-5.2,2.6-7.8c0.9-2.6,1.9-4.9,2.8-6.9
		c1.1-2.4,2.3-4.6,3.4-6.7c1.1-2.1,2.2-4,3.3-5.7c0.5-0.7,0.4-1.1-0.1-1.1c-0.1,0-0.2,0.1-0.3,0.2c-1.6,1.9-3.5,4-5.8,6.1
		c-2.2,2.1-4.8,4.5-7.8,7c-5.9,4.9-10.9,8.6-15.1,11.1C416.3,94.2,415.6,94.5,414.9,94.5z M418.4,87.5c0,1.6,0.6,2.4,1.8,2.4
		c0.5,0,1-0.2,1.5-0.5c3.7-2.3,7.7-5.5,11.8-9.5c4.1-4,8.6-8.8,13.3-14.5c0.2-0.2,0.3-0.4,0.3-0.7c0-0.7-0.4-1.4-1.3-2
		c-0.9-0.6-2-1-3.3-1c-0.7,0-1.5,0.1-2.3,0.3c-3.1,0.8-7.1,3.8-11.9,9.1c-2.3,2.5-4.2,5-5.8,7.3c-1.6,2.3-2.8,4.6-3.8,6.7
		C418.5,85.9,418.4,86.7,418.4,87.5z"/>
	<path fill="#999999" d="M482.6,66.3c0.3,0,0.5,0.1,0.6,0.2c0.5,0.1,1,0.4,1.5,0.9c0.4,0.5,0.6,1,0.6,1.5c-0.1,0.8-0.5,1.6-1.1,2.4
		c-1.1,3.2-2.3,7.1-3.8,11.6c-1.5,4.5-3.3,9.8-5.4,15.8c10.2-1.8,19.8-2.7,28.9-2.7c1.7,0,3.1,0,4.3,0.2c1.2,0.1,2.3,0.2,3.3,0.3
		c0.7,0.1,1.5,0.4,2.3,0.9c0.8,0.5,1.5,1,2.1,1.8c0.6,0.7,1.1,1.4,1.5,2.3c0.4,0.8,0.6,1.6,0.6,2.5c0,0.8-0.2,1.5-0.5,2.2
		c-0.9,1.7-3,3.9-6.5,6.6c-0.6,0.5-1.1,0.8-1.5,0.8c-0.1,0-0.2,0-0.2-0.1c0-0.4,0.3-0.8,1-1.3c3.9-3.7,5.9-7,5.9-9.9
		c0-2.4-1.6-3.7-4.9-4c-0.9-0.1-2-0.1-3.3-0.2c-1.2,0-2.6,0-4.1,0c-6.1,0-11.5,0.2-16.5,0.5c-4.9,0.4-9.3,1-13.2,1.9
		c-19.7,56.1-43.5,85-71.5,86.8c-9.6,0.5-18.4-2.4-26.4-8.7c-8.1-6.3-12.1-13.4-12.1-21.3c0-2.5,0.5-5,1.6-7.5
		c5.1-11.9,21-23.2,47.9-33.8c18.3-7.3,37.4-12.8,57.4-16.6c1.5-3.5,3.3-8.9,5.4-16.3c0.3-1.1,0.6-2.2,0.8-3.2
		c0.2-1,0.5-1.8,0.8-2.6c-1.1,1.1-2.7,2.3-4.8,3.8c-2,1.5-4.5,3.3-7.5,5.5c-3.8,2.7-7.1,4.8-9.9,6.5s-5.2,3-7.1,3.9
		c-0.5,0.2-1.2,0.3-1.9,0.3c-2.4,0-3.6-1.2-3.6-3.6c0-0.9,0.3-2,0.9-3.1c3.1-6.4,8.6-12.1,16.4-17C468.5,68.6,475.8,66.2,482.6,66.3
		z M368.3,152.4c-0.8,2.1-1.2,4.3-1.2,6.4c0,7.1,3.5,13.3,10.5,18.7c7.4,5.7,15.7,8.3,25,7.9c16.1-0.6,31.5-12.7,46-36.2
		c4.5-7.3,8.5-14.9,12.3-22.9c3.7-8,7-16.5,9.9-25.5c-24.1,5.1-45.1,11.7-63.2,19.9C385.8,130.8,372.7,141.4,368.3,152.4z
		 M476.5,76.8c1.7-1.3,2.6-3.1,2.8-5.5c0-0.1,0-0.1,0-0.1c0,0,0,0,0-0.1c0-0.2,0-0.3,0.1-0.4c0-1.2-0.2-1.8-0.7-1.9
		c-0.7-0.3-2.3-0.1-4.6,0.5c-4.9,1.1-9.7,3.5-14.5,7.2c-5.1,4-8.3,8.1-9.7,12.2c-0.1,0.3-0.1,0.6-0.1,0.8c0,0.2,0,0.5,0,0.8
		c0,2.1,0.8,3.2,2.4,3.2c1.4,0,5.5-2.4,12.3-7.3c2.7-1.9,5.1-3.7,7.2-5.3C473.5,79.4,475.2,78,476.5,76.8z"/>
	<path fill="#999999" d="M521.8,57.1c-0.1-1.2-0.4-2.3-1-3.3c-0.6-1-1.3-1.7-2.3-2.2s-2.1-0.6-3.4-0.2c-2.3,0.9-5,2.5-7.8,4.8
		c-2.9,2.3-5.7,5-8.3,8.2c-2.6,3.2-4.9,6.6-6.7,10.3c-1.8,3.7-2.9,7.3-3,11c-0.1,1.3,0.2,2.6,0.9,3.8c0.7,1.2,1.5,2.2,2.5,3
		c1,0.9,2.1,1.5,3.3,2c1.2,0.4,2.3,0.5,3.3,0.4c1.2-0.2,2.4-0.6,3.8-1.1c1.3-0.5,2.5-1,3.8-1.6c1.2-0.6,2.3-1.2,3.3-1.9
		c1-0.6,1.9-1.2,2.6-1.8c0.5-0.3,0.7-0.6,0.4-0.8c-0.3-0.2-0.7-0.2-1.2,0.2c-1.8,1-4,2-6.5,2.9c-2.5,0.9-4.8,1.6-7,1.9
		c-0.9,0.1-1.7,0-2.5-0.2c-0.8-0.2-1.6-0.5-2.2-1c-0.6-0.5-1.1-1.2-1.5-2.1c-0.4-0.9-0.5-2.1-0.5-3.6c0.1-1.6,0.4-3.1,0.9-4.6
		c0.5-1.5,1.2-3,1.9-4.4c0.7-1.4,1.5-2.7,2.4-4c0.8-1.2,1.6-2.3,2.3-3.3h5.5c0.6-0.8,1.6-1.5,2.8-1.7h-0.6c3.3-0.5,6.3-1.4,8.9-2.7
		c2.6-1.3,4.4-2.8,5.4-4.7C521.7,59.4,521.9,58.3,521.8,57.1z M519.8,56.7c-0.1,0.8-0.4,1.7-1.1,2.8c-0.8,1.2-1.9,2.3-3.3,3.3
		c-1.4,1-2.9,1.9-4.6,2.7c-1.7,0.8-3.4,1.3-5.3,1.8c-1.9,0.4-3.7,0.6-5.4,0.6c2.3-2.5,4.7-4.8,7.2-7.1c2.5-2.3,5-4.2,7.5-5.6
		c1-0.5,1.9-0.8,2.7-0.8c0.8,0,1.3,0.2,1.8,0.6C519.7,55.3,519.8,55.9,519.8,56.7z"/>
</g>
<g>
	<path fill="#FFFFFF" d="M42.1,94.3c-0.4-0.2-0.5-0.5-0.5-0.7c0.1-0.2,0.3-0.4,0.7-0.6c0.4-0.2,0.8-0.3,1.2-0.3
		c3.4,0.1,6.8-0.1,10.3-0.7c3.4-0.6,6.6-1.5,9.4-2.8c1.2-0.5,2.2-1.3,3.1-2.3c0.9-1,1.4-2,1.8-3.2c0.3-1.2,0.3-2.3-0.1-3.5
		c-0.4-1.2-1.3-2.3-2.6-3.3c-0.9-0.7-2.1-1.3-3.9-2c-1.7-0.6-3.5-1.2-5.4-1.8c-1.9-0.5-3.7-1-5.5-1.3c-1.8-0.4-3.2-0.6-4.3-0.8
		c-0.4,0.5-1.3,1.8-2.8,3.8c-1.4,2-3,4.2-4.7,6.8c-1.7,2.6-3.4,5.2-5,7.9c-1.6,2.7-2.9,5-3.6,6.8c-0.7,1.3-1.2,2-1.5,2.1
		c-0.4,0.1-0.3-0.7,0.3-2.3c0.4-1.3,1.2-3.1,2.3-5.3c1.2-2.2,2.5-4.5,4-6.9c1.5-2.4,2.9-4.8,4.4-7.1c1.5-2.4,2.8-4.4,3.9-6
		c-0.5-0.1-0.9-0.2-1.2-0.3c-0.3-0.1-0.7-0.2-1.2-0.4c-0.5-0.2-0.9-0.5-1.2-0.8c-0.3-0.3-0.4-0.6-0.5-0.9c0-0.3,0-0.6,0.2-0.8
		c0.2-0.2,0.3-0.3,0.5-0.3c0.6-0.1,1.5-0.2,2.6-0.3c1.2-0.1,2.2-0.3,3.1-0.6c1.5-2.1,2.9-4.2,4.3-6.4c1.4-2.2,2.8-4.4,4.1-6.6
		c1.3-2.1,2.4-4.2,3.4-6.1c1-1.9,1.8-3.6,2.5-5.1c0.1-0.3,0.3-0.7,0.5-1.2c0.2-0.5,0.3-1,0.3-1.4c0-0.4,0-0.8-0.1-1.2
		c-0.1-0.4-0.4-0.6-0.9-0.7c-0.4-0.1-0.3-0.3,0.3-0.8c0.6-0.5,1.3-0.9,2.2-1.2c0.9-0.3,1.7-0.4,2.4-0.3c0.7,0.1,1,0.7,0.8,1.7
		c-0.1,0.9-0.6,2.2-1.3,3.8c-0.7,1.6-1.6,3.3-2.6,5.2c-1,1.9-2.2,3.8-3.4,5.8c-1.2,2-2.4,3.9-3.6,5.8c-1.2,1.8-2.2,3.5-3.1,5
		c-0.9,1.5-1.7,2.6-2.2,3.4c0.9-0.1,2.3-0.4,4-0.8c1.8-0.4,3.7-0.9,5.9-1.5c2.2-0.6,4.5-1.2,6.9-2c2.4-0.7,4.8-1.5,7.1-2.4
		c2.3-0.9,4.4-1.9,6.4-2.9c2-1,3.6-2,5-3.1c1.3-1,2.4-2.2,3.5-3.6c1.1-1.4,1.8-2.9,2.2-4.4c0.4-1.6,0.3-3.2-0.3-4.9
		c-0.6-1.7-1.9-3.3-4-4.8c-3.1-2.3-6.5-4.2-10.2-5.7c-3.7-1.5-7.5-2.6-11.4-3.5c-4-0.8-8-1.4-12.1-1.8c-4.1-0.3-8.2-0.5-12.3-0.6
		c-0.6,0-1.6,0-3.1-0.1s-3.2-0.1-5.2,0c-2,0.1-4.1,0.3-6.3,0.6c-2.2,0.3-4.4,0.8-6.5,1.5c-2.1,0.7-3.9,1.6-5.6,2.8
		c-1.7,1.2-3,2.6-3.9,4.3c-0.5,1-0.6,2-0.2,3.1c0.4,1.1,1,2.1,1.8,3c0.8,1,1.7,1.8,2.6,2.5c1,0.7,1.8,1.2,2.4,1.5
		c1,0.5,1.5,1.1,1.4,1.6c-0.1,0.5-0.7,0.4-1.9-0.4c-1.1-0.7-2.4-1.5-3.7-2.3c-1.3-0.9-2.5-1.9-3.6-2.9c-1-1-1.8-2.2-2.1-3.4
		C5.8,35,6,33.7,6.8,32.3c0.8-1.5,2.1-2.8,4-3.9c1.9-1,4-1.9,6.4-2.6c2.4-0.7,4.8-1.3,7.4-1.8c2.5-0.4,4.9-0.8,7.1-1
		c2.2-0.2,4-0.3,5.5-0.4c1.5-0.1,2.4-0.1,2.7-0.1c4.5,0.1,8.9,0.2,13.1,0.5c4.2,0.2,8.4,0.7,12.4,1.5c4,0.8,7.9,1.8,11.6,3.3
		c3.7,1.4,7.4,3.3,10.9,5.8c2.3,1.6,3.9,3.3,4.8,5.2c0.9,1.9,1.3,3.8,1,5.6c-0.3,1.9-1,3.8-2.4,5.5c-1.3,1.8-3,3.4-5.1,4.8
		c-2.6,1.7-5.5,3.3-8.6,4.6c-3.1,1.4-6.3,2.5-9.4,3.5c-3.2,1-6.2,1.8-9.2,2.5c-3,0.7-5.5,1.2-7.8,1.6c-0.9,0.1-1.3,0.4-1.3,0.8
		s0.4,0.7,1.2,0.8c2.1,0.3,4.1,0.7,6,1.3c1.9,0.6,3.6,1.3,5.2,2c1.6,0.7,2.9,1.5,4.1,2.2c1.1,0.7,2,1.4,2.5,1.9
		c1.5,1.5,2.4,3,2.4,4.3c0.1,1.4-0.2,2.7-0.9,3.9c-0.7,1.2-1.7,2.3-2.9,3.3c-1.2,1-2.4,1.9-3.5,2.7c-2.3,1.5-5.1,2.7-8.4,3.5
		c-3.3,0.8-7.1,1.1-11.3,0.9C43.2,94.6,42.5,94.5,42.1,94.3z"/>
	<path fill="#FFFFFF" d="M115.7,65.8c-1.5,1-3.2,1.7-5,2c-1.1,0.2-2.8,0.3-5.1,0.4c-2.2,0.1-4.7,0.1-7.4,0.2c-2.7,0.1-5.3,0.1-8,0.1
		c-2.7,0-5,0-7,0c-0.7,1-1.5,2.1-2.3,3.3c-0.8,1.2-1.6,2.6-2.4,4c-0.7,1.4-1.4,2.9-1.9,4.4c-0.5,1.5-0.8,3-0.9,4.6
		c-0.1,1.5,0.1,2.7,0.5,3.6c0.4,0.9,0.9,1.6,1.5,2.1c0.6,0.5,1.4,0.8,2.2,1c0.8,0.2,1.7,0.2,2.5,0.2c2.2-0.3,4.5-1,7-1.9
		c2.5-0.9,4.7-1.9,6.5-2.9c0.5-0.3,0.9-0.4,1.2-0.2c0.3,0.2,0.1,0.5-0.4,0.8c-0.7,0.5-1.6,1.1-2.6,1.8c-1,0.6-2.1,1.3-3.3,1.9
		c-1.2,0.6-2.4,1.1-3.8,1.6c-1.3,0.5-2.5,0.9-3.8,1.1c-1,0.2-2.1,0.1-3.3-0.4c-1.2-0.4-2.3-1.1-3.3-2c-1-0.9-1.8-1.9-2.5-3
		c-0.7-1.2-1-2.4-0.9-3.8c0.2-3.7,1.2-7.3,3.1-11c1.8-3.7,4.1-7.1,6.7-10.3c2.6-3.2,5.4-5.9,8.3-8.2c2.9-2.3,5.5-3.9,7.8-4.8
		c1.3-0.4,2.4-0.3,3.4,0.2s1.8,1.2,2.3,2.2c0.6,1,0.9,2.1,1,3.3c0.1,1.2-0.1,2.3-0.8,3.3c-1,1.9-2.8,3.4-5.4,4.7
		c-2.6,1.3-5.6,2.2-8.9,2.7c1.8,0,3.6,0,5.5,0c1.9,0,3.8,0,5.5,0c1.7,0,3.4-0.1,4.9-0.2c1.5-0.1,2.8-0.2,3.9-0.3
		c1.4-0.1,2.8-0.6,4.3-1.3c1.4-0.7,2.5-1.5,3.3-2.2c0.3-0.5,0.6-0.6,0.9-0.5c0.2,0.1,0.2,0.4-0.1,0.9
		C118.3,63.8,117.2,64.7,115.7,65.8z M104,55.6c0.1-0.8-0.1-1.4-0.5-1.9c-0.4-0.4-1-0.6-1.8-0.6c-0.8,0-1.6,0.3-2.6,0.8
		c-2.5,1.4-5,3.3-7.5,5.6c-2.5,2.3-4.9,4.7-7.2,7.1c1.7,0,3.5-0.2,5.4-0.6c1.9-0.4,3.6-1,5.3-1.8c1.7-0.8,3.2-1.7,4.5-2.7
		c1.4-1,2.5-2.1,3.3-3.3C103.6,57.3,103.9,56.4,104,55.6z"/>
	<path fill="#FFFFFF" d="M133.9,76.4c5.1-1.6,10.1-2.8,15.1-3.7l0.1,0.1c-4.7,0.9-9.5,2.4-14.4,4.3c-4.9,2-10,4.5-15.4,7.5
		c0.9,1.1,1.5,2.1,1.9,2.9c0.4,0.8,0.6,1.4,0.6,1.8c0,1.9-2.2,3.7-6.6,5.6c-3.7,1.7-6.8,2.5-9.1,2.5c-0.8,0-1.5-0.1-2.1-0.3
		c-0.9,0.1-1.7,0.3-2.3,0.4c-0.6,0.1-1,0.1-1.4,0c-0.9-0.1-1.1-0.5-0.6-1.3c1.1-1.4,5.6-4.8,13.5-10.3l-3.2-4.3
		c-0.7-0.9-1.3-1.8-1.6-2.7c-0.4-0.9-0.6-1.8-0.8-2.7c-0.5-4.5,4-9.5,13.6-15.1c4.8-2.9,9.3-5,13.5-6.3c4.2-1.4,8.2-2,12-2
		c0.4,0,0.8,0.2,1.1,0.6c0.3,0.6,0.3,1,0,1.3c-0.5,0.7-1.2,1.3-2.3,2c-1,0.7-1.8,0.9-2.3,0.8c-1.5-0.5-2.8-0.9-3.9-1.1
		c-1.1-0.2-2-0.3-2.7-0.3c-0.4,0-0.8,0-1.2,0c-0.4,0-0.7,0.1-1,0.2c-3.8,0.9-8.2,3.2-13.2,6.7c-6.3,4.3-9.3,8.1-8.8,11.4
		c0.2,1.3,0.9,3,2.2,5.1c1.4,2,2.5,3.2,3.4,3.7C123.6,80.3,128.8,78,133.9,76.4z M105.3,96.4c1.2,0.3,3.2-0.1,6.1-1.1
		c1.3-0.5,2.5-1,3.4-1.4s1.5-0.9,1.9-1.4c0.3-0.3,0.4-0.7,0.4-1.1c0-1.1-0.8-2.3-2.3-3.7c-1.1,0.7-2.7,1.8-4.9,3.4
		c-1.3,0.9-2.4,1.7-3.2,2.4c-0.8,0.7-1.4,1.3-1.7,1.8C104.4,95.9,104.5,96.3,105.3,96.4z"/>
	<path fill="#FFFFFF" d="M128.8,143.5c-1.8-1.9-2.9-4.1-3.4-6.5c-0.5-2.4-0.7-5.1-0.7-8c0-9.4,3.8-22.9,11.5-40.4
		c3.4-7.7,6.8-14.7,10.2-20.9s6.8-11.8,10.2-16.7c0.8-0.9,1.2-1.9,1.2-3c0-1.2-0.6-2.1-1.8-2.8c-2.4-0.9-3.3-2-2.8-3.1
		c0.2-0.4,1.2-0.7,3-0.9c1.8-0.2,4.3-0.3,7.4-0.3c0.3,0,0.3-0.1,0.1-0.3c-0.2-0.2-0.2-0.4-0.1-0.6c3.2-5,6.9-10,11.1-14.9
		c4.2-5,8.6-10.1,13.2-15.5c0.4-0.5,2.3-1.3,5.6-2.6c1.6-0.5,2.8-0.9,3.4-1.3c0.7-0.3,1.5-0.4,2.3-0.4c0.7,0,1.1,0.3,1.1,0.9
		c0,0.3-0.3,0.5-1,0.7c-6.3,1.3-16.6,11.8-31.1,31.7c-1.1,1.5-0.8,2.3,0.7,2.3h14.5c3.9,0,7,0,9.1,0c2.2,0,3.5,0,4,0
		c0.6,0,1,0.1,1.2,0.3c0,0.1-0.2,0.5-0.5,1c-0.4,0.6-0.9,0.9-1.5,1c-3.8,0.1-8.1,0.3-13,0.6c-4.9,0.3-10.5,0.6-16.8,1
		c-1.1,0.2-2,0.7-2.5,1.6c-3.5,5.2-6.9,10.4-10,15.5c-3.1,5.1-6.2,10.7-9.2,16.7c-4.6,9.5-8.2,18.2-10.9,25.9
		c-2.7,7.8-4.3,14.8-4.8,21c-0.1,0.9-0.1,1.7-0.1,2.4c0,0.8,0,1.6,0,2.4c0,11.6,4.1,17.4,12.3,17.4c2.3,0,4.9-0.4,7.8-1.3
		c4.2-1.3,8.4-3.4,12.5-6.3c4.1-2.9,8.3-6.6,12.6-11.2c4.4-4.6,7.8-8.9,10.1-12.9c2.4-4,3.8-7.8,4.4-11.4c0-6.3-2.2-9-6.7-8.3
		c-1,0.1-1.9,0.4-2.6,0.9c-0.7,0.5-1.3,0.7-1.6,0.7c-0.7,0-0.9-0.3-0.8-0.9c0.3-0.5,0.8-1,1.4-1.4c0.6-0.4,1.8-1,3.6-1.7
		c0.3-0.1,0.7-0.1,1.2-0.1c2.1,0,4.2,1.4,6.1,4.3c2,3,2.9,5.3,2.8,6.8c-1.3,8.8-7.7,18.4-19.1,28.7c-5.8,5.2-11.2,9.1-16.3,11.8
		c-5,2.7-9.8,4-14.3,4C136.7,149.5,132.3,147.5,128.8,143.5z"/>
	<path fill="#FFFFFF" d="M248.8,52.5c-9.1,18.1-17.4,31.1-24.8,39.1c-0.2,0.3-0.5,0.6-1,1c-0.5,0.4-1.1,0.7-1.9,1
		c-1.5,0.9-2.5,1.3-3.1,1.3c-0.5,0-0.8-0.7-0.8-2.2c0-3.9,3.6-10.6,10.8-20c2.9-3.8,5.9-7.4,9-10.8c3.1-3.4,6.3-6.8,9.8-10
		c1.5-2.8,2.8-5.7,4-8.6c1.2-2.9,2.3-5.8,3.3-8.8c1.8-5.6,2.7-9.6,2.7-12c0-2.3-0.5-3.8-1.6-4.6c-1-0.8-2.8-1.1-5.3-0.8
		c-7.2,0.8-16.6,5.7-28.1,14.8c-12,9.4-18,17-18,22.9c0,1.1,0.8,1.9,2.5,2.5c1.7,0.5,2.9,0.7,3.4,0.6c0.9-0.1,1.4-0.1,1.4,0.2
		c0,0.3-0.5,0.6-1.6,0.9c-1.1,0.4-2.2,0.4-3.4,0c-0.7-0.3-1.5-1-2.3-2.1c-0.8-1.1-1.2-2.4-1.2-3.7c0-4.1,3.1-9.3,9.2-15.6
		c5.7-5.7,12.3-10.7,19.8-15.2c7.7-4.6,13.7-7.1,18-7.4c2-0.1,4.1,0.7,6.2,2.3c2.1,1.7,3.2,3.4,3.1,5.2c-0.1,2.8-0.8,6.3-2.1,10.5
		c-1.3,4.2-3.1,9-5.4,14.5c8.5-7.4,14.4-11.1,17.7-11.1c1.3,0,2.5,0.5,3.5,1.7c1,1.1,1.4,2.3,1.3,3.5c-1,7.9-5.6,20.3-13.9,37.4
		c-0.5,1.1-0.3,1.7,0.7,1.7c0.5,0,1-0.3,1.4-1c6.4-8.5,15.2-18.2,26.4-29.2C302.4,36.9,312.3,30,318,29.7c1.7-0.1,3.1,0.8,4.2,2.9
		c0.9,1.9,1.4,3.7,1.4,5.6c0,1.1-0.2,1.9-0.5,2.2c-3.7,5.9-6.8,11-9.3,15.2c-2.5,4.2-4.4,7.4-5.8,9.8c-6.7,12.3-10.7,22.4-11.9,30.3
		c-0.1,0.3-0.1,0.5-0.1,0.7c0,0.3,0,0.5,0,0.7c0,2.6,1,3.7,3.1,3.2c0.9-0.3,2-0.8,3.4-1.5c1.3-0.7,2.8-1.7,4.4-3
		c3.1-2.4,5.5-4.6,7-6.5c0.6-0.8,1.1-1.2,1.4-1.2c0.2,0,0.3,0.1,0.3,0.3c0,0.4-0.3,1-0.8,1.7c-1.4,2.1-3.6,4.3-6.5,6.8
		c-1.7,1.5-3.3,2.7-4.8,3.6c-1.5,0.9-2.9,1.5-4.3,1.9c-1.1,0.3-2.2-0.3-3.2-1.9c-1.1-1.6-1.6-3.2-1.6-4.9
		c-0.1-5.9,2.9-15.1,8.8-27.6c2.4-4.9,5-9.9,7.8-15c2.8-5.1,5.9-10.2,9.2-15.4c0.5-0.7,0.9-1.4,1.1-2c0.2-0.6,0.3-1.2,0.3-1.7
		c0-1.5-1-2.2-3-2.2c-0.9,0-1.8,0.1-2.8,0.4c-5.9,1.5-15.5,8.8-28.6,21.7c-11.5,11.3-21.7,22.8-30.5,34.4c-0.7,0.9-1.7,1.3-3.1,1.3
		c-1.1,0-1.6-0.3-1.6-1c0-0.1,0-0.3,0-0.4c0-0.1,0.1-0.3,0.2-0.4c5.8-11,10.3-20.4,13.5-28.1c3.2-7.7,5.3-13.9,6.1-18.5
		c0.3-2.2-0.5-3.3-2.3-3.3c-2.6,0-6.3,1.9-11.2,5.7C254.3,46.7,251.1,49.7,248.8,52.5z M222.8,90.4c1.5-1.7,3.3-4,5.4-6.8
		c2-2.8,4.3-6.2,6.8-10.2c5.1-7.9,8.3-13.6,9.8-17.3c-3.9,3.3-8.1,8.1-12.7,14.3c-5.5,7.2-9.1,13.3-10.9,18.4
		c-0.7,1.8-0.7,2.7,0.2,2.7C221.8,91.5,222.3,91.1,222.8,90.4z"/>
	<path fill="#FFFFFF" d="M315.8,93.4c-1.7,0-2.5-1.2-2.5-3.5c0-4.7,3.7-10.8,11.1-18.2c3.4-3.4,6.6-6.1,9.6-8.3
		c3-2.1,5.8-3.7,8.4-4.8c0.6-0.2,1.3-0.4,2-0.5c0.7-0.2,1.4-0.3,2.2-0.3c0.8,0,1.6,0.1,2.4,0.3c0.8,0.2,1.6,0.4,2.4,0.7
		c1.1,0.1,1.8,0.2,1.9,0.1c1.2-0.2,2.1-0.6,2.6-1.3c0.1-0.1,0.3-0.2,0.6-0.2c0.3,0,0.5,0.2,0.7,0.5c0.2,0.3,0.3,0.6,0.2,0.7
		c-1.9,3-3.8,6-5.8,8.8c-1.9,2.9-3.8,5.9-5.5,8.9c-1.4,2.3-2.8,5-4.1,8c-1.3,3-2.5,6.1-3.6,9.2c-1.1,3.1-2,6-2.9,8.8
		c-0.8,2.8-1.3,5.2-1.6,7.1c-0.1,0.3-0.1,0.6-0.1,0.9c0,0.3,0,0.7,0,1c0,2.3,0.7,4,2.1,5c1.4,1.1,3.3,1.7,5.7,1.7
		c2.4,0,4.8-0.4,7.1-1.2c3.5-1.2,8.1-4.1,13.8-8.6c2.7-2.2,5.2-4.5,7.4-6.8c2.2-2.3,4-4.5,5.6-6.6c0.6-0.7,1-1,1.2-1
		c0.1,0.1,0.1,0.2,0.1,0.3c0,0.3-0.1,0.6-0.4,1.1c-1.5,2.3-3.4,4.7-5.5,7.2c-2.2,2.5-4.8,5.1-7.8,7.6c-2.8,2.3-5.3,4.1-7.5,5.6
		c-2.2,1.5-4.3,2.5-6.2,3.2c-0.9,0.3-1.9,0.6-2.8,0.8c-0.9,0.2-1.9,0.3-3,0.3c-1.6,0-3.1-0.3-4.4-0.8c-1.3-0.5-2.5-1.1-3.6-1.8
		c-1.3-0.7-2.2-1.8-2.7-3.2c-0.5-1.4-0.7-2.9-0.6-4.7c0.1-1.4,0.3-3.3,0.8-5.6c0.5-2.3,1.2-4.8,2-7.5c0.8-2.6,1.7-5.2,2.6-7.8
		c0.9-2.6,1.9-4.9,2.8-6.9c1.1-2.4,2.3-4.6,3.4-6.7c1.1-2.1,2.2-4,3.3-5.7c0.5-0.7,0.4-1.1-0.1-1.1c-0.1,0-0.2,0.1-0.3,0.2
		c-1.6,1.9-3.5,4-5.8,6.1c-2.2,2.1-4.8,4.5-7.8,7c-5.9,4.9-10.9,8.6-15.1,11.1C317.2,93.1,316.5,93.4,315.8,93.4z M319.3,86.4
		c0,1.6,0.6,2.4,1.8,2.4c0.5,0,1-0.2,1.5-0.5c3.7-2.3,7.7-5.5,11.8-9.5c4.1-4,8.6-8.8,13.3-14.5c0.2-0.2,0.3-0.4,0.3-0.7
		c0-0.7-0.4-1.4-1.3-2c-0.9-0.6-2-1-3.3-1c-0.7,0-1.5,0.1-2.3,0.3c-3.1,0.8-7.1,3.8-11.9,9.1c-2.3,2.5-4.2,5-5.8,7.3
		c-1.6,2.3-2.8,4.6-3.8,6.7C319.4,84.8,319.3,85.6,319.3,86.4z"/>
	<path fill="#FFFFFF" d="M379.8,76.4c5.1-1.6,10.1-2.8,15.1-3.7l0.1,0.1c-4.7,0.9-9.4,2.4-14.3,4.3c-4.9,2-10,4.5-15.4,7.5
		c0.9,1.1,1.5,2.1,1.9,2.9c0.4,0.8,0.5,1.4,0.5,1.8c0,1.9-2.2,3.7-6.6,5.6c-3.7,1.7-6.8,2.5-9.1,2.5c-0.8,0-1.5-0.1-2.1-0.3
		c-0.9,0.1-1.7,0.3-2.3,0.4c-0.6,0.1-1,0.1-1.4,0c-0.9-0.1-1.1-0.5-0.6-1.3c1.1-1.4,5.6-4.8,13.5-10.3l-3.2-4.3
		c-0.7-0.9-1.3-1.8-1.6-2.7c-0.4-0.9-0.6-1.8-0.8-2.7c-0.5-4.5,4-9.5,13.6-15.1c4.8-2.9,9.3-5,13.5-6.3c4.2-1.4,8.2-2,12-2
		c0.4,0,0.8,0.2,1.1,0.6c0.3,0.6,0.3,1,0,1.3c-0.5,0.7-1.2,1.3-2.3,2c-1,0.7-1.8,0.9-2.3,0.8c-1.5-0.5-2.8-0.9-3.9-1.1
		c-1.1-0.2-2-0.3-2.7-0.3c-0.4,0-0.8,0-1.2,0c-0.4,0-0.7,0.1-1.1,0.2c-3.8,0.9-8.2,3.2-13.2,6.7c-6.3,4.3-9.3,8.1-8.8,11.4
		c0.2,1.3,0.9,3,2.2,5.1c1.4,2,2.5,3.2,3.4,3.7C369.5,80.3,374.7,78,379.8,76.4z M351.2,96.4c1.2,0.3,3.2-0.1,6.1-1.1
		c1.3-0.5,2.5-1,3.4-1.4c0.9-0.4,1.5-0.9,1.8-1.4c0.3-0.3,0.4-0.7,0.4-1.1c0-1.1-0.8-2.3-2.3-3.7c-1.1,0.7-2.7,1.8-4.9,3.4
		c-1.3,0.9-2.4,1.7-3.2,2.4c-0.8,0.7-1.4,1.3-1.7,1.8C350.2,95.9,350.4,96.3,351.2,96.4z"/>
	<path fill="#FFFFFF" d="M410.2,76.4c5.1-1.6,10.1-2.8,15.1-3.7l0.1,0.1c-4.7,0.9-9.5,2.4-14.3,4.3c-4.9,2-10,4.5-15.4,7.5
		c0.9,1.1,1.5,2.1,1.9,2.9c0.4,0.8,0.5,1.4,0.5,1.8c0,1.9-2.2,3.7-6.6,5.6c-3.7,1.7-6.8,2.5-9.1,2.5c-0.8,0-1.5-0.1-2.1-0.3
		c-0.9,0.1-1.7,0.3-2.3,0.4c-0.6,0.1-1,0.1-1.4,0c-0.9-0.1-1.1-0.5-0.6-1.3c1.1-1.4,5.6-4.8,13.5-10.3l-3.2-4.3
		c-0.7-0.9-1.3-1.8-1.7-2.7c-0.4-0.9-0.6-1.8-0.8-2.7c-0.5-4.5,4-9.5,13.6-15.1c4.8-2.9,9.3-5,13.5-6.3c4.2-1.4,8.2-2,12-2
		c0.4,0,0.8,0.2,1.1,0.6c0.3,0.6,0.3,1,0,1.3c-0.5,0.7-1.2,1.3-2.3,2c-1,0.7-1.8,0.9-2.3,0.8c-1.5-0.5-2.8-0.9-3.9-1.1
		c-1.1-0.2-2-0.3-2.7-0.3c-0.4,0-0.8,0-1.2,0c-0.4,0-0.7,0.1-1,0.2c-3.8,0.9-8.2,3.2-13.2,6.7c-6.3,4.3-9.3,8.1-8.8,11.4
		c0.2,1.3,0.9,3,2.2,5.1c1.4,2,2.5,3.2,3.4,3.7C399.9,80.3,405.1,78,410.2,76.4z M381.6,96.4c1.2,0.3,3.2-0.1,6.1-1.1
		c1.3-0.5,2.5-1,3.4-1.4c0.9-0.4,1.5-0.9,1.8-1.4c0.3-0.3,0.4-0.7,0.4-1.1c0-1.1-0.8-2.3-2.3-3.7c-1.1,0.7-2.7,1.8-4.9,3.4
		c-1.3,0.9-2.4,1.7-3.2,2.4c-0.8,0.7-1.4,1.3-1.7,1.8C380.6,95.9,380.8,96.3,381.6,96.4z"/>
	<path fill="#FFFFFF" d="M413.9,93.4c-1.7,0-2.5-1.2-2.5-3.5c0-4.7,3.7-10.8,11.1-18.2c3.4-3.4,6.6-6.1,9.6-8.3
		c3-2.1,5.8-3.7,8.4-4.8c0.6-0.2,1.3-0.4,2-0.5c0.7-0.2,1.4-0.3,2.2-0.3c0.8,0,1.6,0.1,2.4,0.3c0.8,0.2,1.6,0.4,2.4,0.7
		c1.1,0.1,1.8,0.2,1.9,0.1c1.2-0.2,2.1-0.6,2.6-1.3c0.1-0.1,0.3-0.2,0.6-0.2c0.3,0,0.5,0.2,0.7,0.5c0.2,0.3,0.3,0.6,0.2,0.7
		c-1.9,3-3.9,6-5.8,8.8c-1.9,2.9-3.8,5.9-5.5,8.9c-1.4,2.3-2.8,5-4.1,8c-1.3,3-2.5,6.1-3.6,9.2c-1.1,3.1-2.1,6-2.9,8.8
		s-1.3,5.2-1.6,7.1c-0.1,0.3-0.1,0.6-0.1,0.9c0,0.3,0,0.7,0,1c0,2.3,0.7,4,2.1,5c1.4,1.1,3.3,1.7,5.7,1.7c2.4,0,4.8-0.4,7.1-1.2
		c3.5-1.2,8.1-4.1,13.8-8.6c2.7-2.2,5.2-4.5,7.4-6.8c2.2-2.3,4-4.5,5.6-6.6c0.6-0.7,1-1,1.2-1c0.1,0.1,0.1,0.2,0.1,0.3
		c0,0.3-0.1,0.6-0.4,1.1c-1.5,2.3-3.4,4.7-5.5,7.2c-2.2,2.5-4.8,5.1-7.8,7.6c-2.8,2.3-5.3,4.1-7.6,5.6c-2.2,1.5-4.3,2.5-6.1,3.2
		c-0.9,0.3-1.9,0.6-2.8,0.8c-0.9,0.2-1.9,0.3-3,0.3c-1.6,0-3.1-0.3-4.4-0.8c-1.3-0.5-2.5-1.1-3.6-1.8c-1.3-0.7-2.2-1.8-2.7-3.2
		c-0.5-1.4-0.7-2.9-0.7-4.7c0.1-1.4,0.4-3.3,0.9-5.6c0.5-2.3,1.1-4.8,2-7.5c0.8-2.6,1.7-5.2,2.6-7.8c0.9-2.6,1.9-4.9,2.8-6.9
		c1.1-2.4,2.3-4.6,3.4-6.7c1.1-2.1,2.2-4,3.3-5.7c0.5-0.7,0.4-1.1-0.1-1.1c-0.1,0-0.2,0.1-0.3,0.2c-1.6,1.9-3.5,4-5.8,6.1
		c-2.2,2.1-4.8,4.5-7.8,7c-5.9,4.9-10.9,8.6-15.1,11.1C415.3,93.1,414.5,93.4,413.9,93.4z M417.4,86.4c0,1.6,0.6,2.4,1.8,2.4
		c0.5,0,1-0.2,1.5-0.5c3.7-2.3,7.7-5.5,11.8-9.5c4.1-4,8.6-8.8,13.3-14.5c0.2-0.2,0.3-0.4,0.3-0.7c0-0.7-0.4-1.4-1.3-2
		c-0.9-0.6-2-1-3.3-1c-0.7,0-1.5,0.1-2.3,0.3c-3.1,0.8-7.1,3.8-11.9,9.1c-2.3,2.5-4.2,5-5.8,7.3c-1.6,2.3-2.8,4.6-3.8,6.7
		C417.5,84.8,417.4,85.6,417.4,86.4z"/>
	<path fill="#FFFFFF" d="M481.6,65.2c0.3,0,0.5,0.1,0.6,0.2c0.5,0.1,1,0.4,1.5,0.9c0.4,0.5,0.6,1,0.6,1.5c-0.1,0.8-0.5,1.6-1.1,2.4
		c-1.1,3.2-2.3,7.1-3.8,11.6c-1.5,4.5-3.3,9.8-5.4,15.8c10.2-1.8,19.8-2.7,28.9-2.7c1.7,0,3.1,0,4.3,0.2c1.2,0.1,2.3,0.2,3.3,0.3
		c0.7,0.1,1.5,0.4,2.3,0.9c0.8,0.5,1.5,1,2.1,1.8c0.6,0.7,1.1,1.4,1.5,2.3c0.4,0.8,0.6,1.6,0.6,2.5c0,0.8-0.2,1.5-0.5,2.2
		c-0.9,1.7-3,3.9-6.5,6.6c-0.6,0.5-1.1,0.8-1.5,0.8c-0.1,0-0.2,0-0.2-0.1c0-0.4,0.3-0.8,1-1.3c3.9-3.7,5.9-7,5.9-9.9
		c0-2.4-1.6-3.7-4.9-4c-0.9-0.1-2-0.1-3.3-0.2c-1.2,0-2.6,0-4.1,0c-6.1,0-11.5,0.2-16.5,0.5c-4.9,0.4-9.3,1-13.2,1.9
		c-19.7,56.1-43.5,85-71.5,86.8c-9.6,0.5-18.4-2.4-26.4-8.7c-8.1-6.3-12.1-13.4-12.1-21.3c0-2.5,0.5-5,1.6-7.5
		c5.1-11.9,21-23.2,47.9-33.8c18.3-7.3,37.4-12.8,57.4-16.6c1.5-3.5,3.3-8.9,5.4-16.3c0.3-1.1,0.6-2.2,0.8-3.2
		c0.2-1,0.5-1.8,0.8-2.6c-1.1,1.1-2.7,2.3-4.8,3.8c-2,1.5-4.5,3.3-7.5,5.5c-3.8,2.7-7.1,4.8-9.9,6.5s-5.2,3-7.1,3.9
		c-0.5,0.2-1.2,0.3-1.9,0.3c-2.4,0-3.6-1.2-3.6-3.6c0-0.9,0.3-2,0.9-3.1c3.1-6.4,8.6-12.1,16.4-17C467.5,67.5,474.8,65.1,481.6,65.2
		z M367.3,151.3c-0.8,2.1-1.2,4.3-1.2,6.4c0,7.1,3.5,13.3,10.5,18.7c7.4,5.7,15.7,8.3,25,7.9c16.1-0.6,31.5-12.7,46-36.2
		c4.5-7.3,8.5-14.9,12.3-22.9c3.7-8,7-16.5,9.9-25.5c-24.1,5.1-45.1,11.7-63.2,19.9C384.8,129.7,371.7,140.3,367.3,151.3z
		 M475.5,75.7c1.7-1.3,2.6-3.1,2.8-5.5c0-0.1,0-0.1,0-0.1c0,0,0,0,0-0.1c0-0.2,0-0.3,0.1-0.4c0-1.2-0.2-1.8-0.7-1.9
		c-0.7-0.3-2.3-0.1-4.6,0.5c-4.9,1.1-9.7,3.5-14.5,7.2c-5.1,4-8.3,8.1-9.7,12.2c-0.1,0.3-0.1,0.6-0.1,0.8c0,0.2,0,0.5,0,0.8
		c0,2.1,0.8,3.2,2.4,3.2c1.4,0,5.5-2.4,12.3-7.3c2.7-1.9,5.1-3.7,7.2-5.3C472.5,78.3,474.1,76.9,475.5,75.7z"/>
	<path fill="#FFFFFF" d="M520.8,56c-0.1-1.2-0.4-2.3-1-3.3c-0.6-1-1.3-1.7-2.3-2.2s-2.1-0.6-3.4-0.2c-2.3,0.9-5,2.5-7.8,4.8
		c-2.9,2.3-5.7,5-8.3,8.2c-2.6,3.2-4.9,6.6-6.7,10.3c-1.8,3.7-2.9,7.3-3,11c-0.1,1.3,0.2,2.6,0.9,3.8c0.7,1.2,1.5,2.2,2.5,3
		c1,0.9,2.1,1.5,3.3,2c1.2,0.4,2.3,0.5,3.3,0.4c1.2-0.2,2.4-0.6,3.8-1.1c1.3-0.5,2.5-1,3.8-1.6c1.2-0.6,2.3-1.2,3.3-1.9
		c1-0.6,1.9-1.2,2.6-1.8c0.5-0.3,0.7-0.6,0.4-0.8c-0.3-0.2-0.7-0.2-1.2,0.2c-1.8,1-4,2-6.5,2.9c-2.5,0.9-4.8,1.6-7,1.9
		c-0.9,0.1-1.7,0-2.5-0.2c-0.8-0.2-1.6-0.5-2.2-1c-0.6-0.5-1.1-1.2-1.5-2.1c-0.4-0.9-0.5-2.1-0.5-3.6c0.1-1.6,0.4-3.1,0.9-4.6
		c0.5-1.5,1.2-3,1.9-4.4c0.7-1.4,1.5-2.7,2.4-4c0.8-1.2,1.6-2.3,2.3-3.3h5.5c0.6-0.8,1.6-1.5,2.8-1.7h-0.6c3.3-0.5,6.3-1.4,8.9-2.7
		c2.6-1.3,4.4-2.8,5.4-4.7C520.7,58.3,520.9,57.2,520.8,56z M518.8,55.6c-0.1,0.8-0.4,1.7-1.1,2.8c-0.8,1.2-1.9,2.3-3.3,3.3
		c-1.4,1-2.9,1.9-4.6,2.7c-1.7,0.8-3.4,1.3-5.3,1.8c-1.9,0.4-3.7,0.6-5.4,0.6c2.3-2.5,4.7-4.8,7.2-7.1c2.5-2.3,5-4.2,7.5-5.6
		c1-0.5,1.9-0.8,2.7-0.8c0.8,0,1.3,0.2,1.8,0.6C518.7,54.2,518.8,54.8,518.8,55.6z"/>
</g>
</svg>
