<?xml version="1.0" encoding="utf-8"?>
<!-- Generator: Adobe Illustrator 18.1.1, SVG Export Plug-In . SVG Version: 6.00 Build 0)  -->
<svg version="1.1" id="Layer_1" xmlns="http://www.w3.org/2000/svg" xmlns:xlink="http://www.w3.org/1999/xlink" x="0px" y="0px"
	 viewBox="11.1 112 939.5 325.2" enable-background="new 11.1 112 939.5 325.2" xml:space="preserve">
<g>
	<path fill="#BCBCBC" d="M78,272.6c-0.7-0.4-0.9-0.8-0.8-1.3c0.1-0.4,0.5-0.8,1.3-1.1c0.7-0.3,1.4-0.4,2.2-0.4
		c6.1,0.2,12.2-0.2,18.4-1.3c6.2-1.1,11.8-2.8,16.8-5c2.2-1,4-2.3,5.6-4c1.6-1.7,2.6-3.6,3.1-5.7c0.5-2.1,0.4-4.2-0.3-6.4
		s-2.3-4.1-4.7-5.9c-1.6-1.2-3.9-2.4-6.9-3.5c-3.1-1.1-6.3-2.2-9.6-3.1c-3.4-1-6.6-1.8-9.9-2.4c-3.2-0.7-5.8-1.1-7.7-1.3
		c-0.7,1-2.4,3.2-4.9,6.7c-2.6,3.5-5.4,7.6-8.4,12.2c-3.1,4.6-6,9.3-9,14.2c-2.9,4.8-5.1,8.9-6.5,12.3c-1.2,2.4-2.1,3.6-2.8,3.8
		c-0.7,0.1-0.5-1.3,0.4-4.1c0.7-2.4,2.1-5.6,4.2-9.5c2.1-3.9,4.5-8.1,7.1-12.4c2.6-4.3,5.3-8.6,7.9-12.8c2.6-4.2,5-7.9,7-10.9
		c-0.8-0.2-1.6-0.4-2.2-0.5c-0.6-0.1-1.3-0.4-2.2-0.7c-1-0.4-1.7-0.8-2.2-1.3c-0.5-0.5-0.7-1.1-0.8-1.6c-0.1-0.5,0.1-1,0.4-1.4
		c0.3-0.4,0.6-0.6,1-0.6c1.1-0.1,2.7-0.3,4.8-0.4c2.1-0.2,3.9-0.5,5.5-1c2.6-3.7,5.2-7.6,7.8-11.6c2.6-4,5-7.9,7.3-11.8
		c2.3-3.8,4.3-7.5,6.1-10.9c1.8-3.5,3.3-6.5,4.5-9.2c0.2-0.5,0.5-1.2,0.8-2.1c0.3-0.9,0.5-1.7,0.5-2.5c0.1-0.8,0-1.5-0.3-2.2
		c-0.2-0.7-0.8-1-1.6-1.2c-0.7-0.1-0.5-0.6,0.5-1.4c1.1-0.8,2.4-1.5,3.9-2.1c1.6-0.5,3-0.7,4.3-0.5c1.3,0.2,1.8,1.2,1.4,3
		c-0.2,1.7-1,3.9-2.3,6.8c-1.3,2.9-2.9,6-4.8,9.3c-1.9,3.4-3.9,6.8-6,10.4c-2.2,3.6-4.3,7-6.4,10.3c-2.1,3.3-4,6.3-5.7,8.9
		c-1.7,2.6-3,4.7-3.9,6.1c1.7-0.2,4.1-0.7,7.3-1.4c3.2-0.7,6.7-1.6,10.6-2.6c3.9-1,8-2.2,12.4-3.5c4.4-1.3,8.6-2.8,12.7-4.4
		s8-3.3,11.5-5.1c3.5-1.8,6.5-3.6,8.9-5.6c2.3-1.8,4.4-3.9,6.3-6.5c1.9-2.5,3.2-5.2,3.9-8c0.7-2.8,0.6-5.7-0.4-8.7
		c-1-3-3.4-5.9-7.1-8.6c-5.6-4.2-11.7-7.6-18.3-10.2c-6.6-2.6-13.4-4.7-20.5-6.2c-7.1-1.5-14.4-2.5-21.8-3.1
		c-7.4-0.6-14.8-1-22.1-1.1c-1.1,0-3-0.1-5.7-0.2c-2.7-0.1-5.8-0.1-9.3,0.1c-3.5,0.2-7.3,0.5-11.3,1.1c-4,0.5-7.9,1.4-11.6,2.6
		c-3.7,1.2-7.1,2.8-10.1,4.9c-3.1,2.1-5.4,4.7-6.9,7.8c-1,1.8-1.1,3.7-0.4,5.6c0.7,1.9,1.8,3.7,3.2,5.5c1.4,1.7,3,3.2,4.8,4.5
		c1.7,1.3,3.1,2.2,4.2,2.8c1.8,1,2.6,1.9,2.5,2.9c-0.1,1-1.3,0.7-3.4-0.7c-2-1.2-4.2-2.6-6.6-4.2c-2.4-1.6-4.5-3.3-6.4-5.2
		c-1.9-1.9-3.1-3.9-3.9-6.1c-0.7-2.2-0.4-4.6,1.1-7.1c1.4-2.8,3.9-5.1,7.3-6.9c3.4-1.9,7.2-3.4,11.5-4.8c4.2-1.3,8.6-2.4,13.2-3.1
		c4.5-0.8,8.8-1.3,12.6-1.7c3.9-0.4,7.2-0.6,10-0.7c2.8-0.1,4.4-0.2,4.8-0.2c8.1,0.1,16,0.4,23.6,0.8c7.6,0.4,15,1.3,22.2,2.7
		c7.2,1.4,14.1,3.3,20.8,5.8c6.7,2.5,13.2,6,19.6,10.4c4.1,2.9,6.9,6,8.6,9.3c1.7,3.4,2.3,6.7,1.8,10.1c-0.5,3.4-1.9,6.7-4.2,10
		c-2.3,3.2-5.4,6.1-9.2,8.6c-4.7,3.1-9.8,5.9-15.4,8.3c-5.6,2.5-11.3,4.6-17,6.4c-5.7,1.8-11.2,3.3-16.5,4.5
		c-5.3,1.2-10,2.2-13.9,2.9c-1.6,0.2-2.3,0.7-2.3,1.4s0.7,1.2,2.2,1.4c3.7,0.5,7.3,1.3,10.7,2.3c3.4,1.1,6.5,2.3,9.3,3.6
		c2.8,1.3,5.2,2.6,7.3,3.9c2,1.3,3.5,2.5,4.5,3.4c2.8,2.8,4.2,5.4,4.4,7.8c0.2,2.5-0.4,4.8-1.6,6.9c-1.3,2.2-3,4.1-5.2,5.9
		c-2.2,1.8-4.3,3.4-6.4,4.8c-4.1,2.8-9.1,4.8-15,6.3c-5.9,1.4-12.6,2-20.2,1.6C79.9,273.3,78.6,273,78,272.6z"/>
	<path fill="#BCBCBC" d="M210.1,221.5c-2.7,1.9-5.7,3-9.1,3.5c-2,0.4-5.1,0.6-9.1,0.7c-4,0.1-8.4,0.2-13.2,0.4
		c-4.8,0.1-9.6,0.2-14.4,0.2c-4.8,0-9,0-12.6,0c-1.3,1.8-2.7,3.8-4.2,6c-1.5,2.2-2.9,4.6-4.2,7.1c-1.3,2.5-2.5,5.1-3.4,7.8
		c-1,2.7-1.5,5.5-1.6,8.3c-0.1,2.6,0.1,4.8,0.8,6.5c0.7,1.7,1.6,3,2.7,3.9c1.1,0.9,2.5,1.5,3.9,1.8c1.5,0.3,3,0.4,4.6,0.3
		c3.9-0.6,8.2-1.7,12.6-3.4c4.5-1.7,8.3-3.4,11.6-5.2c1-0.6,1.7-0.7,2.2-0.3c0.5,0.4,0.2,0.9-0.7,1.5c-1.3,1-2.9,2-4.7,3.1
		c-1.8,1.1-3.8,2.2-5.9,3.3c-2.2,1.1-4.4,2.1-6.7,3c-2.3,0.9-4.6,1.5-6.7,1.9c-1.8,0.4-3.8,0.2-5.9-0.6c-2.2-0.8-4.1-1.9-5.9-3.5
		c-1.8-1.6-3.3-3.4-4.5-5.5c-1.2-2.1-1.7-4.3-1.6-6.7c0.4-6.6,2.2-13.2,5.5-19.7c3.3-6.6,7.3-12.7,12-18.4
		c4.7-5.7,9.7-10.6,14.9-14.7c5.2-4.1,9.9-7,14.1-8.7c2.3-0.7,4.3-0.6,6.1,0.3c1.8,0.9,3.2,2.2,4.2,3.9c1,1.7,1.6,3.7,1.8,5.8
		c0.2,2.2-0.3,4.1-1.3,5.9c-1.8,3.4-5,6.2-9.7,8.4c-4.7,2.3-10,3.9-16,4.8c3.2,0,6.5,0,9.9,0c3.5,0,6.8,0,9.9-0.1
		c3.1-0.1,6-0.1,8.7-0.3c2.7-0.1,5-0.3,6.9-0.5c2.5-0.2,5.1-1,7.6-2.3c2.6-1.3,4.6-2.6,6-3.9c0.6-0.8,1.1-1.1,1.5-0.9
		c0.4,0.2,0.3,0.8-0.3,1.6C214.7,218,212.7,219.6,210.1,221.5z M189,203.3c0.1-1.4-0.2-2.5-0.9-3.3c-0.7-0.8-1.8-1.1-3.1-1.1
		c-1.4,0.1-3,0.6-4.8,1.5c-4.4,2.5-8.9,5.8-13.5,10c-4.5,4.1-8.9,8.4-12.9,12.8c3.1,0,6.3-0.4,9.7-1.1c3.3-0.7,6.5-1.8,9.5-3.1
		c3-1.4,5.7-3,8.2-4.8c2.5-1.8,4.4-3.8,5.8-5.9C188.2,206.4,188.8,204.7,189,203.3z"/>
	<path fill="#BCBCBC" d="M178.7,271.1c-3,0-4.5-2.1-4.5-6.3c0-8.5,6.6-19.4,19.9-32.7c6.1-6.1,11.8-11,17.2-14.8s10.4-6.6,15.1-8.5
		c1.1-0.4,2.2-0.7,3.5-1c1.3-0.3,2.5-0.4,3.9-0.4c1.4,0,2.9,0.2,4.3,0.4c1.4,0.3,2.9,0.7,4.3,1.2c2,0.2,3.2,0.3,3.4,0.2
		c2.2-0.4,3.7-1.1,4.7-2.3c0.2-0.2,0.6-0.4,1.1-0.4c0.5,0,0.9,0.3,1.3,0.9c0.4,0.6,0.5,1,0.4,1.3c-3.5,5.4-6.9,10.7-10.3,15.9
		c-3.4,5.2-6.7,10.5-10,15.9c-2.5,4.2-5,9-7.4,14.4c-2.4,5.4-4.6,10.9-6.5,16.5s-3.7,10.9-5.1,15.9c-1.4,5-2.4,9.3-2.9,12.7
		c-0.1,0.6-0.2,1.1-0.2,1.6c0,0.6,0,1.2,0,1.8c0,4.1,1.3,7.1,3.8,9.1c2.5,2,5.9,3,10.2,3s8.6-0.7,12.7-2.2
		c6.3-2.2,14.6-7.3,24.8-15.4c4.9-3.9,9.3-8,13.2-12.2c3.9-4.2,7.3-8.1,10.1-11.8c1.1-1.2,1.8-1.8,2.2-1.8c0.1,0.1,0.2,0.3,0.2,0.5
		c0,0.5-0.2,1.1-0.7,2c-2.8,4.1-6.1,8.4-10,12.9c-3.9,4.5-8.5,9.1-13.9,13.6c-5,4.1-9.5,7.4-13.5,10c-4,2.6-7.7,4.5-11,5.7
		c-1.7,0.6-3.4,1-5,1.3c-1.7,0.3-3.5,0.4-5.4,0.4c-2.9,0-5.5-0.4-7.9-1.3c-2.4-0.9-4.5-2-6.5-3.3c-2.3-1.3-3.9-3.2-4.8-5.7
		c-0.9-2.5-1.3-5.2-1.2-8.3c0.1-2.5,0.6-5.9,1.5-10c0.9-4.2,2.1-8.6,3.5-13.4c1.4-4.7,3-9.4,4.7-14.1c1.7-4.7,3.3-8.8,5-12.4
		c2-4.3,4-8.3,6-12c2-3.7,4-7.1,6-10.2c0.8-1.3,0.8-2-0.2-2c-0.1,0-0.3,0.1-0.5,0.4c-2.9,3.5-6.3,7.1-10.3,10.9
		c-4,3.8-8.6,8-13.9,12.6c-10.5,8.9-19.6,15.5-27.1,19.9C181.3,270.6,179.9,271.1,178.7,271.1z M185,258.5c0,2.9,1.1,4.3,3.2,4.3
		c0.8,0,1.7-0.3,2.7-0.9c6.7-4.2,13.8-9.8,21.2-17c7.4-7.1,15.4-15.8,23.9-25.9c0.4-0.4,0.5-0.8,0.5-1.3c0-1.3-0.8-2.5-2.3-3.7
		c-1.6-1.1-3.5-1.7-5.9-1.7c-1.3,0-2.7,0.2-4.1,0.5c-5.6,1.4-12.7,6.9-21.4,16.3c-4.1,4.5-7.5,8.9-10.3,13.1
		c-2.8,4.2-5.1,8.2-6.7,12C185.3,255.7,185,257.1,185,258.5z"/>
	<path fill="#BCBCBC" d="M313.8,218.7c-1.7,2.5-3.5,5.6-5.6,9.2c-2,3.6-4,7.3-5.8,11c-1.9,3.8-3.5,7.4-4.9,11
		c-1.4,3.6-2.3,6.6-2.7,9c-0.4,2.2-0.4,3.7-0.1,4.7c0.3,1,0.7,1.5,1.3,1.7c0.6,0.2,1.3,0.2,2.2-0.1c0.9-0.2,1.8-0.5,2.6-0.7
		c0.8-0.2,1.9-0.6,3.1-1.2c1.2-0.5,2.2-1,2.9-1.5c1.9-1.3,3-1.5,3.1-0.4c0.2,1-0.4,2.2-1.9,3.5c-1.2,1.3-2.7,2.5-4.4,3.7
		c-1.7,1.1-3.4,2-4.9,2.6c-0.7,0.2-1.6,0.1-2.7-0.4c-1.1-0.5-2.1-1.2-3-2.1c-0.9-0.9-1.7-1.9-2.3-3.1c-0.7-1.1-1-2.3-1-3.5
		c0-2.3,0.3-4.7,0.8-7.2s1.2-5,2.1-7.4c0.8-2.4,1.8-4.8,2.8-7.1c1-2.3,1.9-4.5,2.8-6.5c0.7-1.8,0.7-3.3,0-4.4
		c-0.7-1.1-2.2-0.6-4.3,1.5c-2.9,2.9-6.6,6.5-11.2,10.9c-4.6,4.4-9.2,8.7-13.9,12.9c-4.7,4.2-9,8-13,11.3c-4,3.3-7,5.2-8.9,5.8
		c-3.2,1.1-5.9,0.6-7.9-1.5c-2-2.1-2.9-4.6-2.7-7.6c0.2-2.8,1-5.9,2.2-9.5c1.3-3.6,2.9-7.3,4.8-11c2-3.8,4.1-7.6,6.5-11.5
		c2.3-3.9,4.7-7.6,7.1-11c2.4-3.5,4.6-6.6,6.7-9.4c2.1-2.8,3.9-5.1,5.5-6.9c0.6-0.7,1.4-1.2,2.4-1.5c1-0.3,1.9-0.3,2.6-0.1
		c0.7,0.2,1.1,0.7,1.3,1.5c0.1,0.8-0.4,1.9-1.4,3.3c-2.8,3.4-5.7,7.2-8.7,11.7c-3.1,4.4-6,8.9-8.7,13.5c-2.8,4.5-5.2,9-7.4,13.3
		c-2.2,4.3-3.7,8.1-4.6,11.3c-1.4,4.9-1.4,8,0.1,9.4c1.5,1.4,3.7,1.2,6.7-0.4c4.7-2.9,9.6-6.7,14.8-11.4c5.2-4.7,10.3-9.7,15.4-14.8
		c5.1-5.1,10-10.2,14.6-15.1c4.7-4.9,8.8-9,12.4-12.2c1.1-1.1,2-1.4,2.9-1.1c0.8,0.4,1.5,1,2,2.1c0.5,1,0.7,2.1,0.8,3.2
		C314.4,217.2,314.2,218.1,313.8,218.7z"/>
	<path fill="#BCBCBC" d="M301.8,361c-3.2-3.5-5.3-7.4-6.1-11.8c-0.8-4.4-1.3-9.1-1.3-14.3c0-16.9,6.9-41,20.6-72.5
		c6.1-13.9,12.2-26.4,18.3-37.5s12.2-21.1,18.3-30c1.4-1.6,2.2-3.3,2.2-5.4c0-2.2-1.1-3.8-3.2-5c-4.3-1.7-6-3.5-5-5.6
		c0.4-0.7,2.1-1.3,5.3-1.6c3.2-0.4,7.6-0.5,13.4-0.5c0.5,0,0.5-0.2,0.2-0.5s-0.4-0.7-0.2-1.1c5.7-9,12.4-17.9,19.9-26.8
		c7.5-8.9,15.4-18.2,23.7-27.7c0.7-0.8,4.1-2.4,10-4.7c2.9-1,4.9-1.7,6.2-2.2c1.3-0.5,2.6-0.8,4-0.8c1.3,0,2,0.5,2,1.6
		c0,0.5-0.6,0.9-1.8,1.3c-11.2,2.3-29.8,21.2-55.8,56.9c-1.9,2.8-1.5,4.1,1.3,4.1h26c7.1,0,12.5,0,16.4,0.1c3.9,0.1,6.3,0.1,7.3,0.1
		c1.1,0,1.8,0.2,2.2,0.5c0,0.2-0.3,0.9-1,1.9c-0.7,1-1.5,1.6-2.6,1.7c-6.8,0.2-14.6,0.6-23.4,1.2c-8.8,0.5-18.8,1.1-30.1,1.7
		c-2,0.4-3.5,1.3-4.5,2.9c-6.3,9.3-12.3,18.6-17.9,27.8c-5.6,9.2-11.1,19.2-16.5,30c-8.3,17.1-14.8,32.6-19.6,46.6
		c-4.8,13.9-7.7,26.5-8.6,37.6c-0.1,1.6-0.2,3-0.2,4.3c0,1.4,0,2.9,0,4.3c0,20.8,7.4,31.2,22.1,31.2c4.2,0,8.9-0.8,14-2.3
		c7.5-2.4,15-6.2,22.4-11.3c7.4-5.1,15-11.8,22.6-20.1c7.9-8.3,14-16,18.2-23.1c4.2-7.2,6.8-14,7.8-20.5c0-11.2-4-16.2-12-14.9
		c-1.8,0.2-3.4,0.8-4.7,1.6c-1.3,0.8-2.3,1.3-2.9,1.3c-1.2,0-1.7-0.5-1.4-1.6c0.6-1,1.5-1.8,2.6-2.5c1.1-0.7,3.3-1.7,6.4-3
		c0.5-0.1,1.2-0.2,2.2-0.2c3.8,0,7.5,2.6,10.9,7.7c3.6,5.4,5.3,9.4,5,12.2c-2.4,15.8-13.8,33-34.3,51.5
		c-10.4,9.3-20.1,16.4-29.2,21.2c-9,4.8-17.6,7.2-25.6,7.2C315.9,371.7,308,368.2,301.8,361z"/>
	<path fill="#BCBCBC" d="M384.9,250.1c1-4.1,1.7-7.5,2.2-10.2c0.5-2.8,0.9-5,1.2-6.6c-5.9,5.1-13.2,10.6-21.9,16.5
		c-11.5,7.8-20.6,13-27.5,15.6c-0.7,0.2-1.3,0.4-1.6,0.4c-1.1,0-2-0.4-2.7-1.3c-0.7-0.8-1-1.7-0.7-2.5c0.7-2.4,6.2-12.8,16.3-31.2
		c0.2-0.5,0.3-1.5,0.1-3.1c-0.2-1.6-0.1-2.7,0.3-3.4c0.5-0.8,2.8-2.2,6.8-3.9c4.3-1.9,6.9-2.9,7.9-3.1c1.7-0.1,2.6,0.8,2.9,2.9
		c-2.5,1.1-6.7,5.7-12.6,14c-4.9,7.2-8.5,13-10.8,17.6c-0.4,1-0.5,1.7-0.5,2.3c0,1.2,0.5,2,1.4,2.3c1.2,0.4,2.3,0.4,3.2,0
		c2.8-1.1,6.1-2.7,10-4.9c3.9-2.2,8.3-5.1,13.4-8.5c3.9-2.8,7.3-5.2,10.1-7.4c2.8-2.2,5.1-4,6.7-5.6c0.6-1.1,1.3-2,2.1-2.8
		c0.8-0.8,1.6-1.2,2.4-1.3c2-0.1,3.6,0.4,4.6,1.4c1,1.1,1.4,2.2,1.2,3.4c-0.5,0.6-0.9,1.2-1.3,1.9c-0.4,0.7-0.9,1.5-1.5,2.6
		c-2.4,8.6-6.2,20.6-11.3,36.1c18.2-3.3,35.6-5,52.2-5c5.9,0,10.4,0.4,13.6,1.1c1.3,0.2,2.7,0.8,4,1.6c1.4,0.8,2.6,1.9,3.8,3
		c1.1,1.2,2.1,2.5,2.8,3.9s1.1,2.9,1.1,4.5c0,1.6-0.4,2.9-1.1,3.9c-1.6,3-5.4,6.9-11.7,11.8c-1,1-1.8,1.4-2.5,1.4
		c-0.2,0-0.4-0.1-0.4-0.2c0-0.7,0.6-1.5,1.8-2.3c7.1-6.7,10.6-12.6,10.6-17.8c0-4.3-2.9-6.7-8.8-7.2c-1.7-0.1-3.6-0.2-5.8-0.3
		c-2.2-0.1-4.7-0.1-7.4-0.1c-21.7,0-39.4,1.4-53.1,4.3c-35.3,100.6-78.1,152.5-128.3,155.7c-17.2,1.1-33-4.1-47.4-15.6
		c-14.5-11.4-21.7-24.1-21.7-38.2c0-4.7,0.9-9.2,2.7-13.5c9.2-21.4,37.9-41.6,86.1-60.6c16.6-6.5,33.5-12.2,50.5-17.2
		c17-5,34.5-9.3,52.5-12.7C380.7,266.7,382.8,259.4,384.9,250.1z M192.5,373.1c-0.4,1.9-0.6,3.8-0.6,5.8c0,12.6,6.3,23.7,19,33.6
		c13.3,10.2,28.2,14.9,44.9,14.2c28.7-1.1,56.2-22.7,82.5-64.8c8-13,15.3-26.8,22-41.2c6.6-14.4,12.6-29.6,17.9-45.7
		c-43.1,8.9-80.9,20.8-113.6,35.7c-39,17.9-62.4,36.8-70.3,56.7C193.5,369.4,192.9,371.2,192.5,373.1z"/>
	<path fill="#BCBCBC" d="M560.2,227.1c3.8,1.9,9.2,2.9,16,2.9c6.3,0,12.1-0.6,17.3-1.8c5.2-1.2,9.8-2.9,13.9-5
		c9.4-4.8,14.2-12.6,14.2-23.5c0-13.4-6.3-26.1-18.8-38.2c-6.8-6.3-14-12.1-21.5-17.3c-7.5-5.2-15.5-9.7-23.9-13.5
		c-9.2-4.2-18.2-7.3-26.8-9.3c-8.7-2-17.3-3.1-25.9-3.1c-18.8,0-29.4,6.8-31.8,20.5c-0.4,2.4-0.5,4.7-0.5,7c0,12.7,2.7,23,8.1,31
		c0.6,1,0.9,1.7,0.9,2.2l-0.4,0.4c-0.6,0-1.2-0.5-1.8-1.4c-3.5-3.1-6.3-8.1-8.4-15.1c-1.8-5.9-2.7-11.9-2.7-18.1
		c0-2.2,0.2-4.1,0.5-5.9c1-6.6,5.1-12.1,12.6-16.7c8.5-5.1,18.4-7.4,29.8-6.6c9.7,0.5,19.2,2,28.6,4.6c9.4,2.6,18.8,6.1,28.3,10.7
		c7.2,3.6,13.9,7.5,20.3,11.8c6.3,4.2,12.4,9,18.1,14.3c15.3,13.3,23,27.2,23,41.8c0,13.2-7,22.5-21,28c-9.6,3.9-21.1,5.9-34.5,5.9
		c-2.8,0-5.4-0.1-7.9-0.4c-2.5-0.2-4.7-0.6-6.6-1c-1.9-0.4-3.5-0.9-4.7-1.5c-1.2-0.6-1.8-1.3-1.8-2c0-1,1.3-2.1,3.8-3.4
		C556.9,225.5,558.2,226.5,560.2,227.1z M482.3,271.8c-0.7-1.1-1.1-2-1.1-2.7s0.3-1.1,0.9-1.1c0.5,0,1.3,0.5,2.3,1.6
		c2,2.5,4.8,4.5,8.3,5.9c1.4,0.6,3.1,0.8,4.9,0.6c1.9-0.2,4-0.6,6.4-1.2c8.4-3.1,20.7-18.8,37-47c14.8-25.7,25.4-48.1,31.8-67.1
		c0.5-0.5,0.7-0.7,0.5-0.7c0.4,0,0.7,1.1,0.9,3.2c0.2,2.3,0.2,3.8-0.2,4.7c-6.7,19-14.5,37.3-23.5,54.7
		c-14.8,29.1-28.8,47.1-42,54.2c-1.8,1.1-3.7,1.9-5.8,2.3c-2.1,0.5-4.3,0.7-6.5,0.7c-2,0-3.8-0.3-5.4-0.9
		C487.2,277.4,484.4,274.9,482.3,271.8z"/>
	<path fill="#BCBCBC" d="M594.3,274.3c-0.6,0.7-1,0.7-1.1,0c-0.2-0.6-0.2-1.2,0.2-1.8c11.6-17.9,19.5-31.8,23.7-41.4
		c0.7-1.8,1.1-3.3,1.1-4.5c0-0.2-0.2-0.9-0.5-2c-0.1-0.5-0.1-0.9,0-1.3c1.4-0.5,5.9-3,13.5-7.5c0.1-0.2,0.4-0.4,0.7-0.4
		c0.7,0,1.2,0.3,1.4,0.9c0.5,0.7,0.4,1.4-0.2,2c-3.8,5.3-7.1,9.8-9.8,13.7c-2.7,3.9-4.7,7.1-6,9.8c-0.4,0.7-0.5,1.3-0.5,1.8
		c0,0.6,0.7,0.7,2,0.2c1.1-0.5,1.8-1,2.2-1.4c4.7-5.6,10.7-11.4,18.1-17.4c7.7-6.2,13.6-10.2,17.9-12c3.7-0.1,6.5,0.2,8.3,1.1
		c0.1,0.1,0.2,0.2,0.2,0.4c0,0.4-0.2,0.9-0.6,1.5c-0.4,0.7-0.9,1.3-1.4,1.8c-0.5,0.5-1.1,1-1.7,1.3c-0.6,0.3-1.1,0.3-1.4,0.1
		c-2.4-1.1-5.6-0.5-9.7,1.6c-17.7,9.8-33.5,26.1-47.4,48.8c0,0.4-0.5,0.8-1.4,1.3c-1,0.4-2,0.8-3.2,1.3S595.8,273.4,594.3,274.3z"/>
	<path fill="#BCBCBC" d="M657.8,275c-0.8,0.1-1.7,0-2.7-0.3c-1-0.3-1.8-0.7-2.6-1.3c-0.8-0.6-1.4-1.3-2-2.2
		c-0.5-0.8-0.8-1.7-0.8-2.7c0.2-9.9,8.3-24.6,24-44c0.5-0.8,0.4-1.4-0.4-1.6c-1.1-0.6-2.2-1.3-3.2-2.1c-1.1-0.8-1.6-1.5-1.6-2.2
		c0-0.4,0.2-0.8,0.5-1.4c0.4-0.6,1.9-1,4.7-1.1c4.4-0.1,6.7-0.2,6.8-0.2c0.5,0,1.1-0.2,2-0.7c2.6-2.5,5.3-3.8,7.9-3.9
		c1.9-0.1,4.6,1,8.1,3.2c0.2,0.1,0.4,0.2,0.6,0.4c0.2,0.1,0.4,0.2,0.6,0.4c2.8,0.1,6.1,0.2,10,0.4c3.9,0.1,8.3,0.2,13.4,0.4
		c1.8,0.2,2.7,0.5,2.7,0.7c0,0.7-0.9,1.1-2.7,1.1c-3.7,0-6.1,0.7-7.2,2.2c-0.2,0.4-0.2,0.7,0,1.1c0.1,0.4,0.2,0.7,0.4,1.1
		c0.1,0.4,0.2,0.7,0.2,0.9c-0.4,4.5-2.3,9.4-5.8,14.6c-3.5,5.2-8.9,10.9-16.1,17C680.6,266.7,668.3,273.5,657.8,275z M655.3,265.5
		c-0.7,1.3-1.1,2.6-1.1,3.9c0,2.9,1.9,3.9,5.7,3.2c8.1-1.3,17.9-7.2,29.2-17.6c12-10.6,18.8-20.3,20.6-29.1c0.8-3.6-1.4-5.7-6.8-6.3
		c-2.9-0.4-5.6-0.4-8.1-0.1c-2.5,0.3-4.8,0.9-7,1.7c-0.2-0.1-1.3,0.4-3,1.6C672.1,234.8,662.2,249,655.3,265.5z"/>
	<path fill="#BCBCBC" d="M711.6,279.2c0.8-1.9,1.8-4.5,3-7.7c1.1-3.2,2.3-6.7,3.4-10.3c1.1-3.6,2.2-7.4,3.3-11.1
		c1.1-3.8,2-7.2,2.8-10.2c0.8-3.1,1.3-5.6,1.7-7.7c0.4-2.1,0.4-3.3,0.2-3.5c0.2-1.3,1.1-2.7,2.7-4c1.6-1.4,2.9-2.2,3.9-2.4
		c1.3-0.5,2.4-0.4,3.2,0.1c0.8,0.5,1.2,1.3,1.1,2.4c-0.1,1.3-0.8,2.8-2,4.3c-0.8,2.2-1.9,5.2-3.1,9.1c-1.3,3.9-2.7,8.2-4.2,12.8
		c-1.6,4.7-3.1,9.4-4.7,14.3c-1.6,4.8-3.1,9.2-4.5,13c5.5-1,11.5-1.8,17.9-2.6c6.5-0.8,12.7-1.3,18.8-1.7c6-0.4,11.6-0.5,16.6-0.5
		c5.1,0,9.2,0.3,12.2,0.9c1.6,0.4,3.2,1.1,4.8,2.2c1.7,1.1,3.1,2.5,4.3,4.1c1.2,1.6,2,3.4,2.4,5.4c0.4,2,0.1,3.9-0.8,5.7
		c-1.6,2.8-3.3,4.9-5.2,6.5c-1.9,1.6-4.1,3.3-6.5,5.4c-1.7,1.3-2.6,1.8-2.9,1.3c-0.2-0.4,0.3-1.3,1.6-2.6c2.4-2.2,4.5-4.5,6.3-7.2
		c1.8-2.6,3-5.1,3.8-7.4c1-3.2,0.6-5.7-1.1-7.4c-1.7-1.7-4.1-2.7-7.2-3c-3.1-0.4-7.4-0.5-12.9-0.5c-5.4,0-11.2,0.2-17.6,0.5
		c-6.3,0.4-12.7,0.9-19,1.5c-6.3,0.7-12,1.5-16.9,2.6c-3.1,9.1-6.9,19.1-11.3,30.1c-4.4,11-9.5,22.2-15.3,33.5
		c-5.7,11.3-12.1,22.3-19.1,33c-7,10.7-14.7,20.3-23.2,28.9c-8.5,8.6-17.7,15.5-27.6,21c-9.9,5.4-20.6,8.5-31.9,9.2
		c-6.6,0.5-13.1-0.1-19.6-1.8c-6.5-1.7-12.6-4.1-18.2-7.4c-5.6-3.2-10.7-7.1-15.3-11.5c-4.5-4.4-8.2-9.2-10.9-14.4
		c-2.7-5.1-4.3-10.5-4.8-16c-0.5-5.5,0.3-10.9,2.6-16.3c2.6-6.2,6.8-12.1,12.4-17.8c5.6-5.6,12.3-11,19.9-16.1
		c7.7-5.1,16.1-9.8,25.2-14.3c9.2-4.4,18.6-8.6,28.3-12.5c9.8-3.9,19.6-7.4,29.5-10.6c9.9-3.2,19.4-6,28.5-8.6
		c9.1-2.6,17.5-4.8,25.3-6.5C699.5,281.7,706.1,280.2,711.6,279.2z M526.8,374.6c-1.9,4.7-2.6,9.4-2.1,14.2c0.5,4.8,2,9.4,4.3,13.9
		s5.5,8.7,9.5,12.6c4,3.9,8.6,7.3,13.7,10.1c5.1,2.9,10.8,5.1,17,6.5c6.2,1.5,12.5,2.1,19.1,1.9c11.2-0.5,21.9-3.8,31.8-10
		c10-6.2,19.2-14,27.7-23.5c8.5-9.5,16.2-20,23.1-31.5c6.9-11.5,13.1-22.8,18.4-33.9c5.3-11.1,9.8-21.4,13.4-30.8
		c3.6-9.4,6.3-16.8,8.1-22.2c-12.4,2.6-25.3,5.7-38.5,9.2c-13.2,3.5-26.2,7.5-38.8,11.9c-12.7,4.4-24.9,9.3-36.5,14.6
		c-11.7,5.3-22.2,11-31.7,17c-9.4,6-17.5,12.3-24.2,19C534.5,360.5,529.7,367.4,526.8,374.6z M747,195.4c-0.4,2-2,4.4-4.8,7
		c-3,2.6-5.3,3.7-6.8,3.2c-2.5-0.5-3.8-1.5-3.8-3.1c0-1.7,1.4-3.9,4.1-6.6c2.8-2.9,5-4.5,6.6-4.8c1.2-0.2,2.4,0.2,3.6,1.2
		C747.1,193.2,747.5,194.3,747,195.4z"/>
	<path fill="#BCBCBC" d="M815.3,221.5c-2.7,1.9-5.7,3-9.1,3.5c-2,0.4-5.1,0.6-9.1,0.7c-4,0.1-8.4,0.2-13.2,0.4
		c-4.8,0.1-9.6,0.2-14.4,0.2c-4.8,0-9,0-12.6,0c-1.3,1.8-2.7,3.8-4.2,6c-1.5,2.2-2.9,4.6-4.2,7.1c-1.3,2.5-2.5,5.1-3.4,7.8
		c-1,2.7-1.5,5.5-1.6,8.3c-0.1,2.6,0.1,4.8,0.8,6.5c0.7,1.7,1.6,3,2.7,3.9c1.1,0.9,2.5,1.5,3.9,1.8c1.5,0.3,3,0.4,4.6,0.3
		c3.9-0.6,8.2-1.7,12.6-3.4c4.5-1.7,8.3-3.4,11.6-5.2c1-0.6,1.7-0.7,2.2-0.3c0.5,0.4,0.2,0.9-0.7,1.5c-1.3,1-2.9,2-4.7,3.1
		c-1.8,1.1-3.8,2.2-5.9,3.3c-2.2,1.1-4.4,2.1-6.7,3c-2.3,0.9-4.6,1.5-6.7,1.9c-1.8,0.4-3.8,0.2-5.9-0.6c-2.2-0.8-4.1-1.9-5.9-3.5
		c-1.8-1.6-3.3-3.4-4.5-5.5c-1.2-2.1-1.7-4.3-1.6-6.7c0.4-6.6,2.2-13.2,5.5-19.7c3.3-6.6,7.3-12.7,12-18.4
		c4.7-5.7,9.7-10.6,14.9-14.7s9.9-7,14.1-8.7c2.3-0.7,4.3-0.6,6.1,0.3c1.8,0.9,3.2,2.2,4.2,3.9c1,1.7,1.6,3.7,1.8,5.8
		c0.2,2.2-0.3,4.1-1.3,5.9c-1.8,3.4-5,6.2-9.7,8.4c-4.7,2.3-10,3.9-16,4.8c3.2,0,6.5,0,9.9,0c3.5,0,6.8,0,9.9-0.1
		c3.1-0.1,6-0.1,8.7-0.3c2.7-0.1,5-0.3,6.9-0.5c2.5-0.2,5.1-1,7.6-2.3c2.6-1.3,4.6-2.6,6-3.9c0.6-0.8,1.1-1.1,1.5-0.9
		c0.4,0.2,0.3,0.8-0.3,1.6C819.9,218,818,219.6,815.3,221.5z M794.2,203.3c0.1-1.4-0.2-2.5-0.9-3.3c-0.7-0.8-1.8-1.1-3.1-1.1
		c-1.4,0.1-3,0.6-4.8,1.5c-4.4,2.5-8.9,5.8-13.5,10c-4.5,4.1-8.9,8.4-12.9,12.8c3.1,0,6.3-0.4,9.7-1.1c3.3-0.7,6.5-1.8,9.5-3.1
		c3-1.4,5.7-3,8.2-4.8c2.5-1.8,4.4-3.8,5.8-5.9C793.4,206.4,794.1,204.7,794.2,203.3z"/>
	<path fill="#BCBCBC" d="M843.5,217.5c-3.2,2.3-7.2,4-12,5.1c2.8-2,5.7-4.4,8.8-7c3.1-2.6,5.4-5,6.8-7c1.2-1.9,1.9-3.6,2-5
		c0.1-1.4-0.2-2.5-0.9-3.3c-0.7-0.8-1.8-1.1-3.1-1.1c-1.4,0.1-3,0.6-4.8,1.5c-4.4,2.5-8.9,5.8-13.4,10c-4.5,4.1-8.8,8.5-12.8,13
		l-2.2,2.9c-2.8,3.7-5.6,8.1-8.4,13.1c-2.9,5-4.5,10.4-5,16.1c-0.1,2.6,0.1,4.8,0.8,6.5c0.7,1.7,1.6,3,2.7,3.9
		c1.1,0.9,2.5,1.5,3.9,1.8c1.5,0.3,3,0.4,4.6,0.3c3.9-0.5,8.2-1.6,12.7-3.2c4.5-1.7,8.4-3.5,11.8-5.4c1-0.6,1.6-0.7,2.1-0.3
		c0.4,0.4,0.1,0.9-0.8,1.5c-1.3,1-2.9,2-4.7,3.1c-1.8,1.1-3.8,2.2-5.9,3.3c-2.2,1.1-4.4,2.1-6.6,3c-2.3,0.9-4.5,1.5-6.8,1.9
		c-1.8,0.4-3.7,0.1-5.8-0.6c-2.1-0.8-4.1-1.9-5.9-3.4c-1.9-1.5-3.4-3.3-4.6-5.5c-1.2-2.2-1.7-4.4-1.6-6.8c0.2-4.3,1.2-8.7,2.8-13.1
		c1.6-4.4,3.7-8.7,6.2-12.9c2.5-4.2,5.4-8.2,8.5-11.9c3.2-3.8,6.4-7.2,9.8-10.2c3.3-3.1,6.7-5.6,10-7.7c3.3-2.1,6.5-3.6,9.3-4.6
		c2.3-0.7,4.5-0.8,6.5-0.2c2.1,0.6,3.8,1.6,5,3.1c1.3,1.4,1.9,3.2,1.9,5.4c0,2.2-1,4.4-2.9,6.6C849.4,212.8,846.8,215.2,843.5,217.5
		z M831.3,222.6v-0.2c0.1,0,0.2-0.1,0.2-0.2C831.5,222.4,831.4,222.5,831.3,222.6z"/>
	<path fill="#BCBCBC" d="M822.4,361c-3.2-3.5-5.3-7.4-6.1-11.8c-0.8-4.4-1.3-9.1-1.3-14.3c0-16.9,6.9-41,20.6-72.5
		c6.1-13.9,12.2-26.4,18.3-37.5s12.2-21.1,18.3-30c1.4-1.6,2.2-3.3,2.2-5.4c0-2.2-1.1-3.8-3.2-5c-4.3-1.7-6-3.5-5-5.6
		c0.4-0.7,2.1-1.3,5.3-1.6c3.2-0.4,7.6-0.5,13.4-0.5c0.5,0,0.5-0.2,0.2-0.5c-0.4-0.4-0.4-0.7-0.2-1.1c5.7-9,12.4-17.9,19.9-26.8
		c7.5-8.9,15.4-18.2,23.7-27.7c0.7-0.8,4.1-2.4,10-4.7c2.9-1,4.9-1.7,6.2-2.2s2.6-0.8,4-0.8c1.3,0,2,0.5,2,1.6
		c0,0.5-0.6,0.9-1.8,1.3c-11.2,2.3-29.8,21.2-55.8,56.9c-1.9,2.8-1.5,4.1,1.3,4.1h26c7.1,0,12.5,0,16.4,0.1c3.9,0.1,6.3,0.1,7.3,0.1
		c1.1,0,1.8,0.2,2.2,0.5c0,0.2-0.3,0.9-1,1.9c-0.7,1-1.5,1.6-2.6,1.7c-6.8,0.2-14.6,0.6-23.4,1.2c-8.8,0.5-18.8,1.1-30.1,1.7
		c-2,0.4-3.5,1.3-4.5,2.9c-6.3,9.3-12.3,18.6-17.9,27.8c-5.6,9.2-11.1,19.2-16.5,30c-8.3,17.1-14.8,32.6-19.6,46.6
		c-4.8,13.9-7.7,26.5-8.6,37.6c-0.1,1.6-0.2,3-0.2,4.3c0,1.4,0,2.9,0,4.3c0,20.8,7.4,31.2,22.1,31.2c4.2,0,8.9-0.8,14-2.3
		c7.5-2.4,15-6.2,22.4-11.3c7.4-5.1,15-11.8,22.6-20.1c7.9-8.3,14-16,18.2-23.1c4.2-7.2,6.8-14,7.8-20.5c0-11.2-4-16.2-12-14.9
		c-1.8,0.2-3.4,0.8-4.7,1.6c-1.3,0.8-2.3,1.3-2.9,1.3c-1.2,0-1.7-0.5-1.4-1.6c0.6-1,1.5-1.8,2.6-2.5c1.1-0.7,3.3-1.7,6.4-3
		c0.5-0.1,1.2-0.2,2.2-0.2c3.8,0,7.5,2.6,10.9,7.7c3.6,5.4,5.3,9.4,5,12.2c-2.4,15.8-13.8,33-34.3,51.5
		c-10.4,9.3-20.1,16.4-29.2,21.2c-9,4.8-17.6,7.2-25.6,7.2C836.5,371.7,828.6,368.2,822.4,361z"/>
</g>
<g>
	<path d="M76,271.6c-0.7-0.4-0.9-0.8-0.8-1.3c0.1-0.4,0.5-0.8,1.3-1.1c0.7-0.3,1.4-0.4,2.2-0.4c6.1,0.2,12.2-0.2,18.4-1.3
		c6.2-1.1,11.8-2.8,16.8-5c2.2-1,4-2.3,5.6-4c1.6-1.7,2.6-3.6,3.1-5.7c0.5-2.1,0.4-4.2-0.3-6.4s-2.3-4.1-4.7-5.9
		c-1.6-1.2-3.9-2.4-6.9-3.5c-3.1-1.1-6.3-2.2-9.6-3.1c-3.4-1-6.6-1.8-9.9-2.4c-3.2-0.7-5.8-1.1-7.7-1.3c-0.7,1-2.4,3.2-4.9,6.7
		c-2.6,3.5-5.4,7.6-8.4,12.2c-3.1,4.6-6,9.3-9,14.2c-2.9,4.8-5.1,8.9-6.5,12.3c-1.2,2.4-2.1,3.6-2.8,3.8c-0.7,0.1-0.5-1.3,0.4-4.1
		c0.7-2.4,2.1-5.6,4.2-9.5c2.1-3.9,4.5-8.1,7.1-12.4c2.6-4.3,5.3-8.6,7.9-12.8c2.6-4.2,5-7.9,7-10.9c-0.8-0.2-1.6-0.4-2.2-0.5
		c-0.6-0.1-1.3-0.4-2.2-0.7c-1-0.4-1.7-0.8-2.2-1.3c-0.5-0.5-0.7-1.1-0.8-1.6c-0.1-0.5,0.1-1,0.4-1.4c0.3-0.4,0.6-0.6,1-0.6
		c1.1-0.1,2.7-0.3,4.8-0.4c2.1-0.2,3.9-0.5,5.5-1c2.6-3.7,5.2-7.6,7.8-11.6c2.6-4,5-7.9,7.3-11.8c2.3-3.8,4.3-7.5,6.1-10.9
		c1.8-3.5,3.3-6.5,4.5-9.2c0.2-0.5,0.5-1.2,0.8-2.1c0.3-0.9,0.5-1.7,0.5-2.5c0.1-0.8,0-1.5-0.3-2.2c-0.2-0.7-0.8-1-1.6-1.2
		c-0.7-0.1-0.5-0.6,0.5-1.4c1.1-0.8,2.4-1.5,3.9-2.1c1.6-0.5,3-0.7,4.3-0.5c1.3,0.2,1.8,1.2,1.4,3c-0.2,1.7-1,3.9-2.3,6.8
		c-1.3,2.9-2.9,6-4.8,9.3c-1.9,3.4-3.9,6.8-6,10.4c-2.2,3.6-4.3,7-6.4,10.3c-2.1,3.3-4,6.3-5.7,8.9c-1.7,2.6-3,4.7-3.9,6.1
		c1.7-0.2,4.1-0.7,7.3-1.4c3.2-0.7,6.7-1.6,10.6-2.6c3.9-1,8-2.2,12.4-3.5c4.4-1.3,8.6-2.8,12.7-4.4s8-3.3,11.5-5.1
		c3.5-1.8,6.5-3.6,8.9-5.6c2.3-1.8,4.4-3.9,6.3-6.5c1.9-2.5,3.2-5.2,3.9-8c0.7-2.8,0.6-5.7-0.4-8.7c-1-3-3.4-5.9-7.1-8.6
		c-5.6-4.2-11.7-7.6-18.3-10.2c-6.6-2.6-13.4-4.7-20.5-6.2c-7.1-1.5-14.4-2.5-21.8-3.1c-7.4-0.6-14.8-1-22.1-1.1
		c-1.1,0-3-0.1-5.7-0.2c-2.7-0.1-5.8-0.1-9.3,0.1c-3.5,0.2-7.3,0.5-11.3,1.1c-4,0.5-7.9,1.4-11.6,2.6c-3.7,1.2-7.1,2.8-10.1,4.9
		c-3.1,2.1-5.4,4.7-6.9,7.8c-1,1.8-1.1,3.7-0.4,5.6c0.7,1.9,1.8,3.7,3.2,5.5c1.4,1.7,3,3.2,4.8,4.5c1.7,1.3,3.1,2.2,4.2,2.8
		c1.8,1,2.6,1.9,2.5,2.9c-0.1,1-1.3,0.7-3.4-0.7c-2-1.2-4.2-2.6-6.6-4.2c-2.4-1.6-4.5-3.3-6.4-5.2c-1.9-1.9-3.1-3.9-3.9-6.1
		c-0.7-2.2-0.4-4.6,1.1-7.1c1.4-2.8,3.9-5.1,7.3-6.9c3.4-1.9,7.2-3.4,11.5-4.8c4.2-1.3,8.6-2.4,13.2-3.1c4.5-0.8,8.8-1.3,12.6-1.7
		c3.9-0.4,7.2-0.6,10-0.7c2.8-0.1,4.4-0.2,4.8-0.2c8.1,0.1,16,0.4,23.6,0.8c7.6,0.4,15,1.3,22.2,2.7c7.2,1.4,14.1,3.3,20.8,5.8
		c6.7,2.5,13.2,6,19.6,10.4c4.1,2.9,6.9,6,8.6,9.3c1.7,3.4,2.3,6.7,1.8,10.1c-0.5,3.4-1.9,6.7-4.2,10c-2.3,3.2-5.4,6.1-9.2,8.6
		c-4.7,3.1-9.8,5.9-15.4,8.3c-5.6,2.5-11.3,4.6-17,6.4c-5.7,1.8-11.2,3.3-16.5,4.5c-5.3,1.2-10,2.2-13.9,2.9
		c-1.6,0.2-2.3,0.7-2.3,1.4s0.7,1.2,2.2,1.4c3.7,0.5,7.3,1.3,10.7,2.3c3.4,1.1,6.5,2.3,9.3,3.6c2.8,1.3,5.2,2.6,7.3,3.9
		c2,1.3,3.5,2.5,4.5,3.4c2.8,2.8,4.2,5.4,4.4,7.8c0.2,2.5-0.4,4.8-1.6,6.9c-1.3,2.2-3,4.1-5.2,5.9c-2.2,1.8-4.3,3.4-6.4,4.8
		c-4.1,2.8-9.1,4.8-15,6.3c-5.9,1.4-12.6,2-20.2,1.6C77.9,272.3,76.6,272,76,271.6z"/>
	<path d="M208.1,220.5c-2.7,1.9-5.7,3-9.1,3.5c-2,0.4-5.1,0.6-9.1,0.7c-4,0.1-8.4,0.2-13.2,0.4c-4.8,0.1-9.6,0.2-14.4,0.2
		c-4.8,0-9,0-12.6,0c-1.3,1.8-2.7,3.8-4.2,6c-1.5,2.2-2.9,4.6-4.2,7.1c-1.3,2.5-2.5,5.1-3.4,7.8c-1,2.7-1.5,5.5-1.6,8.3
		c-0.1,2.6,0.1,4.8,0.8,6.5c0.7,1.7,1.6,3,2.7,3.9c1.1,0.9,2.5,1.5,3.9,1.8c1.5,0.3,3,0.4,4.6,0.3c3.9-0.6,8.2-1.7,12.6-3.4
		c4.5-1.7,8.3-3.4,11.6-5.2c1-0.6,1.7-0.7,2.2-0.3c0.5,0.4,0.2,0.9-0.7,1.5c-1.3,1-2.9,2-4.7,3.1c-1.8,1.1-3.8,2.2-5.9,3.3
		c-2.2,1.1-4.4,2.1-6.7,3c-2.3,0.9-4.6,1.5-6.7,1.9c-1.8,0.4-3.8,0.2-5.9-0.6c-2.2-0.8-4.1-1.9-5.9-3.5c-1.8-1.6-3.3-3.4-4.5-5.5
		c-1.2-2.1-1.7-4.3-1.6-6.7c0.4-6.6,2.2-13.2,5.5-19.7c3.3-6.6,7.3-12.7,12-18.4c4.7-5.7,9.7-10.6,14.9-14.7c5.2-4.1,9.9-7,14.1-8.7
		c2.3-0.7,4.3-0.6,6.1,0.3c1.8,0.9,3.2,2.2,4.2,3.9c1,1.7,1.6,3.7,1.8,5.8c0.2,2.2-0.3,4.1-1.3,5.9c-1.8,3.4-5,6.2-9.7,8.4
		c-4.7,2.3-10,3.9-16,4.8c3.2,0,6.5,0,9.9,0c3.5,0,6.8,0,9.9-0.1c3.1-0.1,6-0.1,8.7-0.3c2.7-0.1,5-0.3,6.9-0.5
		c2.5-0.2,5.1-1,7.6-2.3c2.6-1.3,4.6-2.6,6-3.9c0.6-0.8,1.1-1.1,1.5-0.9c0.4,0.2,0.3,0.8-0.3,1.6C212.7,217,210.7,218.6,208.1,220.5
		z M187,202.3c0.1-1.4-0.2-2.5-0.9-3.3c-0.7-0.8-1.8-1.1-3.1-1.1c-1.4,0.1-3,0.6-4.8,1.5c-4.4,2.5-8.9,5.8-13.5,10
		c-4.5,4.1-8.9,8.4-12.9,12.8c3.1,0,6.3-0.4,9.7-1.1c3.3-0.7,6.5-1.8,9.5-3.1c3-1.4,5.7-3,8.2-4.8c2.5-1.8,4.4-3.8,5.8-5.9
		C186.2,205.4,186.8,203.7,187,202.3z"/>
	<path d="M176.7,270.1c-3,0-4.5-2.1-4.5-6.3c0-8.5,6.6-19.4,19.9-32.7c6.1-6.1,11.8-11,17.2-14.8s10.4-6.6,15.1-8.5
		c1.1-0.4,2.2-0.7,3.5-1c1.3-0.3,2.5-0.4,3.9-0.4c1.4,0,2.9,0.2,4.3,0.4c1.4,0.3,2.9,0.7,4.3,1.2c2,0.2,3.2,0.3,3.4,0.2
		c2.2-0.4,3.7-1.1,4.7-2.3c0.2-0.2,0.6-0.4,1.1-0.4c0.5,0,0.9,0.3,1.3,0.9c0.4,0.6,0.5,1,0.4,1.3c-3.5,5.4-6.9,10.7-10.3,15.9
		c-3.4,5.2-6.7,10.5-10,15.9c-2.5,4.2-5,9-7.4,14.4c-2.4,5.4-4.6,10.9-6.5,16.5s-3.7,10.9-5.1,15.9c-1.4,5-2.4,9.3-2.9,12.7
		c-0.1,0.6-0.2,1.1-0.2,1.6c0,0.6,0,1.2,0,1.8c0,4.1,1.3,7.1,3.8,9.1c2.5,2,5.9,3,10.2,3s8.6-0.7,12.7-2.2
		c6.3-2.2,14.6-7.3,24.8-15.4c4.9-3.9,9.3-8,13.2-12.2c3.9-4.2,7.3-8.1,10.1-11.8c1.1-1.2,1.8-1.8,2.2-1.8c0.1,0.1,0.2,0.3,0.2,0.5
		c0,0.5-0.2,1.1-0.7,2c-2.8,4.1-6.1,8.4-10,12.9c-3.9,4.5-8.5,9.1-13.9,13.6c-5,4.1-9.5,7.4-13.5,10c-4,2.6-7.7,4.5-11,5.7
		c-1.7,0.6-3.4,1-5,1.3c-1.7,0.3-3.5,0.4-5.4,0.4c-2.9,0-5.5-0.4-7.9-1.3c-2.4-0.9-4.5-2-6.5-3.3c-2.3-1.3-3.9-3.2-4.8-5.7
		c-0.9-2.5-1.3-5.2-1.2-8.3c0.1-2.5,0.6-5.9,1.5-10c0.9-4.2,2.1-8.6,3.5-13.4c1.4-4.7,3-9.4,4.7-14.1c1.7-4.7,3.3-8.8,5-12.4
		c2-4.3,4-8.3,6-12c2-3.7,4-7.1,6-10.2c0.8-1.3,0.8-2-0.2-2c-0.1,0-0.3,0.1-0.5,0.4c-2.9,3.5-6.3,7.1-10.3,10.9
		c-4,3.8-8.6,8-13.9,12.6c-10.5,8.9-19.6,15.5-27.1,19.9C179.3,269.6,177.9,270.1,176.7,270.1z M183,257.5c0,2.9,1.1,4.3,3.2,4.3
		c0.8,0,1.7-0.3,2.7-0.9c6.7-4.2,13.8-9.8,21.2-17c7.4-7.1,15.4-15.8,23.9-25.9c0.4-0.4,0.5-0.8,0.5-1.3c0-1.3-0.8-2.5-2.3-3.7
		c-1.6-1.1-3.5-1.7-5.9-1.7c-1.3,0-2.7,0.2-4.1,0.5c-5.6,1.4-12.7,6.9-21.4,16.3c-4.1,4.5-7.5,8.9-10.3,13.1
		c-2.8,4.2-5.1,8.2-6.7,12C183.3,254.7,183,256.1,183,257.5z"/>
	<path d="M311.8,217.7c-1.7,2.5-3.5,5.6-5.6,9.2c-2,3.6-4,7.3-5.8,11c-1.9,3.8-3.5,7.4-4.9,11c-1.4,3.6-2.3,6.6-2.7,9
		c-0.4,2.2-0.4,3.7-0.1,4.7c0.3,1,0.7,1.5,1.3,1.7c0.6,0.2,1.3,0.2,2.2-0.1c0.9-0.2,1.8-0.5,2.6-0.7c0.8-0.2,1.9-0.6,3.1-1.2
		c1.2-0.5,2.2-1,2.9-1.5c1.9-1.3,3-1.5,3.1-0.4c0.2,1-0.4,2.2-1.9,3.5c-1.2,1.3-2.7,2.5-4.4,3.7c-1.7,1.1-3.4,2-4.9,2.6
		c-0.7,0.2-1.6,0.1-2.7-0.4c-1.1-0.5-2.1-1.2-3-2.1c-0.9-0.9-1.7-1.9-2.3-3.1c-0.7-1.1-1-2.3-1-3.5c0-2.3,0.3-4.7,0.8-7.2
		s1.2-5,2.1-7.4c0.8-2.4,1.8-4.8,2.8-7.1c1-2.3,1.9-4.5,2.8-6.5c0.7-1.8,0.7-3.3,0-4.4c-0.7-1.1-2.2-0.6-4.3,1.5
		c-2.9,2.9-6.6,6.5-11.2,10.9c-4.6,4.4-9.2,8.7-13.9,12.9c-4.7,4.2-9,8-13,11.3c-4,3.3-7,5.2-8.9,5.8c-3.2,1.1-5.9,0.6-7.9-1.5
		c-2-2.1-2.9-4.6-2.7-7.6c0.2-2.8,1-5.9,2.2-9.5c1.3-3.6,2.9-7.3,4.8-11c2-3.8,4.1-7.6,6.5-11.5c2.3-3.9,4.7-7.6,7.1-11
		c2.4-3.5,4.6-6.6,6.7-9.4c2.1-2.8,3.9-5.1,5.5-6.9c0.6-0.7,1.4-1.2,2.4-1.5c1-0.3,1.9-0.3,2.6-0.1c0.7,0.2,1.1,0.7,1.3,1.5
		c0.1,0.8-0.4,1.9-1.4,3.3c-2.8,3.4-5.7,7.2-8.7,11.7c-3.1,4.4-6,8.9-8.7,13.5c-2.8,4.5-5.2,9-7.4,13.3c-2.2,4.3-3.7,8.1-4.6,11.3
		c-1.4,4.9-1.4,8,0.1,9.4c1.5,1.4,3.7,1.2,6.7-0.4c4.7-2.9,9.6-6.7,14.8-11.4c5.2-4.7,10.3-9.7,15.4-14.8c5.1-5.1,10-10.2,14.6-15.1
		c4.7-4.9,8.8-9,12.4-12.2c1.1-1.1,2-1.4,2.9-1.1c0.8,0.4,1.5,1,2,2.1c0.5,1,0.7,2.1,0.8,3.2C312.4,216.2,312.2,217.1,311.8,217.7z"
		/>
	<path d="M299.8,360c-3.2-3.5-5.3-7.4-6.1-11.8c-0.8-4.4-1.3-9.1-1.3-14.3c0-16.9,6.9-41,20.6-72.5c6.1-13.9,12.2-26.4,18.3-37.5
		s12.2-21.1,18.3-30c1.4-1.6,2.2-3.3,2.2-5.4c0-2.2-1.1-3.8-3.2-5c-4.3-1.7-6-3.5-5-5.6c0.4-0.7,2.1-1.3,5.3-1.6
		c3.2-0.4,7.6-0.5,13.4-0.5c0.5,0,0.5-0.2,0.2-0.5s-0.4-0.7-0.2-1.1c5.7-9,12.4-17.9,19.9-26.8c7.5-8.9,15.4-18.2,23.7-27.7
		c0.7-0.8,4.1-2.4,10-4.7c2.9-1,4.9-1.7,6.2-2.2c1.3-0.5,2.6-0.8,4-0.8c1.3,0,2,0.5,2,1.6c0,0.5-0.6,0.9-1.8,1.3
		c-11.2,2.3-29.8,21.2-55.8,56.9c-1.9,2.8-1.5,4.1,1.3,4.1h26c7.1,0,12.5,0,16.4,0.1c3.9,0.1,6.3,0.1,7.3,0.1c1.1,0,1.8,0.2,2.2,0.5
		c0,0.2-0.3,0.9-1,1.9c-0.7,1-1.5,1.6-2.6,1.7c-6.8,0.2-14.6,0.6-23.4,1.2c-8.8,0.5-18.8,1.1-30.1,1.7c-2,0.4-3.5,1.3-4.5,2.9
		c-6.3,9.3-12.3,18.6-17.9,27.8c-5.6,9.2-11.1,19.2-16.5,30c-8.3,17.1-14.8,32.6-19.6,46.6c-4.8,13.9-7.7,26.5-8.6,37.6
		c-0.1,1.6-0.2,3-0.2,4.3c0,1.4,0,2.9,0,4.3c0,20.8,7.4,31.2,22.1,31.2c4.2,0,8.9-0.8,14-2.3c7.5-2.4,15-6.2,22.4-11.3
		c7.4-5.1,15-11.8,22.6-20.1c7.9-8.3,14-16,18.2-23.1c4.2-7.2,6.8-14,7.8-20.5c0-11.2-4-16.2-12-14.9c-1.8,0.2-3.4,0.8-4.7,1.6
		c-1.3,0.8-2.3,1.3-2.9,1.3c-1.2,0-1.7-0.5-1.4-1.6c0.6-1,1.5-1.8,2.6-2.5c1.1-0.7,3.3-1.7,6.4-3c0.5-0.1,1.2-0.2,2.2-0.2
		c3.8,0,7.5,2.6,10.9,7.7c3.6,5.4,5.3,9.4,5,12.2c-2.4,15.8-13.8,33-34.3,51.5c-10.4,9.3-20.1,16.4-29.2,21.2
		c-9,4.8-17.6,7.2-25.6,7.2C313.9,370.7,306,367.2,299.8,360z"/>
	<path d="M382.9,249.1c1-4.1,1.7-7.5,2.2-10.2c0.5-2.8,0.9-5,1.2-6.6c-5.9,5.1-13.2,10.6-21.9,16.5c-11.5,7.8-20.6,13-27.5,15.6
		c-0.7,0.2-1.3,0.4-1.6,0.4c-1.1,0-2-0.4-2.7-1.3c-0.7-0.8-1-1.7-0.7-2.5c0.7-2.4,6.2-12.8,16.3-31.2c0.2-0.5,0.3-1.5,0.1-3.1
		c-0.2-1.6-0.1-2.7,0.3-3.4c0.5-0.8,2.8-2.2,6.8-3.9c4.3-1.9,6.9-2.9,7.9-3.1c1.7-0.1,2.6,0.8,2.9,2.9c-2.5,1.1-6.7,5.7-12.6,14
		c-4.9,7.2-8.5,13-10.8,17.6c-0.4,1-0.5,1.7-0.5,2.3c0,1.2,0.5,2,1.4,2.3c1.2,0.4,2.3,0.4,3.2,0c2.8-1.1,6.1-2.7,10-4.9
		c3.9-2.2,8.3-5.1,13.4-8.5c3.9-2.8,7.3-5.2,10.1-7.4c2.8-2.2,5.1-4,6.7-5.6c0.6-1.1,1.3-2,2.1-2.8c0.8-0.8,1.6-1.2,2.4-1.3
		c2-0.1,3.6,0.4,4.6,1.4c1,1.1,1.4,2.2,1.2,3.4c-0.5,0.6-0.9,1.2-1.3,1.9c-0.4,0.7-0.9,1.5-1.5,2.6c-2.4,8.6-6.2,20.6-11.3,36.1
		c18.2-3.3,35.6-5,52.2-5c5.9,0,10.4,0.4,13.6,1.1c1.3,0.2,2.7,0.8,4,1.6c1.4,0.8,2.6,1.9,3.8,3c1.1,1.2,2.1,2.5,2.8,3.9
		s1.1,2.9,1.1,4.5c0,1.6-0.4,2.9-1.1,3.9c-1.6,3-5.4,6.9-11.7,11.8c-1,1-1.8,1.4-2.5,1.4c-0.2,0-0.4-0.1-0.4-0.2
		c0-0.7,0.6-1.5,1.8-2.3c7.1-6.7,10.6-12.6,10.6-17.8c0-4.3-2.9-6.7-8.8-7.2c-1.7-0.1-3.6-0.2-5.8-0.3c-2.2-0.1-4.7-0.1-7.4-0.1
		c-21.7,0-39.4,1.4-53.1,4.3c-35.3,100.6-78.1,152.5-128.3,155.7c-17.2,1.1-33-4.1-47.4-15.6c-14.5-11.4-21.7-24.1-21.7-38.2
		c0-4.7,0.9-9.2,2.7-13.5c9.2-21.4,37.9-41.6,86.1-60.6c16.6-6.5,33.5-12.2,50.5-17.2c17-5,34.5-9.3,52.5-12.7
		C378.7,265.7,380.8,258.4,382.9,249.1z M190.5,372.1c-0.4,1.9-0.6,3.8-0.6,5.8c0,12.6,6.3,23.7,19,33.6
		c13.3,10.2,28.2,14.9,44.9,14.2c28.7-1.1,56.2-22.7,82.5-64.8c8-13,15.3-26.8,22-41.2c6.6-14.4,12.6-29.6,17.9-45.7
		c-43.1,8.9-80.9,20.8-113.6,35.7c-39,17.9-62.4,36.8-70.3,56.7C191.5,368.4,190.9,370.2,190.5,372.1z"/>
	<path d="M558.2,226.1c3.8,1.9,9.2,2.9,16,2.9c6.3,0,12.1-0.6,17.3-1.8c5.2-1.2,9.8-2.9,13.9-5c9.4-4.8,14.2-12.6,14.2-23.5
		c0-13.4-6.3-26.1-18.8-38.2c-6.8-6.3-14-12.1-21.5-17.3c-7.5-5.2-15.5-9.7-23.9-13.5c-9.2-4.2-18.2-7.3-26.8-9.3
		c-8.7-2-17.3-3.1-25.9-3.1c-18.8,0-29.4,6.8-31.8,20.5c-0.4,2.4-0.5,4.7-0.5,7c0,12.7,2.7,23,8.1,31c0.6,1,0.9,1.7,0.9,2.2
		l-0.4,0.4c-0.6,0-1.2-0.5-1.8-1.4c-3.5-3.1-6.3-8.1-8.4-15.1c-1.8-5.9-2.7-11.9-2.7-18.1c0-2.2,0.2-4.1,0.5-5.9
		c1-6.6,5.1-12.1,12.6-16.7c8.5-5.1,18.4-7.4,29.8-6.6c9.7,0.5,19.2,2,28.6,4.6c9.4,2.6,18.8,6.1,28.3,10.7
		c7.2,3.6,13.9,7.5,20.3,11.8c6.3,4.2,12.4,9,18.1,14.3c15.3,13.3,23,27.2,23,41.8c0,13.2-7,22.5-21,28c-9.6,3.9-21.1,5.9-34.5,5.9
		c-2.8,0-5.4-0.1-7.9-0.4c-2.5-0.2-4.7-0.6-6.6-1c-1.9-0.4-3.5-0.9-4.7-1.5c-1.2-0.6-1.8-1.3-1.8-2c0-1,1.3-2.1,3.8-3.4
		C554.9,224.5,556.2,225.5,558.2,226.1z M480.3,270.8c-0.7-1.1-1.1-2-1.1-2.7s0.3-1.1,0.9-1.1c0.5,0,1.3,0.5,2.3,1.6
		c2,2.5,4.8,4.5,8.3,5.9c1.4,0.6,3.1,0.8,4.9,0.6c1.9-0.2,4-0.6,6.4-1.2c8.4-3.1,20.7-18.8,37-47c14.8-25.7,25.4-48.1,31.8-67.1
		c0.5-0.5,0.7-0.7,0.5-0.7c0.4,0,0.7,1.1,0.9,3.2c0.2,2.3,0.2,3.8-0.2,4.7c-6.7,19-14.5,37.3-23.5,54.7
		c-14.8,29.1-28.8,47.1-42,54.2c-1.8,1.1-3.7,1.9-5.8,2.3c-2.1,0.5-4.3,0.7-6.5,0.7c-2,0-3.8-0.3-5.4-0.9
		C485.2,276.4,482.4,273.9,480.3,270.8z"/>
	<path d="M592.3,273.3c-0.6,0.7-1,0.7-1.1,0c-0.2-0.6-0.2-1.2,0.2-1.8c11.6-17.9,19.5-31.8,23.7-41.4c0.7-1.8,1.1-3.3,1.1-4.5
		c0-0.2-0.2-0.9-0.5-2c-0.1-0.5-0.1-0.9,0-1.3c1.4-0.5,5.9-3,13.5-7.5c0.1-0.2,0.4-0.4,0.7-0.4c0.7,0,1.2,0.3,1.4,0.9
		c0.5,0.7,0.4,1.4-0.2,2c-3.8,5.3-7.1,9.8-9.8,13.7c-2.7,3.9-4.7,7.1-6,9.8c-0.4,0.7-0.5,1.3-0.5,1.8c0,0.6,0.7,0.7,2,0.2
		c1.1-0.5,1.8-1,2.2-1.4c4.7-5.6,10.7-11.4,18.1-17.4c7.7-6.2,13.6-10.2,17.9-12c3.7-0.1,6.5,0.2,8.3,1.1c0.1,0.1,0.2,0.2,0.2,0.4
		c0,0.4-0.2,0.9-0.6,1.5c-0.4,0.7-0.9,1.3-1.4,1.8c-0.5,0.5-1.1,1-1.7,1.3c-0.6,0.3-1.1,0.3-1.4,0.1c-2.4-1.1-5.6-0.5-9.7,1.6
		c-17.7,9.8-33.5,26.1-47.4,48.8c0,0.4-0.5,0.8-1.4,1.3c-1,0.4-2,0.8-3.2,1.3S593.8,272.4,592.3,273.3z"/>
	<path d="M655.8,274c-0.8,0.1-1.7,0-2.7-0.3c-1-0.3-1.8-0.7-2.6-1.3c-0.8-0.6-1.4-1.3-2-2.2c-0.5-0.8-0.8-1.7-0.8-2.7
		c0.2-9.9,8.3-24.6,24-44c0.5-0.8,0.4-1.4-0.4-1.6c-1.1-0.6-2.2-1.3-3.2-2.1c-1.1-0.8-1.6-1.5-1.6-2.2c0-0.4,0.2-0.8,0.5-1.4
		c0.4-0.6,1.9-1,4.7-1.1c4.4-0.1,6.7-0.2,6.8-0.2c0.5,0,1.1-0.2,2-0.7c2.6-2.5,5.3-3.8,7.9-3.9c1.9-0.1,4.6,1,8.1,3.2
		c0.2,0.1,0.4,0.2,0.6,0.4c0.2,0.1,0.4,0.2,0.6,0.4c2.8,0.1,6.1,0.2,10,0.4c3.9,0.1,8.3,0.2,13.4,0.4c1.8,0.2,2.7,0.5,2.7,0.7
		c0,0.7-0.9,1.1-2.7,1.1c-3.7,0-6.1,0.7-7.2,2.2c-0.2,0.4-0.2,0.7,0,1.1c0.1,0.4,0.2,0.7,0.4,1.1c0.1,0.4,0.2,0.7,0.2,0.9
		c-0.4,4.5-2.3,9.4-5.8,14.6c-3.5,5.2-8.9,10.9-16.1,17C678.6,265.7,666.3,272.5,655.8,274z M653.3,264.5c-0.7,1.3-1.1,2.6-1.1,3.9
		c0,2.9,1.9,3.9,5.7,3.2c8.1-1.3,17.9-7.2,29.2-17.6c12-10.6,18.8-20.3,20.6-29.1c0.8-3.6-1.4-5.7-6.8-6.3c-2.9-0.4-5.6-0.4-8.1-0.1
		c-2.5,0.3-4.8,0.9-7,1.7c-0.2-0.1-1.3,0.4-3,1.6C670.1,233.8,660.2,248,653.3,264.5z"/>
	<path d="M709.6,278.2c0.8-1.9,1.8-4.5,3-7.7c1.1-3.2,2.3-6.7,3.4-10.3c1.1-3.6,2.2-7.4,3.3-11.1c1.1-3.8,2-7.2,2.8-10.2
		c0.8-3.1,1.3-5.6,1.7-7.7c0.4-2.1,0.4-3.3,0.2-3.5c0.2-1.3,1.1-2.7,2.7-4c1.6-1.4,2.9-2.2,3.9-2.4c1.3-0.5,2.4-0.4,3.2,0.1
		c0.8,0.5,1.2,1.3,1.1,2.4c-0.1,1.3-0.8,2.8-2,4.3c-0.8,2.2-1.9,5.2-3.1,9.1c-1.3,3.9-2.7,8.2-4.2,12.8c-1.6,4.7-3.1,9.4-4.7,14.3
		c-1.6,4.8-3.1,9.2-4.5,13c5.5-1,11.5-1.8,17.9-2.6c6.5-0.8,12.7-1.3,18.8-1.7c6-0.4,11.6-0.5,16.6-0.5c5.1,0,9.2,0.3,12.2,0.9
		c1.6,0.4,3.2,1.1,4.8,2.2c1.7,1.1,3.1,2.5,4.3,4.1c1.2,1.6,2,3.4,2.4,5.4c0.4,2,0.1,3.9-0.8,5.7c-1.6,2.8-3.3,4.9-5.2,6.5
		c-1.9,1.6-4.1,3.3-6.5,5.4c-1.7,1.3-2.6,1.8-2.9,1.3c-0.2-0.4,0.3-1.3,1.6-2.6c2.4-2.2,4.5-4.5,6.3-7.2c1.8-2.6,3-5.1,3.8-7.4
		c1-3.2,0.6-5.7-1.1-7.4c-1.7-1.7-4.1-2.7-7.2-3c-3.1-0.4-7.4-0.5-12.9-0.5c-5.4,0-11.2,0.2-17.6,0.5c-6.3,0.4-12.7,0.9-19,1.5
		c-6.3,0.7-12,1.5-16.9,2.6c-3.1,9.1-6.9,19.1-11.3,30.1c-4.4,11-9.5,22.2-15.3,33.5c-5.7,11.3-12.1,22.3-19.1,33
		c-7,10.7-14.7,20.3-23.2,28.9c-8.5,8.6-17.7,15.5-27.6,21c-9.9,5.4-20.6,8.5-31.9,9.2c-6.6,0.5-13.1-0.1-19.6-1.8
		c-6.5-1.7-12.6-4.1-18.2-7.4c-5.6-3.2-10.7-7.1-15.3-11.5c-4.5-4.4-8.2-9.2-10.9-14.4c-2.7-5.1-4.3-10.5-4.8-16
		c-0.5-5.5,0.3-10.9,2.6-16.3c2.6-6.2,6.8-12.1,12.4-17.8c5.6-5.6,12.3-11,19.9-16.1c7.7-5.1,16.1-9.8,25.2-14.3
		c9.2-4.4,18.6-8.6,28.3-12.5c9.8-3.9,19.6-7.4,29.5-10.6c9.9-3.2,19.4-6,28.5-8.6c9.1-2.6,17.5-4.8,25.3-6.5
		C697.5,280.7,704.1,279.2,709.6,278.2z M524.8,373.6c-1.9,4.7-2.6,9.4-2.1,14.2c0.5,4.8,2,9.4,4.3,13.9s5.5,8.7,9.5,12.6
		c4,3.9,8.6,7.3,13.7,10.1c5.1,2.9,10.8,5.1,17,6.5c6.2,1.5,12.5,2.1,19.1,1.9c11.2-0.5,21.9-3.8,31.8-10c10-6.2,19.2-14,27.7-23.5
		c8.5-9.5,16.2-20,23.1-31.5c6.9-11.5,13.1-22.8,18.4-33.9c5.3-11.1,9.8-21.4,13.4-30.8c3.6-9.4,6.3-16.8,8.1-22.2
		c-12.4,2.6-25.3,5.7-38.5,9.2c-13.2,3.5-26.2,7.5-38.8,11.9c-12.7,4.4-24.9,9.3-36.5,14.6c-11.7,5.3-22.2,11-31.7,17
		c-9.4,6-17.5,12.3-24.2,19C532.5,359.5,527.7,366.4,524.8,373.6z M745,194.4c-0.4,2-2,4.4-4.8,7c-3,2.6-5.3,3.7-6.8,3.2
		c-2.5-0.5-3.8-1.5-3.8-3.1c0-1.7,1.4-3.9,4.1-6.6c2.8-2.9,5-4.5,6.6-4.8c1.2-0.2,2.4,0.2,3.6,1.2
		C745.1,192.2,745.5,193.3,745,194.4z"/>
	<path d="M813.3,220.5c-2.7,1.9-5.7,3-9.1,3.5c-2,0.4-5.1,0.6-9.1,0.7c-4,0.1-8.4,0.2-13.2,0.4c-4.8,0.1-9.6,0.2-14.4,0.2
		c-4.8,0-9,0-12.6,0c-1.3,1.8-2.7,3.8-4.2,6c-1.5,2.2-2.9,4.6-4.2,7.1c-1.3,2.5-2.5,5.1-3.4,7.8c-1,2.7-1.5,5.5-1.6,8.3
		c-0.1,2.6,0.1,4.8,0.8,6.5c0.7,1.7,1.6,3,2.7,3.9c1.1,0.9,2.5,1.5,3.9,1.8c1.5,0.3,3,0.4,4.6,0.3c3.9-0.6,8.2-1.7,12.6-3.4
		c4.5-1.7,8.3-3.4,11.6-5.2c1-0.6,1.7-0.7,2.2-0.3c0.5,0.4,0.2,0.9-0.7,1.5c-1.3,1-2.9,2-4.7,3.1c-1.8,1.1-3.8,2.2-5.9,3.3
		c-2.2,1.1-4.4,2.1-6.7,3c-2.3,0.9-4.6,1.5-6.7,1.9c-1.8,0.4-3.8,0.2-5.9-0.6c-2.2-0.8-4.1-1.9-5.9-3.5c-1.8-1.6-3.3-3.4-4.5-5.5
		c-1.2-2.1-1.7-4.3-1.6-6.7c0.4-6.6,2.2-13.2,5.5-19.7c3.3-6.6,7.3-12.7,12-18.4c4.7-5.7,9.7-10.6,14.9-14.7s9.9-7,14.1-8.7
		c2.3-0.7,4.3-0.6,6.1,0.3c1.8,0.9,3.2,2.2,4.2,3.9c1,1.7,1.6,3.7,1.8,5.8c0.2,2.2-0.3,4.1-1.3,5.9c-1.8,3.4-5,6.2-9.7,8.4
		c-4.7,2.3-10,3.9-16,4.8c3.2,0,6.5,0,9.9,0c3.5,0,6.8,0,9.9-0.1c3.1-0.1,6-0.1,8.7-0.3c2.7-0.1,5-0.3,6.9-0.5
		c2.5-0.2,5.1-1,7.6-2.3c2.6-1.3,4.6-2.6,6-3.9c0.6-0.8,1.1-1.1,1.5-0.9c0.4,0.2,0.3,0.8-0.3,1.6C817.9,217,816,218.6,813.3,220.5z
		 M792.2,202.3c0.1-1.4-0.2-2.5-0.9-3.3c-0.7-0.8-1.8-1.1-3.1-1.1c-1.4,0.1-3,0.6-4.8,1.5c-4.4,2.5-8.9,5.8-13.5,10
		c-4.5,4.1-8.9,8.4-12.9,12.8c3.1,0,6.3-0.4,9.7-1.1c3.3-0.7,6.5-1.8,9.5-3.1c3-1.4,5.7-3,8.2-4.8c2.5-1.8,4.4-3.8,5.8-5.9
		C791.4,205.4,792.1,203.7,792.2,202.3z"/>
	<path d="M841.5,216.5c-3.2,2.3-7.2,4-12,5.1c2.8-2,5.7-4.4,8.8-7c3.1-2.6,5.4-5,6.8-7c1.2-1.9,1.9-3.6,2-5c0.1-1.4-0.2-2.5-0.9-3.3
		c-0.7-0.8-1.8-1.1-3.1-1.1c-1.4,0.1-3,0.6-4.8,1.5c-4.4,2.5-8.9,5.8-13.4,10c-4.5,4.1-8.8,8.5-12.8,13l-2.2,2.9
		c-2.8,3.7-5.6,8.1-8.4,13.1c-2.9,5-4.5,10.4-5,16.1c-0.1,2.6,0.1,4.8,0.8,6.5c0.7,1.7,1.6,3,2.7,3.9c1.1,0.9,2.5,1.5,3.9,1.8
		c1.5,0.3,3,0.4,4.6,0.3c3.9-0.5,8.2-1.6,12.7-3.2c4.5-1.7,8.4-3.5,11.8-5.4c1-0.6,1.6-0.7,2.1-0.3c0.4,0.4,0.1,0.9-0.8,1.5
		c-1.3,1-2.9,2-4.7,3.1c-1.8,1.1-3.8,2.2-5.9,3.3c-2.2,1.1-4.4,2.1-6.6,3c-2.3,0.9-4.5,1.5-6.8,1.9c-1.8,0.4-3.7,0.1-5.8-0.6
		c-2.1-0.8-4.1-1.9-5.9-3.4c-1.9-1.5-3.4-3.3-4.6-5.5c-1.2-2.2-1.7-4.4-1.6-6.8c0.2-4.3,1.2-8.7,2.8-13.1c1.6-4.4,3.7-8.7,6.2-12.9
		c2.5-4.2,5.4-8.2,8.5-11.9c3.2-3.8,6.4-7.2,9.8-10.2c3.3-3.1,6.7-5.6,10-7.7c3.3-2.1,6.5-3.6,9.3-4.6c2.3-0.7,4.5-0.8,6.5-0.2
		c2.1,0.6,3.8,1.6,5,3.1c1.3,1.4,1.9,3.2,1.9,5.4c0,2.2-1,4.4-2.9,6.6C847.4,211.8,844.8,214.2,841.5,216.5z M829.3,221.6v-0.2
		c0.1,0,0.2-0.1,0.2-0.2C829.5,221.4,829.4,221.5,829.3,221.6z"/>
	<path d="M820.4,360c-3.2-3.5-5.3-7.4-6.1-11.8c-0.8-4.4-1.3-9.1-1.3-14.3c0-16.9,6.9-41,20.6-72.5c6.1-13.9,12.2-26.4,18.3-37.5
		s12.2-21.1,18.3-30c1.4-1.6,2.2-3.3,2.2-5.4c0-2.2-1.1-3.8-3.2-5c-4.3-1.7-6-3.5-5-5.6c0.4-0.7,2.1-1.3,5.3-1.6
		c3.2-0.4,7.6-0.5,13.4-0.5c0.5,0,0.5-0.2,0.2-0.5c-0.4-0.4-0.4-0.7-0.2-1.1c5.7-9,12.4-17.9,19.9-26.8c7.5-8.9,15.4-18.2,23.7-27.7
		c0.7-0.8,4.1-2.4,10-4.7c2.9-1,4.9-1.7,6.2-2.2s2.6-0.8,4-0.8c1.3,0,2,0.5,2,1.6c0,0.5-0.6,0.9-1.8,1.3
		c-11.2,2.3-29.8,21.2-55.8,56.9c-1.9,2.8-1.5,4.1,1.3,4.1h26c7.1,0,12.5,0,16.4,0.1c3.9,0.1,6.3,0.1,7.3,0.1c1.1,0,1.8,0.2,2.2,0.5
		c0,0.2-0.3,0.9-1,1.9c-0.7,1-1.5,1.6-2.6,1.7c-6.8,0.2-14.6,0.6-23.4,1.2c-8.8,0.5-18.8,1.1-30.1,1.7c-2,0.4-3.5,1.3-4.5,2.9
		c-6.3,9.3-12.3,18.6-17.9,27.8c-5.6,9.2-11.1,19.2-16.5,30c-8.3,17.1-14.8,32.6-19.6,46.6c-4.8,13.9-7.7,26.5-8.6,37.6
		c-0.1,1.6-0.2,3-0.2,4.3c0,1.4,0,2.9,0,4.3c0,20.8,7.4,31.2,22.1,31.2c4.2,0,8.9-0.8,14-2.3c7.5-2.4,15-6.2,22.4-11.3
		c7.4-5.1,15-11.8,22.6-20.1c7.9-8.3,14-16,18.2-23.1c4.2-7.2,6.8-14,7.8-20.5c0-11.2-4-16.2-12-14.9c-1.8,0.2-3.4,0.8-4.7,1.6
		c-1.3,0.8-2.3,1.3-2.9,1.3c-1.2,0-1.7-0.5-1.4-1.6c0.6-1,1.5-1.8,2.6-2.5c1.1-0.7,3.3-1.7,6.4-3c0.5-0.1,1.2-0.2,2.2-0.2
		c3.8,0,7.5,2.6,10.9,7.7c3.6,5.4,5.3,9.4,5,12.2c-2.4,15.8-13.8,33-34.3,51.5c-10.4,9.3-20.1,16.4-29.2,21.2
		c-9,4.8-17.6,7.2-25.6,7.2C834.5,370.7,826.6,367.2,820.4,360z"/>
</g>
</svg>
