<?xml version="1.0" encoding="utf-8"?>
<!-- Generator: Adobe Illustrator 18.1.1, SVG Export Plug-In . SVG Version: 6.00 Build 0)  -->
<svg version="1.1" id="Layer_1" xmlns="http://www.w3.org/2000/svg" xmlns:xlink="http://www.w3.org/1999/xlink" x="0px" y="0px"
	 viewBox="0 0 846.8 87.1" enable-background="new 0 0 846.8 87.1" xml:space="preserve">
<g>
	<path fill="#330000" d="M43.1,39.7l-2.6,14.6h12.6l-1,6.5H39.7l-3.9,22.5h-4.6l3.6-22.5H19.7l-3.9,22.5h-4.5L15,60.8H2.5l1-6.5H16
		l2.5-14.6H5.9l1.1-6.6h12.5l3.8-22.6H28l-3.9,22.6h15.5l3.6-22.6h4.6l-3.8,22.6h12.6l-1,6.6H43.1z M36.1,54.3l2.4-14.6H23.2
		l-2.5,14.6H36.1z"/>
	<path fill="#330000" d="M85.3,2.5h3.6c2.7,5.3,7.2,15.2,13.7,29.6c6.5,14.5,12,25.7,16.5,33.8l33.6-63.4h2.9
		c3.8,31.5,7.4,59.1,10.9,83c-1.3-0.2-3.6-0.4-6.9-0.4c-3,0-5.1,0.1-6.4,0.4c-2.2-26-4.2-45.8-5.9-59.3l-0.4-0.1
		c-11.3,19.9-21.3,39.6-30.2,59h-2.5c-2.5-5.2-6.8-14.6-12.7-28.1c-5.9-13.5-10.8-24-14.7-31.3h-0.6c-1.1,6.7-2.9,17.3-5.1,31.9
		c-2.3,14.6-3.8,23.9-4.4,27.9c-1-0.2-2.3-0.4-3.9-0.4c-1.9,0-3.3,0.1-4.3,0.4C75.3,53.9,80.9,26.3,85.3,2.5z"/>
	<path fill="#330000" d="M204,47.6c-2.2-0.5-4.3-1.3-6.3-2.2c-3.9-1.9-7-4.4-9.4-7.8c-2.4-3.3-3.6-7.4-3.6-12.1
		c0-6.2,2.3-11.3,6.9-15.5c2.8-2.5,6-4.1,9.5-4.8c3.6-0.7,7.9-1.1,13.1-1.1c1,0,3.6,0,7.9,0c4.2,0,7,0,8.4,0c1.3,0,2.5,0,3.7,0
		c1.1,0,1.9,0,2.3,0l0.7,0l0.3,0.4c-0.9,6.3-1.3,14.6-1.3,25v30.5c0,10.7,0.4,19.1,1.3,25l-0.1,0.4c-1.5-0.2-3.8-0.3-6.8-0.3
		c-1.3,0-2.5,0-3.6,0s-1.9,0-2.4,0.1l-0.6,0.2l-0.3-0.4c0.8-5.9,1.3-14.3,1.3-25V49.3c-3.2,0-6,0-8.6,0c-3,3.3-6.7,8-11.1,13.9
		c-7.8,10.7-12.5,18.1-13.9,22.2c-1.7-0.2-4.6-0.4-8.8-0.4c-2.8,0-5.1,0.1-6.8,0.4l-0.3-0.4c2.5-2.7,7.4-9,14.7-18.9
		C197.4,56.3,202,50.1,204,47.6z M214.1,8.6c-1.8,0-3.4,0.1-4.8,0.3c-1.4,0.2-2.9,0.7-4.5,1.4c-1.5,0.7-2.8,1.7-3.9,2.8
		c-1,1.2-1.9,2.8-2.6,4.9c-0.7,2.1-1,4.6-1,7.4c0,3,0.3,5.7,1,7.9c0.7,2.2,1.6,4,2.8,5.3c1.2,1.3,2.7,2.4,4.6,3.2
		c1.9,0.8,3.8,1.3,5.8,1.6c2,0.3,4.4,0.4,7.1,0.4h6.2V14.1c0-1.9-0.7-3.4-2.1-4.2C221.3,9,218.5,8.6,214.1,8.6z"/>
	<path fill="#330000" d="M279.2,29.9c0-9.6-0.3-15.6-1-17.9c-5.2,0-9.9,0-14.3,0c-4.3,0-7.4,0.2-9.3,0.6l-2.7,0.6l-0.3-0.5
		c0.3-1.9,0.3-4.7,0-8.2l0.3-0.4c2.1,0.2,4.7,0.4,7.8,0.4h50.2c3.1,0,5.7-0.1,7.8-0.4l0.3,0.4c-0.3,3.5-0.3,6.3,0,8.2l-0.3,0.5
		c-6-1.1-14.7-1.7-26.3-1.7c-0.7,2.3-1,8.3-1,18v30.5c0,10.4,0.4,18.7,1.3,25l-0.3,0.4c-1.6-0.2-3.8-0.4-6.6-0.4s-5,0.1-6.6,0.4
		l-0.3-0.4c0.9-5.9,1.3-14.2,1.3-24.8V29.9z"/>
	<path fill="#330000" d="M338,56.5c-5.3,12.4-8.9,22.1-10.8,28.9c-1.1-0.2-3-0.4-5.9-0.4c-1.9,0-3.5,0.1-4.5,0.4L355.2,3h3.6
		l12.6,29.5l14.2,33.4c4,9.4,7,15.9,8.9,19.6c-1.5-0.2-4.1-0.4-7.8-0.4c-2.9,0-5.1,0.1-6.5,0.4c-1.9-6.8-5.3-16.5-10.1-28.9
		c-4.9,0-10,0-15.3,0C348.6,56.5,343,56.5,338,56.5z M367.7,50.8c-4.1-10.3-8.5-20.6-13.2-30.8h-0.3l-13.7,30.8c0.8,0,2.9,0,6.3,0
		c3.4,0,5.9,0,7.3,0C359,50.8,363.5,50.8,367.7,50.8z"/>
	<path fill="#330000" d="M441.6,3c3,0,6,0.2,9,0.6c3.1,0.4,5.7,0.9,7.9,1.4c2.2,0.5,4.2,1.1,6,1.7c1.8,0.6,3.2,1.1,4.1,1.5l1.4,0.5
		l0.3,0.4l-0.8,3.1l-0.6,2.7c-0.1,0.5-0.3,1.2-0.4,2.1c-0.2,0.9-0.3,1.8-0.4,2.7c-0.1,0.9-0.2,1.9-0.3,3.2l-1.3,0.1
		c-4.9-9.4-13.7-14.1-26.5-14.1c-2.2,0-4.6,0.4-7,1.1c-2.4,0.8-4.8,2-7.3,3.8c-2.5,1.8-4.7,3.9-6.6,6.5c-1.9,2.6-3.5,5.8-4.8,9.9
		c-1.2,4-1.8,8.4-1.8,13.3c0,3.7,0.4,7.3,1.1,10.8c0.8,3.5,2,6.8,3.6,9.9c1.6,3.1,3.6,5.9,5.9,8.2c2.3,2.4,5.1,4.2,8.5,5.6
		c3.3,1.4,6.9,2,10.8,2c6,0,11-0.9,14.9-2.7c3.9-1.8,8.2-5.2,12.8-10.1l3.1,2.4c-8.9,11.2-19.6,16.8-32,16.8
		c-5.4,0-10.5-0.8-15.1-2.3c-4.6-1.5-8.6-3.6-11.9-6.2c-3.3-2.6-6.1-5.6-8.4-9.1c-2.3-3.5-4-7.1-5.1-11c-1.1-3.9-1.7-7.8-1.7-11.9
		c0-6,1.2-11.6,3.6-17s5.6-9.9,9.5-13.6c3.9-3.7,8.5-6.7,13.7-8.9S436.1,3,441.6,3z"/>
	<path fill="#330000" d="M553.6,4.4c1.3,0,2.5,0,3.7,0c1.1,0,1.9-0.1,2.4-0.2l0.7-0.1l0.1,0.4c-0.9,5.9-1.3,14.3-1.3,25V60
		c0,9.8,0.5,18.2,1.5,25l-0.3,0.4c-1.6-0.2-3.8-0.3-6.8-0.3c-1.4,0-2.6,0-3.7,0c-1.1,0-1.9,0-2.3,0.1l-0.7,0.2l-0.1-0.4
		c0.8-5.5,1.3-13.8,1.3-25V29.5c0-9.6-0.3-15.6-1-17.8c-0.5-0.6-1-1-1.4-1.3s-1.1-0.4-2-0.4H509c-0.9,0-1.6,0.1-2,0.4
		c-0.4,0.2-0.9,0.7-1.4,1.3c-0.7,2.3-1,8.2-1,17.8V60c0,11.1,0.4,19.5,1.3,25l-0.1,0.4c-1.4-0.2-3.7-0.3-6.7-0.3c-1.3,0-2.5,0-3.7,0
		c-1.1,0-1.9,0-2.4,0.1l-0.7,0.2l-0.3-0.4c1-6.8,1.5-15.2,1.5-25V29.5c0-10.7-0.4-19.1-1.3-25l0.1-0.4c1.6,0.2,3.8,0.3,6.8,0.3
		H553.6z"/>
	<path fill="#330000" d="M586.6,29.6c0-10.7-0.4-19-1.3-25l0.3-0.4c1.6,0.2,3.8,0.4,6.6,0.4c2.8,0,5.1-0.1,6.7-0.4l0.3,0.4
		c-0.9,5.8-1.3,14.1-1.3,25v30.5c0,6.6,0.1,11.9,0.4,15.7l43.7-71.1c0,0,0-0.1,0-0.1s0,0,0-0.1l0.3-0.4c1.6,0.2,3.8,0.4,6.7,0.4
		c2.8,0,5-0.1,6.6-0.4l0.3,0.4c-0.8,5.5-1.3,13.8-1.3,25v30.5c0,10.7,0.4,19,1.3,25l-0.3,0.4c-1.6-0.2-3.8-0.4-6.6-0.4
		c-2.9,0-5.1,0.1-6.7,0.4l-0.3-0.4c0.9-5.9,1.3-14.3,1.3-25V29.6c0-6.5-0.1-11.7-0.4-15.6l-43.6,71.1l-0.3,0.4
		c-1.6-0.2-3.8-0.4-6.7-0.4c-2.8,0-5,0.1-6.6,0.4l-0.3-0.4c0.8-5.6,1.3-14,1.3-25V29.6z"/>
	<path fill="#330000" d="M738.3,29.6c0-10.4-0.4-18.7-1.3-25l0.3-0.4c1.6,0.2,3.8,0.4,6.7,0.4c2.9,0,5.1-0.1,6.7-0.4l0.1,0.4
		c-0.8,5.5-1.3,13.8-1.3,25v30.5c0,10.7,0.4,19,1.3,25l-0.3,0.4c-1.6-0.2-3.8-0.4-6.6-0.4c-3,0-5.2,0.1-6.8,0.4l-0.1-0.4
		c0.9-5.9,1.3-14.3,1.3-25v-15h-45.1v15c0,10.4,0.4,18.7,1.3,25l-0.3,0.4c-1.6-0.2-3.8-0.4-6.7-0.4c-2.9,0-5.2,0.1-6.7,0.4l-0.1-0.4
		c0.8-5.6,1.3-14,1.3-25V29.6c0-10.7-0.4-19-1.3-25l0.3-0.4c1.6,0.2,3.8,0.4,6.6,0.4c2.9,0,5.2-0.1,6.8-0.4l0.1,0.4
		c-0.9,5.8-1.3,14.1-1.3,25v9.9h45.1V29.6z"/>
	<path fill="#330000" d="M786.3,56.5c-5.3,12.4-8.9,22.1-10.8,28.9c-1.1-0.2-3-0.4-5.9-0.4c-1.9,0-3.5,0.1-4.5,0.4L803.5,3h3.6
		l12.6,29.5l14.2,33.4c4,9.4,7,15.9,8.9,19.6c-1.5-0.2-4.1-0.4-7.8-0.4c-2.9,0-5.1,0.1-6.5,0.4c-1.9-6.8-5.3-16.5-10.1-28.9
		c-4.9,0-10,0-15.3,0C796.9,56.5,791.3,56.5,786.3,56.5z M816,50.8c-4.1-10.3-8.5-20.6-13.2-30.8h-0.3l-13.7,30.8c0.8,0,2.9,0,6.3,0
		c3.4,0,5.9,0,7.3,0C807.3,50.8,811.8,50.8,816,50.8z"/>
</g>
<g>
	<path fill="#E5E5E5" d="M44.1,40.7l-2.6,14.6h12.6l-1,6.5H40.7l-3.9,22.5h-4.6l3.6-22.5H20.7l-3.9,22.5h-4.5L16,61.8H3.5l1-6.5H17
		l2.5-14.6H6.9l1.1-6.6h12.5l3.8-22.6H29l-3.9,22.6h15.5l3.6-22.6h4.6l-3.8,22.6h12.6l-1,6.6H44.1z M37.1,55.3l2.4-14.6H24.2
		l-2.5,14.6H37.1z"/>
	<path fill="#E5E5E5" d="M86.3,3.5h3.6c2.7,5.3,7.2,15.2,13.7,29.6c6.5,14.5,12,25.7,16.5,33.8l33.6-63.4h2.9
		c3.8,31.5,7.4,59.1,10.9,83c-1.3-0.2-3.6-0.4-6.9-0.4c-3,0-5.1,0.1-6.4,0.4c-2.2-26-4.2-45.8-5.9-59.3l-0.4-0.1
		c-11.3,19.9-21.3,39.6-30.2,59h-2.5c-2.5-5.2-6.8-14.6-12.7-28.1c-5.9-13.5-10.8-24-14.7-31.3h-0.6c-1.1,6.7-2.9,17.3-5.1,31.9
		c-2.3,14.6-3.8,23.9-4.4,27.9c-1-0.2-2.3-0.4-3.9-0.4c-1.9,0-3.3,0.1-4.3,0.4C76.3,54.9,81.9,27.3,86.3,3.5z"/>
	<path fill="#E5E5E5" d="M205,48.6c-2.2-0.5-4.3-1.3-6.3-2.2c-3.9-1.9-7-4.4-9.4-7.8c-2.4-3.3-3.6-7.4-3.6-12.1
		c0-6.2,2.3-11.3,6.9-15.5c2.8-2.5,6-4.1,9.5-4.8c3.6-0.7,7.9-1.1,13.1-1.1c1,0,3.6,0,7.9,0c4.2,0,7,0,8.4,0c1.3,0,2.5,0,3.7,0
		c1.1,0,1.9,0,2.3,0l0.7,0l0.3,0.4c-0.9,6.3-1.3,14.6-1.3,25v30.5c0,10.7,0.4,19.1,1.3,25l-0.1,0.4c-1.5-0.2-3.8-0.3-6.8-0.3
		c-1.3,0-2.5,0-3.6,0s-1.9,0-2.4,0.1l-0.6,0.2l-0.3-0.4c0.8-5.9,1.3-14.3,1.3-25V50.3c-3.2,0-6,0-8.6,0c-3,3.3-6.7,8-11.1,13.9
		c-7.8,10.7-12.5,18.1-13.9,22.2c-1.7-0.2-4.6-0.4-8.8-0.4c-2.8,0-5.1,0.1-6.8,0.4l-0.3-0.4c2.5-2.7,7.4-9,14.7-18.9
		C198.4,57.3,203,51.1,205,48.6z M215.1,9.6c-1.8,0-3.4,0.1-4.8,0.3c-1.4,0.2-2.9,0.7-4.5,1.4c-1.5,0.7-2.8,1.7-3.9,2.8
		c-1,1.2-1.9,2.8-2.6,4.9c-0.7,2.1-1,4.6-1,7.4c0,3,0.3,5.7,1,7.9c0.7,2.2,1.6,4,2.8,5.3c1.2,1.3,2.7,2.4,4.6,3.2
		c1.9,0.8,3.8,1.3,5.8,1.6c2,0.3,4.4,0.4,7.1,0.4h6.2V15.1c0-1.9-0.7-3.4-2.1-4.2C222.3,10,219.5,9.6,215.1,9.6z"/>
	<path fill="#E5E5E5" d="M280.2,30.9c0-9.6-0.3-15.6-1-17.9c-5.2,0-9.9,0-14.3,0c-4.3,0-7.4,0.2-9.3,0.6l-2.7,0.6l-0.3-0.5
		c0.3-1.9,0.3-4.7,0-8.2l0.3-0.4c2.1,0.2,4.7,0.4,7.8,0.4h50.2c3.1,0,5.7-0.1,7.8-0.4l0.3,0.4c-0.3,3.5-0.3,6.3,0,8.2l-0.3,0.5
		c-6-1.1-14.7-1.7-26.3-1.7c-0.7,2.3-1,8.3-1,18v30.5c0,10.4,0.4,18.7,1.3,25l-0.3,0.4c-1.6-0.2-3.8-0.4-6.6-0.4s-5,0.1-6.6,0.4
		l-0.3-0.4c0.9-5.9,1.3-14.2,1.3-24.8V30.9z"/>
	<path fill="#E5E5E5" d="M339,57.5c-5.3,12.4-8.9,22.1-10.8,28.9c-1.1-0.2-3-0.4-5.9-0.4c-1.9,0-3.5,0.1-4.5,0.4L356.2,4h3.6
		l12.6,29.5l14.2,33.4c4,9.4,7,15.9,8.9,19.6c-1.5-0.2-4.1-0.4-7.8-0.4c-2.9,0-5.1,0.1-6.5,0.4c-1.9-6.8-5.3-16.5-10.1-28.9
		c-4.9,0-10,0-15.3,0C349.6,57.5,344,57.5,339,57.5z M368.7,51.8c-4.1-10.3-8.5-20.6-13.2-30.8h-0.3l-13.7,30.8c0.8,0,2.9,0,6.3,0
		c3.4,0,5.9,0,7.3,0C360,51.8,364.5,51.8,368.7,51.8z"/>
	<path fill="#E5E5E5" d="M442.6,4c3,0,6,0.2,9,0.6c3.1,0.4,5.7,0.9,7.9,1.4c2.2,0.5,4.2,1.1,6,1.7c1.8,0.6,3.2,1.1,4.1,1.5l1.4,0.5
		l0.3,0.4l-0.8,3.1l-0.6,2.7c-0.1,0.5-0.3,1.2-0.4,2.1c-0.2,0.9-0.3,1.8-0.4,2.7c-0.1,0.9-0.2,1.9-0.3,3.2l-1.3,0.1
		c-4.9-9.4-13.7-14.1-26.5-14.1c-2.2,0-4.6,0.4-7,1.1c-2.4,0.8-4.8,2-7.3,3.8c-2.5,1.8-4.7,3.9-6.6,6.5c-1.9,2.6-3.5,5.8-4.8,9.9
		c-1.2,4-1.8,8.4-1.8,13.3c0,3.7,0.4,7.3,1.1,10.8c0.8,3.5,2,6.8,3.6,9.9c1.6,3.1,3.6,5.9,5.9,8.2c2.3,2.4,5.1,4.2,8.5,5.6
		c3.3,1.4,6.9,2,10.8,2c6,0,11-0.9,14.9-2.7c3.9-1.8,8.2-5.2,12.8-10.1l3.1,2.4c-8.9,11.2-19.6,16.8-32,16.8
		c-5.4,0-10.5-0.8-15.1-2.3c-4.6-1.5-8.6-3.6-11.9-6.2c-3.3-2.6-6.1-5.6-8.4-9.1c-2.3-3.5-4-7.1-5.1-11c-1.1-3.9-1.7-7.8-1.7-11.9
		c0-6,1.2-11.6,3.6-17s5.6-9.9,9.5-13.6c3.9-3.7,8.5-6.7,13.7-8.9S437.1,4,442.6,4z"/>
	<path fill="#E5E5E5" d="M554.6,5.4c1.3,0,2.5,0,3.7,0c1.1,0,1.9-0.1,2.4-0.2l0.7-0.1l0.1,0.4c-0.9,5.9-1.3,14.3-1.3,25V61
		c0,9.8,0.5,18.2,1.5,25l-0.3,0.4c-1.6-0.2-3.8-0.3-6.8-0.3c-1.4,0-2.6,0-3.7,0c-1.1,0-1.9,0-2.3,0.1l-0.7,0.2l-0.1-0.4
		c0.8-5.5,1.3-13.8,1.3-25V30.5c0-9.6-0.3-15.6-1-17.8c-0.5-0.6-1-1-1.4-1.3s-1.1-0.4-2-0.4H510c-0.9,0-1.6,0.1-2,0.4
		c-0.4,0.2-0.9,0.7-1.4,1.3c-0.7,2.3-1,8.2-1,17.8V61c0,11.1,0.4,19.5,1.3,25l-0.1,0.4c-1.4-0.2-3.7-0.3-6.7-0.3c-1.3,0-2.5,0-3.7,0
		c-1.1,0-1.9,0-2.4,0.1l-0.7,0.2l-0.3-0.4c1-6.8,1.5-15.2,1.5-25V30.5c0-10.7-0.4-19.1-1.3-25l0.1-0.4c1.6,0.2,3.8,0.3,6.8,0.3
		H554.6z"/>
	<path fill="#E5E5E5" d="M587.6,30.6c0-10.7-0.4-19-1.3-25l0.3-0.4c1.6,0.2,3.8,0.4,6.6,0.4c2.8,0,5.1-0.1,6.7-0.4l0.3,0.4
		c-0.9,5.8-1.3,14.1-1.3,25v30.5c0,6.6,0.1,11.9,0.4,15.7l43.7-71.1c0,0,0-0.1,0-0.1s0,0,0-0.1l0.3-0.4c1.6,0.2,3.8,0.4,6.7,0.4
		c2.8,0,5-0.1,6.6-0.4l0.3,0.4c-0.8,5.5-1.3,13.8-1.3,25v30.5c0,10.7,0.4,19,1.3,25l-0.3,0.4c-1.6-0.2-3.8-0.4-6.6-0.4
		c-2.9,0-5.1,0.1-6.7,0.4l-0.3-0.4c0.9-5.9,1.3-14.3,1.3-25V30.6c0-6.5-0.1-11.7-0.4-15.6l-43.6,71.1l-0.3,0.4
		c-1.6-0.2-3.8-0.4-6.7-0.4c-2.8,0-5,0.1-6.6,0.4l-0.3-0.4c0.8-5.6,1.3-14,1.3-25V30.6z"/>
	<path fill="#E5E5E5" d="M739.3,30.6c0-10.4-0.4-18.7-1.3-25l0.3-0.4c1.6,0.2,3.8,0.4,6.7,0.4c2.9,0,5.1-0.1,6.7-0.4l0.1,0.4
		c-0.8,5.5-1.3,13.8-1.3,25v30.5c0,10.7,0.4,19,1.3,25l-0.3,0.4c-1.6-0.2-3.8-0.4-6.6-0.4c-3,0-5.2,0.1-6.8,0.4l-0.1-0.4
		c0.9-5.9,1.3-14.3,1.3-25v-15h-45.1v15c0,10.4,0.4,18.7,1.3,25l-0.3,0.4c-1.6-0.2-3.8-0.4-6.7-0.4c-2.9,0-5.2,0.1-6.7,0.4l-0.1-0.4
		c0.8-5.6,1.3-14,1.3-25V30.6c0-10.7-0.4-19-1.3-25l0.3-0.4c1.6,0.2,3.8,0.4,6.6,0.4c2.9,0,5.2-0.1,6.8-0.4l0.1,0.4
		c-0.9,5.8-1.3,14.1-1.3,25v9.9h45.1V30.6z"/>
	<path fill="#E5E5E5" d="M787.3,57.5c-5.3,12.4-8.9,22.1-10.8,28.9c-1.1-0.2-3-0.4-5.9-0.4c-1.9,0-3.5,0.1-4.5,0.4L804.5,4h3.6
		l12.6,29.5l14.2,33.4c4,9.4,7,15.9,8.9,19.6c-1.5-0.2-4.1-0.4-7.8-0.4c-2.9,0-5.1,0.1-6.5,0.4c-1.9-6.8-5.3-16.5-10.1-28.9
		c-4.9,0-10,0-15.3,0C797.9,57.5,792.3,57.5,787.3,57.5z M817,51.8c-4.1-10.3-8.5-20.6-13.2-30.8h-0.3l-13.7,30.8c0.8,0,2.9,0,6.3,0
		c3.4,0,5.9,0,7.3,0C808.3,51.8,812.8,51.8,817,51.8z"/>
</g>
</svg>
