<?xml version="1.0" encoding="utf-8"?>
<!-- Generator: Adobe Illustrator 18.1.1, SVG Export Plug-In . SVG Version: 6.00 Build 0)  -->
<svg version="1.1" id="Layer_1" xmlns="http://www.w3.org/2000/svg" xmlns:xlink="http://www.w3.org/1999/xlink" x="0px" y="0px"
	 viewBox="0 0 568.8 228.8" enable-background="new 0 0 568.8 228.8" xml:space="preserve">
<g>
	<path fill="#FFFFFF" d="M-0.7,63.3c-0.1-1,0-2.1,0.3-3.4c0.3-1.3,0.6-2.4,0.9-3.4v-0.3C0.7,55.8,0.9,55.4,1,55
		c0.1-0.3,0.2-0.7,0.3-1C4,46.5,6.9,40,10,34.4c3.1-5.6,6.3-10.3,9.6-14.2c3.3-3.9,6.5-7.1,9.8-9.6c3.2-2.5,6.3-4.5,9.4-6
		c6.9-3.3,13.9-4.7,20.9-4c4.7,0.3,8.3,1.8,11,4.4c2.7,2.6,4.7,5.3,6.2,8.1c1.7,3.3,2.8,7.2,3.5,11.5c0.3,4.3,0.2,8.4-0.3,12.2
		c-0.6,3.8-1.4,7.5-2.7,10.9c-1.2,3.4-2.6,6.6-4.3,9.5c-1.6,2.9-3.3,5.6-5.1,8.1C63.7,71,58.9,76,53.4,80.5c0.6-0.2,1.9,0.1,4.1,0.8
		c2.2,0.7,4.3,2,6.5,4s3.9,4.9,5.1,8.6c1.2,3.8,1.2,8.6,0,14.6c-1.1,5.3-2.5,10-4.2,14c-1.7,4-3.5,7.5-5.5,10.6
		c-2,3.1-4,5.7-6.1,7.9c-2.1,2.2-4,4.1-5.8,5.8c-2.2,1.8-4.8,3.4-7.7,4.7c-1.1,0.5-2.1,0.8-2.8,0.9c-0.8,0.1-1.4,0.1-2,0.1
		c-0.7,0-1.2-0.2-1.7-0.5c-0.3,0-0.7-0.2-1.2-0.5c-0.4-0.3-0.9-0.6-1.4-0.9s-1.1-0.7-1.8-1.4c-1.2-1-2.2-2.2-2.8-3.6
		c-0.7-1.4-1.1-2.3-1.2-2.6c-0.9-3.8-1.1-7.7-0.8-11.5c0.4-3.8,1.1-7.4,2.1-10.6s2.1-6.1,3.3-8.6c1.2-2.5,2.3-4.3,3.2-5.3
		c3.1-3.8,5.7-5.5,7.8-5c0.1,0,0.5,0.1,1.3,0.3c0.7,0.2,1,0.6,0.9,1.3c0,0.3-0.1,0.6-0.2,0.8c0,0.2,0,0.3,0.1,0.3
		c0.1,0,0.1,0.1,0.1,0.3c0.7-0.3,1.1-0.3,1.2,0c0,0.3-0.3,0.7-0.8,1c0.8,0.3,1.2,0.7,1.2,1c0,0.3-0.2,0.5-0.6,0.6
		c-0.4,0.1-0.8,0.2-1.3,0.4c-0.8,0.3-1.4,0.8-2,1.3c-0.6,0.5-1.1,0.9-1.5,1.3c-0.4,0.5-0.9,1-1.3,1.5c-3,4.2-5.2,8-6.4,11.6
		c-1.3,3.6-2,6.8-2.3,9.6c-0.2,2.8-0.1,5.1,0.3,6.9c0.4,1.8,0.9,2.9,1.3,3.4c1.2,1,3.1,0.8,5.7-0.8c2.6-1.5,5.1-3.5,7.5-6
		c1.2-1.3,2.6-2.9,4.1-4.8c1.5-1.8,3-4,4.6-6.5c1.6-2.5,3-5.4,4.4-8.6c1.4-3.2,2.5-6.9,3.4-10.9c0.9-3.8,1-7,0.3-9.4
		c-0.7-2.4-1.7-4.3-3-5.6c-1.3-1.3-2.8-2.2-4.3-2.6c-1.6-0.4-2.8-0.5-3.7-0.1c-0.9,0.3-1.9,1-3.2,1.9c-1.2,0.9-2.4,1.8-3.6,2.7
		c-1.2,0.9-2.3,1.7-3.3,2.4c-1.1,0.7-1.9,1-2.4,1c-1.2,0-2.1-0.3-2.8-0.8c-0.6-0.5-1.3-1.2-2.1-2c-0.4-0.5-0.6-1-0.6-1.6
		c0.1-0.6,0.2-1.1,0.4-1.6c0.2-0.7,0.5-1.3,0.8-2c8.2-8.2,14.7-14.9,19.5-20.2c4.8-5.3,8.5-9.9,11.1-13.7c2.6-3.8,4.5-7.3,5.5-10.5
		c1.1-3.2,1.9-6.7,2.6-10.5c0.7-3.8,0.8-7.4,0.4-10.7c-0.4-3.3-1.4-6-3.2-8c-1.7-2-4.2-3.2-7.4-3.6c-3.2-0.4-7.2,0.2-12,1.9
		c-4.9,1.8-9.4,4.5-13.4,7.9c-4,3.4-7.5,7-10.6,10.7c-3.1,3.7-5.6,7.3-7.7,10.7c-2.1,3.4-3.5,6-4.3,7.6c-1.1,2.3-2.4,5.3-3.8,8.9
		C8.5,62,7.2,65.2,6,68c-0.7,2-0.6,2.8,0.2,2.5c0.3-0.3,0.6,0,0.8,0.9c0.2,0.9-0.4,1.9-1.6,2.9c-0.8,0.7-1.4,0.9-1.9,0.6
		s-1-0.6-1.4-1.1c-0.2-0.3-0.4-0.6-0.4-0.8c-0.1-0.2-0.1-0.3-0.3-0.5C1.1,72.2,1,72,0.9,71.8c-0.1-0.2-0.1-0.3-0.3-0.5
		c0-0.2,0-0.3-0.1-0.4c-0.1-0.1-0.1-0.2-0.1-0.4c-0.2-1-0.4-2.8-0.7-5.2c-0.1-0.3-0.2-0.7-0.3-1C-0.5,64-0.6,63.6-0.7,63.3z
		 M10.7,42v0.3l0.3,0.5c0.1,0,0.2-0.1,0.2-0.3c0.1,0,0.2-0.1,0.3-0.3l0.2-0.3c0-0.3-0.1-0.7-0.3-1h-0.2L11,41.3
		c-0.1,0-0.2,0.1-0.2,0.3v0.3h-0.2V42z M11.9,40c0.2,0.3,0.4,0.5,0.5,0.5h0.2v-0.3h0.2V40h0.2v-0.3v-0.3c0-0.2-0.1-0.3-0.2-0.3
		L12.5,39c-0.1,0-0.2,0.1-0.3,0.3c-0.2,0-0.3,0.2-0.3,0.5V40z M13.2,37.5c-0.1,0-0.2,0-0.2,0.1c0,0.1,0.1,0.1,0.2,0.1
		c0,0.5,0.1,0.8,0.3,0.8c0.1,0,0.2-0.1,0.2-0.3l0.3-0.5l0.2-0.3c0.1-0.2,0.2-0.3,0.2-0.5c0-0.3-0.1-0.5-0.3-0.5h-0.2h-0.2
		c0,0.2-0.1,0.3-0.2,0.3l-0.3,0.5V37.5z M15.4,139.8c-0.2-0.2-0.3-0.5-0.3-1s0-1,0.1-1.5c0.1-0.5,0.1-0.9,0.2-1.2
		c0.1-0.3,0-0.3-0.1,0c-0.2,0.8-0.4,1.5-0.6,2.1c-0.2,0.6-0.4,1.2-0.6,1.9c-0.2,0.5-0.3,0.3-0.3-0.8c0-0.5,0.1-1,0.2-1.5
		c0.6-6.3,1.2-12.4,1.8-18.1c0.7-5.8,1.4-11.4,2.3-17c0.9-5.6,1.9-11.2,2.9-16.7c1.1-5.6,2.2-11.4,3.4-17.4c0.7-3.3,1.3-6.2,1.8-8.5
		c0.5-2.3,1-4.6,1.5-6.7c0.5-2.2,1.1-4.4,1.8-6.6s1.4-5,2.3-8.4l0.2-0.3c0-0.3,0-0.6,0.1-0.8c0.1-0.2,0.1-0.4,0.1-0.8
		c0-0.2,0.1-0.7,0.3-1.5c0.2-0.8,0.5-1.8,0.8-2.7c0.3-1,0.7-1.9,1.2-2.6c0.4-0.8,1-1.1,1.7-1.1c1.1,0,1.9,0.1,2.3,0.3
		c0.4,0.2,0.7,0.5,0.9,1c0.2,0.3,0.4,0.7,0.4,1c0.1,0.3,0.3,0.9,0.8,1.7c0.3,0.7,0.7,1.5,1,2.6c0.3,1.1,0.4,2,0.2,2.9
		c-0.1,0.5-0.3,1.1-0.5,1.8l-0.3,1.5c-0.1,0.8-0.5,2.1-1.2,3.9c-0.7,1.8-1.2,3.3-1.7,4.6c-0.3,1.2-0.5,2-0.6,2.4
		c-0.1,0.4-0.1,0.8-0.3,1c-0.1,0.3-0.2,0.7-0.3,1.3c-0.1,0.6-0.4,1.5-0.8,2.9c-2.2,7-4.1,14-5.8,21.1c-1.6,7.1-3.1,14.1-4.4,21
		c-1.3,6.9-2.6,13.6-3.9,20.1c-1.3,6.5-2.6,12.7-4.1,18.5c-0.2,0.8-0.4,1-0.5,0.6c-0.1-0.4-0.3-0.3-0.7,0.4c-0.2,0.7-0.4,1-0.5,1
		C15.9,140,15.7,140,15.4,139.8z M15.2,34.8L15,35l0.3,0.3c0.3,0,0.7-0.3,1-1c0.3-0.7,0.5-1.2,0.5-1.5l-0.2-0.3
		c0-0.2-0.1-0.2-0.2-0.2c-0.1,0-0.2,0.1-0.3,0.2v0.3H16C15.5,33.3,15.2,34,15.2,34.8z M16.9,31.8c0,0.3,0.1,0.6,0.2,0.7h0.2v0.3
		c0.1,0,0.2-0.1,0.2-0.3h0.2v-0.2c0.1,0,0.2-0.1,0.2-0.3h0.2v-0.5h-0.2c0-0.3-0.1-0.5-0.3-0.5l-0.2,0.3C17,31.3,16.9,31.5,16.9,31.8
		z M18.5,29.5c-0.6,0.8-0.8,1.4-0.8,1.8c0,0.2,0.1,0.3,0.3,0.3h0.2l0.3-0.3l0.3-0.5c0.6-0.3,0.9-0.8,1-1.3c0.7-1,1.2-1.8,1.7-2.3
		c0.4-0.7,0.8-1.1,1-1.3c0.3-0.5,0.8-1.1,1.5-1.8c0.2-0.2,0.4-0.3,0.6-0.4c0.2-0.1,0.4-0.3,0.6-0.6c0.8-0.8,1.5-1.6,2.3-2.2
		c0.7-0.7,1.4-1.4,2.1-2.3c0.4-0.2,0.9-0.5,1.3-0.9c0.4-0.4,0.8-0.8,1.3-1.1l1-0.8c0.2-0.3,0.4-0.5,0.5-0.5c0.2-0.3,0.5-0.5,0.8-0.6
		c0.3-0.1,0.5-0.3,0.8-0.6h0.2c0.6-0.3,0.9-0.6,1-0.8c0.1-0.2,0.2-0.3,0.2-0.5l-0.3-0.3h-0.2c-0.1,0-0.2,0-0.2,0.1
		c0,0.1-0.1,0.1-0.2,0.1h-0.2l-0.2,0.3h-0.3c-0.4,0.3-0.9,0.7-1.4,1.1c-0.5,0.4-0.9,0.7-1.3,0.9c-0.7,0.2-1.4,0.8-2.2,1.8
		c-0.2,0.3-0.4,0.5-0.7,0.5c-0.1,0.2-0.3,0.3-0.5,0.3c-0.2,0.2-0.5,0.3-0.8,0.4c-0.3,0.1-0.5,0.3-0.8,0.6c-0.1,0.2-0.2,0.3-0.3,0.4
		c-0.1,0.1-0.2,0.2-0.3,0.4c-0.2,0.2-0.4,0.3-0.4,0.4c-0.1,0.1-0.2,0.2-0.4,0.4c-0.8,0.8-1.5,1.7-2.3,2.6c-0.7,0.9-1.4,1.8-2.1,2.6
		c-0.6,0.8-1,1.4-1.3,1.8l-0.3,0.5c-0.6,0.7-0.9,1.1-1,1.3C18.8,29.2,18.6,29.4,18.5,29.5z M18.4,26.3c0,0.2,0.1,0.3,0.2,0.3
		l0.2,0.3c0.1,0,0.2-0.1,0.2-0.3c0.1,0,0.2-0.1,0.3-0.3c0-0.2-0.1-0.4-0.3-0.8c-0.1-0.2-0.2-0.2-0.3,0l-0.2,0.3V26V26.3z M19.9,33.3
		c0-0.2-0.1-0.3-0.2-0.3h-0.2l-0.2,0.3l-0.2,0.3v0.3c-0.1,0-0.2,0.1-0.2,0.3c0.1,0.3,0.3,0.5,0.5,0.5h0.2L20,34
		C20,33.7,20,33.5,19.9,33.3z M19.5,24.8h0.2H19.5h0.2c0,0.3,0.1,0.5,0.3,0.5l0.3-0.3l0.3-0.5c0-0.3-0.1-0.6-0.3-0.8
		c0-0.3-0.1-0.3-0.3,0h-0.2L19.7,24v0.3h-0.2V24.8z M21.4,32c0.1,0,0.2-0.1,0.2-0.2l-0.2-0.3c-0.1,0-0.2,0-0.2-0.1
		c0-0.1-0.1-0.1-0.2-0.1l-0.2,0.3h-0.2L20.4,32l0.2,0.3l0.3,0.5H21v-0.3h0.2c0-0.2,0.1-0.2,0.2-0.2V32z M21,23l0.2,0.3
		c0.1,0,0.4-0.2,0.8-0.5c0.4-0.3,1.3-1.3,2.8-3c0.1-0.2,0.2-0.3,0.3-0.3c0.2-0.3,0.4-0.5,0.5-0.6c0.1-0.1,0.2-0.2,0.3-0.4
		c0.3-0.3,0.7-0.7,1.1-1.1c0.4-0.4,0.8-0.7,1.1-0.9c0.2-0.3,0.4-0.5,0.7-0.5c0.3-0.3,0.7-0.6,1.1-0.9c0.4-0.3,0.8-0.5,1.1-0.9
		c0.3-0.5,0.5-0.8,0.5-1L31.2,13c-0.1,0-0.2,0-0.3-0.1c-0.1-0.1-0.1-0.1-0.3-0.1c-0.2,0-0.4,0-0.4,0.1C30.3,13,30.2,13,30.1,13
		c-0.2,0-0.5,0.1-0.8,0.4c-0.3,0.3-0.5,0.5-0.8,0.9c-0.1,0-0.2,0-0.2,0.1c0,0.1-0.1,0.1-0.2,0.1c-0.3,0.3-0.7,0.7-1.1,1.1
		c-0.4,0.4-0.8,0.8-1.1,1.1c-0.3,0.5-0.7,0.9-1.2,1.2l-0.5,0.5c-0.6,0.7-1.1,1.3-1.8,2C22,21.2,21.5,22,21,22.8V23z M22.9,30
		c0.1-0.2,0.2-0.3,0.2-0.5c0-0.7-0.3-0.8-0.8-0.3H22l-0.2,0.5c-0.1,0.2-0.1,0.3,0,0.5v0.3c0.1,0,0.2,0,0.2,0.1
		c0,0.1,0.1,0.1,0.2,0.1c0.1,0,0.2-0.1,0.2-0.3c0.1,0,0.2-0.1,0.3-0.3C22.8,30.3,22.9,30.2,22.9,30z M22,93
		c-0.1,0.5-0.2,0.9-0.2,1.3v1.3H22h0.2c0.1,0,0.2,0,0.2-0.1c0-0.1,0.1-0.5,0.3-1.4c0-0.3,0-0.7,0.1-1c0.1-0.3,0.1-0.7,0.1-1
		c0.1-0.8,0.2-1.5,0.3-2.1c0.1-0.6,0.2-1,0.4-1.4c0.3-1,0.5-2,0.5-3l0.5-2.3c0.2-0.7,0.4-1.3,0.6-2c0.2-0.7,0.4-1.4,0.6-2.3
		c0-0.5,0.1-1.1,0.3-1.7c0.2-1,0.4-1.8,0.5-2.5c0-0.5,0.1-0.8,0.2-1c0-0.5,0.1-1.1,0.3-1.8c0.1-0.7,0.2-1.3,0.3-1.9
		c0.1-0.6,0.2-1.2,0.3-1.9c0.2-0.8,0.4-1.6,0.6-2.2c0.2-0.7,0.4-1.4,0.6-2.3v-0.3c0.1,0,0.2-0.2,0.2-0.5c0.4-1.3,0.7-2.3,0.7-2.8
		c0-0.2,0-0.3,0.1-0.3c0.1,0,0.1-0.1,0.1-0.3v-0.5L29.7,59c0.1,0-0.1,0.2-0.5,0.5l-0.5,2.3c-0.2,0.7-0.4,1.3-0.6,1.9
		c-0.2,0.6-0.4,1.2-0.6,1.9c0,0.3,0,0.5-0.1,0.6c-0.1,0.1-0.1,0.2-0.1,0.4c-0.1,0.5-0.3,1.1-0.5,1.7c0,0.5-0.2,1.1-0.5,1.8
		c-0.1,0.3-0.2,0.7-0.3,1.1c-0.1,0.4-0.2,0.9-0.2,1.4c-0.1,0-0.2,0.2-0.2,0.5c-0.4,1.3-0.7,2.3-0.7,2.8c-0.2,1.2-0.4,2.3-0.7,3.5
		c-0.2,1.2-0.4,2.4-0.7,3.8c-0.1,0.7-0.2,1.3-0.3,1.9c-0.1,0.6-0.2,1.1-0.3,1.6c-0.2,1.2-0.4,2.6-0.7,4.2C22.4,91.3,22.3,92,22,93z
		 M26.7,84.5c0-0.2-0.1-0.3-0.2-0.5l-0.2,0.3c-0.6,0.8-0.9,1.9-1,3.3c-0.2,1.3-0.4,2.3-0.7,2.8c-0.2,1-0.4,2-0.7,3.1
		c-0.2,1.1-0.4,2.2-0.7,3.4c-0.1,0.3-0.2,0.7-0.2,1.1c0,0.4-0.1,0.8-0.2,1.1v0.3c-0.1,0-0.2,0.1-0.2,0.3v0.5c-0.1,0.2-0.2,0.5-0.2,1
		c0,0.2,0,0.3-0.1,0.5c-0.1,0.2-0.1,0.3-0.1,0.5l-0.2,0.5v0.3c-0.3,1-0.4,1.7-0.2,2h0.2c0.1,0,0.3-0.1,0.4-0.4s0.4-1.1,0.6-2.6
		c0-0.2,0-0.3,0.1-0.5c0.1-0.2,0.1-0.3,0.1-0.5c0.1-0.3,0.2-0.8,0.3-1.3c0.1-0.5,0.1-0.9,0.3-1.3c0-0.2,0-0.3,0.1-0.4
		c0.1-0.1,0.1-0.2,0.1-0.4c0.2-0.3,0.4-1.1,0.7-2.3c0-0.2,0.2-1.4,0.7-3.8V91c0.2-1.3,0.4-2.4,0.7-3.2V87c0.1-0.2,0.2-0.3,0.2-0.5
		c0-0.2,0.1-0.4,0.2-0.8C26.6,85.3,26.6,84.9,26.7,84.5z M25.9,25.8c0-0.3-0.2-0.5-0.5-0.5c-0.2,0-0.4,0.1-0.5,0.3
		c-0.2,0.2-0.4,0.5-0.7,0.9c-0.2,0.4-0.3,0.8-0.3,1.1l0.3,0.5h0.2c0.1-0.2,0.4-0.4,0.8-0.8c0.4-0.3,0.6-0.7,0.8-1V25.8z M26.9,25
		v-0.3v-0.3c-0.1-0.5-0.3-0.6-0.5-0.3h-0.2c-0.2,0-0.3,0.2-0.3,0.5V25l0.3,0.5h0.2h0.2v-0.3h0.2C26.7,25.1,26.8,25,26.9,25z
		 M29.1,22.8c0-0.2,0.1-0.3,0.2-0.3l0.2-0.3c-0.1,0-0.2,0-0.2-0.1c0-0.1-0.1-0.1-0.2-0.1h-0.2h-0.5c-0.3,0.3-0.5,0.6-0.5,0.8
		c0,0.5,0.1,0.8,0.2,0.8l0.2,0.3l0.2-0.3l0.3-0.3l0.2-0.3L29.1,22.8z M29.2,70.8h-0.2c-0.1-0.2-0.2-0.3-0.3-0.3
		c-0.1,0-0.2,0.1-0.2,0.3c0,0.2,0,0.3-0.1,0.4c-0.1,0.1-0.1,0.2-0.1,0.4v0.3V72h-0.2v0.3v0.5c0,0.2,0.1,0.3,0.3,0.3l0.5-0.8l0.3-1.3
		L29.2,70.8z M29.9,68.3c0.1-0.2,0.2-0.4,0.2-0.8v-0.3c-0.1,0-0.2,0-0.3-0.1c-0.1-0.1-0.1-0.1-0.3-0.1l-0.2,0.2v0.3h-0.2v0.3V68v0.3
		v0.3h0.2c0.1,0,0.2,0,0.2,0.1c0,0.1,0.1,0.1,0.2,0.1C29.8,68.8,29.9,68.6,29.9,68.3z M30.7,63.3c-0.3,0-0.6,0.3-0.8,1
		c-0.2,0.7-0.3,1.1-0.3,1.3c0,0.7,0.1,1.1,0.2,1.3h0.3c0.2,0,0.3-0.1,0.3-0.3c0.1,0,0.2-0.1,0.2-0.3c0-0.5,0.1-1.3,0.3-2.3
		c0.1-0.2,0.1-0.3,0-0.5C30.9,63.4,30.8,63.3,30.7,63.3z M31.1,60.8c0,0.5,0.1,0.8,0.2,0.8c0.1,0,0.3-0.3,0.5-0.8l0.3-1.3l-0.2-0.3
		h-0.2c0-0.2-0.1-0.3-0.3-0.3l-0.2,0.3v0.5L31.1,60v0.3v0.3V60.8z M31.7,57.3c0,0.2,0.1,0.3,0.2,0.3c0.1,0.2,0.2,0.3,0.3,0.3
		c0.2,0,0.3-0.1,0.3-0.3v-0.3c0.1,0,0.2-0.1,0.2-0.3v-0.3l-0.2-0.3c-0.1-0.2-0.2-0.3-0.3-0.3c-0.2,0-0.3,0.1-0.2,0.3h-0.2v0.3V57
		v0.3H31.7z M32.6,54.5c0,0.2,0.1,0.3,0.2,0.3c0,0.2,0.1,0.3,0.2,0.3l0.2,0.3c0.1,0,0.2-0.1,0.2-0.3c0.1,0,0.2-0.1,0.2-0.3v-0.3
		l0.2-0.3V54l-0.2-0.3c-0.1-0.2-0.3-0.2-0.4-0.1c-0.2,0.1-0.3,0.2-0.3,0.4c0,0.2-0.1,0.3-0.2,0.3V54.5z M46.9,81.5
		c0.1-0.2,0.2-0.6,0.2-1.3C47,80.1,46.9,80,46.8,80c-0.1,0-0.3,0.3-0.7,0.8c-0.7,0.3-0.9,0.8-0.7,1.3c0,0.2,0.1,0.3,0.3,0.3
		c0.2,0,0.4-0.1,0.5-0.3h0.2C46.5,82,46.7,81.9,46.9,81.5z M49.1,79.3c0-0.3-0.1-0.7-0.2-1h-0.2h-0.2c0,0.2-0.1,0.3-0.2,0.3h-0.2
		l-0.2,0.2L47.9,79v0.3v0.3l0.2,0.3c0,0.2,0.1,0.3,0.2,0.3c0.1,0,0.2,0,0.2-0.1c0-0.1,0.1-0.1,0.2-0.1
		C48.7,79.8,48.9,79.6,49.1,79.3z M53.9,74.8c0.3,0,0.5-0.3,0.5-1v-0.5c-0.2-0.3-0.6-0.3-1,0.3c-0.2,0.5-0.8,1.1-1.7,1.8
		c-0.2,0.3-0.5,0.6-0.8,0.8c-0.3,0.2-0.6,0.4-0.8,0.8V77h-0.2c0,0.2-0.1,0.3-0.2,0.3v0.3l0.2,0.3c0,0.2,0.1,0.3,0.2,0.3h0.2h0.2h0.2
		l0.2-0.5c0.2,0,0.4-0.1,0.6-0.3c0.2-0.2,0.4-0.3,0.6-0.5c0-0.2,0.1-0.3,0.2-0.3c0.2-0.2,0.5-0.5,0.8-1h0.3h0.2l0.2-0.3L53.9,74.8z
		 M54.9,132.3c0.1,0,0.2,0,0.3-0.1c0.1-0.1,0.1-0.1,0.3-0.1c0.1,0,0.3-0.2,0.4-0.5c0.2-0.3,0.6-1.2,1.4-2.5l0.2-0.3
		c0.2-0.3,0.4-0.8,0.6-1.3c0.2-0.5,0.4-1,0.6-1.5c0.3-0.8,0.7-1.6,1-2.4s0.7-1.5,1.2-2.1v-0.3l0.2-0.3c0.2-0.3,0.3-0.7,0.2-1
		l-0.2-0.3c-0.3,0-0.7,0.3-1.2,1c-0.2,0.3-0.3,0.7-0.3,1c-0.7,1.3-1.1,2.3-1.3,2.8l-0.3,0.5c-0.4,0.7-0.7,1.2-0.8,1.5
		c-0.2,0.3-0.4,0.6-0.6,0.9s-0.4,0.4-0.6,0.4v0.3c-0.4,0.7-0.8,1.3-1,1.8c-0.4,0.7-0.7,1.2-0.8,1.5c-0.3,0.3-0.7,0.8-1.2,1.5l-0.7,1
		c-0.1,0-0.3,0.2-0.5,0.5c-0.2,0.3-0.4,0.5-0.6,0.6c-0.2,0.1-0.3,0.3-0.4,0.6c-0.3,0.5-0.4,0.8-0.2,1l0.2,0.2c0.2,0,0.5-0.2,0.8-0.5
		c0.3-0.3,0.5-0.6,0.8-0.8c0.2-0.2,0.6-0.6,1-1.3l0.5-0.8c0.1-0.2,0.2-0.3,0.3-0.4c0.1-0.1,0.3-0.3,0.5-0.6
		C54.5,132.4,54.7,132.3,54.9,132.3z M54.8,126.3l0.2,0.3c0,0.2,0.1,0.3,0.3,0.3h0.2l0.2-0.3v-0.3l-0.2-0.3l-0.2-0.3h-0.3v0.3
		L54.8,126.3z M57.1,71c0-0.3-0.1-0.5-0.3-0.5c-0.1,0-0.3,0.2-0.5,0.5c-0.1,0-0.2,0.1-0.3,0.3h-0.2l-0.2,0.3l-0.2,0.3h-0.2
		c-0.2,0-0.3,0.2-0.3,0.5c0.1,0.3,0.3,0.5,0.7,0.5h0.2c0.1-0.2,0.2-0.3,0.3-0.3c0.1,0,0.1-0.1,0.3-0.3c0.1-0.2,0.2-0.3,0.3-0.3
		l0.3-0.5C57.3,71.5,57.3,71.4,57.1,71z M55.6,125.3c0,0.2,0.1,0.3,0.3,0.3c0.2,0,0.3-0.1,0.3-0.3c0.1,0,0.2-0.1,0.2-0.2v-0.3
		c-0.1,0-0.2-0.1-0.2-0.3l-0.2-0.3c-0.1,0-0.2,0-0.2,0.1c0,0.1-0.1,0.1-0.2,0.1v0.3h-0.2V125.3z M56.6,133l-0.3-0.5h-0.2l-0.2,0.3
		l-0.2,0.3v0.3c0,0.5,0.2,0.8,0.5,0.8l0.2-0.3c0.1-0.2,0.2-0.3,0.2-0.5V133z M61.3,115.3c0-0.3-0.1-0.5-0.2-0.5
		c0-0.2-0.1-0.3-0.2-0.3c-0.1,0-0.3,0.1-0.4,0.4c-0.2,0.3-0.5,1-0.9,2.4l-1.5,3l-0.3,0.5c0,0.2,0,0.3-0.1,0.3
		c-0.1,0-0.1,0.1-0.1,0.3c-0.6,0.8-0.9,1.6-1.2,2.3c0,0.2-0.1,0.3-0.2,0.5l0.2,0.3h0.2c0.1,0,0.3-0.1,0.4-0.4s0.7-1.2,1.6-2.9
		c0.2-0.3,0.6-1,1-2c0.1-0.2,0.2-0.3,0.2-0.4c0-0.1,0.1-0.2,0.2-0.4c0.2-0.3,0.3-0.6,0.3-0.8c0.2-0.3,0.4-0.7,0.5-1
		C60.9,116.2,61.1,115.8,61.3,115.3z M57.4,132c0.1,0,0.1-0.1,0-0.3c-0.3-0.3-0.6-0.4-0.7-0.3l-0.2,0.3c0,0.5,0.1,0.8,0.3,0.8v0.3
		h0.2c0.1,0,0.2-0.1,0.2-0.3c0.1,0,0.2-0.1,0.2-0.3V132z M57.9,70.5c0-0.3-0.1-0.7-0.3-1h-0.2l-0.2,0.3h-0.2V70
		c-0.1,0-0.2,0.1-0.2,0.3l0.2,0.3c0,0.2,0.1,0.3,0.3,0.3h0.2C57.8,70.8,57.9,70.7,57.9,70.5z M58.4,130.5c0.2-0.3,0.2-0.5,0-0.5
		c0-0.3-0.1-0.5-0.3-0.5l-0.3,0.5l-0.3,0.5v0.3c0,0.3,0.1,0.5,0.3,0.5h0.2h0.2c0-0.2,0.1-0.3,0.2-0.3l0.2-0.3V130.5z M60.6,126.3
		c-0.1,0-0.2-0.1-0.2-0.3c-0.2-0.3-0.4-0.3-0.7,0l-0.2,0.3c0,0.2,0.1,0.3,0.2,0.5h-0.2c-0.2,0-0.4,0.2-0.7,0.5l-0.2,0.3
		c-0.3,0.5-0.4,0.8-0.2,1c0.1,0.5,0.3,0.8,0.5,0.8c0.2,0,0.4-0.3,0.7-0.8c0.2-0.5,0.3-0.9,0.3-1.3V127h0.2l0.2-0.3v-0.3
		C60.6,126.5,60.6,126.5,60.6,126.3z M60.4,67.5c0-0.2-0.1-0.3-0.2-0.5h-0.2c-0.1,0-0.2,0.1-0.2,0.2c-0.2,0-0.4,0.1-0.5,0.3h-0.2
		v0.3c-0.2,0-0.3,0.2-0.3,0.5c0,0.2,0,0.3,0.1,0.3c0.1,0,0.1,0.1,0.1,0.3h0.3l0.3-0.3h0.2c0.1,0,0.2-0.1,0.2-0.3h0.2V68h0.2v-0.3
		V67.5z M72.6,42c0,0.2-0.1,0.3-0.2,0.3c-0.1,0.2-0.2,0.3-0.3,0.3c-0.1,0-0.1,0.2-0.3,0.5c-0.1,0.2-0.3,0.6-0.5,1.2
		c-0.1,0.2-0.2,0.3-0.2,0.4c0,0.1-0.1,0.2-0.2,0.4c-0.3,0.8-0.6,1.6-0.9,2.4c-0.3,0.8-0.6,1.5-1.1,2.1C69,49.9,68.9,50,68.9,50
		c-0.1,0-0.1,0.1-0.3,0.3c-0.3,0-0.6,0.3-0.7,0.8c-0.2,0.2-0.4,0.3-0.4,0.5c-0.1,0.2-0.1,0.3-0.3,0.5c-0.2,0.3-0.3,0.6-0.3,0.8
		L65.5,55c-0.2,0.3-0.4,0.7-0.6,1c-0.2,0.3-0.4,0.7-0.6,1c-0.8,1.5-1.7,2.8-2.7,4c-0.2,0.3-0.6,0.9-1.3,1.6
		c-0.6,0.8-0.9,1.3-0.8,1.6l0.2,0.3c0.2,0,0.6-0.4,1.3-1.1c0.6-0.8,1.1-1.5,1.6-2.1c0.2-0.2,0.4-0.4,0.7-0.8c0.2-0.3,0.4-0.7,0.7-1
		l0.7-1c1.2-1.3,2.3-2.8,3.2-4.5c0.9-1.7,1.7-3.3,2.5-5c0.1,0,0.2-0.1,0.2-0.3c0.2-0.3,0.4-0.8,0.7-1.4c0.2-0.6,0.4-1.1,0.7-1.6
		c0.1-0.2,0.2-0.3,0.2-0.4c0-0.1,0.1-0.2,0.2-0.4c0-0.2,0.1-0.3,0.2-0.5l0.5-1.5c0.1-0.3,0.2-0.7,0.2-1H72.6z M61.4,123.8
		c-0.1-0.2-0.2-0.3-0.3-0.3c-0.2,0-0.3,0.1-0.3,0.3c-0.2,0.3-0.3,0.7-0.3,1c0,0.3,0.2,0.5,0.5,0.5c0.1,0,0.2,0,0.2-0.1
		c0-0.1,0.1-0.1,0.2-0.1v-0.3c0.1-0.2,0.2-0.3,0.2-0.5V124V123.8z M62.5,66c0-0.2-0.1-0.3-0.2-0.5c0-0.3-0.1-0.5-0.3-0.5h-0.2
		c-0.2,0-0.3,0.1-0.3,0.3c-0.2,0-0.3,0.1-0.3,0.3c-0.1,0-0.2,0.2-0.2,0.5l0.2,0.3c0,0.3,0.1,0.5,0.3,0.5h-0.2c0.1,0,0.2,0.1,0.2,0.3
		h0.2h0.2v-0.3H62v-0.3c0.1,0,0.2-0.1,0.2-0.3h0.2L62.5,66z M64.3,63.3h-0.2c0-0.3-0.1-0.5-0.3-0.5L63.6,63c-0.1,0-0.2,0.1-0.3,0.3
		c0,0.3,0.1,0.6,0.3,0.8v0.3h0.2H64V64h0.2v-0.3h0.2V63.3z M65.3,62.3c0.1-0.2,0.4-0.7,1-1.5c0.6-0.8,0.8-1.4,0.8-1.8v-0.3
		c-0.1-0.2-0.3-0.3-0.5-0.3c-0.2,0-0.5,0.3-0.9,0.8c-0.4,0.5-0.8,1.1-1.1,1.8c-0.3,0.5-0.5,1-0.5,1.5c0.1,0.2,0.3,0.3,0.5,0.3
		C64.8,62.8,65.1,62.6,65.3,62.3z M70,54.3c0.1-0.2,0.1-0.3,0-0.5l-0.3-0.3c-0.1,0-0.3,0.2-0.5,0.5L69,54.3l-0.2,0.3
		c-0.2,0.3-0.3,0.6-0.3,0.8V56c-0.1,0-0.1,0.1,0,0.3h0.2C69.2,55.8,69.6,55.1,70,54.3z M71.1,50c0,0.5,0.1,0.8,0.3,0.8h0.2l0.2-0.3
		c0.1,0,0.2-0.1,0.2-0.3c0.4,0,0.5-0.3,0.2-0.8v-0.3L71.8,49h-0.3v0.5h-0.2v0.3L71.1,50z M73.6,49.3c-0.2,0.7-0.4,1.1-0.5,1.3
		c-0.1,0.3-0.2,0.6-0.3,0.8c-0.1,0.2-0.2,0.4-0.3,0.8l-0.2,0.5c-0.7,1.3-0.9,2.2-0.8,2.5l0.2,0.3c0.2,0,0.9-1.3,2.2-4
		c0.1-0.2,0.2-0.3,0.2-0.4c0-0.1,0.1-0.2,0.2-0.4c0-0.2,0-0.3,0.1-0.3c0.1,0,0.1-0.1,0.1-0.3c0.3-0.5,0.4-0.8,0.3-0.8l0.3-0.5
		c0.3-0.5,0.6-0.9,0.7-1.3v-0.3c0-0.7,0.2-1.5,0.7-2.5l0.3-1c0.8-2.7,1.2-5.6,1.2-8.8v-0.3c0-0.5-0.1-0.8-0.2-0.8
		c-0.2,0-0.4,0.4-0.7,1.3v2.3l-0.2,0.3c0,0.8-0.1,1.8-0.3,2.8v0.3c0,0.2-0.1,0.4-0.3,0.8l-0.3,1l-0.2,0.3c-0.7,2-1,3.1-1,3.2
		c0,0.3-0.1,0.6-0.2,0.9c-0.1,0.3-0.2,0.5-0.3,0.9L73.6,49.3z M74.3,41.5c0,0.2-0.1,0.4-0.2,0.6c-0.1,0.3-0.1,0.5,0,0.6
		c0,0.3,0.2,0.5,0.5,0.5c0.1,0,0.2-0.2,0.2-0.5l0.2-0.3V42c0.1,0,0.2-0.1,0.2-0.3v-0.3v-0.3c-0.1,0-0.2-0.1-0.3-0.3
		C74.7,41,74.5,41.2,74.3,41.5z M75.5,35.3c-0.1,0.2-0.2,0.3-0.2,0.5c-0.1,0.3-0.2,0.8-0.2,1.5c0.3,0.5,0.6,0.8,0.7,0.8H76v-0.3
		c0.2,0,0.3-0.1,0.2-0.3c0.1,0,0.2,0,0.2-0.1c0-0.1-0.1-0.1-0.2-0.1c0.1-0.2,0.2-0.3,0.2-0.5v-0.3h0.2v-0.3L76.3,36l0.2-0.3v-0.3
		v-0.3V35c-0.2-0.3-0.4-0.5-0.5-0.5C75.6,34.5,75.5,34.8,75.5,35.3z M75.8,28v0.3v0.3V29l0.3,0.5h0.2h0.2c0.1-0.2,0.2-0.3,0.2-0.5
		v-0.3v-0.5h-0.2V28c-0.1-0.2-0.2-0.3-0.3-0.3H76h-0.2V28z"/>
	<path fill="#FFFFFF" d="M100.4,70.3c0.9-0.2,1.7-0.1,2.5,0.3c0.7,0.3,1.3,0.8,2,1.3s1.3,1.3,1.8,2.3c0.1,0.2,0.2,0.3,0.2,0.4
		c0,0.1,0.1,0.2,0.2,0.4c0.4,1.2,0.8,2.5,1.1,4c0.3,1.5,0.5,2.9,0.8,4.3v0.5c0.3,2,0.4,4.1,0.2,6.3c-0.2,2.2-0.5,4-0.9,5.6
		c-0.4,1.6-0.8,3-1.1,4.1c-0.4,1.3-0.9,2.5-1.3,3.5c-1.8,4-3.7,7.3-5.7,10c-2,2.7-4,4.8-5.8,6.5c-1.9,1.7-3.6,3-5.2,3.9
		c-1.6,0.9-2.8,1.5-3.7,1.9c-0.1,0.3-0.2,0.6-0.2,0.8v0.3v1.3c-0.1,0.8-0.1,1.7,0,2.5c0,1.8,0.3,3.3,1,4.5c0.6,1.2,1.4,1.8,2.5,1.8
		h1.8c0.4,0,0.8,0,1.2-0.1c0.3-0.1,0.6-0.1,0.7-0.1c0.9-0.2,2-0.5,3.4-0.9c1.4-0.4,3.4-1.9,5.9-4.4c3.4-3.5,6.4-7,8.8-10.5
		c2.4-3.5,4.2-6.3,5.4-8.2c1-1.8,1.5-2.7,1.5-2.5c0.6-0.8,1.1-1.7,1.5-2.5c0.4-0.8,0.8-1.5,1.2-2l0.2-0.3l0.7-1l0.7-0.5
		c0.4,0.2,0.6,0.8,0.5,1.8c-0.3,1-0.8,2-1.5,3c0.6-0.8,0.9-1,1.2-0.5v0.3c-0.1,0.8-0.2,1.3-0.2,1.4c0,0.1-0.1,0.4-0.3,0.9
		c0.2-0.2,0.4-0.3,0.5-0.3c0.2,0,0.3,0.3,0.2,0.8c-0.1,0.2-0.2,0.3-0.2,0.4c0,0.1-0.1,0.2-0.2,0.4v0.3l-0.2,0.3
		c0,0.2-0.1,0.6-0.3,1.3l-0.7,1v0.3c-0.1,0.2-0.4,0.6-0.8,1.3c-0.4,0.7-0.9,1.4-1.4,2.3c-0.9,1.5-2.1,3.3-3.5,5.4
		c-1.4,2.1-3.1,4.2-4.9,6.4c-1.8,2.2-3.8,4.3-5.9,6.3c-2.1,2-4.2,3.6-6.3,4.7c-1.1,0.7-2.8,1.2-4.9,1.5c-2.2,0.3-3.8,0.6-4.8,0.8
		h-0.2H87h-0.3h-0.3c-0.4-0.2-1.3-0.4-2.4-0.8c-1.2-0.3-2.4-1.2-3.8-2.5c-0.6-0.7-1.1-1.4-1.8-2.1c-0.6-0.7-1.2-1.7-1.8-2.9
		c-0.8-1.8-1.1-4.2-1.1-7.1c0.1-2.9,0.7-7.3,1.9-13.1c0.2-1.3,0.5-2.9,0.9-4.6c0.4-1.8,0.9-3.6,1.4-5.6c2.1-7.5,4.9-14.5,8.3-21
		C91.6,76.5,95.7,72.3,100.4,70.3z M81.8,112.8c0-0.2,0-0.3-0.1-0.3c-0.1,0-0.1-0.1-0.1-0.3H81h-0.2l-0.2,0.3v0.3v0.3v0.3v0.2
		c0,0.2,0.1,0.3,0.2,0.5h0.3h0.3l0.2-0.3v-0.3v-0.2h0.2V112.8z M82.3,111.3l-0.2-0.3c-0.1,0-0.2-0.1-0.3-0.3c0.1,0,0.2-0.1,0.2-0.3
		c0-0.3-0.2-0.5-0.5-0.5v-0.3c-0.1,0-0.2,0.1-0.2,0.3h-0.2v0.3v0.3v0.3c0,0.2,0.1,0.3,0.2,0.3l0.2,0.3v0.3c0,0.3,0.2,0.6,0.5,0.8
		c0.1,0,0.2,0,0.2-0.1c0-0.1,0.1-0.1,0.2-0.1v-0.3v-0.3V111.3z M82.8,106.8v-0.3h-0.2c-0.2-0.2-0.4-0.2-0.5,0
		c-0.1,0-0.2,0.2-0.2,0.5v0.3c0,0.2,0.1,0.3,0.3,0.3h0.2h0.2c0.1,0,0.2-0.1,0.2-0.3V107V106.8z M83.5,104.3c0.1,0,0.1-0.1,0-0.3
		c0-0.2-0.1-0.3-0.2-0.3c0-0.2-0.1-0.3-0.2-0.3H83c-0.1,0.2-0.2,0.3-0.2,0.5c-0.2,0.3-0.3,0.7-0.3,1c0.1,0,0.2,0.1,0.2,0.3
		c0,0.2,0.1,0.3,0.3,0.3h0.2l0.2-0.5v-0.3c0.1,0,0.2-0.1,0.2-0.3V104.3z M83.3,102.3c0,0.2,0.1,0.3,0.2,0.5h0.2
		c0.3,0,0.6-0.3,0.8-0.9c0.2-0.6,0.3-1,0.3-1.4l-0.2-0.3c-0.4-0.3-0.8-0.1-1,0.8c-0.1,0-0.2,0.2-0.3,0.5
		C83.2,101.9,83.2,102.1,83.3,102.3z M85,97.8v0.8h0.2c0.1,0,0.3-0.1,0.5-0.3V98c0.1-0.2,0.2-0.3,0.2-0.4c0-0.1,0.1-0.2,0.2-0.4
		c0.1-0.2,0.2-0.3,0.2-0.4c0-0.1,0.1-0.2,0.2-0.4c0-0.2,0.1-0.3,0.2-0.5c0.1-0.2,0.2-0.3,0.2-0.5c0-0.2,0.1-0.3,0.2-0.3V95H87
		l-0.2-0.3c0.1-0.2,0.3-0.7,0.7-1.5c0.4-0.3,0.8-0.8,1-1.5v-0.5c0.2-0.3,0.4-0.8,0.7-1.2c0.2-0.5,0.4-0.9,0.7-1.3l0.3-1
		c0.2-0.3,0.6-0.9,1-1.8c0.1-0.2,0.2-0.3,0.2-0.4c0-0.1,0.1-0.2,0.2-0.4l1.3-2c0.3-0.5,0.6-1,0.9-1.4c0.3-0.4,0.6-0.9,1.1-1.4
		c0.2-0.2,0.4-0.3,0.5-0.5c0.1-0.2,0.3-0.3,0.5-0.5l0.2-0.8c0-0.2-0.1-0.2-0.2-0.2c-0.2,0-0.5,0.1-0.8,0.4c-0.3,0.3-0.5,0.5-0.8,0.9
		c-0.1,0-0.6,0.5-1.3,1.4c-0.8,0.9-1.3,1.7-1.5,2.4c-0.1,0.2-0.2,0.3-0.3,0.3c-0.1,0-0.1,0.1-0.3,0.3c-0.7,0.5-1.2,1.3-1.5,2.3
		c-0.7,1.2-1.3,2.5-1.8,4l-0.2,0.2c-0.3,0.8-0.7,1.8-1.1,3c-0.4,1.2-0.8,2.2-1.1,3v0.3c-0.1,0-0.2,0.1-0.2,0.3v0.3L85,97.8z
		 M85.8,105c0.4,0,1.1-1.5,1.8-4.5l0.3-1c0.1-0.3,0.4-1,0.8-2c0.4-1,0.8-2,1.3-3.1c0.5-1.1,0.9-2.1,1.3-3.1c0.4-1,0.6-1.6,0.8-1.7
		c0.1,0,0.2-0.1,0.2-0.3c0-0.2-0.1-0.3-0.2-0.5H92c-0.1,0-0.3,0.2-0.6,0.5c-0.3,0.3-0.7,1.2-1.3,2.5L90,92c-0.3,0.8-0.7,1.7-1.1,2.5
		c-0.4,0.8-0.8,1.9-1.3,3.3c-0.1,0.2-0.3,0.5-0.5,1.1c-0.2,0.6-0.5,1.3-0.8,2c-0.3,0.8-0.5,1.5-0.7,2.1c-0.2,0.7-0.3,1.2-0.3,1.5
		c0,0.2,0.1,0.3,0.2,0.3L85.8,105z M103.5,83c0-2.3-0.3-3.5-1-3.5c-0.3,0-1.4,1.3-3.1,3.8c-1.7,2.5-3.6,6-5.6,10.5
		c-1.3,2.8-2.6,6-3.8,9.6c-1.2,3.6-2.3,7.5-3.2,11.9c0.7,0,1.2-0.1,1.5-0.3c0.6-0.3,1.5-1,2.9-2c1.4-1,2.7-2.1,3.9-3.3
		c1.9-2.3,3.4-4.8,4.5-7.5c1.1-2.7,1.9-5.2,2.5-7.5c0.7-2.7,1.1-5.2,1.3-7.7V83z M93.5,87l-0.3-0.3L93,87c-0.1,0-0.3,0.2-0.5,0.5V88
		c0.2,0.2,0.4,0.3,0.5,0.3h0.2c0-0.2,0.1-0.3,0.2-0.3l0.2-0.3c0.1-0.2,0.2-0.3,0.2-0.5L93.5,87z M94.8,85.5c0-0.2-0.1-0.3-0.2-0.3
		c-0.1-0.2-0.2-0.3-0.3-0.3c-0.2,0-0.3,0.2-0.3,0.5v0.3l0.3,0.5h0.2l0.2-0.3h0.2v-0.3V85.5z M103.2,132.8h0.2c0,0.2,0.1,0.3,0.2,0.3
		c0.2,0,0.5-0.2,0.8-0.5c0.3-0.3,0.6-0.7,0.7-1V131h-0.2c-0.2,0-0.5,0.2-0.9,0.5c-0.4,0.3-0.6,0.6-0.8,0.8V132.8z M105.9,129.5v0.5
		v0.3h0.2c0.4,0,0.8-0.3,1-1v-0.5h-0.3l-0.3,0.3C106.3,129,106.1,129.2,105.9,129.5z M107.9,127c-0.2,0.3-0.3,0.6-0.2,0.8
		c0,0.2,0.1,0.3,0.2,0.3c0.3,0,0.5-0.2,0.5-0.5c0.1,0,0.2-0.2,0.2-0.5c-0.1,0-0.2-0.1-0.2-0.3h-0.2H108C108,127,108,127,107.9,127z
		 M110.2,124.3v0.3h0.2c0.2,0,0.5-0.2,0.9-0.6c0.4-0.4,0.6-0.8,0.8-1.1c0-0.2,0-0.3-0.1-0.3c-0.1,0-0.1-0.1-0.1-0.3h-0.2
		c-0.2,0-0.5,0.3-0.8,0.8s-0.6,0.8-0.7,1V124.3z M112.7,120.5c-0.1,0.2-0.2,0.3-0.2,0.5c0,0.2,0.1,0.3,0.2,0.3
		c0.2,0,0.4-0.1,0.6-0.4s0.3-0.5,0.4-0.6v-0.5h-0.3L113,120l-0.2,0.3L112.7,120.5z M114.4,118c-0.1,0.2-0.2,0.4-0.2,0.8l0.3,0.3
		c0.1,0,0.2-0.1,0.3-0.3c0-0.2,0.1-0.3,0.2-0.5V118c0-0.2-0.1-0.3-0.3-0.3h-0.2v0.3H114.4z M116.6,115c-0.1,0.2-0.1,0.3,0,0.5
		l0.2,0.3h0.2l0.2-0.3l0.2-0.3v-0.5c0-0.2-0.2-0.2-0.5,0C116.6,114.8,116.6,114.9,116.6,115z M117.7,113l0.2,0.3
		c0,0.3,0.1,0.5,0.3,0.5c0.1,0,0.2-0.1,0.2-0.3h0.2c0-0.2,0.1-0.2,0.2-0.2V113c0.1-0.2,0.2-0.4,0.2-0.8c-0.1-0.2-0.3-0.2-0.7,0
		L117.7,113z M119.9,110c0,0.2,0.1,0.3,0.2,0.5h0.2h0.2c0-0.2,0.1-0.3,0.2-0.3V110l0.2-0.3v-0.3c-0.1-0.2-0.2-0.3-0.3-0.3
		c-0.2,0-0.3,0.2-0.3,0.5L119.9,110z"/>
	<path fill="#FFFFFF" d="M135.3,64.5c3.1-1.2,5.6-1.5,7.5-1c1.9,0.5,3.4,1.4,4.5,2.8c0.7-0.2,1.4,0.1,2.3,0.9
		c0.8,0.8,1.1,2.6,0.9,5.6c-0.1,1.5-0.4,3-0.8,4.5c0,0.2,0,0.3-0.1,0.3c-0.1,0-0.1,0.1-0.1,0.3c-0.6,2.2-1.5,4.3-2.8,6.5
		c-1.3,2.2-2.2,3.4-2.8,3.8c-0.4,0.3-0.8,0.8-1,1.4c-0.2,0.6-0.6,0.7-1,0.4c-0.2,0-0.5,0.1-0.8,0.4c-0.3,0.2-0.6,0.5-0.8,0.6
		c-0.2,0.2-0.4,0.2-0.5,0.1c-0.1-0.1-0.1-0.5,0.2-1.1c0.2-0.7,0.6-1.8,1.3-3.4c0.6-1.6,1.2-3.2,1.7-4.9c0.5-1.7,0.8-3.3,0.8-4.9
		c0.1-1.6-0.4-2.8-1.3-3.6c-0.9-0.8-2-0.8-3.3,0.1c-1.3,0.9-2.7,2.3-4.1,4.1c-1.4,1.8-2.7,3.9-3.9,6.1c-1.2,2.3-2.1,4.2-2.5,5.9
		c-0.9,3.3-1.4,6.6-1.4,9.7c-0.1,3.2,0.6,6.4,2.1,9.7c0.1,0.2,0.2,0.3,0.3,0.5c0.1,0.2,0.1,0.3,0.3,0.5c1.8-1.8,3.4-3.5,4.9-5.1
		c1.5-1.6,3.1-3,4.8-4.2c1.7-1.3,3.6-2.4,5.8-3.4c2.1-1,4.7-1.8,7.7-2.5c0.4,0,0.9,0.1,1.3,0.3c0.9,0.3,1.1,0.9,0.7,1.8
		c-0.4,1-0.8,1.6-1.1,1.9c-0.3,0.3-0.5,0.5-0.8,0.9c-0.2,0.2-0.5,0.3-0.8,0.3H152c-0.1,0.5-0.2,0.9-0.3,1.3l-0.5,1.2
		c-0.1,0-0.6,0.2-1.6,0.5c-0.9,0.3-2.3,1-4,1.9c-1.7,0.9-3.8,2.3-6.1,4.3c-2.3,1.9-4.9,4.5-7.7,7.6v0.3c0.4,2.2,0.8,4.6,0.9,7.3
		c0.2,2.7,0,5.5-0.5,8.5s-1.4,6.1-2.7,9.2c-1.3,3.2-3.1,6.3-5.6,9.2c-1.1,1.3-2.2,2.4-3.3,3.3c-0.9,0.8-1.9,1.4-3,1.6
		c-1.1,0.3-2.1-0.1-3-1.1c-0.2-0.2-0.4-0.5-0.7-1c-0.2-0.3-0.4-0.8-0.7-1.3c-0.2-0.5-0.4-1-0.5-1.5c-1.2-2.7-1.4-5.9-0.4-9.6
		c0.9-3.8,2.2-7.3,3.8-10.7c1.6-3.4,3.3-6.4,4.9-8.9s2.7-4,3-4.5c-0.6-2.2-1.3-4-2.1-5.5s-1.6-2.9-2.4-4.3c-1.6-2.3-2.5-4.8-2.8-7.2
		c-0.3-2.5-0.4-4.8-0.3-6.8c0.1-2.3,0.5-4.6,1.2-6.7c0.9-3.2,2.2-6.3,3.8-9.2c1.4-2.5,3.3-4.9,5.5-7.3
		C129.1,67.7,131.9,65.9,135.3,64.5z M117.9,147.5c0.6,0.2,1.6-1.1,3.1-3.8s2.7-6.8,3.6-12.2l0.5-4.5v-0.5v-1.3
		c-0.4,0.7-1,1.7-1.7,3c-1.9,3.3-3.4,6.6-4.5,9.7c-1.1,3.2-1.8,5.5-2,7C116.8,147,117.1,147.9,117.9,147.5z M121.7,85h-0.2l-0.3-0.5
		l-0.2,0.3h-0.2V85v0.3l0.2,0.3h0.2c0,0.2,0.1,0.3,0.2,0.3l0.2-0.3h0.2v-0.3V85z M122.6,83.8l-0.2-0.3l-0.3-0.5h-0.2v-0.3
		c-0.2,0-0.3,0.1-0.3,0.3v0.3h-0.2v0.3v0.3c0.3,0.5,0.6,0.8,0.7,0.8h0.2l0.2-0.3c0.1,0,0.2-0.1,0.2-0.3V83.8z M122.9,82.5l-0.3-0.5
		h-0.3v0.3h-0.2v0.3v0.3h0.2c0,0.2,0.1,0.3,0.2,0.3l0.2,0.3c0.1,0,0.2-0.1,0.2-0.3h0.2v-0.3V82.5z M123.9,121.3
		c0,0.2-0.2,0.5-0.5,0.9c-0.3,0.4-0.5,0.8-0.5,1.1l0.2,0.3h0.2c0.2,0,0.5-0.3,0.8-1c0.1,0,0.2-0.1,0.2-0.3h0.2
		c0.1-0.2,0.2-0.3,0.3-0.5c0.1-0.2,0.1-0.3,0.3-0.5c0.2-0.5,0.3-0.8,0.2-1h-0.2c-0.1,0-0.2,0.2-0.3,0.5c-0.1,0-0.2,0-0.2,0.1
		c0,0.1-0.1,0.1-0.2,0.1l-0.2,0.3H123.9z M123.9,81c0.1,0,0.3-0.2,0.5-0.5l0.5-0.8l0.2-0.3l0.7-1c0-0.3,0.1-0.5,0.3-0.5l0.2-0.3h0.2
		c0.1,0,0.2-0.1,0.2-0.3c0.1-0.2,0.1-0.3,0-0.3c0.1,0,0.2,0,0.3-0.1c0.1-0.1,0.1-0.1,0.3-0.1h0.2v-0.3c0.2,0.3,0.3,0.3,0.3-0.3v-0.3
		c0.1,0,0.2-0.1,0.3-0.3c0.6-0.5,0.9-0.8,1-1c0.2-0.5,0.5-0.9,0.8-1.3c0.3-0.3,0.6-0.7,0.8-1l0.3-0.3c0.3-0.5,0.6-0.8,0.7-0.8
		l0.2-0.3c0.8-0.7,1.1-1.2,1-1.5l-0.3-0.3h-0.2c-0.2,0.2-0.7,0.5-1.3,1.1c-0.7,0.6-1.1,1-1.3,1.4c-0.1,0.2-0.2,0.3-0.3,0.3
		c-0.1,0-0.1,0.1-0.3,0.3c-0.3,0-0.6,0.2-0.8,0.5c-0.4,0.2-0.9,0.8-1.3,1.8c-0.2,0-0.3,0.2-0.3,0.5c-0.2,0.2-0.6,0.6-1,1.3
		c-0.1,0.3-0.3,0.8-0.7,1.3h-0.2c-0.1,0.2-0.2,0.3-0.3,0.3v0.3v0.2l-0.2,0.3c0,0.2-0.1,0.4-0.3,0.8c-0.2,0.2-0.3,0.4-0.3,0.8v0.3
		c0-0.2-0.1-0.3-0.2-0.3h-0.2v0.3c-0.1,0-0.2,0.1-0.2,0.3v0.3l0.3,0.5h0.2h0.2v-0.3h0.2v-0.3V81z M125.1,142
		c0.1-0.2,0.2-0.3,0.2-0.5l0.3-1.3c0-0.3,0.1-0.7,0.3-1c0.6-1.3,0.8-2.2,0.7-2.5v-0.2l0.2,0.2c0.1,0,0.2-0.1,0.2-0.2
		c0.1,0,0.2-0.1,0.2-0.3V136l-0.2-0.3h0.2v0.3c0.1,0,0.2-0.1,0.2-0.3h0.2v-0.3c0-0.2-0.1-0.3-0.2-0.3V135h-0.2h-0.2
		c0-0.2-0.1-0.3-0.2-0.3v0.3h-0.2v0.3v0.3h-0.2l-0.2,0.3v0.3v0.3l0.2,0.3h-0.2c-0.1,0-0.4,0.5-0.8,1.5c0,0.2-0.1,0.3-0.2,0.5
		c-0.2,0.5-0.4,0.8-0.5,1c0,0.2-0.1,0.3-0.2,0.5v0.3l-0.2,0.3c-0.2,0-0.3,0.3-0.3,0.8v0.3c0.2,0.3,0.5,0.5,0.8,0.5H125.1z
		 M131.6,75.8c1.1-1.2,1.8-1.8,1.9-2c0.2-0.2,0.2-0.3,0.1-0.5c0-0.2-0.1-0.3-0.3-0.3c-0.2,0-0.4,0.1-0.5,0.3l-0.2,0.3
		c-0.6,0.2-1.1,0.5-1.5,1.1c-0.4,0.6-0.9,1.1-1.3,1.6c-0.3,0.5-0.6,0.8-0.8,1c-0.2,0.2-0.4,0.4-0.5,0.6c-0.1,0.3-0.3,0.5-0.5,0.9
		c-0.1,0-0.2,0.1-0.2,0.3c-0.4,0.7-0.8,1.1-1,1.3c-0.4,0.7-0.8,1.3-1,1.8c-0.6,0.8-0.9,1.4-1,1.8c-0.1,0.3-0.2,0.7-0.2,1l0.2,0.3
		c0.1,0.2,0.2,0.3,0.3,0.3c0.4,0,0.8-0.5,1-1.5l0.3-0.5c0.6-0.8,1.2-1.9,2-3.1c0.8-1.3,1.7-2.5,2.7-3.6L131.6,75.8z M128.6,135.5
		c-0.2,0.7-0.4,1.2-0.7,1.7c-0.1,0.3-0.2,0.6-0.3,0.9c-0.1,0.3-0.2,0.5-0.3,0.9c0,0.2,0,0.3-0.1,0.4c-0.1,0.1-0.1,0.2-0.1,0.4
		c-0.2,0.8-0.4,1.3-0.5,1.3c0,0.2,0,0.3-0.1,0.4c-0.1,0.1-0.1,0.2-0.1,0.4c-0.1,0.3-0.3,0.7-0.5,1c-0.1,0.2-0.2,0.4-0.3,0.8
		c-0.2,0.7-0.3,1.1-0.2,1.3h0.2c0.2,0,0.4-0.3,0.7-0.8c0.2-0.3,0.4-0.8,0.7-1.5c0.1-0.3,0.2-0.5,0.3-0.6c0.1-0.1,0.1-0.3,0.3-0.6
		c0.4-0.7,0.8-1.4,1.2-2.1s0.6-1.5,0.7-2.4c0.2-0.8,0.4-1.7,0.4-2.7c0.1-1,0.1-1.9,0.3-2.8c0-0.2-0.1-0.3-0.2-0.3
		c-0.3,0-0.5,0.2-0.6,0.6c-0.1,0.4-0.1,0.8-0.3,1.1v0.8v0.5c-0.1,0.3-0.2,0.6-0.2,0.8C128.7,135,128.7,135.2,128.6,135.5z
		 M127.2,116.8c-0.2,0-0.3,0.2-0.3,0.5c-0.1,0-0.2,0.1-0.2,0.3c-0.1,0-0.2,0.1-0.3,0.3l-0.2,0.3v0.3v0.3h0.2c0.2,0,0.4-0.1,0.7-0.4
		c0.2-0.3,0.4-0.5,0.5-0.6l0.2-0.5h-0.2C127.6,116.9,127.5,116.8,127.2,116.8z M129.1,114.3c-0.1,0.2-0.2,0.3-0.2,0.5v0.3
		c0,0.2,0.1,0.3,0.2,0.3h0.2c0.1-0.2,0.2-0.3,0.2-0.5c0.2-0.3,0.3-0.6,0.3-0.8h-0.3l-0.2,0.3H129.1z M132.7,110.3
		c0,0.3,0.1,0.5,0.3,0.5c0.1,0,0.2-0.2,0.2-0.5h0.3c0.6-0.3,1-0.9,1.3-1.8h0.2c0.1,0,0.2-0.1,0.2-0.3c0-0.2-0.1-0.3-0.2-0.3
		c-0.2,0-0.6,0.2-1.1,0.6c-0.5,0.4-0.9,0.8-1.1,1.1C132.9,110,132.9,110.1,132.7,110.3z M135.1,72.5l0.2-0.3V72l-0.3-0.5
		c-0.1,0-0.2,0.1-0.3,0.3c-0.1-0.2-0.3-0.1-0.5,0.3v0.3c0.1,0.5,0.2,0.8,0.3,0.8c0.1,0,0.2-0.1,0.2-0.3h0.2c0.1,0,0.2-0.1,0.2-0.3
		H135.1z M136.8,71.3l-0.2-0.3c0-0.3-0.1-0.5-0.3-0.5h-0.2c-0.1,0-0.2,0.1-0.2,0.3c-0.1,0.2-0.1,0.3,0,0.3c0,0.3,0.1,0.6,0.2,0.8
		h0.2h0.2l0.2-0.3L136.8,71.3z M136.8,106.3c-0.1,0.2-0.2,0.3-0.2,0.5c0,0.2,0.1,0.3,0.2,0.3h0.2c0.1,0,0.2,0,0.3-0.1
		c0.1-0.1,0.1-0.1,0.3-0.1c0.4-0.5,0.7-0.8,0.8-0.8v-0.5l-0.3-0.3c-0.1,0-0.3,0.2-0.5,0.5h-0.2C137.1,105.8,137,106,136.8,106.3z
		 M139.8,104c-0.1,0.2-0.1,0.3,0,0.5h0.2c0.3,0,0.6-0.3,0.8-0.8v-0.3c-0.1,0-0.2,0-0.2-0.1c0-0.1-0.1-0.1-0.2-0.1l-0.3,0.3
		c-0.1,0-0.2,0.1-0.2,0.3C139.9,104,139.9,104,139.8,104z M144.8,100.8c-0.2,0-0.4,0-0.7,0c-0.2,0-0.3,0.2-0.3,0.5v0.3
		c0.1,0,0.2,0,0.2,0.1c0,0.1,0.1,0.1,0.2,0.1h0.2h0.2c0.3-0.2,0.5-0.4,0.5-0.8v-0.3H144.8z M146.4,100.3c0.1,0.2,0.2,0.3,0.3,0.3
		h0.3c0.1,0,0.2-0.1,0.2-0.3h0.2c0.4-0.2,0.7-0.3,0.7-0.5v-0.5c-0.1,0-0.2,0-0.3-0.1c-0.1-0.1-0.1-0.1-0.3-0.1c-0.2,0-0.6,0.2-1,0.5
		l-0.2,0.5V100.3z M150.6,98.3v0.5l0.2,0.3h0.3c0.1-0.2,0.2-0.3,0.3-0.3c0.1,0,0.1-0.1,0.3-0.3c0.2,0,0.2-0.2,0-0.5h-0.2h-0.3
		C150.9,98,150.7,98.1,150.6,98.3z"/>
	<path fill="#FFFFFF" d="M170.2,53c-2.2,8.7-4.3,17.3-6.3,26c-2,8.7-4,17.5-5.8,26.5c-0.6,3.3-1.1,6.9-1.8,10.6
		c-0.6,3.8-1.2,7.4-1.7,10.9c-0.5,3.5-0.9,6.7-1.1,9.5c-0.2,2.8-0.2,5,0,6.5c0,1.5,0.1,2.8,0.2,4c0.1,1,0.2,2,0.3,3.1
		c0.1,1.1,0.1,1.8,0.3,2.1c-0.1,0.2-0.2,0.3-0.2,0.5c-0.1,0.2-0.2,0.3-0.2,0.5c0,0.2-0.1,0.3-0.3,0.3c-0.2,0-0.8-0.5-1.8-1.4
		c-1-0.9-1.6-1.9-1.8-2.9c-0.3,0.3-0.6,0.2-0.7-0.4c-0.1-0.6-0.2-1-0.3-1.1c0-0.3,0-0.3-0.1,0c-0.1,0.3-0.2,0.6-0.4,0.7
		c-0.1,0.2-0.3,0.1-0.5-0.2c-0.1-0.2-0.2-0.3-0.2-0.5c-0.3-1.5-0.6-2.7-0.8-3.5c-0.2-0.8-0.3-2.1-0.3-3.8c0-2.5,0.1-4.8,0.2-6.9
		c0.1-2.1,0.3-3.7,0.5-4.9c0-0.3,0-0.6,0.1-0.8c0.1-0.2,0.1-0.3,0.1-0.5c1.2-9.2,2.6-18.3,4.2-27.5c1.6-9.2,3.3-18.2,5.2-27.2
		c0.7-3.5,1.4-7,2.2-10.5c0.8-3.5,1.6-7,2.5-10.5c-2.2,0.7-4.4,1.3-6.6,2c-2.2,0.7-4.4,1.4-6.8,2.2c-0.4,0.3-0.9,0.5-1.3,0.5
		c-0.3,0-0.7-0.1-1-0.3c-0.3-0.2-0.4-0.5-0.3-1c0-0.7,0.1-1.2,0.4-1.5c0.3-0.3,0.5-0.7,0.8-1c0.3-0.3,0.7-0.5,1.2-0.5
		c1.1-0.7,2.4-1.3,4-2c2.7-1.2,6.3-2.7,11-4.5c0.9-3.5,1.8-7,2.7-10.6c0.9-3.6,1.8-7.1,2.7-10.6c0.1-0.2,0.2-0.3,0.2-0.4
		c0-0.1,0.1-0.2,0.2-0.4v-0.5c0-0.2,0.1-0.3,0.2-0.3c0.2-0.3,0.3-0.8,0.3-1.5c-0.1-0.7,0.1-1.1,0.4-1.2c0.3,0,0.7-0.3,1.2-0.8
		c0.4-0.5,1.1-0.5,1.8,0c0.8,0.5,1.3,0.9,1.6,1.3c0.3,0.3,0.5,0.8,0.8,1.5c0.2,0.7,0.4,1.3,0.7,1.8c0.2,0.5,0.4,1.2,0.5,2
		c0.1,0.8,0.2,1.5,0.3,1.9c0.1,0.4,0.1,1,0,1.9c-0.1,0.8-0.2,1.4-0.3,1.8c-0.1,0.3-0.3,0.7-0.5,1.2c-0.3,0.7-0.5,1.3-0.5,1.9
		c0,0.6-0.3,1.6-0.8,3.1c-0.2,0.8-0.4,1.6-0.6,2.4s-0.4,1.6-0.6,2.6c5.6-1.5,11.6-2.5,18-3.1c6.5-0.6,13-0.2,19.7,1.1
		c2.2,0,4.2,0.3,5.8,0.8c1.4,0.3,2.7,1,3.8,1.9c1.1,0.9,1.5,2,1.2,3.4l0.7,0.5c0.4,0.3,0.5,0.8,0.2,1.5c-0.1,0.3-1.2,0.2-3.2-0.5
		c-2-0.7-5.1-1.3-9.2-1.8c-4.1-0.5-9.4-0.7-15.8-0.5c-6.4,0.2-14.1,1.3-23,3.3L170.2,53z M153.8,99.3c0.1-0.3,0.3-0.8,0.4-1.4
		c0.2-0.6,0.3-1.2,0.4-1.9c0-0.3,0.1-0.8,0.3-1.5c0.2-0.7,0.4-1.5,0.7-2.5c0.4-1.8,0.8-3.6,1.2-5.4s0.7-3.5,1-5.4
		c0.2-1.3,0.5-2.7,0.8-4.1c0.3-1.4,0.6-2.8,0.9-4.1c0-0.7,0.1-1.3,0.3-2c0.2-1,0.4-2,0.7-3c0.2-1,0.4-1.9,0.5-2.7V65h-0.2
		c-0.1,0-0.2,0.2-0.3,0.5c-0.1,0.3-0.4,1.4-1,3.2c-0.2,1-0.4,1.9-0.6,2.8c-0.2,0.8-0.3,1.3-0.4,1.3c-0.1,0.3-0.3,0.9-0.4,1.8
		c-0.2,0.8-0.3,1.4-0.3,1.8c-0.1,0.3-0.2,0.6-0.2,0.8c0,0.2-0.1,0.4-0.2,0.8c0,0.5-0.1,1.1-0.3,1.7l-0.3,1.5c-0.6,1.8-1,3.8-1.4,5.8
		s-0.8,3.9-1.3,5.7c-0.2,1.7-0.4,3-0.7,4c-0.2,1.2-0.4,2.3-0.6,3.4c-0.2,1.1-0.4,2.3-0.6,3.6c-0.1,0.2-0.2,0.4-0.2,0.8
		c-0.1,0.3-0.2,0.7-0.2,1.1c0,0.4-0.1,0.8-0.2,1.1c-0.2,1-0.4,1.7-0.5,2c0,0.7-0.1,1.1-0.2,1.3c-0.1,0.3-0.2,0.8-0.3,1.5
		c-0.1,0.7-0.1,1.1,0,1.3c0,0.2,0.1,0.3,0.2,0.3c0.2,0,0.4-0.7,0.7-2c0.3-1.3,0.6-2.7,0.9-4c0.3-1.3,0.5-2.7,0.8-4
		c0.1-0.7,0.2-1.2,0.3-1.7C153.6,100.5,153.7,100,153.8,99.3z M156.8,97.3c0-0.2,0-0.3,0.1-0.4c0.1-0.1,0.1-0.2,0.1-0.4
		c0.2-1.2,0.4-2.3,0.6-3.4c0.2-1.1,0.4-2.2,0.6-3.4c0.2-1,0.4-1.8,0.5-2.5c0.1-0.3,0.3-1,0.5-2c0.4-1.7,0.8-3.3,1-5
		c0-0.2-0.1-0.3-0.2-0.5c-0.2,0-0.5,0.5-0.8,1.4c-0.3,0.9-0.5,2-0.8,3.1c-0.3,1.3-0.6,2.8-0.8,4.3v0.3c-0.6,2.7-1,5-1.3,7
		c-0.3,1.2-0.6,2.4-0.8,3.6s-0.4,2.5-0.7,3.9v0.3h0.2C155.6,103.5,156.2,101.5,156.8,97.3z M158.3,96.8c0.1,0,0.2-0.2,0.2-0.5
		l-0.2-0.3c-0.2,0-0.4,0.3-0.5,0.8c-0.1,0.5-0.2,0.9-0.2,1.3v0.8h0.2c0.1,0,0.2-0.1,0.3-0.3c0-0.2-0.1-0.3-0.2-0.3
		c0.1-0.3,0.2-0.6,0.2-0.8C158.1,97.4,158.2,97.1,158.3,96.8z M158.8,94.5c0.3-0.5,0.4-0.9,0.3-1.3c0-0.2-0.1-0.3-0.2-0.3
		c-0.2,0-0.3,0.1-0.3,0.3l-0.2,0.3v0.8h-0.2c0,0.2,0.1,0.3,0.2,0.3c0,0.2,0.1,0.3,0.2,0.3C158.7,94.8,158.8,94.7,158.8,94.5z
		 M159.3,91.8c0.2,0,0.3-0.3,0.3-0.8c0.1,0,0.1-0.1,0-0.3c0-0.2-0.1-0.3-0.3-0.3h-0.2v0.3V91v0.3v0.3L159.3,91.8z M160.8,76.8v-0.3
		c0-0.2-0.1-0.3-0.2-0.3l-0.3,0.5V77c-0.1,0-0.2,0.1-0.2,0.3v0.3c-0.2,0.3-0.2,0.5,0,0.5c0,0.2,0.1,0.3,0.2,0.3l0.3-0.3
		c0.1,0,0.2-0.1,0.2-0.3v-0.5c0-0.2,0-0.3,0.1-0.3c0.1,0,0.1-0.1,0.1-0.3H160.8z M160.8,85.3c0.1,0,0.2-0.1,0.2-0.3
		c0-0.2-0.1-0.3-0.2-0.5c-0.3,0-0.6,0.3-0.7,1c0,0.2,0,0.3-0.1,0.5c-0.1,0.2-0.1,0.3-0.1,0.5c0,0.5,0.1,0.8,0.2,0.8h0.2
		c0.1,0,0.2-0.1,0.2-0.3v-0.3C160.7,86.1,160.8,85.6,160.8,85.3z M161.6,82c0-0.2-0.1-0.3-0.2-0.3c0-0.2-0.1-0.3-0.2-0.3h-0.2V82
		H161v0.3c0,0.2-0.1,0.3-0.2,0.5c0,0.5,0.1,0.8,0.3,0.8c0.1,0,0.2-0.1,0.2-0.3V83l0.2-0.5C161.6,82.4,161.6,82.2,161.6,82z
		 M161,73.8c0,0.2,0.1,0.3,0.2,0.5c0,0.2,0.1,0.3,0.2,0.3h0.2c0.1,0,0.2-0.1,0.2-0.3V74h0.2v-0.3v-0.3c0-0.2-0.1-0.3-0.3-0.3h-0.2
		c-0.1,0-0.2,0.1-0.3,0.3V73.8z M162.1,79.5c0.1,0,0.1-0.1,0-0.3c0-0.2-0.1-0.3-0.3-0.3l-0.2,0.3v0.3v0.3h-0.2l0.2,0.3l0.2,0.3
		C162,80.3,162.1,80,162.1,79.5z M163.1,75.3h-0.3c-0.1,0-0.2,0-0.2,0.1c0,0.1-0.1,0.1-0.2,0.1v0.3v0.5c0.1,0.2,0.2,0.3,0.3,0.3
		c0.1-0.2,0.2-0.3,0.2-0.5h0.2v-0.3V75.3z M164,72.5l-0.2-0.3c-0.2-0.2-0.4-0.2-0.5,0c-0.1,0-0.2,0.2-0.2,0.5
		c-0.1,0.2-0.2,0.4-0.2,0.8c0,0.3,0.2,0.5,0.5,0.5c0.1,0,0.2-0.1,0.2-0.3v-0.3l0.2-0.3V73v-0.3L164,72.5z M164.5,69.5
		c0-0.2-0.1-0.3-0.2-0.5c-0.2,0-0.3,0.2-0.3,0.5c-0.1,0.2-0.1,0.3,0,0.5v0.3h0.3l0.2-0.3v-0.3V69.5z M182.8,44.3
		c0,0.3,0.3,0.5,1,0.5c0.3,0,0.7,0,1.2-0.1c0.4-0.1,0.8-0.2,1-0.4c0.1-0.2,0.2-0.3,0.2-0.5c-0.1-0.2-0.4-0.3-0.8-0.3h-1
		c-0.8,0-1.3,0.1-1.5,0.3V44V44.3z M188,43.8c0,0.2,0.1,0.2,0.2,0.2c0.2-0.3,0.4-0.3,0.7,0h0.5c0.2,0,0.4-0.1,0.5-0.2
		c0.1-0.2,0.2-0.3,0.2-0.5c0-0.2-0.2-0.3-0.5-0.3h-0.3h-0.3h-0.5l-0.2,0.3H188V43.8z M192,43c-0.1,0-0.2,0-0.2,0.1
		c0,0.1,0.1,0.1,0.2,0.1c0,0.2,0.1,0.3,0.2,0.3h0.3h0.2c0.2,0,0.4-0.1,0.5-0.3V43c0-0.2-0.2-0.3-0.5-0.3S192.1,42.9,192,43z
		 M197.7,42.8c-0.1,0-0.2,0.1-0.2,0.3c0.1,0.2,0.3,0.3,0.4,0.4c0.2,0.1,0.7,0.1,1.6,0.1h1.2l0.2-0.3L201,43c0-0.5-0.2-0.8-0.7-0.8
		c-0.1,0-0.2,0.1-0.2,0.3h-0.5c-0.1-0.2-0.3-0.3-0.5-0.3H199h-0.2C198.3,42.3,197.9,42.5,197.7,42.8z M202.9,42.8v0.5l0.2,0.3h0.7
		h0.5h0.5c0.1-0.2,0.2-0.3,0.2-0.5l-0.3-0.5h-0.3H204h-0.8c-0.1,0-0.2,0-0.2,0.1C203,42.8,203,42.8,202.9,42.8z M206.9,43
		c-0.1,0-0.2,0.2-0.2,0.5h0.3l0.2,0.3h0.3c0.2,0,0.3-0.1,0.3-0.3c0.1,0,0.2-0.1,0.2-0.3c-0.1-0.2-0.2-0.3-0.3-0.3
		c-0.1,0-0.1-0.1-0.3-0.3h-0.2L206.9,43z M212.1,43.8c-0.1,0-0.2,0.1-0.2,0.2v0.3c0.1,0.2,0.3,0.3,0.5,0.3h0.2h0.3v-0.3h0.2l0.2-0.3
		l-0.2-0.2C212.6,43.5,212.3,43.5,212.1,43.8z M215.1,44.8c0,0.3,0.2,0.5,0.7,0.5h0.2h0.7c0.2,0,0.4-0.1,0.5-0.3v-0.3v-0.3
		c-0.2,0-0.5-0.1-0.8-0.3c-0.3-0.2-0.5-0.3-0.8-0.3h-0.3c-0.1,0.2-0.2,0.3-0.2,0.5V44.8z M219.9,45.5c-0.1,0.2-0.2,0.3-0.2,0.5
		c0,0.2,0.2,0.3,0.5,0.3v0.3h0.3h0.3c0.1-0.2,0.2-0.3,0.2-0.5c0-0.2-0.1-0.3-0.3-0.3h-0.2c-0.1-0.2-0.2-0.3-0.3-0.3H219.9z"/>
	<path fill="#FFFFFF" d="M267,83.3c3.1-10,6.5-19.7,10.2-29c1.6-4,3.3-8.2,5.2-12.5c1.9-4.3,3.9-8.6,6.1-12.7
		c2.2-4.2,4.5-8.2,6.8-12.1c2.4-3.9,4.9-7.5,7.6-10.6c1-1.3,2.1-2.4,3.2-3.3c0.9-0.8,1.8-1.5,2.8-2s1.9-0.6,2.7-0.2
		c2.6-1.2,4.3-0.6,5.3,1.8c0.9,2.3,1.3,5.9,1.1,10.6c-0.2,4.7-0.9,10.4-2,16.9c-1.1,6.5-2.5,13.4-4.2,20.6
		c-1.7,7.2-3.5,14.6-5.3,22.1c-1.9,7.5-3.7,14.6-5.5,21.4c-1.8,6.8-3.4,12.8-4.8,18.1c-1.4,5.3-2.4,9.4-2.9,12.2
		c-1,5-2.3,11.3-3.8,19c-1.5,7.7-3,16-4.6,25c-0.1,0.2-0.2,0.4-0.2,0.8c-0.3,1.8-0.7,3.7-1,5.7s-0.7,4-1,6c-1,7.5-1.5,13.2-1.5,17.2
		c-0.1,2.3-0.1,4.4,0.2,6.3c0,1.3,0.3,2.3,0.8,2.9c0.6,0.6,0.8,1.2,0.8,1.9c0.1,0.7,0.2,1.3,0.3,1.9c0.1,0.6-0.2,1.2-0.8,1.9
		c-0.4,0.5-1.1,0.4-1.8-0.3l-1-1c-0.2-0.3-0.4-0.7-0.6-1c-0.2-0.3-0.4-0.8-0.6-1.3c-1.1-2.8-1.8-6.8-2.1-11.9
		c-0.3-5.1-0.4-10.2-0.3-15.2c0.1-5.1,0.3-9.6,0.7-13.6c0.3-4,0.6-6.3,0.7-7v-0.3c0.2-1.3,0.4-2.7,0.6-4c0.2-1.3,0.4-2.6,0.6-3.8
		c0.2-1,0.5-2.4,0.8-4.3c0.3-1.8,0.6-3.4,0.9-4.7c2.9-17.3,6.3-34.3,10.3-51c4-16.7,8.4-33.3,13.4-50c0.9-3.3,1.9-6.9,2.9-10.8
		c1.1-3.8,2-7.4,2.8-10.7c0.8-3.3,1.4-6.2,1.8-8.5c0.4-2.3,0.6-3.7,0.3-4c-0.4-0.5-1.5,0.2-3.3,2c-1.7,1.8-4.2,5.3-7.3,10.5
		c-3.2,5.2-7.1,12.4-11.7,21.6c-4.6,9.3-10,21-16.3,35.1c-1.9,6.5-3.6,12.7-5.2,18.5c-1.3,5-2.7,10.1-4,15.2
		c-1.3,5.2-2.3,9.2-2.8,12.2c-0.8,4-1.5,7-2.2,9c-0.7,2-1.3,3.4-1.8,4.1c-0.6,0.8-1,1.2-1.4,1.3c-0.4,0.1-0.6,0.1-0.8,0.1
		c-0.1,0.2-0.3,0-0.7-0.5c-0.1-0.2-0.2-0.3-0.2-0.5c-0.1,0.5-0.2,0.9-0.3,1.3c-0.2,1-0.6,1.3-1,1c-0.2-0.3-0.4-0.8-0.7-1.3
		c-0.2-0.5-0.2-0.9,0-1.3c0.1-0.5-0.1-0.3-0.8,0.5c-0.6,0.8-1,1.1-1.1,0.8c0-0.2-0.1-0.3-0.3-0.5c-0.2-0.2-0.3-0.5-0.3-1
		c-0.1-0.5,0-1.3,0.1-2.4c0.1-1.1,0.4-2.5,1-4.4c0.3-1.2,0.9-3.9,1.8-8.2c0.8-4.3,1.8-9.5,2.8-15.4c1.1-5.9,2.1-12.2,3.3-18.7
		c1.1-6.6,2.1-12.7,2.9-18.5c0.8-5.7,1.5-10.7,2-14.9c0.5-4.2,0.6-6.8,0.4-7.8c-0.3-1.3-1.6,0.1-3.7,4.4c-2.1,4.2-4.7,9.9-7.7,16.9
		c-3,7-6.1,14.7-9.4,23.1c-3.2,8.4-6.1,16-8.5,22.9c-0.7,3.2-1.3,5.9-1.9,8.1c-0.6,2.2-1.3,4.4-1.9,6.5c-0.7,2.1-1.4,4.3-2.1,6.5
		c-0.7,2.2-1.5,5-2.4,8.1c0,0.2-0.1,0.3-0.2,0.3c0,0.7-0.1,1.2-0.2,1.5c0,0.2-0.1,0.7-0.3,1.5c-0.2,0.8-0.5,1.7-0.8,2.7
		s-0.7,1.9-1.2,2.6c-0.4,0.8-1,1.1-1.7,1.1c-1.9,0-2.9-0.4-3-1.3c-0.2-0.3-0.4-0.7-0.5-1c-0.1-0.3-0.3-0.9-0.7-1.8
		c-0.3-0.7-0.7-1.5-1.1-2.6c-0.4-1.1-0.5-2-0.3-2.9c0.1-0.3,0.2-0.6,0.3-0.9c0.1-0.3,0.1-0.5,0.3-0.9l0.3-1.5
		c0.2-0.8,0.6-2.1,1.3-3.9c0.6-1.7,1.1-3.3,1.6-4.6c0.3-1.2,0.5-2,0.6-2.4c0.1-0.4,0.1-0.8,0.3-1c0.1-0.3,0.3-0.6,0.4-1.1
		c0.2-0.5,0.5-1.4,0.9-2.8l2-6.7c1.8-6.5,3.6-13.9,5.3-22.1c1.8-8.2,3.6-16.7,5.3-25.4c0.7-3.3,1.3-6,1.8-8s1-3.8,1.4-5.4
		c0.4-1.6,0.9-3.2,1.3-4.9c0.4-1.7,0.9-3.9,1.5-6.8c0.4-2,1.1-4.9,1.8-8.6c0.8-3.8,1.3-7.4,1.4-11c0.2-3.6-0.2-6.8-1-9.6
		c-0.8-2.8-2.7-4.4-5.6-4.8c-2.3-0.2-4.5,0.9-6.6,3.1c-2.1,2.3-3.9,5.1-5.5,8.6c-1.6,3.5-3,7.3-4.3,11.5c-1.2,4.2-2.2,8.1-2.8,11.7
		c-0.1,0.3-0.2,0.8-0.3,1.5c-0.1,0.7-0.1,1.3-0.3,1.8c-0.2,1.2-0.6,2.3-1.1,3.3s-0.9,1.8-1.1,2.5l-0.3,1c0,0.2-0.1,0.8-0.3,1.8
		c-0.2,1.2-0.6,1.8-1,1.9c-0.4,0.1-0.7,0.1-0.8,0.1h-0.2c-0.2-0.3-0.4-0.6-0.4-0.9c-0.1-0.3-0.1-0.2-0.3,0.1
		c-0.1,0.2-0.1,0.5,0.2,0.9c0.2,0.4,0.3,0.8,0.2,1.1c-0.2,0.3-0.4,0.6-0.4,0.8c-0.1,0.2-0.3,0.1-0.8-0.3c-0.3,0-0.5-0.3-0.5-0.8
		v-1.3c0.1-0.5,0.2-1.1,0.3-1.8c0.1-0.7,0.2-1.3,0.2-1.8v-0.5v-0.3c-0.2-0.3-0.4-0.5-0.5-0.5h-0.2l-0.2,0.3v0.3l-0.2,0.3h0.2h-0.2
		V57l0.3,0.5h-0.2c0,0.3,0,0.4,0,0.3c0-0.2-0.1,0-0.2,0.5c-0.1,0.7-0.2,1.3-0.2,1.8s-0.1,0.8-0.3,1h-0.2l-0.2-0.3
		c-0.2,0-0.3-0.1-0.3-0.3c-0.1,0-0.2,0-0.3-0.1c-0.1-0.1-0.1-0.1-0.3-0.1c-0.6-0.8-0.8-2-0.8-3.6c0.1-1.6,0.1-2.5,0.3-2.9
		c0-0.5,0.1-0.8,0.2-1v-0.5c0.2-0.7,0.3-1.3,0.3-1.8s0.1-1.3,0.3-2.5c1.6-7.7,3.7-14.5,6.3-20.5c2.2-5.2,5.1-9.7,8.7-13.7
		c3.6-4,8-5.9,13.2-5.7c2.9,0,5.3,0.7,7.3,2c1.8,1.2,3.3,3,4.7,5.4c1.3,2.4,1.9,6,1.7,10.6c0,0.5-0.2,1.9-0.5,4.3
		c-0.3,2.3-0.7,5-1.1,7.9c-0.4,2.9-0.8,5.7-1.1,8.2c-0.3,2.6-0.6,4.3-0.7,5.1c-0.7,4-1.4,8-2.2,12.1c-0.8,4.1-1.6,8.2-2.5,12.4
		c1.6-3.8,3.2-7.9,5-12.2c1.8-4.3,3.5-8.5,5.2-12.6c1.7-4.1,3.3-8,4.8-11.7c1.6-3.8,2.9-7,4-9.9c0.7-1.3,1.3-2.4,2-3.3
		c0.6-0.8,1.3-1.4,2.1-1.8c0.8-0.3,1.7-0.3,2.6,0c0.9,0.5,1.6,2.7,2,6.6c0.4,3.9,0.6,8.7,0.5,14.4c-0.1,5.7-0.6,11.9-1.3,18.6
		C269.6,70.9,268.4,77.3,267,83.3z M212.7,52.5c0-0.3-0.1-0.6-0.2-0.8c-0.1,0-0.2,0-0.3-0.1c-0.1-0.1-0.2-0.1-0.4-0.1
		c-0.1,0-0.2,0.1-0.2,0.3h-0.2V52v0.3v0.3v0.3l-0.2,0.3c0,0.2,0.1,0.3,0.2,0.3c0.2,0.3,0.4,0.5,0.5,0.5c0.1,0,0.2-0.1,0.3-0.3
		c0.1-0.2,0.2-0.3,0.2-0.5C212.7,52.9,212.7,52.7,212.7,52.5z M213.1,49.8c0-0.2,0-0.3,0.1-0.3c0.1,0,0.1-0.1,0.1-0.3
		c0-0.3-0.1-0.5-0.3-0.5h-0.2c0-0.2-0.1-0.3-0.2-0.3l-0.2,0.3V49l-0.2,0.3v0.3c0,0.3,0.1,0.5,0.3,0.5h0.2h0.3V49.8z M214.1,44
		c-0.3,0-0.5,0.1-0.5,0.3c-0.1,0-0.2,0.2-0.2,0.5V45c0,0.2,0.1,0.3,0.3,0.3c0.1,0,0.2,0.1,0.2,0.3l0.2-0.3V45h0.2v-0.3v-0.3v-0.3
		L214.1,44z M214.2,41c-0.1,0.2-0.2,0.5-0.2,1v0.3h0.2c0.1,0.2,0.2,0.3,0.3,0.3c0.1,0,0.2-0.1,0.2-0.3l0.2-0.5v-0.3v-0.3
		c0.1,0,0.2-0.1,0.2-0.3l-0.3-0.5C214.6,40.5,214.5,40.7,214.2,41z M215.1,36.8c-0.2,0.8-0.3,1.4-0.2,1.8l0.3,0.5
		c0.3,0,0.6-0.4,0.8-1.3c0.2-0.8,0.3-1.3,0.3-1.5c0-0.2,0-0.3-0.1-0.3c-0.1,0-0.1-0.1-0.1-0.3C215.9,35.5,215.5,35.8,215.1,36.8z
		 M217.1,31.5c-0.1,0-0.1,0.1,0,0.3c0,0.3,0.2,0.5,0.5,0.5h0.2V32l0.2-0.2v-0.3v-0.3c0-0.2-0.1-0.3-0.2-0.3l-0.2-0.3
		c-0.1,0-0.2,0.1-0.3,0.3v0.3C217.1,31.3,217.1,31.4,217.1,31.5z M219.1,28.5v-0.3c0-0.2-0.1-0.3-0.2-0.5h-0.2
		c-0.2,0-0.3,0.1-0.3,0.3v0.3c-0.2,0-0.3,0.3-0.3,0.8v0.3c0.2,0.3,0.4,0.5,0.5,0.5c0-0.2,0.1-0.3,0.2-0.3c0-0.2,0-0.3,0.1-0.3
		c0.1,0,0.1-0.1,0.1-0.3l0.2-0.3V28.5z M220.9,25c0.2,0,0.3-0.3,0.3-0.8s-0.2-0.8-0.5-0.8c-0.2,0-0.4,0.2-0.5,0.5
		c-0.1,0.2-0.3,0.5-0.4,0.9c-0.2,0.4-0.3,0.7-0.4,0.9v0.5c0.1,0,0.2,0.1,0.3,0.3c0.2,0,0.4-0.2,0.7-0.5
		C220.6,25.7,220.8,25.4,220.9,25z M243,89.8c0.3,0,0.4-0.2,0.2-0.5c0-0.3-0.1-0.6-0.3-0.8c-0.2,0-0.3,0.1-0.3,0.3V89h-0.2v0.3v0.3
		V90c0,0.2,0.1,0.3,0.3,0.3C242.8,90.3,243,90.1,243,89.8z M245.6,83.5l-0.2-0.5l-0.2-0.3l-0.3-0.3h-0.2h-0.2v0.3V83
		c-0.1,0-0.2,0.1-0.2,0.3v0.3h-0.2v0.3V84h-0.2v0.3H244v0.3c0.2,0.7,0.4,1,0.7,1L245,85l0.2-0.3v-0.3c0.2,0,0.3-0.3,0.3-0.8
		C245.6,83.8,245.6,83.7,245.6,83.5z M245.6,73.3c0,0.2,0.1,0.4,0.3,0.8h0.2h0.2c0-0.2,0.1-0.3,0.2-0.3c0-0.2,0.1-0.3,0.2-0.3
		c0-0.2-0.2-0.5-0.5-1v0.3v-0.3c-0.1,0-0.2,0.1-0.3,0.3c0,0.2-0.1,0.3-0.2,0.3V73.3z M262.2,46.3c0.3-0.2,0.5-0.5,0.5-1
		c0-0.3-0.2-0.5-0.5-0.5c-0.1,0-0.3,0.2-0.5,0.5c-0.2,0.2-0.5,0.5-0.8,1c0,0.2,0,0.3-0.1,0.3c-0.1,0-0.1,0.1-0.1,0.3
		c-1.9,3-3.5,6.2-4.8,9.5c-0.9,1.3-1.8,3-2.7,5c-0.9,2-1.6,3.9-2.2,5.8c-0.1,0.7-0.3,1.4-0.7,2.2c-0.3,0.8-0.7,1.6-1,2.3
		c0,0.2-0.1,0.4-0.3,0.8c-0.4,1-0.7,1.7-0.8,2c-0.1,0.3-0.2,0.6-0.3,0.9c-0.1,0.3-0.2,0.5-0.4,0.9c-0.1,1-0.4,1.9-0.8,2.7h-0.2
		c-0.1,0-0.2,0.1-0.2,0.3v0.3c-0.1,0-0.2,0.1-0.2,0.3v0.3c-0.1,0-0.2,0.1-0.2,0.3c0.2,0.3,0.4,0.5,0.5,0.5c0.1,0,0.2-0.1,0.3-0.3V80
		c0.1-0.2,0.2-0.3,0.3-0.5c0.1-0.2,0.2-0.4,0.4-0.8l0.2-0.2c0-0.3,0.1-0.7,0.3-1c0.1-0.5,0.3-1.1,0.5-1.9c0.2-0.8,0.4-1.2,0.7-1.4
		c0.1,0,0.2-0.1,0.2-0.3v-0.3h0.2v-0.3l0.2-0.3c0-0.7,0.2-1.3,0.5-1.8l0.3-0.5c0.1-0.2,0.2-0.3,0.2-0.4c0-0.1,0.1-0.2,0.2-0.4
		L251,70v-0.3l0.3-0.5c0.7-1.3,1.3-2.7,1.8-4c0.5-1.3,1-2.7,1.6-4l1.5-3.8l0.2-0.3c0-0.5,0.1-0.8,0.3-0.8l0.2-0.3L257,56v-0.3
		c0.1,0,0.2-0.1,0.2-0.2l0.2-0.3c0.1-0.3,0.4-1,0.8-2l0.3-0.5c0.2-0.3,0.3-0.6,0.3-0.8c0.2-0.3,0.3-0.6,0.3-0.8
		c0-0.7,0.4-1.5,1.1-2.5C261,47.8,261.6,47,262.2,46.3z M246.8,71.3l0.3,0.5c0.2,0,0.3-0.2,0.3-0.5c0.2-0.3,0.3-0.6,0.3-0.8v-0.3
		c-0.1,0-0.2-0.1-0.2-0.3c-0.1,0-0.2,0-0.2-0.1c0-0.1-0.1-0.1-0.2-0.1l-0.2,0.3c0,0.2-0.1,0.3-0.2,0.3v0.3h-0.2v0.3V71V71.3z
		 M249.1,65.3c-0.1,0.3-0.4,0.9-0.8,1.8c-0.4,0.8-0.5,1.4-0.4,1.7V69h0.2c0.2,0,0.5-0.4,0.9-1.1c0.4-0.8,1-2.3,1.9-4.6
		c0.1,0,0.2,0,0.2-0.1c0-0.1,0.1-0.1,0.2-0.1c0.2-0.5,0.4-1,0.7-1.5c0.2-0.5,0.4-1,0.7-1.5c0.1-0.5,0.4-1.3,0.8-2.3
		c0.8-1.2,1.4-2.6,2-4.2c0.3-0.5,0.4-0.9,0.2-1.3l-0.3-0.3c-0.2,0-0.6,0.3-1,1l-1.5,3.7c-0.2,0.8-0.5,1.6-0.8,2.4s-0.7,1.5-1,2.4
		l-0.5,0.8c-0.7,1.3-1.1,2.3-1.2,3H249.1z M309.4,8.3c-0.1,0-0.2-0.1-0.2-0.3c-0.2,0-0.8,0.5-1.7,1.5c-0.4,0.5-0.9,1-1.5,1.5
		c-0.6,0.7-1.1,1.2-1.5,1.7c-0.4,0.5-0.9,1.1-1.3,1.8c-0.3,0.3-0.6,0.8-0.9,1.3c-0.3,0.5-0.6,1-0.9,1.5c-0.2,0.3-0.4,0.7-0.7,1
		c-0.2,0.3-0.4,0.7-0.7,1c-0.4,0.7-0.8,1.3-1.2,1.9c-0.3,0.6-0.7,1.1-1,1.6l-3,4.5c-0.7,1-1.3,2.1-1.9,3.3c-0.6,1.2-1.2,2.4-1.8,3.7
		c-0.2,0.5-0.5,1-0.8,1.6c-0.3,0.6-0.5,1.1-0.8,1.6c-0.9,1.7-1.7,3.3-2.5,5c-0.8,1.7-1.6,3.3-2.3,5c-0.4,1-1,2.2-1.7,3.5
		c-1.2,2.8-2.2,5-2.9,6.6c-0.7,1.6-1.4,3.1-2,4.5c-0.6,1.4-0.9,2.2-0.9,2.4c0,0.2,0.1,0.3,0.2,0.3h0.2c0.1,0,0.4-0.5,1-1.5
		c0.6-1,1.8-3.7,3.7-8c0-0.2,0-0.3,0.1-0.3c0.1,0,0.1-0.1,0.1-0.3l0.2-0.3c0.2-0.7,0.6-1.5,1-2.5c0.6-1.2,1.1-2.3,1.5-3.4
		c0.4-1.1,0.9-2,1.5-2.9c1.1-1.8,2.1-3.7,3.1-5.5c0.9-1.8,1.9-3.7,2.8-5.5c1.1-2.2,2.3-4.3,3.4-6.5c1.2-2.2,2.4-4.3,3.6-6.3
		c0.6-0.8,1.1-1.6,1.6-2.4c0.5-0.8,1-1.5,1.6-2.4c0.2-0.5,0.5-1,0.8-1.5c0.3-0.5,0.6-0.9,0.8-1.3c0.2-0.2,0.4-0.4,0.6-0.6
		c0.2-0.3,0.4-0.5,0.6-0.9c0.2-0.2,0.4-0.4,0.7-0.8c0.2-0.3,0.4-0.5,0.6-0.6c0.2-0.1,0.4-0.3,0.6-0.6c0.9-0.8,1.6-1.7,2-2.5V8.3z
		 M282.5,148c0.1-0.3,0.2-0.6,0.3-0.8c0.1-0.2,0.1-0.4,0.3-0.8c0.1-0.5,0.2-1.1,0.3-1.8c0.1-0.7,0.2-1.4,0.3-2.3
		c0.2-1.3,0.4-2.5,0.7-3.6c0.2-1.1,0.4-2.3,0.7-3.6l0.5-2.3c0.3-2.3,0.9-5.4,1.8-9.2v-0.3c0-0.3,0.1-0.6,0.2-0.8
		c0.6-2.3,0.9-3.8,1.1-4.5c0.2-0.7,0.2-1.1,0.1-1.3c-0.1-0.2-0.2-0.3-0.3-0.3c-0.1,0-0.2,0.2-0.3,0.5c-0.1,0.3-0.4,1.5-0.9,3.5
		c-0.2,0.8-0.4,1.7-0.7,2.5c-0.2,0.8-0.3,1.3-0.3,1.5c-0.1,0.5-0.2,1-0.3,1.4c-0.1,0.4-0.1,0.9-0.3,1.4c-0.2,0.7-0.4,1.3-0.4,2
		c-0.1,0.7-0.2,1.3-0.4,2c-0.9,3.2-1.6,6.3-2.2,9.5c-0.6,3.2-1.1,6.4-1.5,9.7l-0.2,1c-0.2,1-0.4,2-0.5,2.9c-0.1,0.9-0.2,1.9-0.3,2.9
		l-0.2,1.3c-0.1,0.5-0.2,1.2-0.2,2c-0.1,0.3-0.2,0.6-0.2,0.8c0,0.2-0.1,0.4-0.2,0.8v0.3c-0.2,1.5-0.2,2.4,0,2.8h0.2
		c0.1,0,0.2-0.1,0.3-0.3c0.1-0.2,0.2-0.9,0.4-2.3v-0.5c0.2-1,0.4-2,0.5-3c0.1-1,0.2-2.1,0.3-3.3c0.2-0.8,0.4-1.7,0.4-2.5
		c0.1-0.8,0.1-1.7,0.3-2.5c0.1,0,0.2-0.2,0.2-0.5V150c0.1-0.3,0.2-0.7,0.3-1C282.3,148.7,282.4,148.4,282.5,148z M279.4,53.5v0.3
		c0.1,0.2,0.3,0.3,0.5,0.3c0.1,0,0.2-0.1,0.3-0.3c0.1-0.2,0.2-0.4,0.2-0.8c0.1,0,0.1-0.1,0-0.3c-0.1,0-0.2-0.1-0.2-0.3l-0.3-0.3
		l-0.2,0.5h-0.2V53c0,0.2-0.1,0.3-0.2,0.3V53.5z M281.9,48c-0.3,0.5-0.5,0.9-0.5,1.3c0,0.3,0.1,0.5,0.2,0.5h0.2c0.1,0,0.4-0.5,1-1.5
		c0.1-0.2,0.1-0.3,0-0.5c0-0.3-0.1-0.5-0.3-0.5c-0.2,0-0.3,0.1-0.3,0.3C282,47.7,282,47.9,281.9,48z M284.2,152c0.2-1,0.4-2,0.5-3.1
		c0.1-1.1,0.3-2.2,0.5-3.4c0-0.3,0.1-1,0.3-1.9c0.2-0.9,0.4-2,0.6-3.1c0.8-4.2,1.2-6.6,1.3-7.4c0.1-0.8,0.1-1.1,0-1.1
		c-0.1,0-0.3,0.4-0.5,1.1c-0.2,0.8-0.7,3.2-1.5,7.4v0.3c-0.2,0.7-0.4,1.3-0.4,2c-0.1,0.7-0.2,1.3-0.4,2c-0.1,0.5-0.2,1-0.3,1.6
		c-0.1,0.6-0.1,1.1-0.3,1.6c-0.1,0.3-0.2,0.6-0.2,0.9s-0.1,0.5-0.2,0.9c-0.1,0.3-0.2,0.7-0.2,1.1c0,0.4-0.1,0.8-0.2,1.1
		c-0.1,0-0.2,0.2-0.2,0.5c-0.2,1-0.3,1.7-0.3,2c-0.1,0.3-0.1,0.6-0.1,0.8c0.1,0.2,0.1,0.3,0.1,0.5l0.3,0.3l0.3-0.5
		c0.3-0.5,0.4-1.1,0.3-1.8L284.2,152z M283.9,43.8c-0.2,0.3-0.3,0.6-0.3,0.7v0.3V45l0.2,0.3c0.1,0,0.2,0,0.3-0.1
		c0.1-0.1,0.3-0.5,0.7-1.1c0.3-0.7,0.9-1.7,1.6-3.1c0.7-1.4,1.7-3.5,2.9-6.1c0-0.2,0-0.3,0.1-0.3c0.1,0,0.1-0.1,0.1-0.3l0.2-0.3
		c0.4-0.8,0.8-1.6,1.2-2.2c0.3-0.7,0.7-1.4,1.2-2.3c0.3-0.8,0.7-1.6,1-2.4s0.8-1.5,1.3-2.1c0.6-0.8,1.1-1.7,1.6-2.5
		c0.5-0.8,1-1.7,1.6-2.5c0.2-0.3,0.4-0.7,0.6-1c0.2-0.3,0.4-0.7,0.6-1c0.6-0.3,0.8-0.8,0.8-1.5h0.2c0.1,0,0.2-0.1,0.2-0.3l0.2-0.3
		h0.2v-0.3l0.2-0.3v-0.3c-0.2-0.3-0.4-0.5-0.5-0.5l-0.2,0.3c-0.1,0-0.3,0.2-0.5,0.5v0.3h-0.2c-0.4,0-0.9,0.5-1.3,1.5l-0.2,0.3
		l-0.3,0.5c-0.2,0.3-0.5,0.8-0.8,1.3c-0.3,0.5-0.5,0.8-0.8,1h-0.2c0,0.2-0.1,0.3-0.2,0.3s-0.2,0.1-0.2,0.3V21h-0.2v0.5
		c0.1,0.2,0,0.5-0.3,1l-0.3,0.3h-0.2h-0.2V23h-0.2v0.3v0.3c0,0.3-0.2,0.9-0.7,1.8c-0.4,0.7-0.9,1.5-1.3,2.5c-0.1,0.5-0.3,0.8-0.7,1
		l-1,2.3c-0.2,0.5-0.5,1-0.8,1.5c-0.3,0.5-0.6,1.1-0.8,1.8c-0.2,0.3-0.4,0.6-0.5,0.9c-0.1,0.3-0.3,0.5-0.5,0.9
		c-0.6,1.3-1.1,2.6-1.8,3.8c-0.6,1.2-1.2,2.4-1.8,3.8V43.8z M286.4,150.3c0.1-0.2,0.2-0.4,0.2-0.8v-1.2V148h-0.2
		c-0.2,0-0.4,0.3-0.5,1c-0.1,0.7-0.2,1.1-0.2,1.3v0.5h0.2C286.1,150.8,286.3,150.6,286.4,150.3z M287.2,145.3c0-0.2-0.1-0.3-0.2-0.3
		h-0.2c-0.2,0-0.3,0.1-0.3,0.3v0.3v0.5c-0.1,0-0.2,0.1-0.2,0.3c0,0.3,0.1,0.5,0.3,0.5h0.2c0.2-0.7,0.3-1.1,0.3-1.3V145.3z
		 M287.5,143.3c0.1,0,0.2-0.2,0.2-0.5l-0.2-0.3h-0.2h-0.2l-0.2,0.3v0.3v0.3v0.3c0,0.2,0.1,0.3,0.3,0.3
		C287.5,143.8,287.5,143.6,287.5,143.3z M288.4,129.5v-1c-0.1,0-0.2,0-0.2-0.1c0-0.1-0.1-0.1-0.2-0.1c-0.2,0-0.3,0.3-0.3,1
		c-0.1,0.3-0.2,0.6-0.2,0.8l0.2,0.3h0.2c0.2,0,0.3-0.1,0.3-0.3v-0.3v-0.3H288.4z M288.9,136.8v-0.2h-0.3c-0.2,0-0.4,0.3-0.5,1
		c-0.1,0.7-0.2,1.1-0.2,1.3c0,0.3,0.1,0.5,0.2,0.5h0.2l0.3-0.5c0-0.2,0.1-0.4,0.2-0.8c0-0.2,0-0.3,0.1-0.5c0.1-0.2,0.1-0.3,0.1-0.5
		V136.8z M289,125.3c-0.3,0-0.6,0.1-0.7,0.3v0.8c0,0.2,0.2,0.3,0.5,0.3l0.2-0.3V126h0.2v-0.3v-0.3L289,125.3z M289.4,134
		c0.1-0.2,0.1-0.3,0-0.5H289l-0.2,0.3v0.3l-0.2,0.5v0.3c0,0.3,0.1,0.5,0.2,0.5c0.2,0,0.3-0.1,0.3-0.3c0-0.3,0.1-0.6,0.2-0.8V134z
		 M289.9,131.3l-0.2-0.3h-0.2h-0.2v0.3v0.3c-0.1,0-0.2,0.2-0.2,0.5c0.1,0,0.2,0,0.2,0.1c0,0.1,0.1,0.1,0.2,0.1l0.3-0.5V131.3z
		 M290.9,127.3l-0.2-0.3h-0.2c-0.1,0-0.3,0.2-0.5,0.5c0,0.3,0.1,0.6,0.2,0.8h0.3l0.2-0.3v-0.3v-0.3L290.9,127.3z M291.5,124.3h-0.2
		V124h-0.2c0-0.2-0.1-0.3-0.2-0.3l-0.2,0.3v0.3c-0.2,0.3-0.3,0.7-0.3,1v0.3c0.1,0.2,0.3,0.3,0.5,0.3c0.1,0,0.2-0.1,0.3-0.3V125v-0.3
		v-0.3h0.2V124.3z M292,121c0-0.2-0.1-0.3-0.2-0.3c-0.3,0-0.5,0.3-0.5,0.8l0.2,0.5h0.2h0.2l0.2-0.3v-0.3v-0.3V121z M300.7,13
		c-0.3,0.5-0.4,0.9-0.3,1.3c0.1,0.2,0.3,0.3,0.5,0.3c0.2,0,0.5-0.3,0.8-0.8c0.2,0,0.3-0.2,0.3-0.5c0-0.7-0.2-1-0.7-1
		c-0.2,0-0.3,0.2-0.3,0.5L300.7,13z M303.1,10.8l0.3,0.5h0.2h0.2V11h0.2v-0.3c0.1,0,0.2-0.1,0.2-0.3c-0.2-0.3-0.4-0.5-0.7-0.5h-0.2
		c0,0.2-0.1,0.3-0.2,0.3V10.8z M304.2,9.3c0.1,0.3,0.2,0.6,0.3,0.8h0.2l0.2-0.3c0.1,0,0.2-0.1,0.2-0.3h0.2c0-0.2,0-0.3,0.1-0.3
		c0.1,0,0.1-0.1,0.1-0.3c-0.3-0.5-0.4-0.8-0.3-0.8c-0.1,0-0.2,0.1-0.3,0.3c-0.1,0-0.3,0.2-0.5,0.5V9.3z M305.7,8
		c0,0.2,0.2,0.3,0.5,0.3c0.2,0,0.4-0.1,0.7-0.4c0.2-0.3,0.3-0.5,0.3-0.9c0-0.3-0.1-0.5-0.2-0.5h-0.3c-0.2,0-0.4,0.1-0.6,0.4
		c-0.2,0.3-0.3,0.5-0.4,0.6v0.3V8z"/>
	<path fill="#FFFFFF" d="M309.6,141.5c-2.6-2.2-4.3-4.8-5.2-7.7c-0.9-3-1.3-6.1-1.2-9.4c0.1-3.3,0.5-6.5,1.2-9.6
		c0.7-3.2,1.3-5.9,2-8.2c1-4,2.3-7.8,3.8-11.5c1.6-3.7,3.3-6.9,5.1-9.7c1.8-2.8,3.8-5.1,5.8-6.9c2-1.8,4-2.7,6-2.9v-0.3
		c1.7-0.8,3.3-1.1,5-0.8c1.4,0.3,2.9,1.2,4.3,2.5c1.4,1.3,2.7,3.8,3.8,7.5c0.1,0.3,0.2,0.7,0.2,1c0,0.8-0.2,1.3-0.5,1.5
		c-0.1,0-0.2,0-0.3,0.1c-0.1,0.1-0.2,0.1-0.4,0.1c0,0.8-0.4,0.9-1.2,0.3c-0.4-0.3-0.8-0.7-1.2-1h-0.2l-2.3-1.8
		c-0.8-0.7-1.6-1.1-2.6-1.4c-0.9-0.3-1.9-0.1-2.9,0.4c-0.1,0.2-0.2,0.3-0.3,0.3c-2.1,1.3-4.5,4.4-7,9.2c-1.1,2-2,3.7-2.8,5.1
		c-0.7,1.4-1.4,3-2,4.6c-0.6,1.7-1.3,3.5-1.9,5.6c-0.7,2.1-1.4,4.9-2.2,8.4c-0.9,3.5-1.4,6.2-1.7,8c-0.2,1.8-0.3,3.2-0.3,4
		c0,1,0.2,1.6,0.5,1.8c1.7-0.5,3.5-2.3,5.6-5.4c2.1-3.1,4.1-6.5,6.1-10.4c2-3.8,3.8-7.6,5.3-11.4c1.6-3.7,2.6-6.4,3.2-7.9
		c0.2-0.8,0.7-2.2,1.4-4c0.7-1.8,1.4-2.9,2.1-3.2c0.2-0.3,0.5-0.6,0.9-0.8c0.4-0.2,0.8-0.1,1.1,0.3c0.6,0.7,0.9,1.4,1.2,2.3l1,1.7
		l0.3,0.5c0.2,0.3,0.5,0.6,0.8,0.9c0.3,0.3,0.5,0.7,0.8,1.4c0.2,1.3,0.3,2.3,0.2,3c0,0.7-0.2,1.3-0.5,1.8c0,0.3,0,0.6-0.1,0.9
		c-0.1,0.3-0.1,0.5-0.1,0.9L340,103v0.5c-0.3,2.5-0.6,4.4-0.7,5.8c-0.1,1.3-0.2,2.3-0.3,3c-0.1,0.7-0.2,1.2-0.2,1.5
		c-0.1,0.8-0.3,2.5-0.5,4.9c-0.2,2.4-0.3,5-0.3,7.6c0.1,2.7,0.3,5,0.8,7.1c0.4,2.1,1.3,3.1,2.5,3.1c1.1,0,2.7-1.8,4.8-5.3
		c2.1-3.5,4.3-7.5,6.6-12.1c2.3-4.6,4.4-9.2,6.3-13.7c1.9-4.6,3.4-8,4.3-10.4l0.2-0.3c0.1-0.2,0.2-0.3,0.3-0.5
		c0.1-0.2,0.2-0.4,0.4-0.8c0.2-0.3,0.4-0.5,0.7-0.5c0.4,0.2,0.6,0.7,0.5,1.5c0,0.7-0.1,1.3-0.3,1.8s-0.4,1-0.6,1.5
		c0.4-1,0.8-1.2,1-0.5V98h-0.3l-0.2,0.3c-0.1,0.2-0.2,0.3-0.2,0.5V99c0.1,0.2,0.2,0.3,0.3,0.3c0.1,0,0.2-0.1,0.2-0.3l0.2-0.3
		l0.2-0.3c0,0.3-0.1,0.7-0.3,1c0.6-0.5,0.8-0.3,0.7,0.5c0,0.5-0.1,0.8-0.2,1v0.3c-0.1,0.3-0.2,0.6-0.2,0.7c0,0.2-0.1,0.3-0.2,0.5
		l-0.3,1.3c-0.1,0.2-0.2,0.3-0.2,0.5c-0.1,0.5-0.4,1.3-0.8,2.3c-0.8,2-1.8,4.4-3.1,7.2c-1.3,2.8-2.6,5.7-4,8.6
		c-1.4,2.9-2.8,5.7-4.3,8.4c-1.4,2.7-2.7,4.8-3.8,6.5c-1.2,1.8-2.5,3.1-3.8,3.8c-1.3,0.7-2.5,1-3.6,1c-1.2,0-2.5-0.3-3.8-0.8
		c-0.9-0.5-1.8-1.2-2.7-2c-0.8-0.8-1.6-1.8-2.5-2.9c-0.9-1.1-1.7-2.5-2.5-4.1c-0.6-1-0.9-2.5-1.1-4.6c-0.2-2.1-0.3-4.2-0.3-6.2
		c0-2.1,0-3.9,0.1-5.5c0.1-1.6,0.1-2.5,0.1-2.6c-0.1,0.2-0.7,1.6-1.8,4.4c-1.1,2.8-3,7.4-5.8,13.9c-1.7,3.8-3.2,6.5-4.7,8
		c-1.4,1.5-2.7,2.4-3.8,2.8C311.7,142.6,310.6,142.4,309.6,141.5z M310.6,106.8v0.5h0.3h0.2h0.2c0.1,0,0.2-0.1,0.2-0.3
		c0.1-0.2,0.2-0.7,0.2-1.5v-0.3h0.2v-1h-0.2V104h-0.2c-0.1-0.2-0.3-0.3-0.5-0.3l-0.2,0.3v0.8c-0.1,0-0.1,0.1,0,0.3h0.3
		c0,0.2,0,0.3-0.1,0.4c-0.1,0.1-0.1,0.2-0.1,0.4c-0.2,0.3-0.3,0.6-0.3,0.8V106.8z M311.7,101c-0.1,0-0.2,0.2-0.2,0.5l0.2,0.3
		c0.1,0,0.2,0,0.2,0.1c0,0.1,0.1,0.1,0.2,0.1c0.1,0,0.2-0.1,0.2-0.2h0.2V101l-0.3-0.3h-0.2C311.8,100.8,311.7,100.9,311.7,101z
		 M312.6,104c0-0.3-0.1-0.5-0.2-0.5c0-0.2-0.1-0.3-0.2-0.3h-0.2l-0.2,0.3c-0.1,0-0.2,0.1-0.2,0.3v0.3c0,0.2,0.1,0.3,0.2,0.3l0.2,0.3
		h0.2c0.1,0,0.2-0.1,0.2-0.3h0.2V104z M312.6,98.8c-0.2,0.3-0.3,0.6-0.3,0.8l0.2,0.3l0.2,0.3h0.2c0.1,0,0.2-0.1,0.3-0.3v-0.3
		c0.1,0,0.2-0.1,0.2-0.3v-0.5l-0.3-0.5C312.7,98.3,312.6,98.5,312.6,98.8z M313.1,97.5c0.2,0.3,0.4,0.5,0.5,0.5
		c0.2,0,0.4-0.3,0.6-0.8s0.3-0.9,0.3-1.3c0-0.2-0.1-0.3-0.2-0.5c0-0.3-0.2-0.3-0.7,0c-0.3,0.5-0.5,1-0.5,1.5V97.5z M319.3,91.3
		c0.8-1.2,1.3-1.9,1.5-2.2c0.2-0.3,0.3-0.7,0.3-1l-0.2-0.3c0-0.2-0.1-0.3-0.2-0.3c-0.4,0-1.5,1.6-3.2,4.7c-0.4,0.5-0.9,1.4-1.3,2.8
		c-0.2,0.8-0.4,1.4-0.7,1.8c-0.6,0.3-1,1.2-1.3,2.5c-0.3,1.3-0.4,2.2-0.4,2.5c-0.1,0.2-0.1,0.3,0,0.5h0.3c0.3,0,0.6-0.4,0.9-1.1
		c0.3-0.8,0.5-1.5,0.8-2.4l0.3-1l0.3-1c0.1-0.5,0.4-1.3,0.8-2.3c0.7-0.7,1.1-1.5,1.3-2.5l0.2-0.3L319.3,91.3z M314.3,94.5
		c-0.1,0-0.1,0.1,0,0.3h0.2c0.4,0,0.8-0.4,1-1.3c0.1,0,0.2,0.1,0.2,0.3l0.2-0.3h0.2v-0.3c0.1,0,0.2-0.1,0.2-0.3l-0.2-0.5
		c0-0.2,0.1-0.4,0.3-0.8c0,0.2,0.1,0.3,0.2,0.3h0.2l0.2-0.3c0.1,0,0.2-0.1,0.2-0.3c0.1,0,0.2-0.1,0.2-0.3v-0.5l-0.2-0.3l0.5-1V90
		c0.2,0.3,0.4,0.3,0.5-0.3c0.6,0,0.8-0.5,0.8-1.5l-0.2-0.3l1.3-2c0.6-0.8,1.1-1.6,1.6-2.3c0.5-0.7,1.1-1.3,1.8-1.8
		c0.9-0.7,1.6-1.1,2-1.3h0.2c0.1,0,0.3,0,0.7,0s0.6-0.1,0.7-0.3c0.2,0,0.3-0.2,0.3-0.5l-0.2-0.3c-0.1,0-0.2,0-0.3-0.1
		c-0.1-0.1-0.3-0.1-0.5-0.1c-0.2,0-0.5,0-0.8,0.1c-0.3,0.1-0.6,0.1-0.8,0.1c-0.4,0.3-0.9,0.7-1.4,1c-0.5,0.3-0.9,0.7-1.3,1l-0.2,0.3
		c-0.3,0.3-0.7,0.6-1,0.9s-0.7,0.6-1,1.1c-0.2,0.2-0.5,0.5-0.9,1.1c-0.4,0.6-0.8,1.3-1.3,2.1c0,0.2,0,0.3-0.1,0.3
		c-0.1,0-0.1,0.1-0.1,0.3l-0.5,1c-0.6,0.8-1.1,1.7-1.5,2.7C314.8,92.5,314.5,93.5,314.3,94.5z M318.1,90c0,0.2,0.1,0.3,0.2,0.3
		c0.2,0,0.3-0.1,0.3-0.3c0-0.2-0.1-0.3-0.3-0.3L318.1,90z M322.3,86.5c0.1,0,0.2,0,0.2-0.1c0-0.1-0.1-0.1-0.2-0.1
		c0-0.3-0.1-0.5-0.3-0.5h-0.3c0,0.2-0.1,0.3-0.2,0.3c-0.1,0.2-0.2,0.4-0.2,0.8c0.2,0.3,0.4,0.5,0.5,0.5l0.2-0.3
		c0.1,0,0.2-0.1,0.2-0.3C322.2,86.8,322.3,86.7,322.3,86.5z M323.6,84.5c-0.1,0-0.2-0.1-0.2-0.3c0-0.2-0.1-0.3-0.3-0.3v0.3h-0.2
		c-0.1,0.2-0.2,0.3-0.2,0.5V85c0.1,0.2,0.2,0.3,0.3,0.3v0.3h0.2l0.2-0.3h0.2V84.5z M335.1,121.8c0-0.2-0.1-0.3-0.2-0.3
		c-0.6,0-0.9,0.1-1,0.3c0.1,0.2,0.2,0.3,0.2,0.5c0,0.3,0.1,0.6,0.2,0.8h0.8v-0.3h0.2l0.2-0.3v-0.3V122v-0.3H335.1z M335,124.3h-0.5
		c-0.1,0-0.2,0.1-0.2,0.3h-0.2l0.2,0.3c0.1,0.2,0.2,0.3,0.3,0.3h0.3h0.2v-0.3l-0.2-0.3V124.3z M335.5,119.3l0.2-0.3h-0.2l-0.3-0.3
		H335c-0.2,0-0.3,0.1-0.3,0.3h-0.2v0.3c0,0.3,0.2,0.4,0.7,0.3v-0.3H335.5z M338.3,99.5c0.2-0.8,0.3-1.5,0.3-2.1
		c0-0.6,0.1-1.3,0.3-2.1V95l-0.2-0.3h-0.2c-0.2,0.2-0.4,0.7-0.7,1.5c-0.2,0.8-0.4,1.8-0.7,2.8c-0.2,1.2-0.4,2.5-0.5,4
		c-0.2,1-0.3,1.9-0.3,2.8c-0.2,0.5-0.3,1.1-0.3,1.8c0,0.7-0.1,1.3-0.2,2c-0.4,0.3-0.7,0.8-0.8,1.3c-0.1,0.5-0.1,1-0.1,1.5
		c-0.1,0.3-0.2,0.6-0.2,0.8c-0.1,0.3-0.2,0.7-0.3,1.2c-0.1,0.5-0.1,0.9,0,1.3c0,0.7,0.1,1,0.2,1c0,0.2,0.2,0.3,0.7,0.3
		c0.3-0.2,0.5-0.8,0.5-1.8l-0.2-0.3c0.3-1,0.5-2.1,0.5-3.2c0-0.5,0.1-1,0.2-1.6c0.1-0.6,0.2-1.2,0.2-1.9v-0.3c0-0.2,0.1-0.3,0.2-0.5
		c0-0.5,0.1-0.9,0.3-1.3c-0.1-0.3-0.1-0.6,0-0.9c0.1-0.3,0.1-0.5,0-0.6c0.4-0.8,0.6-1.7,0.6-2.6C337.7,101,337.9,100.2,338.3,99.5z
		 M351.7,126.8l0.2,0.3c0.2,0,0.5-0.3,0.8-0.9c0.3-0.6,0.5-1,0.5-1.4v-0.3l-0.2-0.3c-0.3,0-0.6,0.4-0.8,1.2l-0.5,1V126.8z
		 M353.7,122.5v0.5h0.2c0.1,0,0.3-0.1,0.5-0.4c0.2-0.3,0.3-0.5,0.3-0.9v-0.3l-0.2-0.3c-0.1,0-0.3,0.2-0.5,0.5
		c-0.1,0-0.2,0.1-0.2,0.3C353.7,122.2,353.7,122.4,353.7,122.5z M355,119.8v0.3c0.1,0,0.2,0.1,0.2,0.3c0.1,0,0.2-0.1,0.2-0.3
		c0.3,0,0.5-0.2,0.5-0.5v-0.3c-0.1-0.2-0.2-0.3-0.3-0.3h-0.2c0,0.2-0.1,0.3-0.2,0.3v0.3L355,119.8z M357,115.8l0.2,0.3h0.2
		c0.2,0,0.4-0.1,0.5-0.4c0.1-0.3,0.2-0.5,0.3-0.6c0.3-0.5,0.5-0.9,0.5-1.3c0-0.3-0.1-0.5-0.3-0.5c-0.2,0-0.5,0.4-0.8,1.1
		c-0.3,0.8-0.5,1.1-0.6,1.1V115.8z M359,112h0.2c0.1,0,0.3-0.2,0.5-0.5c0.2-0.3,0.3-0.6,0.3-0.8l-0.2-0.3l-0.2-0.3
		c-0.1,0-0.2,0.1-0.3,0.3v0.3l-0.2,0.3c-0.1,0.2-0.2,0.3-0.2,0.5V112z M360.3,109c0,0.2,0.1,0.3,0.2,0.3c0.2,0,0.3-0.2,0.3-0.5h0.2
		c0-0.2,0.1-0.3,0.2-0.5l-0.3-0.5c-0.1,0-0.2,0.1-0.3,0.3v0.3l-0.2,0.3V109z M362.3,104.3c-0.1,0.2-0.2,0.3-0.2,0.5
		c-0.1,0-0.1,0.1,0,0.3v0.3h0.3l0.2-0.3l0.2-0.3V104h-0.2C362.5,104,362.3,104.1,362.3,104.3z M364,102.3c0.2-0.5,0.3-0.8,0.2-1
		L364,101c-0.1,0-0.2,0-0.2,0.1c0,0.1-0.1,0.1-0.2,0.1l-0.3,0.5c-0.1,0.2-0.2,0.3-0.2,0.5v0.3c0.2,0.3,0.4,0.5,0.5,0.5l0.2-0.3
		c0-0.2,0.1-0.3,0.2-0.3V102.3z"/>
	<path fill="#FFFFFF" d="M379.2,64.5c3.1-1.2,5.6-1.5,7.5-1c1.9,0.5,3.4,1.4,4.5,2.8c0.7-0.2,1.4,0.1,2.3,0.9
		c0.8,0.8,1.1,2.6,0.9,5.6c-0.1,1.5-0.4,3-0.8,4.5c0,0.2,0,0.3-0.1,0.3c-0.1,0-0.1,0.1-0.1,0.3c-0.6,2.2-1.5,4.3-2.8,6.5
		c-1.3,2.2-2.2,3.4-2.8,3.8c-0.4,0.3-0.8,0.8-1,1.4c-0.2,0.6-0.6,0.7-1,0.4c-0.2,0-0.5,0.1-0.8,0.4c-0.3,0.2-0.6,0.5-0.8,0.6
		c-0.2,0.2-0.4,0.2-0.5,0.1c-0.1-0.1-0.1-0.5,0.2-1.1c0.2-0.7,0.6-1.8,1.3-3.4c0.6-1.6,1.2-3.2,1.7-4.9c0.5-1.7,0.8-3.3,0.8-4.9
		c0.1-1.6-0.4-2.8-1.3-3.6c-0.9-0.8-2-0.8-3.3,0.1c-1.3,0.9-2.7,2.3-4.1,4.1c-1.4,1.8-2.7,3.9-3.9,6.1c-1.2,2.3-2.1,4.2-2.5,5.9
		c-0.9,3.3-1.4,6.6-1.4,9.7c-0.1,3.2,0.6,6.4,2.1,9.7c0.1,0.2,0.2,0.3,0.3,0.5c0.1,0.2,0.1,0.3,0.3,0.5c1.8-1.8,3.4-3.5,4.9-5.1
		c1.5-1.6,3.1-3,4.8-4.2c1.7-1.3,3.6-2.4,5.8-3.4c2.1-1,4.7-1.8,7.7-2.5c0.4,0,0.9,0.1,1.3,0.3c0.9,0.3,1.1,0.9,0.7,1.8
		c-0.4,1-0.8,1.6-1.1,1.9c-0.3,0.3-0.5,0.5-0.8,0.9c-0.2,0.2-0.5,0.3-0.8,0.3h-0.3c-0.1,0.5-0.2,0.9-0.3,1.3l-0.5,1.2
		c-0.1,0-0.6,0.2-1.6,0.5c-0.9,0.3-2.3,1-4,1.9c-1.7,0.9-3.8,2.3-6.1,4.3c-2.3,1.9-4.9,4.5-7.7,7.6v0.3c0.4,2.2,0.8,4.6,0.9,7.3
		c0.2,2.7,0,5.5-0.5,8.5s-1.4,6.1-2.7,9.2c-1.3,3.2-3.1,6.3-5.6,9.2c-1.1,1.3-2.2,2.4-3.3,3.3c-0.9,0.8-1.9,1.4-3,1.6
		c-1.1,0.3-2.1-0.1-3-1.1c-0.2-0.2-0.4-0.5-0.7-1c-0.2-0.3-0.4-0.8-0.7-1.3c-0.2-0.5-0.4-1-0.5-1.5c-1.2-2.7-1.4-5.9-0.4-9.6
		c0.9-3.8,2.2-7.3,3.8-10.7c1.6-3.4,3.3-6.4,4.9-8.9s2.7-4,3-4.5c-0.6-2.2-1.3-4-2.1-5.5c-0.8-1.5-1.6-2.9-2.4-4.3
		c-1.6-2.3-2.5-4.8-2.8-7.2c-0.3-2.5-0.4-4.8-0.3-6.8c0.1-2.3,0.5-4.6,1.2-6.7c0.9-3.2,2.2-6.3,3.8-9.2c1.4-2.5,3.3-4.9,5.5-7.3
		C373.1,67.7,375.9,65.9,379.2,64.5z M361.8,147.5c0.6,0.2,1.6-1.1,3.1-3.8c1.5-2.7,2.7-6.8,3.6-12.2l0.5-4.5v-0.5v-1.3
		c-0.4,0.7-1,1.7-1.7,3c-1.9,3.3-3.4,6.6-4.5,9.7c-1.1,3.2-1.8,5.5-2,7C360.7,147,361.1,147.9,361.8,147.5z M365.7,85h-0.2l-0.3-0.5
		l-0.2,0.3h-0.2V85v0.3l0.2,0.3h0.2c0,0.2,0.1,0.3,0.2,0.3l0.2-0.3h0.2v-0.3V85z M366.5,83.8l-0.2-0.3L366,83h-0.2v-0.3
		c-0.2,0-0.3,0.1-0.3,0.3v0.3h-0.2v0.3v0.3c0.3,0.5,0.6,0.8,0.7,0.8h0.2l0.2-0.3c0.1,0,0.2-0.1,0.2-0.3V83.8z M366.9,82.5l-0.3-0.5
		h-0.3v0.3H366v0.3v0.3h0.2c0,0.2,0.1,0.3,0.2,0.3l0.2,0.3c0.1,0,0.2-0.1,0.2-0.3h0.2v-0.3V82.5z M367.9,121.3
		c0,0.2-0.2,0.5-0.5,0.9c-0.3,0.4-0.5,0.8-0.5,1.1l0.2,0.3h0.2c0.2,0,0.5-0.3,0.8-1c0.1,0,0.2-0.1,0.2-0.3h0.2
		c0.1-0.2,0.2-0.3,0.3-0.5c0.1-0.2,0.1-0.3,0.3-0.5c0.2-0.5,0.3-0.8,0.2-1h-0.2c-0.1,0-0.2,0.2-0.3,0.5c-0.1,0-0.2,0-0.2,0.1
		c0,0.1-0.1,0.1-0.2,0.1l-0.2,0.3H367.9z M367.9,81c0.1,0,0.3-0.2,0.5-0.5l0.5-0.8l0.2-0.3l0.7-1c0-0.3,0.1-0.5,0.3-0.5l0.2-0.3h0.2
		c0.1,0,0.2-0.1,0.2-0.3c0.1-0.2,0.1-0.3,0-0.3c0.1,0,0.2,0,0.3-0.1c0.1-0.1,0.1-0.1,0.3-0.1h0.2v-0.3c0.2,0.3,0.3,0.3,0.3-0.3v-0.3
		c0.1,0,0.2-0.1,0.3-0.3c0.6-0.5,0.9-0.8,1-1c0.2-0.5,0.5-0.9,0.8-1.3c0.3-0.3,0.6-0.7,0.8-1l0.3-0.3c0.3-0.5,0.6-0.8,0.7-0.8
		l0.2-0.3c0.8-0.7,1.1-1.2,1-1.5l-0.3-0.3h-0.2c-0.2,0.2-0.7,0.5-1.3,1.1c-0.7,0.6-1.1,1-1.3,1.4c-0.1,0.2-0.2,0.3-0.3,0.3
		c-0.1,0-0.1,0.1-0.3,0.3c-0.3,0-0.6,0.2-0.8,0.5c-0.4,0.2-0.9,0.8-1.3,1.8c-0.2,0-0.3,0.2-0.3,0.5c-0.2,0.2-0.6,0.6-1,1.3
		c-0.1,0.3-0.3,0.8-0.7,1.3h-0.2c-0.1,0.2-0.2,0.3-0.3,0.3v0.3v0.2l-0.2,0.3c0,0.2-0.1,0.4-0.3,0.8c-0.2,0.2-0.3,0.4-0.3,0.8v0.3
		c0-0.2-0.1-0.3-0.2-0.3h-0.2v0.3c-0.1,0-0.2,0.1-0.2,0.3v0.3l0.3,0.5h0.2h0.2v-0.3h0.2v-0.3V81z M369,142c0.1-0.2,0.2-0.3,0.2-0.5
		l0.3-1.3c0-0.3,0.1-0.7,0.3-1c0.6-1.3,0.8-2.2,0.7-2.5v-0.2l0.2,0.2c0.1,0,0.2-0.1,0.2-0.2c0.1,0,0.2-0.1,0.2-0.3V136l-0.2-0.3h0.2
		v0.3c0.1,0,0.2-0.1,0.2-0.3h0.2v-0.3c0-0.2-0.1-0.3-0.2-0.3V135H371h-0.2c0-0.2-0.1-0.3-0.2-0.3v0.3h-0.2v0.3v0.3h-0.2l-0.2,0.3
		v0.3v0.3l0.2,0.3h-0.2c-0.1,0-0.4,0.5-0.8,1.5c0,0.2-0.1,0.3-0.2,0.5c-0.2,0.5-0.4,0.8-0.5,1c0,0.2-0.1,0.3-0.2,0.5v0.3l-0.2,0.3
		c-0.2,0-0.3,0.3-0.3,0.8v0.3c0.2,0.3,0.5,0.5,0.8,0.5H369z M375.5,75.8c1.1-1.2,1.8-1.8,1.9-2c0.2-0.2,0.2-0.3,0.1-0.5
		c0-0.2-0.1-0.3-0.3-0.3c-0.2,0-0.4,0.1-0.5,0.3l-0.2,0.3c-0.6,0.2-1.1,0.5-1.5,1.1c-0.4,0.6-0.9,1.1-1.3,1.6
		c-0.3,0.5-0.6,0.8-0.8,1c-0.2,0.2-0.4,0.4-0.5,0.6c-0.1,0.3-0.3,0.5-0.5,0.9c-0.1,0-0.2,0.1-0.2,0.3c-0.4,0.7-0.8,1.1-1,1.3
		c-0.4,0.7-0.8,1.3-1,1.8c-0.6,0.8-0.9,1.4-1,1.8c-0.1,0.3-0.2,0.7-0.2,1l0.2,0.3c0.1,0.2,0.2,0.3,0.3,0.3c0.4,0,0.8-0.5,1-1.5
		l0.3-0.5c0.6-0.8,1.2-1.9,2-3.1c0.8-1.3,1.7-2.5,2.7-3.6L375.5,75.8z M372.5,135.5c-0.2,0.7-0.4,1.2-0.7,1.7
		c-0.1,0.3-0.2,0.6-0.3,0.9c-0.1,0.3-0.2,0.5-0.3,0.9c0,0.2,0,0.3-0.1,0.4c-0.1,0.1-0.1,0.2-0.1,0.4c-0.2,0.8-0.4,1.3-0.5,1.3
		c0,0.2,0,0.3-0.1,0.4c-0.1,0.1-0.1,0.2-0.1,0.4c-0.1,0.3-0.3,0.7-0.5,1c-0.1,0.2-0.2,0.4-0.3,0.8c-0.2,0.7-0.3,1.1-0.2,1.3h0.2
		c0.2,0,0.4-0.3,0.7-0.8c0.2-0.3,0.4-0.8,0.7-1.5c0.1-0.3,0.2-0.5,0.3-0.6c0.1-0.1,0.1-0.3,0.3-0.6c0.4-0.7,0.8-1.4,1.2-2.1
		s0.6-1.5,0.7-2.4c0.2-0.8,0.4-1.7,0.4-2.7c0.1-1,0.1-1.9,0.3-2.8c0-0.2-0.1-0.3-0.2-0.3c-0.3,0-0.5,0.2-0.6,0.6
		c-0.1,0.4-0.1,0.8-0.3,1.1v0.8v0.5c-0.1,0.3-0.2,0.6-0.2,0.8C372.7,135,372.6,135.2,372.5,135.5z M371.2,116.8
		c-0.2,0-0.3,0.2-0.3,0.5c-0.1,0-0.2,0.1-0.2,0.3c-0.1,0-0.2,0.1-0.3,0.3l-0.2,0.3v0.3v0.3h0.2c0.2,0,0.4-0.1,0.7-0.4
		c0.2-0.3,0.4-0.5,0.5-0.6l0.2-0.5h-0.2C371.5,116.9,371.4,116.8,371.2,116.8z M373,114.3c-0.1,0.2-0.2,0.3-0.2,0.5v0.3
		c0,0.2,0.1,0.3,0.2,0.3h0.2c0.1-0.2,0.2-0.3,0.2-0.5c0.2-0.3,0.3-0.6,0.3-0.8h-0.3l-0.2,0.3H373z M376.7,110.3
		c0,0.3,0.1,0.5,0.3,0.5c0.1,0,0.2-0.2,0.2-0.5h0.3c0.6-0.3,1-0.9,1.3-1.8h0.2c0.1,0,0.2-0.1,0.2-0.3c0-0.2-0.1-0.3-0.2-0.3
		c-0.2,0-0.6,0.2-1.1,0.6c-0.5,0.4-0.9,0.8-1.1,1.1C376.9,110,376.8,110.1,376.7,110.3z M379,72.5l0.2-0.3V72l-0.3-0.5
		c-0.1,0-0.2,0.1-0.3,0.3c-0.1-0.2-0.3-0.1-0.5,0.3v0.3c0.1,0.5,0.2,0.8,0.3,0.8c0.1,0,0.2-0.1,0.2-0.3h0.2c0.1,0,0.2-0.1,0.2-0.3
		H379z M380.7,71.3l-0.2-0.3c0-0.3-0.1-0.5-0.3-0.5H380c-0.1,0-0.2,0.1-0.2,0.3c-0.1,0.2-0.1,0.3,0,0.3c0,0.3,0.1,0.6,0.2,0.8h0.2
		h0.2l0.2-0.3L380.7,71.3z M380.7,106.3c-0.1,0.2-0.2,0.3-0.2,0.5c0,0.2,0.1,0.3,0.2,0.3h0.2c0.1,0,0.2,0,0.3-0.1
		c0.1-0.1,0.1-0.1,0.3-0.1c0.4-0.5,0.7-0.8,0.8-0.8v-0.5l-0.3-0.3c-0.1,0-0.3,0.2-0.5,0.5h-0.2C381.1,105.8,380.9,106,380.7,106.3z
		 M383.7,104c-0.1,0.2-0.1,0.3,0,0.5h0.2c0.3,0,0.6-0.3,0.8-0.8v-0.3c-0.1,0-0.2,0-0.2-0.1c0-0.1-0.1-0.1-0.2-0.1l-0.3,0.3
		c-0.1,0-0.2,0.1-0.2,0.3C383.9,104,383.8,104,383.7,104z M388.7,100.8c-0.2,0-0.4,0-0.7,0c-0.2,0-0.3,0.2-0.3,0.5v0.3
		c0.1,0,0.2,0,0.2,0.1c0,0.1,0.1,0.1,0.2,0.1h0.2h0.2c0.3-0.2,0.5-0.4,0.5-0.8v-0.3H388.7z M390.4,100.3c0.1,0.2,0.2,0.3,0.3,0.3
		h0.3c0.1,0,0.2-0.1,0.2-0.3h0.2c0.4-0.2,0.7-0.3,0.7-0.5v-0.5c-0.1,0-0.2,0-0.3-0.1c-0.1-0.1-0.1-0.1-0.3-0.1c-0.2,0-0.6,0.2-1,0.5
		l-0.2,0.5V100.3z M394.6,98.3v0.5l0.2,0.3h0.3c0.1-0.2,0.2-0.3,0.3-0.3c0.1,0,0.1-0.1,0.3-0.3c0.2,0,0.2-0.2,0-0.5h-0.2h-0.3
		C394.8,98,394.7,98.1,394.6,98.3z"/>
	<path fill="#FFFFFF" d="M412.4,64.5c3.1-1.2,5.6-1.5,7.5-1c1.9,0.5,3.4,1.4,4.5,2.8c0.7-0.2,1.4,0.1,2.3,0.9
		c0.8,0.8,1.1,2.6,0.9,5.6c-0.1,1.5-0.4,3-0.8,4.5c0,0.2,0,0.3-0.1,0.3c-0.1,0-0.1,0.1-0.1,0.3c-0.6,2.2-1.5,4.3-2.8,6.5
		c-1.3,2.2-2.2,3.4-2.8,3.8c-0.4,0.3-0.8,0.8-1,1.4c-0.2,0.6-0.6,0.7-1,0.4c-0.2,0-0.5,0.1-0.8,0.4c-0.3,0.2-0.6,0.5-0.8,0.6
		c-0.2,0.2-0.4,0.2-0.5,0.1c-0.1-0.1-0.1-0.5,0.2-1.1c0.2-0.7,0.6-1.8,1.3-3.4c0.6-1.6,1.2-3.2,1.7-4.9c0.5-1.7,0.8-3.3,0.8-4.9
		c0.1-1.6-0.4-2.8-1.3-3.6c-0.9-0.8-2-0.8-3.3,0.1c-1.3,0.9-2.7,2.3-4.1,4.1c-1.4,1.8-2.7,3.9-3.9,6.1c-1.2,2.3-2.1,4.2-2.5,5.9
		c-0.9,3.3-1.4,6.6-1.4,9.7c-0.1,3.2,0.6,6.4,2.1,9.7c0.1,0.2,0.2,0.3,0.3,0.5c0.1,0.2,0.1,0.3,0.3,0.5c1.8-1.8,3.4-3.5,4.9-5.1
		c1.5-1.6,3.1-3,4.8-4.2c1.7-1.3,3.6-2.4,5.8-3.4c2.1-1,4.7-1.8,7.7-2.5c0.4,0,0.9,0.1,1.3,0.3c0.9,0.3,1.1,0.9,0.7,1.8
		c-0.4,1-0.8,1.6-1.1,1.9c-0.3,0.3-0.5,0.5-0.8,0.9c-0.2,0.2-0.5,0.3-0.8,0.3h-0.3c-0.1,0.5-0.2,0.9-0.3,1.3l-0.5,1.2
		c-0.1,0-0.6,0.2-1.6,0.5c-0.9,0.3-2.3,1-4,1.9c-1.7,0.9-3.8,2.3-6.1,4.3c-2.3,1.9-4.9,4.5-7.7,7.6v0.3c0.4,2.2,0.8,4.6,0.9,7.3
		c0.2,2.7,0,5.5-0.5,8.5s-1.4,6.1-2.7,9.2c-1.3,3.2-3.1,6.3-5.6,9.2c-1.1,1.3-2.2,2.4-3.3,3.3c-0.9,0.8-1.9,1.4-3,1.6
		c-1.1,0.3-2.1-0.1-3-1.1c-0.2-0.2-0.4-0.5-0.7-1c-0.2-0.3-0.4-0.8-0.7-1.3c-0.2-0.5-0.4-1-0.5-1.5c-1.2-2.7-1.4-5.9-0.4-9.6
		c0.9-3.8,2.2-7.3,3.8-10.7c1.6-3.4,3.3-6.4,4.9-8.9s2.7-4,3-4.5c-0.6-2.2-1.3-4-2.1-5.5c-0.8-1.5-1.6-2.9-2.4-4.3
		c-1.6-2.3-2.5-4.8-2.8-7.2c-0.3-2.5-0.4-4.8-0.3-6.8c0.1-2.3,0.5-4.6,1.2-6.7c0.9-3.2,2.2-6.3,3.8-9.2c1.4-2.5,3.3-4.9,5.5-7.3
		C406.3,67.7,409.1,65.9,412.4,64.5z M395.1,147.5c0.6,0.2,1.6-1.1,3.1-3.8c1.5-2.7,2.7-6.8,3.6-12.2l0.5-4.5v-0.5v-1.3
		c-0.4,0.7-1,1.7-1.7,3c-1.9,3.3-3.4,6.6-4.5,9.7c-1.1,3.2-1.8,5.5-2,7C394,147,394.3,147.9,395.1,147.5z M398.9,85h-0.2l-0.3-0.5
		l-0.2,0.3h-0.2V85v0.3l0.2,0.3h0.2c0,0.2,0.1,0.3,0.2,0.3l0.2-0.3h0.2v-0.3V85z M399.7,83.8l-0.2-0.3l-0.3-0.5h-0.2v-0.3
		c-0.2,0-0.3,0.1-0.3,0.3v0.3h-0.2v0.3v0.3c0.3,0.5,0.6,0.8,0.7,0.8h0.2l0.2-0.3c0.1,0,0.2-0.1,0.2-0.3V83.8z M400.1,82.5l-0.3-0.5
		h-0.3v0.3h-0.2v0.3v0.3h0.2c0,0.2,0.1,0.3,0.2,0.3l0.2,0.3c0.1,0,0.2-0.1,0.2-0.3h0.2v-0.3V82.5z M401.1,121.3
		c0,0.2-0.2,0.5-0.5,0.9c-0.3,0.4-0.5,0.8-0.5,1.1l0.2,0.3h0.2c0.2,0,0.5-0.3,0.8-1c0.1,0,0.2-0.1,0.2-0.3h0.2
		c0.1-0.2,0.2-0.3,0.3-0.5c0.1-0.2,0.1-0.3,0.3-0.5c0.2-0.5,0.3-0.8,0.2-1h-0.2c-0.1,0-0.2,0.2-0.3,0.5c-0.1,0-0.2,0-0.2,0.1
		c0,0.1-0.1,0.1-0.2,0.1l-0.2,0.3H401.1z M401.1,81c0.1,0,0.3-0.2,0.5-0.5l0.5-0.8l0.2-0.3l0.7-1c0-0.3,0.1-0.5,0.3-0.5l0.2-0.3h0.2
		c0.1,0,0.2-0.1,0.2-0.3c0.1-0.2,0.1-0.3,0-0.3c0.1,0,0.2,0,0.3-0.1c0.1-0.1,0.1-0.1,0.3-0.1h0.2v-0.3c0.2,0.3,0.3,0.3,0.3-0.3v-0.3
		c0.1,0,0.2-0.1,0.3-0.3c0.6-0.5,0.9-0.8,1-1c0.2-0.5,0.5-0.9,0.8-1.3c0.3-0.3,0.6-0.7,0.8-1l0.3-0.3c0.3-0.5,0.6-0.8,0.7-0.8
		l0.2-0.3c0.8-0.7,1.1-1.2,1-1.5l-0.3-0.3h-0.2c-0.2,0.2-0.7,0.5-1.3,1.1c-0.7,0.6-1.1,1-1.3,1.4c-0.1,0.2-0.2,0.3-0.3,0.3
		c-0.1,0-0.1,0.1-0.3,0.3c-0.3,0-0.6,0.2-0.8,0.5c-0.4,0.2-0.9,0.8-1.3,1.8c-0.2,0-0.3,0.2-0.3,0.5c-0.2,0.2-0.6,0.6-1,1.3
		c-0.1,0.3-0.3,0.8-0.7,1.3h-0.2c-0.1,0.2-0.2,0.3-0.3,0.3v0.3v0.2l-0.2,0.3c0,0.2-0.1,0.4-0.3,0.8c-0.2,0.2-0.3,0.4-0.3,0.8v0.3
		c0-0.2-0.1-0.3-0.2-0.3h-0.2v0.3c-0.1,0-0.2,0.1-0.2,0.3v0.3l0.3,0.5h0.2h0.2v-0.3h0.2v-0.3V81z M402.3,142
		c0.1-0.2,0.2-0.3,0.2-0.5l0.3-1.3c0-0.3,0.1-0.7,0.3-1c0.6-1.3,0.8-2.2,0.7-2.5v-0.2l0.2,0.2c0.1,0,0.2-0.1,0.2-0.2
		c0.1,0,0.2-0.1,0.2-0.3V136l-0.2-0.3h0.2v0.3c0.1,0,0.2-0.1,0.2-0.3h0.2v-0.3c0-0.2-0.1-0.3-0.2-0.3V135h-0.2h-0.2
		c0-0.2-0.1-0.3-0.2-0.3v0.3h-0.2v0.3v0.3h-0.2l-0.2,0.3v0.3v0.3l0.2,0.3h-0.2c-0.1,0-0.4,0.5-0.8,1.5c0,0.2-0.1,0.3-0.2,0.5
		c-0.2,0.5-0.4,0.8-0.5,1c0,0.2-0.1,0.3-0.2,0.5v0.3l-0.2,0.3c-0.2,0-0.3,0.3-0.3,0.8v0.3c0.2,0.3,0.5,0.5,0.8,0.5H402.3z
		 M408.8,75.8c1.1-1.2,1.8-1.8,1.9-2c0.2-0.2,0.2-0.3,0.1-0.5c0-0.2-0.1-0.3-0.3-0.3c-0.2,0-0.4,0.1-0.5,0.3l-0.2,0.3
		c-0.6,0.2-1.1,0.5-1.5,1.1c-0.4,0.6-0.9,1.1-1.3,1.6c-0.3,0.5-0.6,0.8-0.8,1c-0.2,0.2-0.4,0.4-0.5,0.6c-0.1,0.3-0.3,0.5-0.5,0.9
		c-0.1,0-0.2,0.1-0.2,0.3c-0.4,0.7-0.8,1.1-1,1.3c-0.4,0.7-0.8,1.3-1,1.8c-0.6,0.8-0.9,1.4-1,1.8c-0.1,0.3-0.2,0.7-0.2,1l0.2,0.3
		c0.1,0.2,0.2,0.3,0.3,0.3c0.4,0,0.8-0.5,1-1.5l0.3-0.5c0.6-0.8,1.2-1.9,2-3.1c0.8-1.3,1.7-2.5,2.7-3.6L408.8,75.8z M405.8,135.5
		c-0.2,0.7-0.4,1.2-0.7,1.7c-0.1,0.3-0.2,0.6-0.3,0.9c-0.1,0.3-0.2,0.5-0.3,0.9c0,0.2,0,0.3-0.1,0.4c-0.1,0.1-0.1,0.2-0.1,0.4
		c-0.2,0.8-0.4,1.3-0.5,1.3c0,0.2,0,0.3-0.1,0.4c-0.1,0.1-0.1,0.2-0.1,0.4c-0.1,0.3-0.3,0.7-0.5,1c-0.1,0.2-0.2,0.4-0.3,0.8
		c-0.2,0.7-0.3,1.1-0.2,1.3h0.2c0.2,0,0.4-0.3,0.7-0.8c0.2-0.3,0.4-0.8,0.7-1.5c0.1-0.3,0.2-0.5,0.3-0.6c0.1-0.1,0.1-0.3,0.3-0.6
		c0.4-0.7,0.8-1.4,1.2-2.1s0.6-1.5,0.7-2.4c0.2-0.8,0.4-1.7,0.4-2.7c0.1-1,0.1-1.9,0.3-2.8c0-0.2-0.1-0.3-0.2-0.3
		c-0.3,0-0.5,0.2-0.6,0.6c-0.1,0.4-0.1,0.8-0.3,1.1v0.8v0.5c-0.1,0.3-0.2,0.6-0.2,0.8C405.9,135,405.9,135.2,405.8,135.5z
		 M404.4,116.8c-0.2,0-0.3,0.2-0.3,0.5c-0.1,0-0.2,0.1-0.2,0.3c-0.1,0-0.2,0.1-0.3,0.3l-0.2,0.3v0.3v0.3h0.2c0.2,0,0.4-0.1,0.7-0.4
		c0.2-0.3,0.4-0.5,0.5-0.6l0.2-0.5h-0.2C404.8,116.9,404.6,116.8,404.4,116.8z M406.3,114.3c-0.1,0.2-0.2,0.3-0.2,0.5v0.3
		c0,0.2,0.1,0.3,0.2,0.3h0.2c0.1-0.2,0.2-0.3,0.2-0.5c0.2-0.3,0.3-0.6,0.3-0.8h-0.3l-0.2,0.3H406.3z M409.9,110.3
		c0,0.3,0.1,0.5,0.3,0.5c0.1,0,0.2-0.2,0.2-0.5h0.3c0.6-0.3,1-0.9,1.3-1.8h0.2c0.1,0,0.2-0.1,0.2-0.3c0-0.2-0.1-0.3-0.2-0.3
		c-0.2,0-0.6,0.2-1.1,0.6c-0.5,0.4-0.9,0.8-1.1,1.1C410.1,110,410,110.1,409.9,110.3z M412.3,72.5l0.2-0.3V72l-0.3-0.5
		c-0.1,0-0.2,0.1-0.3,0.3c-0.1-0.2-0.3-0.1-0.5,0.3v0.3c0.1,0.5,0.2,0.8,0.3,0.8c0.1,0,0.2-0.1,0.2-0.3h0.2c0.1,0,0.2-0.1,0.2-0.3
		H412.3z M413.9,71.3l-0.2-0.3c0-0.3-0.1-0.5-0.3-0.5h-0.2c-0.1,0-0.2,0.1-0.2,0.3c-0.1,0.2-0.1,0.3,0,0.3c0,0.3,0.1,0.6,0.2,0.8
		h0.2h0.2l0.2-0.3L413.9,71.3z M413.9,106.3c-0.1,0.2-0.2,0.3-0.2,0.5c0,0.2,0.1,0.3,0.2,0.3h0.2c0.1,0,0.2,0,0.3-0.1
		c0.1-0.1,0.1-0.1,0.3-0.1c0.4-0.5,0.7-0.8,0.8-0.8v-0.5l-0.3-0.3c-0.1,0-0.3,0.2-0.5,0.5h-0.2C414.3,105.8,414.2,106,413.9,106.3z
		 M416.9,104c-0.1,0.2-0.1,0.3,0,0.5h0.2c0.3,0,0.6-0.3,0.8-0.8v-0.3c-0.1,0-0.2,0-0.2-0.1c0-0.1-0.1-0.1-0.2-0.1l-0.3,0.3
		c-0.1,0-0.2,0.1-0.2,0.3C417.1,104,417.1,104,416.9,104z M422,100.8c-0.2,0-0.4,0-0.7,0c-0.2,0-0.3,0.2-0.3,0.5v0.3
		c0.1,0,0.2,0,0.2,0.1c0,0.1,0.1,0.1,0.2,0.1h0.2h0.2c0.3-0.2,0.5-0.4,0.5-0.8v-0.3H422z M423.6,100.3c0.1,0.2,0.2,0.3,0.3,0.3h0.3
		c0.1,0,0.2-0.1,0.2-0.3h0.2c0.4-0.2,0.7-0.3,0.7-0.5v-0.5c-0.1,0-0.2,0-0.3-0.1c-0.1-0.1-0.1-0.1-0.3-0.1c-0.2,0-0.6,0.2-1,0.5
		l-0.2,0.5V100.3z M427.8,98.3v0.5L428,99h0.3c0.1-0.2,0.2-0.3,0.3-0.3c0.1,0,0.1-0.1,0.3-0.3c0.2,0,0.2-0.2,0-0.5h-0.2h-0.3
		C428.1,98,427.9,98.1,427.8,98.3z"/>
	<path fill="#FFFFFF" d="M429,141.5c-2.6-2.2-4.3-4.8-5.2-7.7c-0.9-3-1.3-6.1-1.2-9.4c0.1-3.3,0.5-6.5,1.2-9.6
		c0.7-3.2,1.3-5.9,2-8.2c1-4,2.3-7.8,3.8-11.5c1.6-3.7,3.3-6.9,5.1-9.7c1.8-2.8,3.8-5.1,5.8-6.9c2-1.8,4-2.7,6-2.9v-0.3
		c1.7-0.8,3.3-1.1,5-0.8c1.4,0.3,2.9,1.2,4.3,2.5c1.4,1.3,2.7,3.8,3.8,7.5c0.1,0.3,0.2,0.7,0.2,1c0,0.8-0.2,1.3-0.5,1.5
		c-0.1,0-0.2,0-0.3,0.1c-0.1,0.1-0.2,0.1-0.4,0.1c0,0.8-0.4,0.9-1.2,0.3c-0.4-0.3-0.8-0.7-1.2-1h-0.2l-2.3-1.8
		c-0.8-0.7-1.6-1.1-2.6-1.4c-0.9-0.3-1.9-0.1-2.9,0.4c-0.1,0.2-0.2,0.3-0.3,0.3c-2.1,1.3-4.5,4.4-7,9.2c-1.1,2-2,3.7-2.8,5.1
		c-0.7,1.4-1.4,3-2,4.6c-0.6,1.7-1.3,3.5-1.9,5.6c-0.7,2.1-1.4,4.9-2.2,8.4c-0.9,3.5-1.4,6.2-1.7,8c-0.2,1.8-0.3,3.2-0.3,4
		c0,1,0.2,1.6,0.5,1.8c1.7-0.5,3.5-2.3,5.6-5.4c2.1-3.1,4.1-6.5,6.1-10.4c2-3.8,3.8-7.6,5.3-11.4c1.6-3.7,2.6-6.4,3.2-7.9
		c0.2-0.8,0.7-2.2,1.4-4c0.7-1.8,1.4-2.9,2.1-3.2c0.2-0.3,0.5-0.6,0.9-0.8c0.4-0.2,0.8-0.1,1.1,0.3c0.6,0.7,0.9,1.4,1.2,2.3l1,1.7
		l0.3,0.5c0.2,0.3,0.5,0.6,0.8,0.9c0.3,0.3,0.5,0.7,0.8,1.4c0.2,1.3,0.3,2.3,0.2,3c0,0.7-0.2,1.3-0.5,1.8c0,0.3,0,0.6-0.1,0.9
		c-0.1,0.3-0.1,0.5-0.1,0.9l-0.5,1.7v0.5c-0.3,2.5-0.6,4.4-0.7,5.8c-0.1,1.3-0.2,2.3-0.3,3c-0.1,0.7-0.2,1.2-0.2,1.5
		c-0.1,0.8-0.3,2.5-0.5,4.9c-0.2,2.4-0.3,5-0.3,7.6c0.1,2.7,0.3,5,0.8,7.1c0.4,2.1,1.3,3.1,2.5,3.1c1.1,0,2.7-1.8,4.8-5.3
		c2.1-3.5,4.3-7.5,6.6-12.1c2.3-4.6,4.4-9.2,6.3-13.7c1.9-4.6,3.4-8,4.3-10.4l0.2-0.3c0.1-0.2,0.2-0.3,0.3-0.5
		c0.1-0.2,0.2-0.4,0.4-0.8c0.2-0.3,0.4-0.5,0.7-0.5c0.4,0.2,0.6,0.7,0.5,1.5c0,0.7-0.1,1.3-0.3,1.8s-0.4,1-0.6,1.5
		c0.4-1,0.8-1.2,1-0.5V98h-0.3l-0.2,0.3c-0.1,0.2-0.2,0.3-0.2,0.5V99c0.1,0.2,0.2,0.3,0.3,0.3c0.1,0,0.2-0.1,0.2-0.3l0.2-0.3
		l0.2-0.3c0,0.3-0.1,0.7-0.3,1c0.6-0.5,0.8-0.3,0.7,0.5c0,0.5-0.1,0.8-0.2,1v0.3c-0.1,0.3-0.2,0.6-0.2,0.7c0,0.2-0.1,0.3-0.2,0.5
		l-0.3,1.3c-0.1,0.2-0.2,0.3-0.2,0.5c-0.1,0.5-0.4,1.3-0.8,2.3c-0.8,2-1.8,4.4-3.1,7.2c-1.3,2.8-2.6,5.7-4,8.6
		c-1.4,2.9-2.8,5.7-4.3,8.4c-1.4,2.7-2.7,4.8-3.8,6.5c-1.2,1.8-2.5,3.1-3.8,3.8c-1.3,0.7-2.5,1-3.6,1c-1.2,0-2.5-0.3-3.8-0.8
		c-0.9-0.5-1.8-1.2-2.7-2c-0.8-0.8-1.6-1.8-2.5-2.9c-0.9-1.1-1.7-2.5-2.5-4.1c-0.6-1-0.9-2.5-1.1-4.6c-0.2-2.1-0.3-4.2-0.3-6.2
		c0-2.1,0-3.9,0.1-5.5c0.1-1.6,0.1-2.5,0.1-2.6c-0.1,0.2-0.7,1.6-1.8,4.4c-1.1,2.8-3,7.4-5.8,13.9c-1.7,3.8-3.2,6.5-4.7,8
		c-1.4,1.5-2.7,2.4-3.8,2.8C431.1,142.6,430,142.4,429,141.5z M430,106.8v0.5h0.3h0.2h0.2c0.1,0,0.2-0.1,0.2-0.3
		c0.1-0.2,0.2-0.7,0.2-1.5v-0.3h0.2v-1H431V104h-0.2c-0.1-0.2-0.3-0.3-0.5-0.3l-0.2,0.3v0.8c-0.1,0-0.1,0.1,0,0.3h0.3
		c0,0.2,0,0.3-0.1,0.4c-0.1,0.1-0.1,0.2-0.1,0.4c-0.2,0.3-0.3,0.6-0.3,0.8V106.8z M431.1,101c-0.1,0-0.2,0.2-0.2,0.5l0.2,0.3
		c0.1,0,0.2,0,0.2,0.1c0,0.1,0.1,0.1,0.2,0.1c0.1,0,0.2-0.1,0.2-0.2h0.2V101l-0.3-0.3h-0.2C431.2,100.8,431.1,100.9,431.1,101z
		 M432,104c0-0.3-0.1-0.5-0.2-0.5c0-0.2-0.1-0.3-0.2-0.3h-0.2l-0.2,0.3c-0.1,0-0.2,0.1-0.2,0.3v0.3c0,0.2,0.1,0.3,0.2,0.3l0.2,0.3
		h0.2c0.1,0,0.2-0.1,0.2-0.3h0.2V104z M432,98.8c-0.2,0.3-0.3,0.6-0.3,0.8l0.2,0.3l0.2,0.3h0.2c0.1,0,0.2-0.1,0.3-0.3v-0.3
		c0.1,0,0.2-0.1,0.2-0.3v-0.5l-0.3-0.5C432.1,98.3,432,98.5,432,98.8z M432.5,97.5c0.2,0.3,0.4,0.5,0.5,0.5c0.2,0,0.4-0.3,0.6-0.8
		s0.3-0.9,0.3-1.3c0-0.2-0.1-0.3-0.2-0.5c0-0.3-0.2-0.3-0.7,0c-0.3,0.5-0.5,1-0.5,1.5V97.5z M438.7,91.3c0.8-1.2,1.3-1.9,1.5-2.2
		c0.2-0.3,0.3-0.7,0.3-1l-0.2-0.3c0-0.2-0.1-0.3-0.2-0.3c-0.4,0-1.5,1.6-3.2,4.7c-0.4,0.5-0.9,1.4-1.3,2.8c-0.2,0.8-0.4,1.4-0.7,1.8
		c-0.6,0.3-1,1.2-1.3,2.5c-0.3,1.3-0.4,2.2-0.4,2.5c-0.1,0.2-0.1,0.3,0,0.5h0.3c0.3,0,0.6-0.4,0.9-1.1c0.3-0.8,0.5-1.5,0.8-2.4
		l0.3-1l0.3-1c0.1-0.5,0.4-1.3,0.8-2.3c0.7-0.7,1.1-1.5,1.3-2.5l0.2-0.3L438.7,91.3z M433.6,94.5c-0.1,0-0.1,0.1,0,0.3h0.2
		c0.4,0,0.8-0.4,1-1.3c0.1,0,0.2,0.1,0.2,0.3l0.2-0.3h0.2v-0.3c0.1,0,0.2-0.1,0.2-0.3l-0.2-0.5c0-0.2,0.1-0.4,0.3-0.8
		c0,0.2,0.1,0.3,0.2,0.3h0.2l0.2-0.3c0.1,0,0.2-0.1,0.2-0.3c0.1,0,0.2-0.1,0.2-0.3v-0.5l-0.2-0.3l0.5-1V90c0.2,0.3,0.4,0.3,0.5-0.3
		c0.6,0,0.8-0.5,0.8-1.5L438,88l1.3-2c0.6-0.8,1.1-1.6,1.6-2.3c0.5-0.7,1.1-1.3,1.8-1.8c0.9-0.7,1.6-1.1,2-1.3h0.2
		c0.1,0,0.3,0,0.7,0s0.6-0.1,0.7-0.3c0.2,0,0.3-0.2,0.3-0.5l-0.2-0.3c-0.1,0-0.2,0-0.3-0.1c-0.1-0.1-0.3-0.1-0.5-0.1
		c-0.2,0-0.5,0-0.8,0.1c-0.3,0.1-0.6,0.1-0.8,0.1c-0.4,0.3-0.9,0.7-1.4,1c-0.5,0.3-0.9,0.7-1.3,1L441,82c-0.3,0.3-0.7,0.6-1,0.9
		s-0.7,0.6-1,1.1c-0.2,0.2-0.5,0.5-0.9,1.1c-0.4,0.6-0.8,1.3-1.3,2.1c0,0.2,0,0.3-0.1,0.3c-0.1,0-0.1,0.1-0.1,0.3l-0.5,1
		c-0.6,0.8-1.1,1.7-1.5,2.7C434.2,92.5,433.9,93.5,433.6,94.5z M437.5,90c0,0.2,0.1,0.3,0.2,0.3c0.2,0,0.3-0.1,0.3-0.3
		c0-0.2-0.1-0.3-0.3-0.3L437.5,90z M441.7,86.5c0.1,0,0.2,0,0.2-0.1c0-0.1-0.1-0.1-0.2-0.1c0-0.3-0.1-0.5-0.3-0.5H441
		c0,0.2-0.1,0.3-0.2,0.3c-0.1,0.2-0.2,0.4-0.2,0.8c0.2,0.3,0.4,0.5,0.5,0.5l0.2-0.3c0.1,0,0.2-0.1,0.2-0.3
		C441.6,86.8,441.7,86.7,441.7,86.5z M443,84.5c-0.1,0-0.2-0.1-0.2-0.3c0-0.2-0.1-0.3-0.3-0.3v0.3h-0.2c-0.1,0.2-0.2,0.3-0.2,0.5V85
		c0.1,0.2,0.2,0.3,0.3,0.3v0.3h0.2l0.2-0.3h0.2V84.5z M454.5,121.8c0-0.2-0.1-0.3-0.2-0.3c-0.6,0-0.9,0.1-1,0.3
		c0.1,0.2,0.2,0.3,0.2,0.5c0,0.3,0.1,0.6,0.2,0.8h0.8v-0.3h0.2l0.2-0.3v-0.3V122v-0.3H454.5z M454.3,124.3h-0.5
		c-0.1,0-0.2,0.1-0.2,0.3h-0.2l0.2,0.3c0.1,0.2,0.2,0.3,0.3,0.3h0.3h0.2v-0.3l-0.2-0.3V124.3z M454.8,119.3l0.2-0.3h-0.2l-0.3-0.3
		h-0.2c-0.2,0-0.3,0.1-0.3,0.3h-0.2v0.3c0,0.3,0.2,0.4,0.7,0.3v-0.3H454.8z M457.7,99.5c0.2-0.8,0.3-1.5,0.3-2.1
		c0-0.6,0.1-1.3,0.3-2.1V95l-0.2-0.3H458c-0.2,0.2-0.4,0.7-0.7,1.5c-0.2,0.8-0.4,1.8-0.7,2.8c-0.2,1.2-0.4,2.5-0.5,4
		c-0.2,1-0.3,1.9-0.3,2.8c-0.2,0.5-0.3,1.1-0.3,1.8c0,0.7-0.1,1.3-0.2,2c-0.4,0.3-0.7,0.8-0.8,1.3c-0.1,0.5-0.1,1-0.1,1.5
		c-0.1,0.3-0.2,0.6-0.2,0.8c-0.1,0.3-0.2,0.7-0.3,1.2c-0.1,0.5-0.1,0.9,0,1.3c0,0.7,0.1,1,0.2,1c0,0.2,0.2,0.3,0.7,0.3
		c0.3-0.2,0.5-0.8,0.5-1.8l-0.2-0.3c0.3-1,0.5-2.1,0.5-3.2c0-0.5,0.1-1,0.2-1.6c0.1-0.6,0.2-1.2,0.2-1.9v-0.3c0-0.2,0.1-0.3,0.2-0.5
		c0-0.5,0.1-0.9,0.3-1.3c-0.1-0.3-0.1-0.6,0-0.9c0.1-0.3,0.1-0.5,0-0.6c0.4-0.8,0.6-1.7,0.6-2.6C457,101,457.2,100.2,457.7,99.5z
		 M471,126.8l0.2,0.3c0.2,0,0.5-0.3,0.8-0.9c0.3-0.6,0.5-1,0.5-1.4v-0.3l-0.2-0.3c-0.3,0-0.6,0.4-0.8,1.2l-0.5,1V126.8z M473,122.5
		v0.5h0.2c0.1,0,0.3-0.1,0.5-0.4c0.2-0.3,0.3-0.5,0.3-0.9v-0.3l-0.2-0.3c-0.1,0-0.3,0.2-0.5,0.5c-0.1,0-0.2,0.1-0.2,0.3
		C473.1,122.2,473,122.4,473,122.5z M474.4,119.8v0.3c0.1,0,0.2,0.1,0.2,0.3c0.1,0,0.2-0.1,0.2-0.3c0.3,0,0.5-0.2,0.5-0.5v-0.3
		c-0.1-0.2-0.2-0.3-0.3-0.3h-0.2c0,0.2-0.1,0.3-0.2,0.3v0.3L474.4,119.8z M476.4,115.8l0.2,0.3h0.2c0.2,0,0.4-0.1,0.5-0.4
		c0.1-0.3,0.2-0.5,0.3-0.6c0.3-0.5,0.5-0.9,0.5-1.3c0-0.3-0.1-0.5-0.3-0.5c-0.2,0-0.5,0.4-0.8,1.1c-0.3,0.8-0.5,1.1-0.6,1.1V115.8z
		 M478.4,112h0.2c0.1,0,0.3-0.2,0.5-0.5c0.2-0.3,0.3-0.6,0.3-0.8l-0.2-0.3l-0.2-0.3c-0.1,0-0.2,0.1-0.3,0.3v0.3l-0.2,0.3
		c-0.1,0.2-0.2,0.3-0.2,0.5V112z M479.7,109c0,0.2,0.1,0.3,0.2,0.3c0.2,0,0.3-0.2,0.3-0.5h0.2c0-0.2,0.1-0.3,0.2-0.5l-0.3-0.5
		c-0.1,0-0.2,0.1-0.3,0.3v0.3l-0.2,0.3V109z M481.7,104.3c-0.1,0.2-0.2,0.3-0.2,0.5c-0.1,0-0.1,0.1,0,0.3v0.3h0.3l0.2-0.3l0.2-0.3
		V104h-0.2C481.8,104,481.7,104.1,481.7,104.3z M483.4,102.3c0.2-0.5,0.3-0.8,0.2-1l-0.2-0.3c-0.1,0-0.2,0-0.2,0.1
		c0,0.1-0.1,0.1-0.2,0.1l-0.3,0.5c-0.1,0.2-0.2,0.3-0.2,0.5v0.3c0.2,0.3,0.4,0.5,0.5,0.5l0.2-0.3c0-0.2,0.1-0.3,0.2-0.3V102.3z"/>
	<path fill="#FFFFFF" d="M498.4,134c1.3-7,2.2-12.4,2.7-16.1c0.4-3.8,0.7-6.2,0.8-7.4V110c-0.4,1.5-1,3.3-1.7,5.2
		c-1,3.2-3,8.3-6,15.2c-1.7,3.8-3.2,6.5-4.5,8s-2.5,2.4-3.3,2.8c-1.1,0.3-2,0.1-2.7-0.8c-2.6-2.2-4.3-4.9-5.3-8.1s-1.5-6.6-1.6-10.1
		c-0.1-3.5,0.2-7,0.8-10.4c0.6-3.4,1.2-6.3,1.8-8.6c1-4,2.4-8.2,4.1-12.7c1.7-4.5,3.6-8.7,5.6-12.6c2-3.9,4.1-7.2,6.3-9.9
		c2.2-2.7,4.3-4.1,6.3-4.2c1.7,0,3.3,0.3,5,1c1.4,0.8,2.9,2.1,4.4,3.7c1.5,1.7,2.8,4.3,3.9,8c0.1,0.3,0.2,0.7,0.2,1
		c0,0.8-0.2,1.3-0.7,1.5l-0.7,0.5c0.1,0.8-0.2,0.9-1,0.3l-1.3-1l-0.2-0.2c-0.2-0.2-0.5-0.4-0.8-0.6s-0.8-0.6-1.3-1.1
		c-0.8-0.5-1.6-0.9-2.6-1.3c-0.9-0.3-2-0.2-3.1,0.5h-0.2c-1.9,1.2-4.2,4.2-7,9.2c-2.2,4-4.1,8.1-5.7,12.2c-1.6,4.2-3.2,9.7-4.8,16.5
		c-0.9,3.5-1.5,6.3-1.8,8.3c-0.3,2-0.4,3.6-0.4,4.7c0,1.3,0.2,2.3,0.5,2.8c1.7-0.5,3.6-2.7,5.8-6.5c2.2-3.8,4.4-8.1,6.6-12.7
		c2.2-4.7,4.1-9.2,5.9-13.6c1.8-4.4,2.9-7.4,3.5-8.9c0.2-0.8,0.7-2.2,1.4-4c0.7-1.8,1.4-3,2.1-3.5c0.2-0.3,0.5-0.5,0.9-0.6
		c0.4-0.1,0.8,0,1.1,0.4c0.6,0.7,0.9,1.3,1.2,2c0.2,0.3,0.4,0.7,0.6,1c0.2,0.3,0.4,0.7,0.6,1l0.2,0.3c0.3,0.3,0.6,0.6,0.8,0.9
		c0.2,0.3,0.4,0.7,0.7,1.4c0.2,1,0.3,2.1,0.2,3.3c0,0.5-0.2,1.1-0.5,1.7c0,0.3,0,0.6-0.1,0.8c-0.1,0.2-0.1,0.4-0.1,0.8
		c-0.2,1-0.3,1.7-0.3,2h-0.2v0.3c-0.7,3.2-1.2,5.7-1.5,7.6c-0.3,1.9-0.6,3.5-0.8,4.6c-0.2,1.3-0.3,2.3-0.3,2.8
		c-0.1,0.8-0.3,1.8-0.5,2.8c-0.2,0.8-0.4,1.9-0.6,3.2c-0.2,1.3-0.4,2.8-0.6,4.3c0.2-0.2,0.4-0.3,0.5-0.5c0.1-0.2,0.3-0.3,0.5-0.5
		c3.2-3.7,5.8-6.5,7.7-8.6c1.9-2.1,3.4-3.8,4.7-5c1.2-1.3,2.3-2.3,3.1-3s1.9-1.5,3.1-2.4l1-0.8h0.7c0.4,0.3,0.5,0.9,0.2,1.8h-0.2
		l-0.2-0.3c-0.2,0-0.4,0.2-0.7,0.5v0.5l0.2,0.3h0.2h0.2c0-0.2,0.1-0.3,0.2-0.3c0.1,0,0.2,0,0.2,0.1c0,0.1,0.1,0.1,0.2,0.1v0.3v-0.3
		l0.2,0.3v0.5v0.3v0.3v0.5c0.1,0.2,0.2,0.3,0.2,0.4c0,0.1,0.1,0.2,0.2,0.4c0,0.2-0.1,0.6-0.3,1.3c-0.4,1-0.8,1.8-1,2.3
		c-0.2,0.5-0.7,1.2-1.3,2c-0.3,0.2-0.9,0.8-1.8,2c-2.2,2.3-4.6,4.8-7.2,7.5c-2.6,2.7-5.6,5.8-9,9.5c-0.6,0.7-1.1,1.3-1.7,1.9
		c-0.6,0.6-1.1,1.1-1.7,1.6c-0.2,0.8-0.4,1.5-0.4,2.1c-0.1,0.6-0.2,1.2-0.4,1.9c-1,5.3-2.1,11-3.3,17c-1.2,6-2.4,11.7-3.8,17.2
		c-1.3,5.5-2.7,10.5-4.2,15c-1.4,4.5-2.9,8.1-4.3,10.7c-1.9,3.3-4.1,7-6.5,11c-2.4,4-5.2,7.7-8.3,11c-3.1,3.3-6.5,6-10.2,8
		c-3.7,2-7.8,2.7-12.3,2c-4.2-3.5-6.6-8.2-7.2-14c-0.2-2.5-0.1-5.4,0.4-8.6c0.5-3.2,1.6-6.9,3.3-10.9c1.7-4,4.1-8.5,7.3-13.4
		c3.2-4.9,7.3-10.3,12.3-16.1c5.6-6.3,10.7-12.2,15.3-17.5C490.3,143.5,494.5,138.5,498.4,134z M486.7,182.5
		c2-7.2,3.8-13.7,5.3-19.7c1.5-6,2.8-11.4,3.9-16.2c-6,6.5-11.7,12.9-17,19.2c-5.3,6.3-9.6,11.7-12.7,16c-4,5.8-6.9,10.8-8.8,14.9
		c-1.8,4.1-2.9,7.6-3.3,10.5c-0.4,2.9-0.4,5.2,0.1,6.9c0.4,1.7,0.9,2.8,1.3,3.5c0.4,0.7,2,0.3,4.7-1.3c2.7-1.5,5.7-3.8,9.2-7
		c3.5-3.2,6.8-7,10.1-11.6C482.8,193.1,485.2,188,486.7,182.5z M460.2,220.5c1.2-0.5,2.5-1.2,3.7-2c1.2-0.8,2.5-1.7,3.7-2.5l0.3-0.3
		c0.8-0.7,1.6-1.3,2.4-2c0.8-0.7,1.5-1.4,2.1-2.3v-0.3c0-0.2-0.1-0.3-0.2-0.3c0-0.2-0.1-0.2-0.2,0c-0.1,0-0.3,0.2-0.7,0.5
		c-0.3,0.3-0.7,0.7-1.2,1c-1.8,1.3-2.8,2.2-3,2.5l-0.3,0.3c-0.6,0.5-1.2,1-1.8,1.4c-0.7,0.4-1.3,0.7-1.8,0.9H463
		c-0.3,0-0.7,0.1-1,0.3c-0.3,0.2-0.7,0.3-1,0.5c-0.1,0-0.2,0-0.2,0.1c0,0.1-0.1,0.1-0.2,0.1c-0.4,0-0.9,0.2-1.3,0.5
		c-0.6,0.3-0.8,0.6-0.8,0.8c0.1,0.3,0.3,0.5,0.6,0.6c0.3,0.1,0.5,0.1,0.6,0.1H460.2z M463.9,225.3l-0.2-0.3c0-0.2-0.1-0.3-0.2-0.3
		c-0.2,0-0.6,0.1-1.1,0.3c-0.5,0.2-0.9,0.4-1.1,0.8c-0.4,0-0.6,0.2-0.3,0.5c0,0.2,0.2,0.3,0.5,0.3h0.5c0.2,0,0.5-0.1,0.8-0.3
		C463.4,225.9,463.8,225.6,463.9,225.3z M481.1,204.8l-0.2-0.3c-0.2,0-0.5,0.2-0.8,0.5c-0.3,0.3-1,1.3-2.3,3c0,0.2,0,0.3-0.1,0.3
		c-0.1,0-0.1,0.1-0.1,0.3c-0.3,0.2-0.8,0.8-1.5,1.8c-0.4,0.7-0.8,1.1-1,1.3l-3,3c-0.9,0.8-1.8,1.7-2.7,2.5c-0.9,0.8-1.8,1.6-2.7,2.2
		c-0.4,0.5-1.2,1.1-2.3,1.8c-0.1,0-0.2,0-0.3,0.1c-0.1,0.1-0.2,0.1-0.3,0.1c-0.1,0-0.2,0-0.3,0.1c-0.1,0.1-0.1,0.1-0.3,0.1
		c-0.2,0.2-0.5,0.3-0.8,0.5c-0.3,0.2-0.5,0.3-0.8,0.3c-0.4,0.2-0.7,0.4-0.7,0.8c0,0.3,0.1,0.5,0.3,0.5c0.2,0,0.6-0.1,1.1-0.3
		c0.5-0.2,0.9-0.4,1.1-0.8c1-0.5,2.5-1.4,4.3-2.8c0.2-0.2,0.4-0.3,0.6-0.4c0.2-0.1,0.4-0.2,0.6-0.4c0.3-0.3,0.7-0.6,1-0.8
		c0.3-0.2,0.7-0.4,1.2-0.7c0.1-0.2,0.2-0.3,0.3-0.3c0.1,0,0.1-0.1,0.3-0.3c0.4-0.3,0.8-0.8,1.2-1.3c0.1,0,0.2,0,0.3-0.1
		c0.1-0.1,0.1-0.1,0.3-0.1c0.9-1,1.4-1.7,1.5-2c0-0.2,0.1-0.4,0.3-0.6c0.2-0.3,0.4-0.5,0.7-0.6l0.3-0.5c0.2-0.2,0.4-0.3,0.4-0.5
		c0.1-0.2,0.2-0.3,0.4-0.5l0.7-1c0.3-0.2,0.6-0.5,0.7-1c0.4-0.3,0.9-0.8,1.3-1.5c0.4-0.7,0.8-1.3,1.2-2V205V204.8z M467,223.8
		c0.2-0.3,0.2-0.5,0-0.5c0-0.5-0.2-0.5-0.7,0h-0.2l-0.3,0.3c-0.3,0-0.5,0.3-0.5,0.8v0.3h0.2h0.2c0.1-0.2,0.3-0.3,0.5-0.3
		C466.6,224.3,466.9,224.1,467,223.8z M469.5,222.3l0.2-0.5l-0.2-0.5h-0.3v0.3h-0.3c-0.1,0.2-0.2,0.4-0.2,0.8c0,0.3,0.1,0.5,0.2,0.5
		c0.1,0,0.2,0,0.2-0.1c0-0.1,0.1-0.1,0.2-0.1h0.2C469.5,222.5,469.5,222.4,469.5,222.3z M472.9,209.8c0.2,0.5,0.4,0.8,0.5,0.8v-0.3
		h0.2l0.2-0.3c0.1,0,0.2-0.1,0.2-0.3l0.2-0.3v-0.3c0-0.3-0.1-0.5-0.3-0.5c-0.1,0-0.2,0.1-0.3,0.3c-0.1,0-0.3,0.2-0.5,0.5V209.8z
		 M475.4,217.8c0.2-0.3,0.3-0.7,0.3-1l-0.3-0.3c-0.4,0-0.8,0.3-1.2,0.8l-0.2,0.3c-0.1,0-0.2,0-0.2,0.1c0,0.1-0.1,0.1-0.2,0.1
		l-0.3,0.5h-0.2v0.5v0.5l0.2,0.3c0.1,0,0.2-0.1,0.2-0.3c0.2,0,0.5-0.2,0.9-0.5C474.9,218.4,475.2,218.1,475.4,217.8z M474.7,207
		c0,0.2,0.1,0.3,0.2,0.5l0.3,0.5c0.1,0,0.2-0.1,0.2-0.3h0.2v-0.3h0.2v-0.3c0-0.5-0.2-0.8-0.5-0.8c-0.1,0-0.2,0-0.2,0.1
		c0,0.1-0.1,0.1-0.2,0.1L474.7,207z M478.6,213.5h-0.3h-0.2c-0.1,0-0.2,0-0.2,0.1c0,0.1-0.1,0.1-0.2,0.1l-0.2,0.3h-0.2
		c0,0.2-0.1,0.3-0.2,0.5c-0.1,0.2-0.2,0.3-0.2,0.5c-0.1,0-0.2,0.1-0.2,0.3c0.1,0.2,0.2,0.3,0.3,0.3c0.7-0.3,1.1-0.8,1.3-1.5V213.5z
		 M480.7,211.3l-0.3-0.5h-0.3v0.3l-0.2,0.3v0.3c-0.1,0-0.2,0.2-0.2,0.5l0.2,0.3c0.2,0,0.4-0.1,0.5-0.3l0.3-0.5V211.3z M483.9,206.8
		c0.1,0,0.2,0,0.2-0.1c0-0.1-0.1-0.1-0.2-0.1c0-0.2-0.1-0.2-0.2-0.2c-0.3,0-0.6,0.1-0.7,0.2c0,0.2-0.1,0.3-0.2,0.5
		c0,0.2,0.1,0.4,0.3,0.8h0.2l0.2-0.3l0.2-0.3c0-0.2,0.1-0.3,0.2-0.3V206.8z M486.2,202.3c-0.1-0.2-0.2-0.3-0.3-0.3
		c-0.2,0-0.4,0.1-0.5,0.3c0,0.2,0,0.3-0.1,0.3c-0.1,0-0.1,0.1-0.1,0.3c-0.3,0-0.5,0.3-0.5,1c0,0.5,0.2,0.8,0.5,0.8h0.2l0.2-0.3V204
		c0.1,0,0.2,0,0.2-0.1c0-0.1,0.1-0.1,0.2-0.1v-0.3v-0.3c0.2,0,0.3-0.2,0.3-0.5V202.3z M488.2,197.8c-0.2-0.3-0.5-0.3-0.8,0.3
		c-0.1,0-0.2,0.1-0.2,0.3v0.5c0,0.3,0.1,0.5,0.3,0.5h0.2l0.2-0.3v-0.3c0.1,0,0.2-0.1,0.2-0.3v-0.3l0.2-0.3V197.8z M490.1,89
		c-0.2,0.3-0.3,0.8-0.3,1.5c0.2,0.3,0.4,0.5,0.7,0.5c0.1,0,0.2-0.1,0.3-0.3c0.2-0.3,0.3-0.6,0.3-0.7c0-0.3,0.1-0.7,0.3-1
		c0.2-0.8,0.3-1.3,0.3-1.5c0-0.2,0.2-0.5,0.5-1l0.2-0.3c0.1-0.3,0.2-0.6,0.3-0.9c0.1-0.3,0.2-0.5,0.3-0.9c0.2-0.3,0.4-0.7,0.4-1
		c0.1-0.3,0.2-0.7,0.4-1c0.6-1,1.1-1.9,1.5-2.6c0.4-0.8,0.9-1.5,1.3-2.4l0.2-0.3c0.4-0.5,0.7-0.9,0.7-1.3c0-0.2-0.1-0.3-0.2-0.3
		l-0.2-0.3c-0.2,0-0.5,0.2-0.8,0.6c-0.3,0.4-0.5,0.8-0.6,1.1c-0.2,0.2-0.8,1-1.7,2.5c0,0.2-0.1,0.3-0.2,0.5
		c-0.2,0.3-0.4,0.8-0.6,1.3s-0.4,0.9-0.6,1.3c-0.2,0.3-0.4,0.6-0.4,0.8c-0.1,0.2-0.2,0.4-0.4,0.8c-0.3,0.8-0.7,1.6-1,2.4
		S490.4,88.2,490.1,89z M490.1,82.8l0.2,0.3h0.2c0.6-0.2,1.1-0.9,1.5-2.3c0.1-0.2,0.2-0.3,0.3-0.5c0.1-0.2,0.1-0.3,0.3-0.5
		c0.2-0.2,0.4-0.4,0.5-0.6c0.1-0.3,0.3-0.5,0.5-0.9c0.2-0.7,0.4-1.1,0.5-1.3c0.2-0.3,0.5-0.7,0.8-1c0.3-0.3,0.6-0.7,0.9-1
		c0.6-0.8,1.1-1.7,1.8-2.5c0.6-0.8,1.3-1.5,1.9-2c0.2,0,0.7-0.3,1.5-1l0.7-0.5h0.7c0.2-0.2,0.5-0.3,0.8-0.3c0.3-0.2,0.5-0.4,0.5-0.8
		c0-0.2-0.2-0.3-0.7-0.3h-1.2c-0.6,0.2-1.1,0.5-1.6,0.9c-0.5,0.4-1,0.8-1.6,1.1c-0.4,0.3-0.9,0.6-1.3,0.9c-0.4,0.3-0.8,0.7-1.2,1.4
		c-0.3,0.3-0.6,0.8-0.8,1.3c-0.1,0-0.2,0.1-0.2,0.3c-0.1,0-0.2,0.1-0.2,0.3l-0.5,0.8c-0.1,0.2-0.2,0.4-0.3,0.8
		c-0.4,0.3-0.9,1.1-1.5,2.3l-1,2c0,0.2-0.1,0.3-0.2,0.5c-0.2,0.3-0.4,0.8-0.6,1.3s-0.4,0.9-0.6,1.3V82.8z M498.9,74.8
		c0.1,0,0.2-0.1,0.2-0.3v-0.3l-0.3-0.5c-0.2,0-0.3,0.1-0.3,0.3c-0.1,0-0.3,0.2-0.5,0.5v0.3l0.3,0.5h0.2l0.2-0.3h0.2L498.9,74.8z
		 M500.6,73c0-0.2-0.1-0.3-0.2-0.3c0-0.2-0.1-0.3-0.2-0.3c0-0.2-0.1-0.3-0.2-0.3c-0.1,0-0.2,0.1-0.3,0.3c-0.1,0-0.2,0.1-0.2,0.3V73
		l0.3,0.5h0.2h0.2l0.2-0.3L500.6,73z M511.8,122.3c-0.2,0-0.6,0.3-1,0.8c-0.4,0.5-0.7,0.9-0.8,1.3v0.3l0.2,0.3h0.2
		c0.2,0,0.5-0.3,0.9-0.8c0.4-0.5,0.6-0.9,0.8-1.3v-0.3L511.8,122.3z M512.8,121.3l0.2,0.3c0.1,0,0.3-0.1,0.6-0.3
		c0.3-0.2,0.5-0.4,0.6-0.8V120c-0.1-0.2-0.2-0.3-0.3-0.3l-0.3,0.3l-0.2,0.3c-0.1,0.2-0.2,0.3-0.3,0.3c-0.1,0-0.1,0.1-0.3,0.3v0.3
		V121.3z M515.3,118c-0.3,0.5-0.4,0.8-0.3,0.8c0,0.2,0.1,0.3,0.2,0.3c0.2,0,0.4-0.2,0.7-0.5v-0.3V118l-0.2-0.3
		C515.5,117.8,515.4,117.9,515.3,118z M518,115.3c0,0.2,0.1,0.3,0.2,0.3h0.2c0.2,0,0.6-0.2,1-0.5c0.4-0.3,0.7-0.7,0.7-1
		c0.1-0.2,0.1-0.3,0-0.5l-0.2-0.2c-0.2,0-0.6,0.2-1,0.7c-0.4,0.5-0.7,0.8-0.8,1V115.3z M521,112.5h0.2c0.7-0.3,1-0.7,1-1
		c0.1,0,0.2,0,0.2-0.1c0-0.1-0.1-0.1-0.2-0.1c0-0.2-0.1-0.3-0.2-0.3c-0.1,0-0.3,0.1-0.5,0.3c0,0.2-0.1,0.3-0.2,0.3
		c-0.1,0-0.2,0.1-0.3,0.3v0.5V112.5z M523.5,109.3c-0.4,0-0.6,0.3-0.3,0.8c0,0.2,0.1,0.3,0.2,0.3c0.2,0,0.4-0.2,0.7-0.5v-0.3v-0.3
		l-0.2-0.3C523.7,109,523.6,109.1,523.5,109.3z M526,107l0.3,0.5c0.1,0,0.2-0.1,0.2-0.3l0.3-0.5v-0.5h-0.2c-0.2,0-0.4,0.2-0.7,0.5
		V107z M527.8,104.8c-0.1,0.2-0.1,0.3,0,0.3c0,0.3,0.1,0.6,0.3,0.8l0.2-0.3l0.2-0.3h0.2l0.2-0.3l0.2-0.3V104
		c-0.2-0.3-0.4-0.3-0.7,0.3C528,104.3,527.8,104.5,527.8,104.8z"/>
	<path fill="#FFFFFF" d="M547,70.3c0.9-0.2,1.7-0.1,2.5,0.3c0.7,0.3,1.3,0.8,2,1.3s1.3,1.3,1.8,2.3c0.1,0.2,0.2,0.3,0.2,0.4
		c0,0.1,0.1,0.2,0.2,0.4c0.4,1.2,0.8,2.5,1.1,4c0.3,1.5,0.5,2.9,0.8,4.3v0.5c0.3,2,0.4,4.1,0.2,6.3c-0.2,2.2-0.5,4-0.9,5.6
		c-0.4,1.6-0.8,3-1.1,4.1c-0.4,1.3-0.9,2.5-1.3,3.5c-1.8,4-3.7,7.3-5.7,10c-2,2.7-4,4.8-5.8,6.5c-1.9,1.7-3.6,3-5.2,3.9
		c-1.6,0.9-2.8,1.5-3.7,1.9c-0.1,0.3-0.2,0.6-0.2,0.8v0.3v1.3c-0.1,0.8-0.1,1.7,0,2.5c0,1.8,0.3,3.3,1,4.5c0.6,1.2,1.4,1.8,2.5,1.8
		h1.8c0.4,0,0.8,0,1.2-0.1c0.3-0.1,0.6-0.1,0.7-0.1c0.9-0.2,2-0.5,3.4-0.9c1.4-0.4,3.4-1.9,5.9-4.4c3.4-3.5,6.4-7,8.8-10.5
		c2.4-3.5,4.2-6.3,5.4-8.2c1-1.8,1.5-2.7,1.5-2.5c0.6-0.8,1.1-1.7,1.5-2.5c0.4-0.8,0.8-1.5,1.2-2l0.2-0.3l0.7-1l0.7-0.5
		c0.4,0.2,0.6,0.8,0.5,1.8c-0.3,1-0.8,2-1.5,3c0.6-0.8,0.9-1,1.2-0.5v0.3c-0.1,0.8-0.2,1.3-0.2,1.4c0,0.1-0.1,0.4-0.3,0.9
		c0.2-0.2,0.4-0.3,0.5-0.3c0.2,0,0.3,0.3,0.2,0.8c-0.1,0.2-0.2,0.3-0.2,0.4c0,0.1-0.1,0.2-0.2,0.4v0.3l-0.2,0.3
		c0,0.2-0.1,0.6-0.3,1.3l-0.7,1v0.3c-0.1,0.2-0.4,0.6-0.8,1.3c-0.4,0.7-0.9,1.4-1.4,2.3c-0.9,1.5-2.1,3.3-3.5,5.4
		c-1.4,2.1-3.1,4.2-4.9,6.4c-1.8,2.2-3.8,4.3-5.9,6.3c-2.1,2-4.2,3.6-6.3,4.7c-1.1,0.7-2.8,1.2-4.9,1.5c-2.2,0.3-3.8,0.6-4.8,0.8
		h-0.2h-0.7h-0.3H533c-0.4-0.2-1.3-0.4-2.4-0.8c-1.2-0.3-2.4-1.2-3.8-2.5c-0.6-0.7-1.1-1.4-1.8-2.1c-0.6-0.7-1.2-1.7-1.8-2.9
		c-0.8-1.8-1.1-4.2-1.1-7.1c0.1-2.9,0.7-7.3,1.9-13.1c0.2-1.3,0.5-2.9,0.9-4.6c0.4-1.8,0.9-3.6,1.4-5.6c2.1-7.5,4.9-14.5,8.3-21
		C538.3,76.5,542.3,72.3,547,70.3z M528.5,112.8c0-0.2,0-0.3-0.1-0.3c-0.1,0-0.1-0.1-0.1-0.3h-0.7h-0.2l-0.2,0.3v0.3v0.3v0.3v0.2
		c0,0.2,0.1,0.3,0.2,0.5h0.3h0.3l0.2-0.3v-0.3v-0.2h0.2V112.8z M529,111.3l-0.2-0.3c-0.1,0-0.2-0.1-0.3-0.3c0.1,0,0.2-0.1,0.2-0.3
		c0-0.3-0.2-0.5-0.5-0.5v-0.3c-0.1,0-0.2,0.1-0.2,0.3h-0.2v0.3v0.3v0.3c0,0.2,0.1,0.3,0.2,0.3l0.2,0.3v0.3c0,0.3,0.2,0.6,0.5,0.8
		c0.1,0,0.2,0,0.2-0.1c0-0.1,0.1-0.1,0.2-0.1v-0.3v-0.3V111.3z M529.5,106.8v-0.3h-0.2c-0.2-0.2-0.4-0.2-0.5,0
		c-0.1,0-0.2,0.2-0.2,0.5v0.3c0,0.2,0.1,0.3,0.3,0.3h0.2h0.2c0.1,0,0.2-0.1,0.2-0.3V107V106.8z M530.2,104.3c0.1,0,0.1-0.1,0-0.3
		c0-0.2-0.1-0.3-0.2-0.3c0-0.2-0.1-0.3-0.2-0.3h-0.2c-0.1,0.2-0.2,0.3-0.2,0.5c-0.2,0.3-0.3,0.7-0.3,1c0.1,0,0.2,0.1,0.2,0.3
		c0,0.2,0.1,0.3,0.3,0.3h0.2l0.2-0.5v-0.3c0.1,0,0.2-0.1,0.2-0.3V104.3z M530,102.3c0,0.2,0.1,0.3,0.2,0.5h0.2
		c0.3,0,0.6-0.3,0.8-0.9c0.2-0.6,0.3-1,0.3-1.4l-0.2-0.3c-0.4-0.3-0.8-0.1-1,0.8c-0.1,0-0.2,0.2-0.3,0.5
		C529.8,101.9,529.9,102.1,530,102.3z M531.7,97.8v0.8h0.2c0.1,0,0.3-0.1,0.5-0.3V98c0.1-0.2,0.2-0.3,0.2-0.4c0-0.1,0.1-0.2,0.2-0.4
		c0.1-0.2,0.2-0.3,0.2-0.4c0-0.1,0.1-0.2,0.2-0.4c0-0.2,0.1-0.3,0.2-0.5c0.1-0.2,0.2-0.3,0.2-0.5c0-0.2,0.1-0.3,0.2-0.3V95h0.2
		l-0.2-0.3c0.1-0.2,0.3-0.7,0.7-1.5c0.4-0.3,0.8-0.8,1-1.5v-0.5c0.2-0.3,0.4-0.8,0.7-1.2c0.2-0.5,0.4-0.9,0.7-1.3l0.3-1
		c0.2-0.3,0.6-0.9,1-1.8c0.1-0.2,0.2-0.3,0.2-0.4c0-0.1,0.1-0.2,0.2-0.4l1.3-2c0.3-0.5,0.6-1,0.9-1.4c0.3-0.4,0.6-0.9,1.1-1.4
		c0.2-0.2,0.4-0.3,0.5-0.5c0.1-0.2,0.3-0.3,0.5-0.5l0.2-0.8c0-0.2-0.1-0.2-0.2-0.2c-0.2,0-0.5,0.1-0.8,0.4c-0.3,0.3-0.5,0.5-0.8,0.9
		c-0.1,0-0.6,0.5-1.3,1.4c-0.8,0.9-1.3,1.7-1.5,2.4c-0.1,0.2-0.2,0.3-0.3,0.3c-0.1,0-0.1,0.1-0.3,0.3c-0.7,0.5-1.2,1.3-1.5,2.3
		c-0.7,1.2-1.3,2.5-1.8,4l-0.2,0.2c-0.3,0.8-0.7,1.8-1.1,3c-0.4,1.2-0.8,2.2-1.1,3v0.3c-0.1,0-0.2,0.1-0.2,0.3v0.3L531.7,97.8z
		 M532.5,105c0.4,0,1.1-1.5,1.8-4.5l0.3-1c0.1-0.3,0.4-1,0.8-2c0.4-1,0.8-2,1.3-3.1c0.5-1.1,0.9-2.1,1.3-3.1c0.4-1,0.6-1.6,0.8-1.7
		c0.1,0,0.2-0.1,0.2-0.3c0-0.2-0.1-0.3-0.2-0.5h-0.2c-0.1,0-0.3,0.2-0.6,0.5c-0.3,0.3-0.7,1.2-1.3,2.5l-0.2,0.3
		c-0.3,0.8-0.7,1.7-1.1,2.5c-0.4,0.8-0.8,1.9-1.3,3.3c-0.1,0.2-0.3,0.5-0.5,1.1c-0.2,0.6-0.5,1.3-0.8,2c-0.3,0.8-0.5,1.5-0.7,2.1
		c-0.2,0.7-0.3,1.2-0.3,1.5c0,0.2,0.1,0.3,0.2,0.3L532.5,105z M550.2,83c0-2.3-0.3-3.5-1-3.5c-0.3,0-1.4,1.3-3.1,3.8
		c-1.7,2.5-3.6,6-5.6,10.5c-1.3,2.8-2.6,6-3.8,9.6c-1.2,3.6-2.3,7.5-3.2,11.9c0.7,0,1.2-0.1,1.5-0.3c0.6-0.3,1.5-1,2.9-2
		c1.4-1,2.7-2.1,3.9-3.3c1.9-2.3,3.4-4.8,4.5-7.5c1.1-2.7,1.9-5.2,2.5-7.5c0.7-2.7,1.1-5.2,1.3-7.7V83z M540.2,87l-0.3-0.3l-0.2,0.3
		c-0.1,0-0.3,0.2-0.5,0.5V88c0.2,0.2,0.4,0.3,0.5,0.3h0.2c0-0.2,0.1-0.3,0.2-0.3l0.2-0.3c0.1-0.2,0.2-0.3,0.2-0.5L540.2,87z
		 M541.5,85.5c0-0.2-0.1-0.3-0.2-0.3c-0.1-0.2-0.2-0.3-0.3-0.3c-0.2,0-0.3,0.2-0.3,0.5v0.3l0.3,0.5h0.2l0.2-0.3h0.2v-0.3V85.5z
		 M549.9,132.8h0.2c0,0.2,0.1,0.3,0.2,0.3c0.2,0,0.5-0.2,0.8-0.5c0.3-0.3,0.6-0.7,0.7-1V131h-0.2c-0.2,0-0.5,0.2-0.9,0.5
		c-0.4,0.3-0.6,0.6-0.8,0.8V132.8z M552.5,129.5v0.5v0.3h0.2c0.4,0,0.8-0.3,1-1v-0.5h-0.3L553,129
		C552.9,129,552.8,129.2,552.5,129.5z M554.5,127c-0.2,0.3-0.3,0.6-0.2,0.8c0,0.2,0.1,0.3,0.2,0.3c0.3,0,0.5-0.2,0.5-0.5
		c0.1,0,0.2-0.2,0.2-0.5c-0.1,0-0.2-0.1-0.2-0.3h-0.2h-0.2C554.7,127,554.6,127,554.5,127z M556.9,124.3v0.3h0.2
		c0.2,0,0.5-0.2,0.9-0.6c0.4-0.4,0.6-0.8,0.8-1.1c0-0.2,0-0.3-0.1-0.3c-0.1,0-0.1-0.1-0.1-0.3h-0.2c-0.2,0-0.5,0.3-0.8,0.8
		s-0.6,0.8-0.7,1V124.3z M559.4,120.5c-0.1,0.2-0.2,0.3-0.2,0.5c0,0.2,0.1,0.3,0.2,0.3c0.2,0,0.4-0.1,0.6-0.4s0.3-0.5,0.4-0.6v-0.5
		H560l-0.3,0.3l-0.2,0.3L559.4,120.5z M561,118c-0.1,0.2-0.2,0.4-0.2,0.8l0.3,0.3c0.1,0,0.2-0.1,0.3-0.3c0-0.2,0.1-0.3,0.2-0.5V118
		c0-0.2-0.1-0.3-0.3-0.3h-0.2v0.3H561z M563.2,115c-0.1,0.2-0.1,0.3,0,0.5l0.2,0.3h0.2l0.2-0.3l0.2-0.3v-0.5c0-0.2-0.2-0.2-0.5,0
		C563.3,114.8,563.2,114.9,563.2,115z M564.4,113l0.2,0.3c0,0.3,0.1,0.5,0.3,0.5c0.1,0,0.2-0.1,0.2-0.3h0.2c0-0.2,0.1-0.2,0.2-0.2
		V113c0.1-0.2,0.2-0.4,0.2-0.8c-0.1-0.2-0.3-0.2-0.7,0L564.4,113z M566.6,110c0,0.2,0.1,0.3,0.2,0.5h0.2h0.2c0-0.2,0.1-0.3,0.2-0.3
		V110l0.2-0.3v-0.3c-0.1-0.2-0.2-0.3-0.3-0.3c-0.2,0-0.3,0.2-0.3,0.5L566.6,110z"/>
</g>
</svg>
