<?xml version="1.0" encoding="utf-8"?>
<!-- Generator: Adobe Illustrator 18.1.1, SVG Export Plug-In . SVG Version: 6.00 Build 0)  -->
<svg version="1.1"
	 id="svg2816" xmlns:svg="http://www.w3.org/2000/svg" xmlns:cc="http://creativecommons.org/ns#" xmlns:rdf="http://www.w3.org/1999/02/22-rdf-syntax-ns#" xmlns:inkscape="http://www.inkscape.org/namespaces/inkscape" xmlns:sodipodi="http://sodipodi.sourceforge.net/DTD/sodipodi-0.dtd" xmlns:dc="http://purl.org/dc/elements/1.1/" inkscape:version="0.47 r22583" sodipodi:docname="pin.svg"
	 xmlns="http://www.w3.org/2000/svg" xmlns:xlink="http://www.w3.org/1999/xlink" x="0px" y="0px" viewBox="0 0 46.4 64.3"
	 xml:space="preserve">
<defs>
	
	
		<inkscape:perspective  id="perspective2824" inkscape:vp_y="0 : 1000 : 0" sodipodi:type="inkscape:persp3d" inkscape:vp_x="0 : 0.5 : 1" inkscape:vp_z="1 : 0.5 : 1" inkscape:persp3d-origin="0.5 : 0.33333333 : 1">
		</inkscape:perspective>
</defs>
<sodipodi:namedview  id="namedview2818" inkscape:zoom="3.0991164" pagecolor="#ffffff" inkscape:cx="44.920355" guidetolerance="10" gridtolerance="10" borderopacity="1" inkscape:cy="60.493358" showgrid="false" objecttolerance="10" bordercolor="#666666" inkscape:window-height="809" inkscape:pageshadow="2" inkscape:window-width="1126" inkscape:window-maximized="0" inkscape:current-layer="svg2816" inkscape:pageopacity="0" inkscape:window-y="0" inkscape:window-x="287">
	</sodipodi:namedview>
<path id="path4127" sodipodi:nodetypes="ccccccccccsc" fill="#98FF98" fill-opacity="0.9882" d="M-430.2,312.3
	c-0.2-0.4-3.2-3.3-5.3-6c-12.7-16.9-27-32.6-10.4-51.7c7.4-7.1,16.4-7.5,25.7-4.2c26.2,15.2,7.3,39.9-5.2,56.2L-430.2,312.3z
	 M-422.3,286.4c17.5-12.5,4-36.6-15.2-28.6c-5.6,3-8.4,8.2-8.5,14.3c-0.3,6,2.9,11,7.9,14c3.6,1.9,5.2,2.3,9.2,2.1
	C-426.2,288.1-424.6,287.6-422.3,286.4z"/>
<path id="path4129" sodipodi:type="arc" sodipodi:cy="49.05526" sodipodi:start="1.7808687" sodipodi:end="8.0386371" sodipodi:rx="51.222816" sodipodi:ry="41.754009" sodipodi:open="true" sodipodi:cx="52.363636" fill="#98FF98" fill-opacity="0.9882" d="
	M-435.2,292.4c-12.4-2.6-20.3-14.5-17.7-26.6c2.7-12.1,14.9-19.9,27.3-17.3c12.4,2.6,20.3,14.5,17.7,26.6
	c-2.6,11.9-14.5,19.6-26.7,17.4"/>
<path id="path4131" sodipodi:type="arc" sodipodi:cy="48.59893" sodipodi:start="1.7808687" sodipodi:end="8.0386371" sodipodi:rx="26.010695" sodipodi:ry="20.991087" sodipodi:open="true" sodipodi:cx="49.05526" opacity="0.3402" fill-opacity="0" enable-background="new    " d="
	M-431.5,282.9c-7.1-1.2-11.7-6.9-10.2-12.7c1.5-5.8,8.6-9.5,15.8-8.3c7.2,1.2,11.7,6.9,10.2,12.7c-1.5,5.7-8.3,9.3-15.4,8.3"/>
<path id="path4135" sodipodi:type="arc" sodipodi:cy="102.78788" sodipodi:start="1.7808687" sodipodi:end="8.0386371" sodipodi:rx="16.655972" sodipodi:ry="11.750445" sodipodi:open="true" sodipodi:cx="35.365417" fill="#000080" fill-opacity="0" d="
	M-437.6,306c-4.6-0.7-7.5-3.9-6.5-7.1c1-3.2,5.5-5.3,10.1-4.6c4.6,0.7,7.5,3.9,6.5,7.1c-1,3.2-5.4,5.3-9.9,4.6"/>
<path id="path4149" sodipodi:type="arc" sodipodi:cy="52.021389" sodipodi:start="1.7808687" sodipodi:end="8.0386371" sodipodi:rx="34.452763" sodipodi:ry="33.540108" sodipodi:open="true" sodipodi:cx="52.705883" fill="#CCFFCC" d="
	M-433.7,289.2c-9.2-2-15.1-11.4-13.1-20.9c1.9-9.5,11-15.6,20.3-13.5c9.2,2,15.1,11.4,13.1,20.9c-1.9,9.3-10.7,15.4-19.8,13.6"/>
<path id="path4184" sodipodi:type="arc" sodipodi:cy="68.789574" sodipodi:start="1.7808687" sodipodi:end="8.0386371" sodipodi:rx="34.203297" sodipodi:ry="36.623341" sodipodi:open="true" sodipodi:cx="64.211853" fill="#FFFFFF" d="
	M-432.7,283.1c-6.1-1.3-10-7.5-8.7-13.7c1.3-6.2,7.3-10.2,13.4-8.9s10,7.5,8.7,13.7c-1.3,6.1-7.1,10.1-13.1,8.9"/>
<g>
	<g>
		<path d="M-421.3,270.2c1.8,0,3.2,1.4,3.2,3.2c0,1.8-1.4,3.2-3.2,3.2s-3.2-1.4-3.2-3.2C-424.5,271.7-423.1,270.2-421.3,270.2z"/>
		<path d="M-426.7,259.1c1.8,0,3.2,1.4,3.2,3.2s-1.4,3.2-3.2,3.2s-3.2-1.4-3.2-3.2C-430,260.6-428.5,259.1-426.7,259.1z"/>
		<path d="M-417.4,276.9l-3.2,1.1c-0.5,0.2-1.3,0.1-1.8-0.2l-2.5-1.4c0.1-0.3,0.2-0.5,0.2-0.8c0-1.1-0.9-2.1-2.1-2.1h-8.2
			c-0.3,0-5.6,0-5.6,0h-0.1c-1.1,0-2.1,0.9-2.1,2.1c0,1.1,0.9,2.1,2.1,2.1h12.8l4.2,2.4c0.7,0.4,1.6,0.6,2.5,0.6
			c0.5,0,1-0.1,1.4-0.2l3.2-1.1c0.7-0.2,1.1-1,0.8-1.6C-416.1,277-416.8,276.7-417.4,276.9z"/>
		<path d="M-432.1,265.5c-0.3,0.3-2.6,2.7-2.9,7.6h4.1c0.1-0.8,0.2-1.5,0.4-2.1l1.9,2.1h1.4c0.3,0,0.5,0.1,0.7,0.1
			c0.2-0.4,0.1-0.8-0.2-1.1l-2.9-3.1c0.2-0.3,0.3-0.4,0.3-0.5c0.8-0.8,0.8-2.1,0-2.9C-429.9,264.7-431.2,264.7-432.1,265.5z"/>
		<path d="M-428.2,278.1h-12.7c-0.7,0-1.2-0.3-1.7-0.7h-0.8c-0.6,0-1,0.4-1,0.9c0,0.5,0.5,0.9,1,0.9h17.3L-428.2,278.1z"/>
	</g>
</g>
</svg>
