<?xml version="1.0" encoding="utf-8"?>
<!-- Generator: Adobe Illustrator 18.1.1, SVG Export Plug-In . SVG Version: 6.00 Build 0)  -->
<svg version="1.1"
	 id="svg2816" xmlns:cc="http://creativecommons.org/ns#" xmlns:svg="http://www.w3.org/2000/svg" xmlns:sodipodi="http://sodipodi.sourceforge.net/DTD/sodipodi-0.dtd" xmlns:inkscape="http://www.inkscape.org/namespaces/inkscape" xmlns:rdf="http://www.w3.org/1999/02/22-rdf-syntax-ns#" xmlns:dc="http://purl.org/dc/elements/1.1/" inkscape:version="0.47 r22583" sodipodi:docname="pin.svg"
	 xmlns="http://www.w3.org/2000/svg" xmlns:xlink="http://www.w3.org/1999/xlink" x="0px" y="0px" viewBox="251 0 419 569"
	 enable-background="new 251 0 419 569" xml:space="preserve">
<path id="path4127" sodipodi:nodetypes="ccccccccccsc" fill="#330000" fill-opacity="0.9882" d="M459.6,565
	c-1.7-3.5-27.9-28.7-46.2-52.3C302.8,365.6,178.3,228.8,322.9,62.5C387.3,0.6,465.7-2.8,546.7,25.9
	c228.2,132.4,63.6,347.5-45.3,489.5L459.6,565z M528.4,339.4C680.8,230.6,563.2,20.7,396,90.3c-48.8,26.1-73.2,71.4-74,124.5
	c-2.6,52.3,25.3,95.8,68.8,121.9c31.4,16.5,45.3,20,80.1,18.3C494.4,354.2,508.4,349.9,528.4,339.4z"/>
<path id="path4129" sodipodi:ry="41.754009" sodipodi:type="arc" sodipodi:start="1.7808687" sodipodi:end="8.0386371" sodipodi:cy="49.05526" sodipodi:rx="51.222816" sodipodi:cx="52.363636" sodipodi:open="true" fill="#330000" fill-opacity="0.9882" d="
	M416.1,391.7C308.1,369,239.3,265.4,261.9,160C285.4,54.6,391.7-13.3,499.7,9.4C607.7,32,676.5,135.6,653.8,241
	c-22.6,103.6-126.3,170.7-232.5,151.5"/>
<path id="path4131" sodipodi:ry="20.991087" sodipodi:type="arc" sodipodi:start="1.7808687" sodipodi:end="8.0386371" sodipodi:cy="48.59893" sodipodi:rx="26.010695" sodipodi:cx="49.05526" sodipodi:open="true" opacity="0.3402" fill-opacity="0" enable-background="new    " d="
	M448.3,309c-61.8-10.5-101.9-60.1-88.8-110.6c13.1-50.5,74.9-82.7,137.6-72.3c62.7,10.5,101.9,60.1,88.8,110.6
	c-13.1,49.6-72.3,81-134.1,72.3"/>
<path id="path4149" sodipodi:ry="33.540108" sodipodi:type="arc" sodipodi:start="1.7808687" sodipodi:end="8.0386371" sodipodi:cy="52.021389" sodipodi:rx="34.452763" sodipodi:cx="52.705883" sodipodi:open="true" fill="#E5E5E5" d="
	M429.1,363.8c-80.1-17.4-131.5-99.3-114.1-182c16.5-82.7,95.8-135.9,176.8-117.6c80.1,17.4,131.5,99.3,114.1,182
	c-16.5,81-93.2,134.1-172.4,118.4"/>
<path id="path4184" sodipodi:ry="36.623341" sodipodi:type="arc" sodipodi:start="1.7808687" sodipodi:end="8.0386371" sodipodi:cy="68.789574" sodipodi:rx="34.203297" sodipodi:cx="64.211853" sodipodi:open="true" fill="#FFFFFF" d="
	M437.8,310.7c-53.1-11.3-87.1-65.3-75.8-119.3c11.3-54,63.6-88.8,116.7-77.5s87.1,65.3,75.8,119.3c-11.3,53.1-61.8,88-114.1,77.5"/>
<g>
	<g>
		<path d="M537.1,198.3c15.7,0,27.9,12.2,27.9,27.9c0,15.7-12.2,27.9-27.9,27.9c-15.7,0-27.9-12.2-27.9-27.9
			C509.2,211.4,521.4,198.3,537.1,198.3z"/>
		<path d="M490.1,101.7c15.7,0,27.9,12.2,27.9,27.9s-12.2,27.9-27.9,27.9c-15.7,0-27.9-12.2-27.9-27.9
			C461.3,114.7,474.4,101.7,490.1,101.7z"/>
		<path d="M571.1,256.7l-27.9,9.6c-4.4,1.7-11.3,0.9-15.7-1.7l-21.8-12.2c0.9-2.6,1.7-4.4,1.7-7c0-9.6-7.8-18.3-18.3-18.3h-71.4
			c-2.6,0-48.8,0-48.8,0h-0.9c-9.6,0-18.3,7.8-18.3,18.3c0,9.6,7.8,18.3,18.3,18.3h111.5l36.6,20.9c6.1,3.5,13.9,5.2,21.8,5.2
			c4.4,0,8.7-0.9,12.2-1.7l27.9-9.6c6.1-1.7,9.6-8.7,7-13.9C582.4,257.6,576.3,255,571.1,256.7z"/>
		<path d="M443.1,157.4c-2.6,2.6-22.6,23.5-25.3,66.2h35.7c0.9-7,1.7-13.1,3.5-18.3l16.5,18.3h12.2c2.6,0,4.4,0.9,6.1,0.9
			c1.7-3.5,0.9-7-1.7-9.6l-25.3-27c1.7-2.6,2.6-3.5,2.6-4.4c7-7,7-18.3,0-25.3C462.2,150.4,450.9,150.4,443.1,157.4z"/>
		<path d="M477,267.1H366.4c-6.1,0-10.5-2.6-14.8-6.1h-7c-5.2,0-8.7,3.5-8.7,7.8s4.4,7.8,8.7,7.8h150.7L477,267.1z"/>
	</g>
</g>
</svg>
