<?xml version="1.0" encoding="utf-8"?>
<!-- Generator: Adobe Illustrator 18.1.1, SVG Export Plug-In . SVG Version: 6.00 Build 0)  -->
<svg version="1.1"
	 id="svg2816" xmlns:cc="http://creativecommons.org/ns#" xmlns:svg="http://www.w3.org/2000/svg" xmlns:sodipodi="http://sodipodi.sourceforge.net/DTD/sodipodi-0.dtd" xmlns:inkscape="http://www.inkscape.org/namespaces/inkscape" xmlns:rdf="http://www.w3.org/1999/02/22-rdf-syntax-ns#" xmlns:dc="http://purl.org/dc/elements/1.1/" inkscape:version="0.47 r22583" sodipodi:docname="pin.svg"
	 xmlns="http://www.w3.org/2000/svg" xmlns:xlink="http://www.w3.org/1999/xlink" x="0px" y="0px" width="39px" height="54px" viewBox="435 254 235 315"
	 enable-background="new 435 254 235 315" xml:space="preserve">
<path id="path4127" sodipodi:nodetypes="ccccccccccsc" fill="#440000" fill-opacity="0.9882" d="M553.2,565
	c-1-1.9-15.2-15.7-25.2-28.5c-60.4-80.4-128.5-155.1-49.5-246c35.2-33.8,78-35.7,122.3-20c124.7,72.3,34.7,189.8-24.7,267.4
	L553.2,565z M590.7,441.8c83.3-59.5,19-174.1-72.3-136.1c-26.6,14.3-40,39-40.4,68c-1.4,28.5,13.8,52.3,37.6,66.6
	c17.1,9,24.7,10.9,43.8,10C572.2,449.9,579.8,447.5,590.7,441.8z"/>
<path id="path4129" sodipodi:ry="41.754009" sodipodi:type="arc" sodipodi:start="1.7808687" sodipodi:end="8.0386371" sodipodi:cy="49.05526" sodipodi:rx="51.222816" sodipodi:cx="52.363636" sodipodi:open="true" fill="#440000" fill-opacity="0.9882" d="
	M529.4,470.3c-59-12.4-96.6-69-84.2-126.6C458,286.2,516,249.1,575,261.5c59,12.4,96.6,69,84.2,126.6c-12.4,56.6-69,93.3-127,82.8"
	/>
<path id="path4131" sodipodi:ry="20.991087" sodipodi:type="arc" sodipodi:start="1.7808687" sodipodi:end="8.0386371" sodipodi:cy="48.59893" sodipodi:rx="26.010695" sodipodi:cx="49.05526" sodipodi:open="true" opacity="0.3402" fill-opacity="0" enable-background="new    " d="
	M547,425.1c-33.8-5.7-55.7-32.8-48.5-60.4c7.1-27.6,40.9-45.2,75.2-39.5c34.3,5.7,55.7,32.8,48.5,60.4
	c-7.1,27.1-39.5,44.2-73.3,39.5"/>
<path id="path4149" sodipodi:ry="33.540108" sodipodi:type="arc" sodipodi:start="1.7808687" sodipodi:end="8.0386371" sodipodi:cy="52.021389" sodipodi:rx="34.452763" sodipodi:cx="52.705883" sodipodi:open="true" fill="#E5E5E5" d="
	M536.5,455.1c-43.8-9.5-71.8-54.2-62.3-99.4c9-45.2,52.3-74.2,96.6-64.2c43.8,9.5,71.8,54.2,62.3,99.4c-9,44.2-50.9,73.3-94.2,64.7"
	/>
<path id="path4184" sodipodi:ry="36.623341" sodipodi:type="arc" sodipodi:start="1.7808687" sodipodi:end="8.0386371" sodipodi:cy="68.789574" sodipodi:rx="34.203297" sodipodi:cx="64.211853" sodipodi:open="true" fill="#FFFFFF" d="
	M541.3,426.1c-29-6.2-47.6-35.7-41.4-65.2c6.2-29.5,34.7-48.5,63.8-42.3c29,6.2,47.6,35.7,41.4,65.2c-6.2,29-33.8,48.1-62.3,42.3"/>
<g>
	<g>
		<path d="M595.5,364.7c8.6,0,15.2,6.7,15.2,15.2c0,8.6-6.7,15.2-15.2,15.2c-8.6,0-15.2-6.7-15.2-15.2
			C580.3,371.8,586.9,364.7,595.5,364.7z"/>
		<path d="M569.8,311.9c8.6,0,15.2,6.7,15.2,15.2c0,8.6-6.7,15.2-15.2,15.2c-8.6,0-15.2-6.7-15.2-15.2
			C554.1,319,561.2,311.9,569.8,311.9z"/>
		<path d="M614,396.6l-15.2,5.2c-2.4,1-6.2,0.5-8.6-1l-11.9-6.7c0.5-1.4,1-2.4,1-3.8c0-5.2-4.3-10-10-10h-39c-1.4,0-26.6,0-26.6,0
			h-0.5c-5.2,0-10,4.3-10,10c0,5.2,4.3,10,10,10h60.9l20,11.4c3.3,1.9,7.6,2.9,11.9,2.9c2.4,0,4.8-0.5,6.7-1l15.2-5.2
			c3.3-1,5.2-4.8,3.8-7.6C620.2,397.1,616.9,395.6,614,396.6z"/>
		<path d="M544.1,342.3c-1.4,1.4-12.4,12.8-13.8,36.2h19.5c0.5-3.8,1-7.1,1.9-10l9,10h6.7c1.4,0,2.4,0.5,3.3,0.5
			c1-1.9,0.5-3.8-1-5.2L556,359c1-1.4,1.4-1.9,1.4-2.4c3.8-3.8,3.8-10,0-13.8C554.6,338.5,548.4,338.5,544.1,342.3z"/>
		<path d="M562.7,402.3h-60.4c-3.3,0-5.7-1.4-8.1-3.3h-3.8c-2.9,0-4.8,1.9-4.8,4.3s2.4,4.3,4.8,4.3h82.3L562.7,402.3z"/>
	</g>
</g>
</svg>
